# Blender 5.0.1
# www.blender.org
mtllib cermin_3.mtl
o cermin_3
v -2.000000 -0.000001 1.400000
v 2.000000 -0.000001 1.400000
v -1.900000 -0.000001 1.100000
v 1.900000 -0.000001 1.100000
v -2.000000 0.199999 1.400000
v -2.000000 0.199999 1.300000
v 2.000000 0.199999 1.300000
v 2.000000 0.199999 1.400000
v -1.900000 0.199999 1.100000
v 1.900000 0.199999 1.100000
v -1.900000 0.199999 1.000000
v -2.000000 0.199999 1.000000
v 1.900000 0.199999 1.000000
v 2.000000 0.199999 1.000000
v -2.000000 0.399999 1.300000
v -2.000000 0.399999 1.200000
v 2.000000 0.399999 1.200000
v 2.000000 0.399999 1.300000
v -2.000000 0.399999 1.000000
v 2.000000 0.399999 1.000000
v -2.000000 0.399999 0.900000
v 2.000000 0.399999 0.900000
v -2.000000 0.599999 1.200000
v -2.000000 0.599999 1.100000
v 2.000000 0.599999 1.100000
v 2.000000 0.599999 1.200000
v -2.000000 0.599999 0.900000
v 2.000000 0.599999 0.900000
v -2.000000 0.599999 0.800000
v 2.000000 0.599999 0.800000
v -2.000000 0.799999 1.100000
v -2.000000 0.799999 1.000000
v 2.000000 0.799999 1.000000
v 2.000000 0.799999 1.100000
v -2.000000 0.799999 0.800000
v 2.000000 0.799999 0.800000
v -2.000000 0.799999 0.700000
v 2.000000 0.799999 0.700000
v -2.000000 1.000000 1.000000
v -2.000000 1.000000 0.900000
v 2.000000 1.000000 0.900000
v 2.000000 1.000000 1.000000
v -2.000000 1.000000 0.700000
v 2.000000 1.000000 0.700000
v -2.000000 1.000000 0.600000
v 2.000000 1.000000 0.600000
v -2.000000 1.299999 0.900000
v -2.000000 1.300000 0.800000
v 2.000000 1.300000 0.800000
v 2.000000 1.299999 0.900000
v -2.000000 1.300000 0.600000
v 2.000000 1.300000 0.600000
v -2.000000 1.299999 0.500000
v 2.000000 1.299999 0.500000
v -2.000000 1.500000 0.800000
v -2.000000 1.500000 0.700000
v 2.000000 1.500000 0.700000
v 2.000000 1.500000 0.800000
v -2.000000 1.500000 0.500000
v 2.000000 1.500000 0.500000
v -2.000000 1.500000 0.400000
v 2.000000 1.500000 0.400000
v -2.000000 1.700000 0.700000
v -2.000000 1.700000 0.600000
v 2.000000 1.700000 0.600000
v 2.000000 1.700000 0.700000
v -2.000000 1.700000 0.400000
v 2.000000 1.700000 0.400000
v -2.000000 1.700000 0.300000
v 2.000000 1.700000 0.300000
v -2.000000 1.900000 0.600000
v -2.000000 1.900000 0.500000
v 2.000000 1.900000 0.500000
v 2.000000 1.900000 0.600000
v -2.000000 1.900000 0.300000
v 2.000000 1.900000 0.300000
v -2.000000 1.900000 0.200000
v 2.000000 1.900000 0.200000
v -2.000000 2.100000 0.500000
v -2.000000 2.100000 0.400000
v 2.000000 2.100000 0.400000
v 2.000000 2.100000 0.500000
v -2.000000 2.100000 0.200000
v 2.000000 2.100000 0.200000
v -2.000000 2.100000 0.100000
v 2.000000 2.100000 0.100000
v -2.000000 2.300000 0.400000
v -2.000000 2.300000 0.300000
v 2.000000 2.300000 0.300000
v 2.000000 2.300000 0.400000
v -2.000000 2.300000 0.100000
v 2.000000 2.300000 0.100000
v -2.000000 2.300000 0.000000
v 2.000000 2.300000 0.000000
v -2.000000 2.600000 0.300000
v -2.000000 2.600000 0.200000
v 2.000000 2.600000 0.200000
v 2.000000 2.600000 0.300000
v -2.000000 2.600000 0.000000
v 2.000000 2.600000 0.000000
v -2.000000 2.600000 -0.100000
v 2.000000 2.600000 -0.100000
v -2.000000 2.800000 0.200000
v -2.000000 2.800000 0.100000
v 2.000000 2.800000 0.100000
v 2.000000 2.800000 0.200000
v -2.000000 2.800000 -0.100000
v 2.000000 2.800000 -0.100000
v -2.000000 2.800000 -0.200000
v 2.000000 2.800000 -0.200000
v -2.000000 3.000000 0.100000
v -2.000000 3.000000 0.000000
v 2.000000 3.000000 0.000000
v 2.000000 3.000000 0.100000
v -2.000000 3.000000 -0.200000
v 2.000000 3.000000 -0.200000
v -2.000000 3.000000 -0.300000
v 2.000000 3.000000 -0.300000
v -2.000000 3.200000 0.000000
v -2.000000 3.200000 -0.100000
v 2.000000 3.200000 -0.100000
v 2.000000 3.200000 0.000000
v -2.000000 3.200000 -0.300000
v 2.000000 3.200000 -0.300000
v -2.000000 3.200000 -0.400000
v 2.000000 3.200000 -0.400000
v -2.000000 3.400000 -0.100000
v -2.000000 3.400000 -0.200000
v 2.000000 3.400000 -0.200000
v 2.000000 3.400000 -0.100000
v -2.000000 3.400000 -0.400000
v 2.000000 3.400000 -0.400000
v -2.000000 3.400000 -0.500000
v 2.000000 3.400000 -0.500000
v -2.000000 3.700000 -0.200000
v -2.000000 3.700000 -0.300000
v 2.000000 3.700000 -0.300000
v 2.000000 3.700000 -0.200000
v -2.000000 3.700000 -0.500000
v 2.000000 3.700000 -0.500000
v -2.000000 3.700000 -0.600000
v 2.000000 3.700000 -0.600000
v -2.000000 3.900000 -0.300000
v -2.000000 3.900000 -0.400000
v 2.000000 3.900000 -0.400000
v 2.000000 3.900000 -0.300000
v -2.000000 3.900000 -0.600000
v 2.000000 3.900000 -0.600000
v -2.000000 3.900000 -0.700000
v 2.000000 3.900000 -0.700000
v -2.000000 4.100000 -0.400000
v -2.000000 4.100000 -0.500000
v 2.000000 4.100000 -0.500000
v 2.000000 4.100000 -0.400000
v -2.000000 4.100000 -0.700000
v 2.000000 4.100000 -0.700000
v -2.000000 4.100000 -0.800000
v 2.000000 4.100000 -0.800000
v -2.000000 4.300000 -0.500000
v -2.000000 4.300000 -0.600000
v 2.000000 4.300000 -0.600000
v 2.000000 4.300000 -0.500000
v -2.000000 4.300000 -0.800000
v 2.000000 4.300000 -0.800000
v -2.000000 4.300000 -0.900000
v 2.000000 4.300000 -0.900000
v -2.000000 4.500000 -0.600000
v -2.000000 4.500000 -0.700000
v 2.000000 4.500000 -0.700000
v 2.000000 4.500000 -0.600000
v -2.000000 4.500000 -0.900000
v 2.000000 4.500000 -0.900000
v -2.000000 4.500000 -1.000000
v 2.000000 4.500000 -1.000000
v -2.000000 4.700001 -0.700000
v -2.000000 4.700001 -0.800000
v 2.000000 4.700001 -0.800000
v 2.000000 4.700001 -0.700000
v -2.000000 4.700001 -1.000000
v 2.000000 4.700001 -1.000000
v -2.000000 4.700001 -1.100000
v 2.000000 4.700001 -1.100000
v -2.000000 5.000000 -0.800000
v -2.000000 5.000000 -0.900000
v 2.000000 5.000000 -0.900000
v 2.000000 5.000000 -0.800000
v -2.000000 5.000000 -1.100000
v 2.000000 5.000000 -1.100000
v -2.000000 5.000000 -1.200000
v 2.000000 5.000000 -1.200000
v -2.000000 5.200001 -0.900000
v -2.000000 5.200001 -1.000000
v 2.000000 5.200001 -1.000000
v 2.000000 5.200001 -0.900000
v -2.000000 5.200001 -1.200000
v 2.000000 5.200001 -1.200000
v -2.000000 5.200001 -1.300000
v 2.000000 5.200001 -1.300000
v -2.000000 5.400001 -1.000000
v -2.000000 5.400001 -1.100000
v 2.000000 5.400001 -1.100000
v 2.000000 5.400001 -1.000000
v -2.000000 5.400001 -1.300000
v 2.000000 5.400001 -1.300000
v -2.000000 5.400001 -1.400000
v -1.900000 5.400001 -1.400000
v 1.900000 5.400001 -1.400000
v 2.000000 5.400001 -1.400000
v -2.000000 5.600000 -1.100000
v -2.000000 5.600000 -1.200000
v 2.000000 5.600000 -1.200000
v 2.000000 5.600000 -1.100000
v -1.900000 5.600000 -1.400000
v 1.900000 5.600000 -1.400000
v -1.900000 5.600000 -1.500000
v 1.900000 5.600000 -1.500000
v -2.000000 5.800000 -1.200000
v -2.000000 5.800001 -1.300000
v 2.000000 5.800001 -1.300000
v 2.000000 5.800000 -1.200000
v -1.900000 5.800000 -1.500000
v 1.900000 5.800000 -1.500000
v -1.900000 5.800001 -1.600000
v 1.900000 5.800001 -1.600000
v -2.000000 6.000001 -1.300000
v 2.000000 6.000001 -1.300000
v -2.000000 6.000001 -1.600000
v 2.000000 6.000001 -1.600000
v -1.900000 -0.000001 -1.800000
v 1.900000 -0.000001 -1.800000
v -2.000000 -0.000001 -2.000000
v 2.000000 -0.000001 -2.000000
v -1.900000 0.199999 -1.800000
v -2.000000 0.199999 -1.800000
v 2.000000 0.199999 -1.800000
v 1.900000 0.199999 -1.800000
v -1.900000 0.199999 -1.900000
v 1.900000 0.199999 -1.900000
v -1.900000 0.299999 -1.900000
v 1.900000 0.299999 -1.900000
v -1.900000 0.299999 -2.000000
v 1.900000 0.299999 -2.000000
v -1.900000 0.799999 -1.900000
v -1.900000 0.799999 -1.800000
v -2.000000 0.799999 -1.900000
v -2.000000 0.799999 -1.800000
v 2.000000 0.799999 -1.900000
v 2.000000 0.799999 -1.800000
v 1.900000 0.799999 -1.900000
v 1.900000 0.799999 -1.800000
v -1.900000 0.799999 -2.000000
v -2.000000 0.799999 -2.000000
v 2.000000 0.799999 -2.000000
v 1.900000 0.799999 -2.000000
v -1.900000 0.799999 -1.700001
v -2.000000 0.799999 -1.700001
v 2.000000 0.799999 -1.700001
v 1.900000 0.799999 -1.700001
v -1.900000 2.200000 -1.800000
v -1.900000 2.200000 -1.700000
v -2.000000 2.200000 -1.800000
v -2.000000 2.200000 -1.700000
v 2.000000 2.200000 -1.800000
v 2.000000 2.200000 -1.700000
v 1.900000 2.200000 -1.800000
v 1.900000 2.200000 -1.700000
v -1.900000 2.200000 -1.900000
v -2.000000 2.200000 -1.900000
v 2.000000 2.200000 -1.900000
v 1.900000 2.200000 -1.900000
v -1.900000 2.200000 -1.600000
v -2.000000 2.200000 -1.600000
v 2.000000 2.200000 -1.600000
v 1.900000 2.200000 -1.600000
v -1.900000 3.600000 -1.700000
v -1.900000 3.600000 -1.600000
v -2.000000 3.600000 -1.700000
v -2.000000 3.600000 -1.600000
v 2.000000 3.600000 -1.700000
v 2.000000 3.600000 -1.600000
v 1.900000 3.600000 -1.700000
v 1.900000 3.600000 -1.600000
v -1.900000 3.600000 -1.800001
v -2.000000 3.600000 -1.800001
v 2.000000 3.600000 -1.800001
v 1.900000 3.600000 -1.800001
v -1.900000 3.600000 -1.500000
v -2.000000 3.600000 -1.500000
v 2.000000 3.600000 -1.500000
v 1.900000 3.600000 -1.500000
v -1.900000 5.000000 -1.600000
v -1.900000 5.000000 -1.500000
v -2.000000 5.000000 -1.600000
v -2.000000 5.000000 -1.500000
v 2.000000 5.000000 -1.600000
v 2.000000 5.000000 -1.500000
v 1.900000 5.000000 -1.600000
v 1.900000 5.000000 -1.500000
v -1.900000 5.000000 -1.700001
v -2.000000 5.000000 -1.700001
v 2.000000 5.000000 -1.700001
v 1.900000 5.000000 -1.700001
v -1.900000 5.000000 -1.400000
v -2.000000 5.000000 -1.400000
v 2.000000 5.000000 -1.400000
v 1.900000 5.000000 -1.400000
vn -0.0000 -0.0000 -1.0000
vn -0.0000 1.0000 -0.0000
vn -0.0000 -0.0000 1.0000
vn -0.0000 -1.0000 -0.0000
vn 1.0000 -0.0000 -0.0000
vn -1.0000 -0.0000 -0.0000
vt 0.650406 0.097561
vt 0.975610 0.081301
vt 0.650406 0.081301
vt 0.959350 0.926829
vt 0.650406 0.918699
vt 0.959350 0.918699
vt 0.975610 0.243902
vt 0.650406 0.227642
vt 0.975610 0.227642
vt 0.975610 0.113821
vt 0.650406 0.113821
vt 0.650406 0.853659
vt 0.325203 0.869919
vt 0.325203 0.853659
vt 0.325203 0.764228
vt 0.000000 0.788618
vt 0.000000 0.764228
vt 0.975610 0.780488
vt 0.650406 0.772358
vt 0.650406 0.780488
vt 0.000000 0.813008
vt 0.325203 0.788618
vt 0.991870 0.569106
vt 0.983740 0.455285
vt 0.991870 0.455285
vt 0.975610 0.032520
vt 0.650406 0.048780
vt 0.650406 0.032520
vt 0.959350 0.951219
vt 0.650406 0.959350
vt 0.650406 0.951219
vt 0.650406 0.065041
vt 0.975610 0.617886
vt 0.650406 0.609756
vt 0.975610 0.609756
vt 0.650406 0.260163
vt 0.975610 0.276423
vt 0.650406 0.276423
vt 0.650406 0.211382
vt 0.975610 0.195122
vt 0.650406 0.195122
vt 0.975610 0.585366
vt 0.650406 0.577236
vt 0.650406 0.585366
vt 0.991870 0.227642
vt 0.983740 0.113821
vt 0.991870 0.113821
vt 0.975610 0.634146
vt 0.650406 0.642276
vt 0.650406 0.634146
vt 0.642276 0.821138
vt 0.333333 0.821138
vt 0.325203 0.837398
vt 0.975610 0.731707
vt 0.650406 0.739837
vt 0.650406 0.731707
vt 0.650406 0.341463
vt 0.975610 0.357724
vt 0.650406 0.357724
vt 0.325203 0.756098
vt 0.325203 0.780488
vt 0.000000 0.000000
vt 0.276423 0.000000
vt 0.260163 0.016260
vt 0.650406 0.178862
vt 0.975610 0.699187
vt 0.650406 0.691057
vt 0.650406 0.699187
vt 0.593496 0.008130
vt 0.577236 0.162602
vt 0.560976 0.439024
vt 0.325203 0.902439
vt 0.325203 0.918699
vt 0.325203 0.926829
vt 0.000000 0.943089
vt 0.000000 0.926829
vt 0.975610 0.642276
vt 0.650406 0.650406
vt 0.975610 0.650406
vt 0.178862 0.349593
vt 0.203252 0.406504
vt 0.219512 0.471545
vt 0.975610 0.552846
vt 0.650406 0.544715
vt 0.650406 0.552846
vt 0.910569 0.471545
vt 0.902439 0.479675
vt 0.902439 0.471545
vt 0.983740 0.910569
vt 0.975610 0.796748
vt 0.983740 0.796748
vt 0.650406 0.934959
vt 0.325203 0.934959
vt 0.910569 0.455285
vt 0.918699 0.447154
vt 0.910569 0.447154
vt 0.650406 0.658537
vt 0.325203 0.634146
vt 0.325203 0.658537
vt 0.910569 0.479675
vt 0.918699 0.471545
vt 0.975610 0.601626
vt 0.650406 0.601626
vt 0.650406 0.593496
vt 0.975610 0.569106
vt 0.650406 0.560976
vt 0.650406 0.569106
vt 0.325203 0.707317
vt 0.650406 0.682927
vt 0.325203 0.682927
vt 0.650406 0.869919
vt 0.325203 0.886179
vt 0.983740 0.682927
vt 0.983740 0.569106
vt 0.975610 0.512195
vt 0.650406 0.504065
vt 0.650406 0.512195
vt 0.650406 0.707317
vt 0.650406 0.373984
vt 0.959350 0.390244
vt 0.959350 0.373984
vt 0.975610 0.829268
vt 0.650406 0.821138
vt 0.650406 0.829268
vt 0.325203 0.959350
vt 0.325203 0.943089
vt 0.552846 0.455285
vt 0.878049 0.471545
vt 0.552846 0.471545
vt 0.650406 0.406504
vt 0.959350 0.422764
vt 0.650406 0.422764
vt 0.918699 0.455285
vt 0.910569 0.463415
vt 0.886179 0.504065
vt 0.658537 0.504065
vt 0.650406 0.487805
vt 0.886179 0.495935
vt 0.894309 0.487805
vt 0.886179 0.487805
vt 0.975610 0.455285
vt 0.975610 0.821138
vt 0.650406 0.813008
vt 0.959350 0.967480
vt 0.650406 0.967480
vt 0.975610 0.886179
vt 0.650406 0.894309
vt 0.650406 0.886179
vt 0.000000 0.878049
vt 0.325203 0.861789
vt 0.000000 0.861789
vt 0.967480 0.487805
vt 0.975610 0.373984
vt 0.967480 0.373984
vt 0.325203 0.731707
vt 0.975610 0.707317
vt 0.975610 0.788618
vt 0.975610 0.837398
vt 0.650406 0.845528
vt 0.650406 0.837398
vt 0.975610 0.869919
vt 0.650406 0.861789
vt 0.975610 0.861789
vt 0.552846 0.479675
vt 0.463415 0.365854
vt 0.447154 0.365854
vt 0.455285 0.382114
vt 0.975610 0.715447
vt 0.650406 0.715447
vt 0.975610 0.308943
vt 0.650406 0.325203
vt 0.975610 0.325203
vt 0.975610 0.341463
vt 0.910569 0.495935
vt 0.918699 0.487805
vt 0.910569 0.487805
vt 0.650406 0.390244
vt 0.991870 0.000000
vt 0.983740 0.000000
vt 0.902439 0.504065
vt 0.902439 0.495935
vt 0.918699 0.463415
vt 0.975610 0.772358
vt 0.650406 0.764228
vt 0.650406 0.016260
vt 0.000000 0.910569
vt 0.325203 0.894309
vt 0.000000 0.894309
vt 0.926829 0.439024
vt 0.918699 0.439024
vt 0.317073 0.747967
vt 0.008130 0.747967
vt 0.902439 0.487805
vt 0.894309 0.495935
vt 0.308943 0.016260
vt 0.536585 0.016260
vt 0.552846 0.000000
vt 0.325203 0.804878
vt 0.325203 0.821138
vt 0.650406 0.455285
vt 0.658537 0.455285
vt 0.886179 0.439024
vt 0.975610 0.682927
vt 0.325203 0.910569
vt 0.975610 0.747967
vt 0.975610 0.739837
vt 0.975610 0.804878
vt 0.650406 0.796748
vt 0.650406 0.804878
vt 0.975610 0.853659
vt 0.975610 0.845528
vt 0.650406 0.878049
vt 0.650406 0.626016
vt 0.650406 0.617886
vt 0.975610 0.520325
vt 0.650406 0.520325
vt 0.975610 0.674797
vt 0.650406 0.162602
vt 0.975610 0.146341
vt 0.650406 0.146341
vt 0.325203 0.975610
vt 0.325203 0.967480
vt 0.325203 0.845528
vt 0.000000 0.845528
vt 0.650406 0.943089
vt 0.325203 0.569106
vt 0.333333 0.552846
vt 0.650406 0.130081
vt 0.975610 0.536585
vt 0.650406 0.536585
vt 0.975610 0.756098
vt 0.650406 0.747967
vt 0.650406 0.756098
vt 0.918699 0.479675
vt 0.894309 0.504065
vt 0.983740 0.341463
vt 0.991870 0.341463
vt 0.975610 0.902439
vt 0.975610 0.894309
vt 0.000000 0.975610
vt 0.000000 0.959350
vt 0.878049 0.455285
vt 0.886179 0.455285
vt 0.650406 0.292683
vt 0.910569 0.439024
vt 0.325203 0.951219
vt 0.650406 0.243902
vt 0.975610 0.260163
vt 0.959350 0.943089
vt 0.325203 0.878049
vt 0.983740 0.227642
vt 0.975610 0.910569
vt 0.650406 0.910569
vt 0.959350 0.439024
vt 0.650406 0.439024
vt 0.975610 0.813008
vt 0.975610 0.178862
vt 0.650406 0.902439
vt 0.894309 0.439024
vt 0.902439 0.439024
vt 0.975610 0.292683
vt 0.959350 0.975610
vt 0.325203 0.829268
vt 0.000000 0.829268
vt 0.642276 0.593496
vt 0.650406 0.528455
vt 0.975610 0.764228
vt 0.650406 0.000000
vt 0.975610 0.016260
vt 0.975610 0.000000
vt 0.008130 0.512195
vt 0.325203 0.487805
vt 0.000000 0.487805
vt 0.975610 0.065041
vt 0.910569 0.504065
vt 0.918699 0.495935
vt 0.658537 0.536585
vt 0.975610 0.528455
vt 0.650406 0.723577
vt 0.609756 0.390244
vt 0.642276 0.008130
vt 0.617886 0.390244
vt 0.975610 0.658537
vt 0.650406 0.666667
vt 0.650406 0.788618
vt 0.650406 0.674797
vt 0.975610 0.878049
vt 0.975610 0.097561
vt 0.650406 0.926829
vt 0.325203 0.813008
vt 0.975610 0.048780
vt 0.959350 0.959350
vt 0.975610 0.211382
vt 0.975610 0.577236
vt 0.032520 0.032520
vt 0.040650 0.032520
vt 0.040650 0.048780
vt 0.032520 0.065041
vt 0.024390 0.065041
vt 0.024390 0.048780
vt 0.016260 0.048780
vt 0.016260 0.032520
vt 0.008130 0.032520
vt 0.008130 0.016260
vt 0.032520 0.016260
vt 0.000000 0.016260
vt 0.268293 0.065041
vt 0.260163 0.065041
vt 0.276423 0.065041
vt 0.975610 0.691057
vt 0.593496 0.048780
vt 0.601626 0.048780
vt 0.601626 0.008130
vt 0.593496 0.000000
vt 0.585366 0.000000
vt 0.585366 0.162602
vt 0.593496 0.162602
vt 0.577236 0.276423
vt 0.585366 0.276423
vt 0.569106 0.390244
vt 0.577236 0.390244
vt 0.560976 0.455285
vt 0.569106 0.455285
vt 0.552846 0.422764
vt 0.552846 0.439024
vt 0.552846 0.390244
vt 0.569106 0.276423
vt 0.560976 0.276423
vt 0.560976 0.390244
vt 0.585366 0.048780
vt 0.577236 0.048780
vt 0.569106 0.162602
vt 0.089431 0.154472
vt 0.097561 0.154472
vt 0.097561 0.170732
vt 0.105691 0.170732
vt 0.105691 0.186992
vt 0.113821 0.186992
vt 0.113821 0.211382
vt 0.121951 0.211382
vt 0.121951 0.227642
vt 0.130081 0.227642
vt 0.130081 0.243902
vt 0.138211 0.243902
vt 0.138211 0.260163
vt 0.146341 0.260163
vt 0.146341 0.276423
vt 0.154472 0.276423
vt 0.154472 0.300813
vt 0.162602 0.300813
vt 0.162602 0.317073
vt 0.170732 0.317073
vt 0.170732 0.333333
vt 0.178862 0.333333
vt 0.186992 0.349593
vt 0.186992 0.365854
vt 0.195122 0.365854
vt 0.195122 0.382114
vt 0.203252 0.382114
vt 0.211382 0.406504
vt 0.211382 0.422764
vt 0.219512 0.422764
vt 0.219512 0.439024
vt 0.227642 0.439024
vt 0.227642 0.406504
vt 0.235772 0.406504
vt 0.235772 0.292683
vt 0.243902 0.292683
vt 0.243902 0.178862
vt 0.252033 0.178862
vt 0.252033 0.065041
vt 0.268293 0.178862
vt 0.260163 0.178862
vt 0.260163 0.292683
vt 0.252033 0.292683
vt 0.252033 0.406504
vt 0.243902 0.406504
vt 0.243902 0.487805
vt 0.219512 0.487805
vt 0.211382 0.471545
vt 0.211382 0.455285
vt 0.203252 0.455285
vt 0.203252 0.439024
vt 0.195122 0.439024
vt 0.195122 0.422764
vt 0.186992 0.422764
vt 0.186992 0.406504
vt 0.178862 0.406504
vt 0.178862 0.382114
vt 0.170732 0.382114
vt 0.170732 0.365854
vt 0.162602 0.365854
vt 0.162602 0.349593
vt 0.154472 0.349593
vt 0.154472 0.333333
vt 0.146341 0.333333
vt 0.146341 0.317073
vt 0.138211 0.317073
vt 0.138211 0.300813
vt 0.130081 0.300813
vt 0.130081 0.276423
vt 0.121951 0.276423
vt 0.121951 0.260163
vt 0.113821 0.260163
vt 0.113821 0.243902
vt 0.105691 0.243902
vt 0.105691 0.227642
vt 0.097561 0.227642
vt 0.097561 0.211382
vt 0.089431 0.211382
vt 0.089431 0.186992
vt 0.081301 0.186992
vt 0.081301 0.170732
vt 0.073171 0.170732
vt 0.073171 0.154472
vt 0.065041 0.154472
vt 0.065041 0.138211
vt 0.056911 0.138211
vt 0.056911 0.121951
vt 0.048780 0.121951
vt 0.048780 0.105691
vt 0.040650 0.105691
vt 0.040650 0.081301
vt 0.032520 0.081301
vt 0.048780 0.048780
vt 0.048780 0.065041
vt 0.056911 0.065041
vt 0.056911 0.081301
vt 0.065041 0.081301
vt 0.065041 0.105691
vt 0.073171 0.105691
vt 0.073171 0.121951
vt 0.081301 0.121951
vt 0.081301 0.138211
vt 0.089431 0.138211
vt 0.975610 0.544715
vt 0.975610 0.593496
vt 0.975610 0.560976
vt 0.991870 0.682927
vt 0.975610 0.504065
vt 0.959350 0.406504
vt 0.975610 0.487805
vt 0.878049 0.479675
vt 0.471545 0.382114
vt 0.471545 0.365854
vt 0.463415 0.349593
vt 0.455285 0.349593
vt 0.447154 0.382114
vt 0.650406 0.308943
vt 0.926829 0.447154
vt 0.317073 0.512195
vt 0.300813 0.048780
vt 0.300813 0.065041
vt 0.308943 0.065041
vt 0.308943 0.081301
vt 0.317073 0.081301
vt 0.317073 0.105691
vt 0.325203 0.105691
vt 0.325203 0.121951
vt 0.333333 0.121951
vt 0.333333 0.138211
vt 0.341463 0.138211
vt 0.341463 0.154472
vt 0.349593 0.154472
vt 0.349593 0.170732
vt 0.357724 0.170732
vt 0.357724 0.186992
vt 0.365854 0.186992
vt 0.365854 0.211382
vt 0.373984 0.211382
vt 0.373984 0.227642
vt 0.382114 0.227642
vt 0.382114 0.243902
vt 0.390244 0.243902
vt 0.390244 0.260163
vt 0.398374 0.260163
vt 0.398374 0.276423
vt 0.406504 0.276423
vt 0.406504 0.300813
vt 0.414634 0.300813
vt 0.414634 0.317073
vt 0.422764 0.317073
vt 0.422764 0.333333
vt 0.430894 0.333333
vt 0.430894 0.349593
vt 0.439024 0.349593
vt 0.439024 0.365854
vt 0.455285 0.333333
vt 0.447154 0.333333
vt 0.447154 0.317073
vt 0.439024 0.317073
vt 0.439024 0.300813
vt 0.430894 0.300813
vt 0.430894 0.276423
vt 0.422764 0.276423
vt 0.422764 0.260163
vt 0.414634 0.260163
vt 0.414634 0.243902
vt 0.406504 0.243902
vt 0.406504 0.227642
vt 0.398374 0.227642
vt 0.398374 0.211382
vt 0.390244 0.211382
vt 0.390244 0.186992
vt 0.382114 0.186992
vt 0.382114 0.170732
vt 0.373984 0.170732
vt 0.373984 0.154472
vt 0.365854 0.154472
vt 0.292683 0.032520
vt 0.292683 0.048780
vt 0.365854 0.138211
vt 0.357724 0.138211
vt 0.284553 0.016260
vt 0.284553 0.032520
vt 0.357724 0.121951
vt 0.349593 0.121951
vt 0.276423 0.016260
vt 0.349593 0.105691
vt 0.341463 0.105691
vt 0.544715 0.065041
vt 0.552846 0.065041
vt 0.536585 0.178862
vt 0.544715 0.178862
vt 0.528455 0.292683
vt 0.536585 0.292683
vt 0.520325 0.406504
vt 0.528455 0.406504
vt 0.495935 0.487805
vt 0.520325 0.487805
vt 0.487805 0.455285
vt 0.487805 0.471545
vt 0.495935 0.471545
vt 0.479675 0.439024
vt 0.479675 0.455285
vt 0.471545 0.422764
vt 0.471545 0.439024
vt 0.463415 0.406504
vt 0.463415 0.422764
vt 0.455285 0.406504
vt 0.479675 0.406504
vt 0.479675 0.382114
vt 0.487805 0.422764
vt 0.487805 0.406504
vt 0.495935 0.439024
vt 0.495935 0.422764
vt 0.341463 0.081301
vt 0.333333 0.081301
vt 0.333333 0.065041
vt 0.325203 0.065041
vt 0.325203 0.048780
vt 0.317073 0.048780
vt 0.317073 0.032520
vt 0.308943 0.032520
vt 0.504065 0.439024
vt 0.512195 0.406504
vt 0.504065 0.406504
vt 0.520325 0.292683
vt 0.512195 0.292683
vt 0.528455 0.178862
vt 0.520325 0.178862
vt 0.536585 0.065041
vt 0.528455 0.065041
vt 0.975610 0.626016
vt 0.975610 0.162602
vt 0.650406 0.975610
vt 0.333333 0.487805
vt 0.642276 0.487805
vt 0.642276 0.552846
vt 0.975610 0.130081
vt 0.959350 0.487805
vt 0.878049 0.487805
vt 0.959350 0.934959
vt 0.975610 0.918699
vt 0.333333 0.634146
vt 0.333333 0.593496
vt 0.642276 0.634146
vt 0.918699 0.504065
vt 0.967480 0.536585
vt 0.975610 0.723577
vt 0.617886 0.455285
vt 0.609756 0.455285
vt 0.609756 0.439024
vt 0.601626 0.439024
vt 0.601626 0.422764
vt 0.626016 0.276423
vt 0.626016 0.390244
vt 0.634146 0.162602
vt 0.634146 0.276423
vt 0.642276 0.048780
vt 0.642276 0.162602
vt 0.650406 0.008130
vt 0.634146 0.000000
vt 0.642276 0.000000
vt 0.634146 0.048780
vt 0.626016 0.162602
vt 0.626016 0.048780
vt 0.617886 0.276423
vt 0.617886 0.162602
vt 0.609756 0.276423
vt 0.601626 0.390244
vt 0.975610 0.666667
s 0
usemtl cermin_3_Material.002
f 115/1/1 110/2/1 109/3/1
f 242/4/2 239/5/2 240/6/2
f 66/7/3 56/8/3 57/9/3
f 32/1/3 42/10/3 39/11/3
f 193/12/3 199/13/3 192/14/3
f 226/15/2 227/16/2 225/17/2
f 78/18/4 75/19/4 77/20/4
f 187/21/1 182/22/1 181/16/1
f 296/23/3 290/24/3 289/25/3
f 65/26/3 71/27/3 64/28/3
f 236/29/2 237/30/2 233/31/2
f 16/32/3 26/2/3 23/3/3
f 145/33/2 143/34/2 146/35/2
f 144/36/3 154/37/3 151/38/3
f 35/39/1 30/40/1 29/41/1
f 62/42/4 59/43/4 61/44/4
f 280/45/3 274/46/3 273/47/3
f 178/48/2 176/49/2 175/50/2
f 13/51/1 11/52/1 19/53/1
f 154/54/2 152/55/2 151/56/2
f 218/57/3 226/58/3 225/59/3
f 100/20/1 93/60/1 99/61/1
f 2/62/5 232/63/5 235/64/5
f 132/40/1 125/65/1 131/41/1
f 86/66/4 83/67/4 85/68/4
f 240/69/6 266/70/6 216/71/6
f 60/5/1 53/72/1 59/73/1
f 7/74/3 15/75/3 6/76/3
f 108/77/4 109/78/4 110/79/4
f 164/80/5 188/81/5 219/82/5
f 190/83/4 187/84/4 189/85/4
f 279/86/2 286/87/2 281/88/2
f 292/89/3 288/90/3 287/91/3
f 112/73/3 122/92/3 119/93/3
f 246/94/4 255/95/4 256/96/4
f 140/97/1 133/98/1 139/99/1
f 294/100/4 303/101/4 304/86/4
f 162/102/2 160/34/2 159/103/2
f 166/102/4 163/104/4 165/103/4
f 30/105/4 27/106/4 29/107/4
f 51/108/1 46/109/1 45/110/1
f 169/111/3 175/112/3 168/13/3
f 302/113/1 279/23/1 281/114/1
f 198/115/4 195/116/4 197/117/4
f 50/56/3 40/108/3 41/118/3
f 260/113/3 256/105/3 255/114/3
f 3/119/1 10/120/1 4/121/1
f 158/122/4 155/123/4 157/124/4
f 146/125/3 136/75/3 137/126/3
f 152/127/3 162/128/3 159/129/3
f 82/105/2 80/43/2 79/107/2
f 229/130/3 236/131/3 233/132/3
f 259/133/2 268/134/2 261/94/2
f 233/135/5 11/136/5 3/137/5
f 278/138/4 287/139/4 288/140/4
f 284/105/1 259/24/1 261/141/1
f 126/142/4 123/143/4 125/123/4
f 216/144/4 213/30/4 215/145/4
f 42/146/2 40/147/2 39/148/2
f 147/149/1 142/150/1 141/151/1
f 270/152/1 247/153/1 249/154/1
f 129/56/3 135/60/3 128/155/3
f 94/156/4 91/68/4 93/118/4
f 105/157/2 103/20/2 106/18/2
f 194/158/2 192/159/2 191/160/2
f 73/161/2 71/162/2 74/163/2
f 66/128/2 64/164/2 63/129/2
f 171/165/6 168/166/6 176/167/6
f 174/168/4 171/118/4 173/169/4
f 166/170/1 171/171/1 172/172/1
f 212/173/3 200/171/3 201/172/3
f 250/174/4 257/175/4 258/176/4
f 221/130/1 216/120/1 215/177/1
f 300/46/1 275/178/1 277/179/1
f 282/180/4 289/174/4 290/181/4
f 262/86/4 271/182/4 272/134/4
f 134/183/4 131/184/4 133/19/4
f 120/185/3 130/26/3 127/28/3
f 75/186/1 70/187/1 69/188/1
f 266/95/4 273/189/4 274/190/4
f 232/15/4 230/191/4 229/192/4
f 243/193/2 252/194/2 245/139/2
f 12/195/6 234/196/6 231/197/6
f 291/194/2 300/135/2 293/138/2
f 80/198/3 90/123/3 87/199/3
f 10/200/6 13/201/6 230/202/6
f 268/90/1 243/113/1 245/203/1
f 49/204/3 55/76/3 48/186/3
f 185/205/2 183/55/2 186/206/2
f 70/207/4 67/208/4 69/209/4
f 182/158/4 179/124/4 181/160/4
f 201/210/2 199/159/2 202/211/2
f 38/146/4 35/212/4 37/148/4
f 138/33/2 136/213/2 135/214/2
f 46/215/4 43/117/4 45/216/4
f 52/217/4 53/109/4 54/203/4
f 43/218/1 38/219/1 37/220/1
f 50/145/2 48/221/2 47/222/2
f 98/203/2 96/67/2 95/109/2
f 163/151/1 158/223/1 157/224/1
f 224/29/4 221/225/4 223/31/4
f 227/226/1 228/107/1 223/227/1
f 1/228/3 8/219/3 5/220/3
f 212/229/2 210/84/2 209/230/2
f 34/83/2 32/106/2 31/85/2
f 118/231/4 115/232/4 117/233/4
f 263/234/2 270/176/2 265/100/2
f 295/176/2 302/181/2 297/193/2
f 276/152/3 272/121/3 271/154/3
f 275/181/2 284/235/2 277/194/2
f 264/25/3 258/236/3 257/237/3
f 57/238/2 55/147/2 58/239/2
f 123/240/1 118/125/1 117/241/1
f 208/140/3 306/242/3 305/243/3
f 155/244/1 150/37/1 149/38/1
f 247/190/2 254/96/2 249/245/2
f 107/222/1 102/31/1 101/246/1
f 72/247/3 82/248/3 79/36/3
f 13/249/4 9/92/4 11/225/4
f 197/149/1 204/187/1 198/250/1
f 235/24/2 13/9/2 14/251/2
f 91/228/1 86/10/1 85/11/1
f 26/252/2 24/5/2 23/253/2
f 214/254/1 206/132/1 213/255/1
f 150/256/4 147/209/4 149/143/4
f 24/218/3 34/257/3 31/65/3
f 220/238/2 218/253/2 217/258/2
f 248/193/3 236/259/3 235/260/3
f 170/170/3 160/244/3 161/261/3
f 176/61/3 186/209/3 183/198/3
f 240/262/3 237/145/3 238/144/3
f 185/263/3 191/224/3 184/264/3
f 232/107/1 231/226/1 242/265/1
f 97/92/3 103/246/3 96/93/3
f 18/215/2 16/266/2 15/216/2
f 121/267/2 119/233/2 122/231/2
f 210/59/3 220/153/3 217/119/3
f 244/139/3 234/202/3 233/259/3
f 61/268/1 68/269/1 62/270/1
f 98/109/3 88/99/3 89/97/3
f 195/72/1 190/148/1 189/112/1
f 3/271/4 2/272/4 1/273/4
f 104/27/3 114/274/3 111/32/3
f 28/263/1 21/21/1 27/264/1
f 179/14/1 174/160/1 173/53/1
f 206/86/3 304/260/3 303/245/3
f 298/275/4 305/276/4 306/174/4
f 114/79/2 112/97/2 111/78/2
f 206/277/4 204/278/4 205/230/4
f 90/168/2 88/279/2 87/169/2
f 233/251/2 12/270/2 11/179/2
f 292/280/5 239/281/5 291/282/5
f 130/283/2 128/284/2 127/97/2
f 286/236/1 263/45/1 265/251/1
f 84/9/1 77/39/1 83/8/1
f 170/42/2 168/104/2 167/44/2
f 142/90/4 139/285/4 141/208/4
f 22/163/4 19/12/4 21/162/4
f 102/217/4 99/284/4 101/286/4
f 7/287/2 5/111/2 8/161/2
f 115/1/1 116/288/1 110/2/1
f 242/4/2 241/289/2 239/5/2
f 66/7/3 63/247/3 56/8/3
f 32/1/3 33/288/3 42/10/3
f 193/12/3 202/111/3 199/13/3
f 226/15/2 228/22/2 227/16/2
f 78/18/4 76/183/4 75/19/4
f 187/21/1 188/290/1 182/22/1
f 296/23/3 298/114/3 290/24/3
f 65/26/3 74/291/3 71/27/3
f 236/29/2 238/292/2 237/30/2
f 16/32/3 17/274/3 26/2/3
f 145/33/2 144/214/2 143/34/2
f 144/36/3 145/248/3 154/37/3
f 35/39/1 36/293/1 30/40/1
f 62/42/4 60/294/4 59/43/4
f 280/45/3 282/251/3 274/46/3
f 178/48/2 177/77/2 176/49/2
f 19/53/1 20/160/1 14/123/1
f 19/53/1 14/123/1 13/51/1
f 11/52/1 12/199/1 19/53/1
f 154/54/2 153/206/2 152/55/2
f 218/57/3 219/173/3 226/58/3
f 100/20/1 94/233/1 93/60/1
f 20/295/5 22/296/5 28/297/5
f 28/297/5 33/298/5 34/299/5
f 25/300/5 26/301/5 17/302/5
f 28/297/5 34/299/5 25/300/5
f 20/295/5 28/297/5 25/300/5
f 17/302/5 18/303/5 7/304/5
f 20/295/5 25/300/5 17/302/5
f 14/305/5 20/295/5 17/302/5
f 7/304/5 8/306/5 2/62/5
f 14/305/5 17/302/5 7/304/5
f 247/307/5 248/308/5 235/64/5
f 14/305/5 7/304/5 2/62/5
f 253/309/5 247/307/5 235/64/5
f 235/64/5 14/305/5 2/62/5
f 232/63/5 253/309/5 235/64/5
f 132/40/1 126/257/1 125/65/1
f 86/66/4 84/310/4 83/67/4
f 249/311/6 254/312/6 242/313/6
f 240/69/6 238/314/6 236/315/6
f 249/311/6 242/313/6 240/69/6
f 265/316/6 270/317/6 249/311/6
f 281/318/6 286/319/6 265/316/6
f 297/320/6 302/321/6 281/318/6
f 222/322/6 224/323/6 297/320/6
f 207/324/6 214/325/6 216/71/6
f 216/71/6 222/322/6 297/320/6
f 216/71/6 297/320/6 281/318/6
f 306/326/6 207/324/6 216/71/6
f 282/327/6 290/328/6 298/329/6
f 298/329/6 306/326/6 216/71/6
f 216/71/6 281/318/6 265/316/6
f 265/316/6 249/311/6 240/69/6
f 240/69/6 236/315/6 250/330/6
f 250/330/6 258/331/6 266/70/6
f 266/70/6 274/332/6 282/327/6
f 282/327/6 298/329/6 216/71/6
f 216/71/6 265/316/6 240/69/6
f 240/69/6 250/330/6 266/70/6
f 266/70/6 282/327/6 216/71/6
f 60/5/1 54/258/1 53/72/1
f 7/74/3 18/126/3 15/75/3
f 108/77/4 107/49/4 109/78/4
f 76/333/5 78/334/5 84/335/5
f 84/335/5 86/336/5 92/337/5
f 92/337/5 94/338/5 100/339/5
f 100/339/5 102/340/5 108/341/5
f 108/341/5 110/342/5 116/343/5
f 116/343/5 118/344/5 124/345/5
f 124/345/5 126/346/5 132/347/5
f 132/347/5 134/348/5 140/349/5
f 140/349/5 142/350/5 148/351/5
f 148/351/5 150/352/5 156/353/5
f 156/353/5 158/354/5 164/80/5
f 164/80/5 166/355/5 172/356/5
f 172/356/5 174/357/5 180/358/5
f 180/358/5 182/359/5 188/81/5
f 188/81/5 190/360/5 196/361/5
f 196/361/5 198/362/5 204/363/5
f 208/364/5 305/365/5 296/366/5
f 296/366/5 289/367/5 280/368/5
f 280/368/5 273/369/5 264/370/5
f 264/370/5 257/371/5 248/308/5
f 248/308/5 247/307/5 269/372/5
f 263/373/5 285/374/5 279/375/5
f 248/308/5 269/372/5 263/373/5
f 264/370/5 248/308/5 263/373/5
f 279/375/5 301/376/5 295/377/5
f 264/370/5 263/373/5 279/375/5
f 280/368/5 264/370/5 279/375/5
f 295/377/5 228/378/5 226/379/5
f 280/368/5 279/375/5 295/377/5
f 296/366/5 280/368/5 295/377/5
f 295/377/5 226/379/5 219/82/5
f 219/82/5 220/380/5 211/381/5
f 211/381/5 212/382/5 201/383/5
f 201/383/5 202/384/5 193/385/5
f 193/385/5 194/386/5 185/387/5
f 185/387/5 186/388/5 177/389/5
f 177/389/5 178/390/5 169/391/5
f 169/391/5 170/392/5 161/393/5
f 161/393/5 162/394/5 153/395/5
f 153/395/5 154/396/5 145/397/5
f 145/397/5 146/398/5 137/399/5
f 137/399/5 138/400/5 129/401/5
f 129/401/5 130/402/5 121/403/5
f 121/403/5 122/404/5 113/405/5
f 113/405/5 114/406/5 105/407/5
f 105/407/5 106/408/5 97/409/5
f 97/409/5 98/410/5 89/411/5
f 89/411/5 90/412/5 81/413/5
f 81/413/5 82/414/5 73/415/5
f 73/415/5 74/416/5 65/417/5
f 65/417/5 66/418/5 57/419/5
f 57/419/5 58/420/5 49/421/5
f 49/421/5 50/422/5 41/423/5
f 41/423/5 42/424/5 33/298/5
f 33/298/5 28/297/5 30/425/5
f 36/426/5 38/427/5 44/428/5
f 33/298/5 30/425/5 36/426/5
f 57/419/5 49/421/5 41/423/5
f 41/423/5 33/298/5 36/426/5
f 44/428/5 46/429/5 52/430/5
f 41/423/5 36/426/5 44/428/5
f 65/417/5 57/419/5 41/423/5
f 81/413/5 73/415/5 65/417/5
f 105/407/5 97/409/5 89/411/5
f 81/413/5 65/417/5 41/423/5
f 113/405/5 105/407/5 89/411/5
f 89/411/5 81/413/5 41/423/5
f 41/423/5 44/428/5 52/430/5
f 52/430/5 54/431/5 60/432/5
f 60/432/5 62/433/5 68/434/5
f 68/434/5 70/435/5 76/333/5
f 76/333/6 84/335/6 92/337/6
f 76/333/5 92/337/5 100/339/5
f 68/434/5 76/333/5 100/339/5
f 60/432/5 68/434/5 100/339/5
f 41/423/5 52/430/5 60/432/5
f 121/403/5 113/405/5 89/411/5
f 89/411/5 41/423/5 60/432/5
f 89/411/5 60/432/5 100/339/5
f 129/401/5 121/403/5 89/411/5
f 145/397/5 137/399/5 129/401/5
f 169/391/6 161/393/6 153/395/6
f 153/395/5 145/397/5 129/401/5
f 129/401/5 89/411/5 100/339/5
f 129/401/5 100/339/5 108/341/5
f 169/391/5 153/395/5 129/401/5
f 193/385/5 185/387/5 177/389/5
f 177/389/5 169/391/5 129/401/5
f 129/401/5 108/341/5 116/343/5
f 124/345/5 132/347/5 140/349/5
f 129/401/5 116/343/5 124/345/5
f 201/383/5 193/385/5 177/389/5
f 177/389/5 129/401/5 124/345/5
f 177/389/5 124/345/5 140/349/5
f 211/381/5 201/383/5 177/389/5
f 208/364/5 296/366/5 295/377/5
f 208/364/5 295/377/5 219/82/5
f 219/82/5 211/381/5 177/389/5
f 177/389/5 140/349/5 148/351/5
f 148/351/5 156/353/5 164/80/5
f 164/80/6 172/356/6 180/358/6
f 164/80/5 180/358/5 188/81/5
f 177/389/5 148/351/5 164/80/5
f 204/363/5 208/364/5 219/82/5
f 196/361/5 204/363/5 219/82/5
f 219/82/5 177/389/5 164/80/5
f 188/81/5 196/361/5 219/82/5
f 190/83/4 188/436/4 187/84/4
f 279/86/2 285/100/2 286/87/2
f 292/89/3 294/252/3 288/90/3
f 112/73/3 113/5/3 122/92/3
f 246/94/4 244/133/4 255/95/4
f 140/97/1 134/50/1 133/98/1
f 294/100/4 292/234/4 303/101/4
f 162/102/2 161/35/2 160/34/2
f 166/102/4 164/437/4 163/104/4
f 30/105/4 28/438/4 27/106/4
f 51/108/1 52/118/1 46/109/1
f 169/111/3 178/148/3 175/112/3
f 302/113/1 301/439/1 279/23/1
f 198/115/4 196/440/4 195/116/4
f 50/56/3 47/155/3 40/108/3
f 260/113/3 262/203/3 256/105/3
f 3/119/1 9/177/1 10/120/1
f 158/122/4 156/142/4 155/123/4
f 146/125/3 143/241/3 136/75/3
f 152/127/3 153/242/3 162/128/3
f 82/105/2 81/294/2 80/43/2
f 229/130/3 230/441/3 236/131/3
f 259/133/2 267/182/2 268/134/2
f 3/137/5 229/140/5 233/135/5
f 11/136/5 9/116/5 3/137/5
f 278/138/4 276/194/4 287/139/4
f 284/105/1 283/114/1 259/24/1
f 126/142/4 124/256/4 123/143/4
f 216/144/4 214/292/4 213/30/4
f 42/146/2 41/239/2 40/147/2
f 147/149/1 148/250/1 142/150/1
f 270/152/1 269/442/1 247/153/1
f 129/56/3 138/233/3 135/60/3
f 94/156/4 92/66/4 91/68/4
f 105/157/2 104/285/2 103/20/2
f 194/158/2 193/211/2 192/159/2
f 73/161/2 72/111/2 71/162/2
f 66/128/2 65/443/2 64/164/2
f 176/167/6 179/444/6 173/445/6
f 171/165/6 165/446/6 163/447/6
f 176/167/6 173/445/6 171/165/6
f 168/166/6 175/448/6 176/167/6
f 171/165/6 163/447/6 168/166/6
f 174/168/4 172/156/4 171/118/4
f 166/170/1 165/449/1 171/171/1
f 212/173/3 209/57/3 200/171/3
f 250/174/4 248/276/4 257/175/4
f 221/130/1 222/441/1 216/120/1
f 300/46/1 299/47/1 275/178/1
f 282/180/4 280/275/4 289/174/4
f 262/86/4 260/101/4 271/182/4
f 134/183/4 132/267/4 131/184/4
f 120/185/3 121/269/3 130/26/3
f 75/186/1 76/204/1 70/187/1
f 266/95/4 264/450/4 273/189/4
f 229/192/4 231/17/4 232/15/4
f 232/15/4 4/451/4 230/191/4
f 243/193/2 251/181/2 252/194/2
f 24/452/6 31/453/6 32/454/6
f 32/454/6 39/455/6 40/456/6
f 40/456/6 47/457/6 48/458/6
f 48/458/6 55/459/6 56/460/6
f 56/460/6 63/461/6 64/462/6
f 64/462/6 71/463/6 72/464/6
f 72/464/6 79/465/6 80/466/6
f 80/466/6 87/467/6 88/468/6
f 88/468/6 95/469/6 96/470/6
f 96/470/6 103/471/6 104/472/6
f 104/472/6 111/473/6 112/474/6
f 112/474/6 119/475/6 120/476/6
f 120/476/6 127/477/6 128/478/6
f 128/478/6 135/479/6 136/480/6
f 136/480/6 143/481/6 144/482/6
f 144/482/6 151/483/6 152/484/6
f 152/484/6 159/485/6 160/486/6
f 160/486/6 167/487/6 168/166/6
f 168/166/6 163/447/6 157/488/6
f 155/489/6 149/490/6 147/491/6
f 168/166/6 157/488/6 155/489/6
f 152/484/5 160/486/5 168/166/5
f 136/480/2 144/482/2 152/484/2
f 112/474/2 120/476/2 128/478/2
f 128/478/6 136/480/6 152/484/6
f 152/484/6 168/166/6 155/489/6
f 147/491/6 141/492/6 139/493/6
f 152/484/6 155/489/6 147/491/6
f 128/478/6 152/484/6 147/491/6
f 139/493/6 133/494/6 131/495/6
f 128/478/6 147/491/6 139/493/6
f 112/474/6 128/478/6 139/493/6
f 131/495/6 125/496/6 123/497/6
f 112/474/6 139/493/6 131/495/6
f 88/468/6 96/470/6 104/472/6
f 104/472/6 112/474/6 131/495/6
f 123/497/6 117/498/6 115/499/6
f 104/472/6 131/495/6 123/497/6
f 88/468/6 104/472/6 123/497/6
f 115/499/6 109/500/6 107/501/6
f 88/468/6 123/497/6 115/499/6
f 64/462/6 72/464/6 80/466/6
f 80/466/6 88/468/6 115/499/6
f 107/501/6 101/502/6 99/503/6
f 80/466/6 115/499/6 107/501/6
f 48/458/6 56/460/6 64/462/6
f 64/462/6 80/466/6 107/501/6
f 99/503/6 93/504/6 91/505/6
f 64/462/6 107/501/6 99/503/6
f 40/456/6 48/458/6 64/462/6
f 40/456/6 64/462/6 99/503/6
f 91/505/6 85/506/6 83/507/6
f 40/456/6 99/503/6 91/505/6
f 32/454/6 40/456/6 91/505/6
f 83/507/6 77/508/6 75/509/6
f 32/454/6 91/505/6 83/507/6
f 16/510/6 23/511/6 24/452/6
f 24/452/6 32/454/6 83/507/6
f 75/509/6 69/512/6 67/513/6
f 24/452/6 83/507/6 75/509/6
f 6/514/6 15/515/6 16/510/6
f 16/510/6 24/452/6 75/509/6
f 67/513/6 61/516/6 59/517/6
f 16/510/6 75/509/6 67/513/6
f 1/63/6 5/518/6 6/514/6
f 6/514/6 16/510/6 67/513/6
f 59/517/6 53/519/6 51/520/6
f 6/514/6 67/513/6 59/517/6
f 231/197/6 1/63/6 6/514/6
f 245/521/6 252/522/6 231/197/6
f 261/523/6 268/524/6 245/521/6
f 277/525/6 284/526/6 261/523/6
f 293/527/6 300/528/6 277/525/6
f 225/529/6 227/530/6 293/527/6
f 210/531/6 217/532/6 218/533/6
f 218/533/6 225/529/6 293/527/6
f 200/534/6 209/535/6 210/531/6
f 192/536/6 199/537/6 200/534/6
f 184/538/6 191/539/6 192/536/6
f 176/167/6 183/540/6 184/538/6
f 187/541/6 181/542/6 179/444/6
f 179/444/6 176/167/6 184/538/6
f 192/536/2 200/534/2 210/531/2
f 179/444/6 184/538/6 192/536/6
f 195/543/6 189/544/6 187/541/6
f 187/541/6 179/444/6 192/536/6
f 187/541/6 192/536/6 210/531/6
f 203/545/6 197/546/6 195/543/6
f 195/543/6 187/541/6 210/531/6
f 6/514/6 59/517/6 51/520/6
f 51/520/6 45/547/6 43/548/6
f 43/548/6 37/549/6 35/550/6
f 35/550/6 29/551/6 27/552/6
f 27/552/6 21/553/6 19/554/6
f 43/548/6 35/550/6 27/552/6
f 6/514/6 51/520/6 43/548/6
f 195/543/6 210/531/6 218/533/6
f 203/545/6 195/543/6 218/533/6
f 6/514/6 43/548/6 27/552/6
f 6/514/6 27/552/6 19/554/6
f 205/555/6 203/545/6 218/533/6
f 294/556/6 304/557/6 205/555/6
f 278/558/6 288/559/6 294/556/6
f 262/560/6 272/561/6 278/558/6
f 246/562/6 256/563/6 262/560/6
f 205/555/6 218/533/6 293/527/6
f 294/556/6 205/555/6 293/527/6
f 278/558/6 294/556/6 293/527/6
f 278/558/6 293/527/6 277/525/6
f 262/560/6 278/558/6 277/525/6
f 262/560/6 277/525/6 261/523/6
f 246/562/6 262/560/6 261/523/6
f 246/562/6 261/523/6 245/521/6
f 234/196/6 246/562/6 245/521/6
f 6/514/6 19/554/6 12/195/6
f 234/196/6 245/521/6 231/197/6
f 231/197/6 6/514/6 12/195/6
f 291/194/2 299/235/2 300/135/2
f 80/198/3 81/209/3 90/123/3
f 230/202/6 4/255/6 10/200/6
f 13/201/6 236/243/6 230/202/6
f 268/90/1 267/91/1 243/113/1
f 49/204/3 58/74/3 55/76/3
f 185/205/2 184/232/2 183/55/2
f 70/207/4 68/90/4 67/208/4
f 182/158/4 180/122/4 179/124/4
f 201/210/2 200/12/2 199/159/2
f 38/146/4 36/287/4 35/212/4
f 138/33/2 137/564/2 136/213/2
f 46/215/4 44/115/4 43/117/4
f 52/217/4 51/286/4 53/109/4
f 43/218/1 44/565/1 38/219/1
f 50/145/2 49/566/2 48/221/2
f 98/203/2 97/310/2 96/67/2
f 163/151/1 164/150/1 158/223/1
f 224/29/4 222/249/4 221/225/4
f 291/567/1 293/272/1 227/226/1
f 228/107/1 295/137/1 297/568/1
f 228/107/1 297/568/1 224/569/1
f 223/227/1 291/567/1 227/226/1
f 228/107/1 224/569/1 223/227/1
f 1/228/3 2/570/3 8/219/3
f 212/229/2 211/436/2 210/84/2
f 34/83/2 33/438/2 32/106/2
f 118/231/4 116/205/4 115/232/4
f 263/234/2 269/175/2 270/176/2
f 295/176/2 301/174/2 302/181/2
f 276/152/3 278/571/3 272/121/3
f 275/181/2 283/180/2 284/235/2
f 264/25/3 266/24/3 258/236/3
f 57/238/2 56/258/2 55/147/2
f 123/240/1 124/221/1 118/125/1
f 208/140/3 207/572/3 306/242/3
f 155/244/1 156/261/1 150/37/1
f 247/190/2 253/95/2 254/96/2
f 107/222/1 108/145/1 102/31/1
f 72/247/3 73/7/3 82/248/3
f 13/249/4 10/573/4 9/92/4
f 197/149/1 203/188/1 204/187/1
f 235/24/2 236/141/2 13/9/2
f 91/228/1 92/570/1 86/10/1
f 26/252/2 25/574/2 24/5/2
f 214/254/1 207/131/1 206/132/1
f 150/256/4 148/207/4 147/209/4
f 24/218/3 25/565/3 34/257/3
f 220/238/2 219/252/2 218/253/2
f 248/193/3 250/139/3 236/259/3
f 170/170/3 167/449/3 160/244/3
f 176/61/3 177/20/3 186/209/3
f 240/262/3 239/566/3 237/145/3
f 185/263/3 194/223/3 191/224/3
f 231/226/1 252/98/1 251/575/1
f 231/226/1 251/575/1 241/576/1
f 254/577/1 253/50/1 232/107/1
f 231/226/1 241/576/1 242/265/1
f 242/265/1 254/577/1 232/107/1
f 97/92/3 106/31/3 103/246/3
f 18/215/2 17/278/2 16/266/2
f 121/267/2 120/184/2 119/233/2
f 210/59/3 211/58/3 220/153/3
f 244/139/3 246/140/3 234/202/3
f 61/268/1 67/185/1 68/269/1
f 98/109/3 95/110/3 88/99/3
f 195/72/1 196/258/1 190/148/1
f 4/451/4 232/15/4 2/272/4
f 1/273/4 231/17/4 229/192/4
f 3/271/4 4/451/4 2/272/4
f 1/273/4 229/192/4 3/271/4
f 104/27/3 105/291/3 114/274/3
f 28/263/1 22/290/1 21/21/1
f 179/14/1 180/12/1 174/160/1
f 206/86/3 205/88/3 304/260/3
f 298/275/4 296/578/4 305/276/4
f 114/79/2 113/283/2 112/97/2
f 207/579/4 208/229/4 204/278/4
f 204/278/4 203/266/4 205/230/4
f 206/277/4 207/579/4 204/278/4
f 90/168/2 89/580/2 88/279/2
f 233/251/2 234/9/2 12/270/2
f 291/282/5 223/581/5 221/582/5
f 215/583/5 213/584/5 206/585/5
f 291/282/5 221/582/5 215/583/5
f 275/586/5 299/587/5 291/282/5
f 259/588/5 283/589/5 275/586/5
f 243/590/5 267/591/5 259/588/5
f 241/592/5 251/27/5 243/590/5
f 233/593/5 237/594/5 239/281/5
f 239/281/5 241/592/5 243/590/5
f 259/588/5 275/586/5 291/282/5
f 239/281/5 243/590/5 259/588/5
f 244/595/5 233/593/5 239/281/5
f 260/596/5 255/597/5 244/595/5
f 276/598/5 271/599/5 260/596/5
f 292/280/5 287/600/5 276/598/5
f 206/585/5 303/601/5 292/280/5
f 291/282/5 215/583/5 206/585/5
f 239/281/5 259/588/5 291/282/5
f 260/596/5 244/595/5 239/281/5
f 276/598/5 260/596/5 239/281/5
f 291/282/5 206/585/5 292/280/5
f 292/280/5 276/598/5 239/281/5
f 130/283/2 129/602/2 128/284/2
f 286/236/1 285/237/1 263/45/1
f 84/9/1 78/293/1 77/39/1
f 170/42/2 169/437/2 168/104/2
f 142/90/4 140/157/4 139/285/4
f 22/163/4 20/210/4 19/12/4
f 102/217/4 100/602/4 99/284/4
f 7/287/2 6/212/2 5/111/2
