# Blender 5.0.1
# www.blender.org
mtllib plank lantai_2_Backup.mtl
o plank_lantai_2_Backup
v -2.000000 -0.000000 2.000000
v 2.000000 -0.000000 2.000000
v -2.000000 -0.000000 -2.000000
v 2.000000 -0.000000 -2.000000
v -2.000000 0.600000 2.000000
v 2.000000 0.600000 2.000000
v -2.000000 0.600000 -2.000000
v 2.000000 0.600000 -2.000000
vn -0.0000 -0.0000 -1.0000
vn -0.0000 -0.0000 1.0000
vn -0.0000 1.0000 -0.0000
vn -0.0000 -1.0000 -0.0000
vn -1.0000 -0.0000 -0.0000
vn 1.0000 -0.0000 -0.0000
vt 0.500000 0.150000
vt 1.000000 0.075000
vt 0.500000 0.075000
vt 1.000000 0.000000
vt 0.500000 0.000000
vt 0.000000 1.000000
vt 0.500000 0.500000
vt 0.500000 1.000000
vt 0.000000 0.000000
vt 0.000000 0.500000
vt 1.000000 0.150000
s 0
usemtl plank_lantai_2_Backup_Material
f 7/1/1 4/2/1 3/3/1
f 2/4/2 5/3/2 1/5/2
f 7/6/3 6/7/3 8/8/3
f 4/7/4 1/9/4 3/10/4
f 3/4/5 5/3/5 7/2/5
f 2/3/6 8/11/6 6/1/6
f 7/1/1 8/11/1 4/2/1
f 2/4/2 6/2/2 5/3/2
f 7/6/3 5/10/3 6/7/3
f 4/7/4 2/5/4 1/9/4
f 3/4/5 1/5/5 5/3/5
f 2/3/6 4/2/6 8/11/6
