# Blender 5.0.1
# www.blender.org
mtllib wall-window_4.mtl
o wall-window_4
v -2.000000 -0.000001 -1.200000
v 2.000000 -0.000001 -1.200000
v -2.000000 -0.000001 -1.900000
v 2.000000 -0.000001 -1.900000
v -1.800000 4.000000 -1.200000
v 1.800000 4.000000 -1.200000
v -1.900000 4.100000 -1.200000
v -1.800001 4.100000 -1.200000
v 1.800001 4.100000 -1.200000
v 1.900000 4.100000 -1.200000
v -1.900000 7.900001 -1.200000
v 1.900000 7.900001 -1.200000
v -1.800000 8.000001 -1.200000
v -1.800001 7.900001 -1.200000
v 1.800001 7.900001 -1.200000
v 1.800000 8.000001 -1.200000
v -2.000000 10.000001 -1.200000
v 2.000000 10.000001 -1.200000
v -2.000000 10.000001 -1.900000
v 2.000000 10.000001 -1.900000
v -1.600000 4.200000 -1.200000
v -1.600000 4.300000 -1.200000
v -0.200000 4.300000 -1.200000
v -0.200000 4.200000 -1.200000
v 0.200000 4.200000 -1.200000
v 0.200000 4.300000 -1.200000
v 1.600000 4.300000 -1.200000
v 1.600000 4.200000 -1.200000
v -1.700001 4.300000 -1.200000
v -0.100000 4.300000 -1.200000
v 0.100000 4.300000 -1.200000
v 1.700001 4.300000 -1.200000
v -1.700001 5.800000 -1.200000
v -1.600000 5.800000 -1.200000
v -0.200000 5.800000 -1.200000
v -0.100000 5.800000 -1.200000
v 0.100000 5.800000 -1.200000
v 0.200000 5.800000 -1.200000
v 1.600000 5.800000 -1.200000
v 1.700001 5.800000 -1.200000
v -1.600000 5.900000 -1.200000
v -0.200000 5.900000 -1.200000
v 0.200000 5.900000 -1.200000
v 1.600000 5.900000 -1.200000
v -1.600000 6.100000 -1.200000
v -1.600000 6.200000 -1.200000
v -0.200000 6.200000 -1.200000
v -0.200000 6.100000 -1.200000
v 0.200000 6.100000 -1.200000
v 0.200000 6.200000 -1.200000
v 1.600000 6.200000 -1.200000
v 1.600000 6.100000 -1.200000
v -1.700001 6.200000 -1.200000
v -0.100000 6.200000 -1.200000
v 0.100000 6.200000 -1.200000
v 1.700001 6.200000 -1.200000
v -1.700001 7.700001 -1.200000
v -1.600000 7.700001 -1.200000
v -0.200000 7.700001 -1.200000
v -0.100000 7.700001 -1.200000
v 0.100000 7.700001 -1.200000
v 0.200000 7.700001 -1.200000
v 1.600000 7.700001 -1.200000
v 1.700001 7.700001 -1.200000
v -1.600000 7.800001 -1.200000
v -0.200000 7.800001 -1.200000
v 0.200000 7.800001 -1.200000
v 1.600000 7.800001 -1.200000
v -1.800001 4.000000 -1.100000
v -1.800000 4.100000 -1.100000
v 1.800001 4.000000 -1.100000
v 1.800000 4.100000 -1.100000
v -1.900000 4.100000 -1.100000
v -1.600000 4.200000 -1.100000
v -0.200000 4.200000 -1.100000
v 0.200000 4.200000 -1.100000
v 1.600000 4.200000 -1.100000
v 1.900000 4.100000 -1.100000
v -1.700000 4.300000 -1.100000
v -1.600000 4.300000 -1.100000
v -0.200000 4.300000 -1.100000
v -0.100000 4.300000 -1.100000
v 0.100000 4.300000 -1.100000
v 0.200000 4.300000 -1.100000
v 1.600000 4.300000 -1.100000
v 1.700000 4.300000 -1.100000
v -1.700000 5.800000 -1.100000
v -0.100000 5.800000 -1.100000
v 0.100000 5.800000 -1.100000
v 1.700000 5.800000 -1.100000
v -1.600000 5.800000 -1.100000
v -1.600000 5.900000 -1.100000
v -0.200000 5.800000 -1.100000
v -0.200000 5.900000 -1.100000
v 0.200000 5.800000 -1.100000
v 0.200000 5.900000 -1.100000
v 1.600000 5.800000 -1.100000
v 1.600000 5.900000 -1.100000
v -1.600000 6.100000 -1.100000
v -0.200000 6.100000 -1.100000
v 0.200000 6.100000 -1.100000
v 1.600000 6.100000 -1.100000
v -1.700000 6.200000 -1.100000
v -1.600000 6.200000 -1.100000
v -0.200000 6.200000 -1.100000
v -0.100000 6.200000 -1.100000
v 0.100000 6.200000 -1.100000
v 0.200000 6.200000 -1.100000
v 1.600000 6.200000 -1.100000
v 1.700000 6.200000 -1.100000
v -1.700000 7.700001 -1.100000
v -0.100000 7.700001 -1.100000
v 0.100000 7.700001 -1.100000
v 1.700000 7.700001 -1.100000
v -1.600000 7.700001 -1.100000
v -1.600000 7.800001 -1.100000
v -0.200000 7.700001 -1.100000
v -0.200000 7.800001 -1.100000
v 0.200000 7.700001 -1.100000
v 0.200000 7.800001 -1.100000
v 1.600000 7.700001 -1.100000
v 1.600000 7.800001 -1.100000
v -1.900000 7.900001 -1.100000
v -1.800000 7.900001 -1.100000
v 1.800000 7.900001 -1.100000
v 1.900000 7.900001 -1.100000
v -1.800001 8.000001 -1.100000
v 1.800001 8.000001 -1.100000
vn 1.0000 -0.0000 -0.0000
vn -0.0000 -0.0000 1.0000
vn -0.0000 -1.0000 -0.0000
vn -0.0000 1.0000 -0.0000
vn -1.0000 -0.0000 -0.0000
vn -0.0000 -0.0000 -1.0000
vt 0.751880 0.714286
vt 0.744361 0.721804
vt 0.744361 0.714286
vt 0.609023 0.293233
vt 0.616541 0.165414
vt 0.616541 0.278196
vt 0.736842 0.661654
vt 0.744361 0.669173
vt 0.744361 0.661654
vt 0.714286 0.691729
vt 0.609023 0.804511
vt 0.609023 0.691729
vt 0.751880 0.684211
vt 0.744361 0.691729
vt 0.744361 0.684211
vt 0.864662 0.285714
vt 0.872180 0.278196
vt 0.887218 0.293233
vt 0.015038 0.601504
vt 0.300752 0.751880
vt 0.000000 0.751880
vt 0.601504 0.804511
vt 0.300752 0.804511
vt 0.105263 0.812030
vt 0.000000 0.819549
vt 0.000000 0.812030
vt 0.736842 0.646617
vt 0.744361 0.654135
vt 0.736842 0.654135
vt 0.992481 0.751880
vt 0.939850 0.000000
vt 0.992481 0.000000
vt 0.721804 0.714286
vt 0.729323 0.721804
vt 0.721804 0.721804
vt 0.729323 0.699248
vt 0.736842 0.586466
vt 0.729323 0.586466
vt 0.812030 0.812030
vt 0.706767 0.819549
vt 0.812030 0.819549
vt 0.721804 0.744361
vt 0.729323 0.736842
vt 0.721804 0.736842
vt 0.721804 0.699248
vt 0.729323 0.706767
vt 0.721804 0.706767
vt 0.744361 0.729323
vt 0.736842 0.736842
vt 0.736842 0.729323
vt 0.744361 0.413534
vt 0.751880 0.300752
vt 0.744361 0.300752
vt 0.105263 0.819549
vt 0.000000 0.827068
vt 0.105263 0.827068
vt 0.736842 0.699248
vt 0.736842 0.691729
vt 0.744361 0.676692
vt 0.736842 0.684211
vt 0.736842 0.676692
vt 0.751880 0.706767
vt 0.744361 0.706767
vt 0.736842 0.300752
vt 0.744361 0.526316
vt 0.751880 0.639098
vt 0.751880 0.526316
vt 0.744361 0.736842
vt 0.751880 0.729323
vt 0.270677 0.804511
vt 0.270677 0.812030
vt 0.000000 0.804511
vt 0.751880 0.676692
vt 0.736842 0.714286
vt 0.729323 0.714286
vt 0.751880 0.413534
vt 0.887218 0.751880
vt 0.887218 0.000000
vt 0.729323 0.729323
vt 0.744361 0.639098
vt 0.736842 0.526316
vt 0.736842 0.669173
vt 0.721804 0.586466
vt 0.729323 0.300752
vt 0.721804 0.300752
vt 0.744361 0.699248
vt 0.736842 0.706767
vt 0.759399 0.157895
vt 0.751880 0.165414
vt 0.736842 0.165414
vt 0.736842 0.721804
vt 0.601504 0.812030
vt 0.601504 0.819549
vt 0.526316 0.819549
vt 0.421053 0.812030
vt 0.526316 0.812030
vt 0.714286 0.548872
vt 0.609023 0.548872
vt 0.609023 0.436090
vt 0.751880 0.661654
vt 0.751880 0.646617
vt 0.744361 0.646617
vt 0.751880 0.669173
vt 0.315789 0.812030
vt 0.421053 0.819549
vt 0.609023 0.308271
vt 0.714286 0.421053
vt 0.609023 0.421053
vt 0.729323 0.744361
vt 0.210526 0.812030
vt 0.601504 0.751880
vt 0.300752 0.000000
vt 0.541353 0.812030
vt 0.541353 0.804511
vt 0.736842 0.639098
vt 0.315789 0.819549
vt 0.714286 0.563910
vt 0.609023 0.676692
vt 0.609023 0.563910
vt 0.721804 0.751880
vt 0.000000 0.000000
vt 0.285714 0.300752
vt 0.015038 0.300752
vt 0.736842 0.413534
vt 0.751880 0.654135
vt 0.751880 0.691729
vt 0.721804 0.729323
vt 0.751880 0.721804
vt 0.609023 0.007519
vt 0.759399 0.015038
vt 0.729323 0.015038
vt 0.744361 0.744361
vt 0.736842 0.744361
vt 0.751880 0.699248
vt 0.601504 0.293233
vt 0.601504 0.007519
vt 0.616541 0.022556
vt 0.616541 0.135338
vt 0.624060 0.135338
vt 0.624060 0.142857
vt 0.879699 0.300752
vt 0.609023 0.300752
vt 0.879699 0.293233
vt 0.759399 0.285714
vt 0.751880 0.278196
vt 0.759399 0.278196
vt 0.729323 0.285714
vt 0.729323 0.278196
vt 0.736842 0.278196
vt 0.729323 0.142857
vt 0.729323 0.135338
vt 0.736842 0.135338
vt 0.736842 0.022556
vt 0.751880 0.022556
vt 0.751880 0.135338
vt 0.759399 0.135338
vt 0.759399 0.142857
vt 0.864662 0.142857
vt 0.864662 0.135338
vt 0.872180 0.135338
vt 0.872180 0.022556
vt 0.879699 0.007519
vt 0.887218 0.007519
vt 0.872180 0.165414
vt 0.864662 0.165414
vt 0.864662 0.157895
vt 0.729323 0.157895
vt 0.624060 0.157895
vt 0.624060 0.165414
vt 0.624060 0.278196
vt 0.624060 0.285714
vt 0.721804 0.691729
vt 0.721804 0.804511
vt 0.714286 0.804511
vt 0.714286 0.812030
vt 0.609023 0.812030
vt 0.609023 0.684211
vt 0.714286 0.684211
vt 0.601504 0.691729
vt 0.864662 0.278196
vt 0.007519 0.593985
vt 0.015038 0.593985
vt 0.285714 0.601504
vt 0.285714 0.593985
vt 0.293233 0.593985
vt 0.293233 0.308271
vt 0.285714 0.308271
vt 0.015038 0.308271
vt 0.007519 0.308271
vt 0.939850 0.751880
vt 0.706767 0.812030
vt 0.751880 0.736842
vt 0.729323 0.165414
vt 0.759399 0.165414
vt 0.609023 0.428571
vt 0.714286 0.428571
vt 0.714286 0.436090
vt 0.721804 0.436090
vt 0.721804 0.548872
vt 0.714286 0.556391
vt 0.609023 0.556391
vt 0.601504 0.548872
vt 0.601504 0.436090
vt 0.714286 0.300752
vt 0.714286 0.308271
vt 0.721804 0.308271
vt 0.721804 0.421053
vt 0.601504 0.421053
vt 0.601504 0.308271
vt 0.210526 0.819549
vt 0.601504 0.000000
vt 0.721804 0.563910
vt 0.721804 0.676692
vt 0.714286 0.676692
vt 0.601504 0.676692
vt 0.601504 0.563910
vt 0.729323 0.751880
vt 0.624060 0.022556
vt 0.609023 0.000000
vt 0.879699 0.000000
vt 0.864662 0.022556
vt 0.864662 0.015038
vt 0.759399 0.022556
vt 0.624060 0.015038
vt 0.729323 0.022556
s 0
usemtl wall-window_4_Material
f 45/1/1 104/2/1 99/3/1
f 124/4/2 103/5/2 111/6/2
f 111/7/3 58/8/3 115/9/3
f 51/10/2 62/11/2 50/12/2
f 34/13/1 92/14/1 91/15/1
f 122/16/2 114/17/2 126/18/2
f 13/19/2 18/20/2 17/21/2
f 17/20/4 20/22/4 19/23/4
f 75/24/4 21/25/4 74/26/4
f 103/27/4 46/28/4 53/29/4
f 20/30/1 2/31/1 4/32/1
f 119/33/1 67/34/1 120/35/1
f 88/36/5 30/37/5 82/38/5
f 118/39/3 65/40/3 66/41/3
f 59/42/3 112/43/3 117/44/3
f 115/45/1 65/46/1 116/47/1
f 108/48/4 55/49/4 107/50/4
f 112/51/5 54/52/5 106/53/5
f 122/54/3 67/55/3 68/56/3
f 82/14/4 23/57/4 81/58/4
f 126/59/4 15/60/4 125/61/4
f 127/46/5 14/57/5 124/36/5
f 98/3/5 39/62/5 97/63/5
f 37/51/1 83/64/1 31/53/1
f 110/65/5 64/66/5 56/67/5
f 109/68/5 52/69/5 102/48/5
f 71/70/3 5/26/3 6/71/3
f 4/23/3 1/21/3 3/72/3
f 85/15/5 28/73/5 77/59/5
f 9/34/3 78/74/3 72/75/3
f 61/67/1 107/51/1 55/76/1
f 17/77/5 3/31/5 1/78/5
f 121/35/5 68/79/5 63/34/5
f 57/80/1 103/81/1 53/65/1
f 63/61/3 114/8/3 121/82/3
f 126/38/1 10/64/1 12/37/1
f 123/83/5 7/84/5 73/85/5
f 110/28/4 51/7/4 109/29/4
f 84/86/4 31/87/4 83/57/4
f 101/88/2 107/89/2 106/90/2
f 117/47/5 66/75/5 59/46/5
f 106/2/4 47/50/4 105/91/4
f 101/92/4 52/40/4 49/93/4
f 48/94/4 99/95/4 100/96/4
f 35/74/3 88/63/3 93/87/3
f 39/97/2 38/98/2 26/99/2
f 81/8/5 24/100/5 75/9/5
f 6/101/1 72/28/1 71/102/1
f 25/103/1 84/59/1 76/8/1
f 96/104/3 44/105/3 98/95/3
f 22/106/2 35/107/2 34/108/2
f 61/109/3 119/49/3 113/43/3
f 37/91/3 95/3/3 89/74/3
f 77/110/4 25/54/4 76/24/4
f 20/111/6 3/112/6 19/20/6
f 16/113/4 127/70/4 128/114/4
f 39/27/3 90/80/3 97/115/3
f 79/34/4 22/50/4 29/79/4
f 92/110/3 42/116/3 94/104/3
f 87/79/3 34/49/3 91/50/3
f 47/117/2 58/118/2 46/119/2
f 49/109/1 108/120/1 101/42/1
f 33/36/1 79/83/1 29/38/1
f 1/121/2 6/122/2 5/123/2
f 90/81/5 32/51/5 86/124/5
f 21/125/1 80/9/1 74/28/1
f 15/87/1 128/75/1 125/46/1
f 94/86/5 35/126/5 93/14/5
f 86/79/4 27/44/4 85/127/4
f 105/48/5 48/128/5 100/2/5
f 70/102/5 5/66/5 69/80/5
f 70/129/2 76/130/2 75/131/2
f 73/60/3 8/14/3 70/15/3
f 123/49/4 14/132/4 11/133/4
f 38/134/1 96/63/1 95/86/1
f 45/1/1 46/128/1 104/2/1
f 124/4/2 123/135/2 73/136/2
f 73/136/2 70/129/2 79/137/2
f 87/138/2 91/139/2 92/140/2
f 73/136/2 79/137/2 87/138/2
f 128/141/2 127/142/2 124/4/2
f 124/4/2 73/136/2 87/138/2
f 125/143/2 128/141/2 124/4/2
f 120/144/2 122/16/2 125/143/2
f 113/145/2 119/146/2 120/144/2
f 106/90/2 107/89/2 113/145/2
f 118/147/2 117/148/2 112/149/2
f 112/149/2 106/90/2 113/145/2
f 120/144/2 125/143/2 124/4/2
f 112/149/2 113/145/2 120/144/2
f 118/147/2 112/149/2 120/144/2
f 94/150/2 93/151/2 88/152/2
f 88/152/2 82/153/2 83/154/2
f 89/155/2 95/156/2 96/157/2
f 88/152/2 83/154/2 89/155/2
f 94/150/2 88/152/2 89/155/2
f 94/150/2 89/155/2 96/157/2
f 98/158/2 97/159/2 90/160/2
f 90/160/2 86/161/2 72/162/2
f 72/162/2 78/163/2 126/18/2
f 126/18/2 114/17/2 110/164/2
f 110/164/2 109/165/2 102/166/2
f 72/162/2 126/18/2 110/164/2
f 90/160/2 72/162/2 110/164/2
f 90/160/2 110/164/2 102/166/2
f 98/158/2 90/160/2 102/166/2
f 98/158/2 102/166/2 101/88/2
f 96/157/2 98/158/2 101/88/2
f 96/157/2 101/88/2 100/167/2
f 94/150/2 96/157/2 100/167/2
f 99/168/2 104/169/2 103/5/2
f 94/150/2 100/167/2 99/168/2
f 92/140/2 94/150/2 99/168/2
f 92/140/2 99/168/2 103/5/2
f 118/147/2 120/144/2 124/4/2
f 111/6/2 115/170/2 116/171/2
f 116/171/2 118/147/2 124/4/2
f 87/138/2 92/140/2 103/5/2
f 111/6/2 116/171/2 124/4/2
f 124/4/2 87/138/2 103/5/2
f 111/7/3 57/82/3 58/8/3
f 51/10/2 56/172/2 64/173/2
f 63/174/2 68/175/2 67/176/2
f 51/10/2 64/173/2 63/174/2
f 49/177/2 52/178/2 51/10/2
f 61/22/2 55/179/2 50/12/2
f 50/12/2 49/177/2 51/10/2
f 51/10/2 63/174/2 67/176/2
f 62/11/2 61/22/2 50/12/2
f 51/10/2 67/176/2 62/11/2
f 34/13/1 41/126/1 92/14/1
f 126/18/2 125/143/2 122/16/2
f 122/16/2 121/180/2 114/17/2
f 11/181/2 14/182/2 13/19/2
f 16/183/2 15/184/2 12/185/2
f 10/186/2 9/187/2 6/122/2
f 1/121/2 5/123/2 8/188/2
f 1/121/2 8/188/2 7/189/2
f 10/186/2 6/122/2 2/112/2
f 12/185/2 10/186/2 2/112/2
f 17/21/2 1/121/2 7/189/2
f 17/21/2 7/189/2 11/181/2
f 12/185/2 2/112/2 18/20/2
f 16/183/2 12/185/2 18/20/2
f 17/21/2 11/181/2 13/19/2
f 13/19/2 16/183/2 18/20/2
f 17/20/4 18/111/4 20/22/4
f 75/24/4 24/54/4 21/25/4
f 103/27/4 104/102/4 46/28/4
f 20/30/1 18/190/1 2/31/1
f 119/33/1 62/75/1 67/34/1
f 88/36/5 36/57/5 30/37/5
f 118/39/3 116/191/3 65/40/3
f 59/42/3 60/109/3 112/43/3
f 115/45/1 58/36/1 65/46/1
f 108/48/4 50/68/4 55/49/4
f 112/51/5 60/76/5 54/52/5
f 122/54/3 120/25/3 67/55/3
f 82/14/4 30/86/4 23/57/4
f 126/59/4 12/15/4 15/60/4
f 127/46/5 13/87/5 14/57/5
f 98/3/5 44/1/5 39/62/5
f 37/51/1 89/124/1 83/64/1
f 110/65/5 114/80/5 64/66/5
f 109/68/5 51/192/5 52/69/5
f 71/70/3 69/72/3 5/26/3
f 4/23/3 2/20/3 1/21/3
f 85/15/5 27/13/5 28/73/5
f 9/34/3 10/91/3 78/74/3
f 61/67/1 113/65/1 107/51/1
f 17/77/5 19/190/5 3/31/5
f 121/35/5 122/127/5 68/79/5
f 57/80/1 111/115/1 103/81/1
f 63/61/3 64/59/3 114/8/3
f 126/38/1 78/84/1 10/64/1
f 123/83/5 11/38/5 7/84/5
f 110/28/4 56/9/4 51/7/4
f 84/86/4 26/63/4 31/87/4
f 105/193/2 100/167/2 101/88/2
f 101/88/2 108/194/2 107/89/2
f 106/90/2 105/193/2 101/88/2
f 117/47/5 118/33/5 66/75/5
f 106/2/4 54/48/4 47/50/4
f 101/92/4 102/191/4 52/40/4
f 48/94/4 45/105/4 99/95/4
f 35/74/3 36/3/3 88/63/3
f 25/195/2 28/196/2 27/197/2
f 27/197/2 32/198/2 40/199/2
f 39/97/2 44/200/2 43/201/2
f 27/197/2 40/199/2 39/97/2
f 26/99/2 25/195/2 27/197/2
f 37/202/2 31/203/2 26/99/2
f 39/97/2 43/201/2 38/98/2
f 38/98/2 37/202/2 26/99/2
f 26/99/2 27/197/2 39/97/2
f 81/8/5 23/103/5 24/100/5
f 6/101/1 9/125/1 72/28/1
f 25/103/1 26/73/1 84/59/1
f 96/104/3 43/116/3 44/105/3
f 22/106/2 21/142/2 24/204/2
f 23/205/2 30/206/2 36/207/2
f 22/106/2 24/204/2 23/205/2
f 33/208/2 29/209/2 22/106/2
f 42/196/2 41/195/2 34/108/2
f 34/108/2 33/208/2 22/106/2
f 22/106/2 23/205/2 36/207/2
f 35/107/2 42/196/2 34/108/2
f 22/106/2 36/207/2 35/107/2
f 61/109/3 62/133/3 119/49/3
f 37/91/3 38/2/3 95/3/3
f 77/110/4 28/210/4 25/54/4
f 20/111/6 4/211/6 3/112/6
f 16/113/4 13/71/4 127/70/4
f 39/27/3 40/102/3 90/80/3
f 79/34/4 80/91/4 22/50/4
f 92/110/3 41/210/3 42/116/3
f 87/79/3 33/43/3 34/49/3
f 47/117/2 54/212/2 60/213/2
f 59/214/2 66/178/2 65/177/2
f 47/117/2 60/213/2 59/214/2
f 45/201/2 48/200/2 47/117/2
f 57/215/2 53/216/2 46/119/2
f 46/119/2 45/201/2 47/117/2
f 47/117/2 59/214/2 65/177/2
f 58/118/2 57/215/2 46/119/2
f 47/117/2 65/177/2 58/118/2
f 49/109/1 50/217/1 108/120/1
f 33/36/1 87/45/1 79/83/1
f 1/121/2 2/112/2 6/122/2
f 90/81/5 40/65/5 32/51/5
f 21/125/1 22/100/1 80/9/1
f 15/87/1 16/74/1 128/75/1
f 94/86/5 42/134/5 35/126/5
f 86/79/4 32/43/4 27/44/4
f 105/48/5 47/69/5 48/128/5
f 70/102/5 8/101/5 5/66/5
f 80/218/2 79/137/2 70/129/2
f 70/129/2 69/219/2 71/220/2
f 71/220/2 72/162/2 86/161/2
f 86/161/2 85/221/2 77/222/2
f 76/130/2 84/223/2 83/154/2
f 71/220/2 86/161/2 77/222/2
f 76/130/2 83/154/2 82/153/2
f 71/220/2 77/222/2 76/130/2
f 74/224/2 80/218/2 70/129/2
f 82/153/2 81/225/2 75/131/2
f 75/131/2 74/224/2 70/129/2
f 70/129/2 71/220/2 76/130/2
f 76/130/2 82/153/2 75/131/2
f 73/60/3 7/58/3 8/14/3
f 123/49/4 124/68/4 14/132/4
f 38/134/1 43/62/1 96/63/1
