# Blender 5.0.1
# www.blender.org
mtllib Chair_4.mtl
o Chair_4
v -1.400000 -0.000000 1.400000
v -1.100000 -0.000000 1.400000
v 1.100000 -0.000000 1.400000
v 1.400000 -0.000000 1.400000
v -1.400000 -0.000000 1.100000
v -1.100000 -0.000000 1.100000
v 1.100000 -0.000000 1.100000
v 1.400000 -0.000000 1.100000
v -1.400000 -0.000000 -1.100000
v -1.100000 -0.000000 -1.100000
v 1.100000 -0.000000 -1.100000
v 1.400000 -0.000000 -1.100000
v -1.400000 -0.000000 -1.400000
v -1.100000 -0.000000 -1.400000
v 1.100000 -0.000000 -1.400000
v 1.400000 -0.000000 -1.400000
v -1.100000 2.000000 1.400000
v 1.100000 2.000000 1.400000
v -1.400000 2.000000 1.100000
v -1.100000 2.000000 1.100000
v 1.100000 2.000000 1.100000
v 1.400000 2.000000 1.100000
v -1.400000 2.000000 -1.100000
v -1.100000 2.000000 -1.100000
v 1.100000 2.000000 -1.100000
v 1.400000 2.000000 -1.100000
v -1.100000 2.000000 -1.400000
v 1.100000 2.000000 -1.400000
v -1.400000 2.100000 1.200000
v 1.400000 2.100000 1.200000
v -1.300000 2.100000 1.100000
v 1.300000 2.100000 1.100000
v -1.300000 2.100000 -1.300000
v 1.300000 2.100000 -1.300000
v -1.400000 2.100000 -1.400000
v 1.400000 2.100000 -1.400000
v -1.100000 2.400000 1.400000
v -0.800000 2.400000 1.400000
v -0.500000 2.400000 1.400000
v -0.200000 2.400000 1.400000
v 0.200000 2.400000 1.400000
v 0.500000 2.400000 1.400000
v 0.800000 2.400000 1.400000
v 1.100000 2.400000 1.400000
v -1.100000 2.400000 1.200000
v -0.800000 2.400000 1.200000
v -0.500000 2.400000 1.200000
v -0.200000 2.400000 1.200000
v 0.200000 2.400000 1.200000
v 0.500000 2.400000 1.200000
v 0.800000 2.400000 1.200000
v 1.100000 2.400000 1.200000
v -1.100000 3.900001 1.400000
v 1.100000 3.900001 1.400000
v -1.100000 3.900001 1.200000
v 1.100000 3.900001 1.200000
v -1.000000 3.900001 1.400000
v -1.000000 4.000000 1.400000
v -0.800000 4.000000 1.400000
v 0.800000 4.000000 1.400000
v 1.000000 3.900001 1.400000
v 1.000000 4.000000 1.400000
v -1.000000 3.900001 1.200000
v -1.000000 4.000000 1.200000
v -0.800000 4.000000 1.200000
v 0.800000 4.000000 1.200000
v 1.000000 4.000000 1.200000
v 1.000000 3.900001 1.200000
v -1.400000 4.200001 1.400000
v -1.300000 4.200000 1.400000
v -0.500000 4.200000 1.400000
v 0.500000 4.200000 1.400000
v 1.300000 4.200000 1.400000
v 1.400000 4.200001 1.400000
v -1.300000 4.200000 1.200000
v -1.400000 4.200001 1.200000
v -0.500000 4.200000 1.200000
v 0.500000 4.200000 1.200000
v 1.300000 4.200000 1.200000
v 1.400000 4.200001 1.200000
v -1.300000 4.300001 1.400000
v -1.100000 4.300001 1.400000
v -0.300000 4.200001 1.400000
v -0.300000 4.300001 1.400000
v -0.200000 4.300001 1.400000
v 0.200000 4.300001 1.400000
v 0.300000 4.200001 1.400000
v 0.300000 4.300001 1.400000
v 1.100000 4.300001 1.400000
v 1.300000 4.300001 1.400000
v -1.300000 4.300001 1.200000
v -1.100000 4.300001 1.200000
v -0.300000 4.200001 1.200000
v -0.300000 4.300001 1.200000
v -0.200000 4.300001 1.200000
v 0.200000 4.300001 1.200000
v 0.300000 4.300001 1.200000
v 0.300000 4.200001 1.200000
v 1.100000 4.300001 1.200000
v 1.300000 4.300001 1.200000
v -1.100000 4.400001 1.400000
v -1.000000 4.400001 1.400000
v 1.000000 4.400001 1.400000
v 1.100000 4.400001 1.400000
v -1.000000 4.400001 1.200000
v -1.100000 4.400001 1.200000
v 1.000000 4.400001 1.200000
v 1.100000 4.400001 1.200000
v -1.000000 4.500000 1.400000
v -0.800000 4.500000 1.400000
v 0.800000 4.500000 1.400000
v 1.000000 4.500000 1.400000
v -1.000000 4.500000 1.200000
v -0.800000 4.500000 1.200000
v 0.800000 4.500000 1.200000
v 1.000000 4.500000 1.200000
v -0.800000 4.600001 1.400000
v -0.600000 4.600001 1.400000
v 0.600000 4.600001 1.400000
v 0.800000 4.600001 1.400000
v -0.800000 4.600001 1.200000
v -0.600000 4.600001 1.200000
v 0.600000 4.600001 1.200000
v 0.800000 4.600001 1.200000
v -0.600000 4.700001 1.400000
v -0.300000 4.700001 1.400000
v 0.300000 4.700001 1.400000
v 0.600000 4.700001 1.400000
v -0.600000 4.700001 1.200000
v -0.300000 4.700001 1.200000
v 0.300000 4.700001 1.200000
v 0.600000 4.700001 1.200000
v -0.300000 4.800001 1.400000
v 0.300000 4.800001 1.400000
v -0.300000 4.800001 1.200000
v 0.300000 4.800001 1.200000
v -1.300000 2.200000 1.100000
v -1.200000 2.200000 1.000000
v 1.200000 2.200000 1.000000
v 1.300000 2.200000 1.100000
v -1.200000 2.200000 -1.200000
v 1.200000 2.200000 -1.200000
v -1.300000 2.200000 -1.300000
v 1.300000 2.200000 -1.300000
v -1.200000 2.300000 1.000000
v 1.200000 2.300000 1.000000
v -1.200000 2.300000 -1.200000
v 1.200000 2.300000 -1.200000
vn -0.0000 -1.0000 -0.0000
vn 1.0000 -0.0000 -0.0000
vn -0.0000 1.0000 -0.0000
vn -1.0000 -0.0000 -0.0000
vn -0.0000 -0.0000 -1.0000
vn -0.0000 -0.0000 1.0000
vt 0.948454 0.329897
vt 0.969072 0.350515
vt 0.969072 0.329897
vt 0.948454 0.309278
vt 0.268041 0.577320
vt 0.278351 0.556701
vt 0.268041 0.556701
vt 0.927835 0.000000
vt 0.948454 0.195876
vt 0.927835 0.195876
vt 0.577320 0.979381
vt 0.577320 0.711340
vt 0.587629 0.969072
vt 0.309278 0.216495
vt 0.546392 0.206186
vt 0.319588 0.206186
vt 0.804124 0.680412
vt 0.773196 0.463918
vt 0.773196 0.649485
vt 0.948454 0.597938
vt 0.969072 0.587629
vt 0.948454 0.587629
vt 0.123711 0.443299
vt 0.175258 0.484536
vt 0.061856 0.463918
vt 0.896907 0.432990
vt 0.927835 0.639175
vt 0.927835 0.432990
vt 0.896907 0.927835
vt 0.927835 0.948454
vt 0.896907 0.948454
vt 0.948454 0.371134
vt 0.969072 0.371134
vt 0.536082 0.958763
vt 0.556701 0.938144
vt 0.556701 0.958763
vt 0.969072 0.556701
vt 0.948454 0.567010
vt 0.948454 0.556701
vt 0.948454 0.494845
vt 0.969072 0.474227
vt 0.969072 0.494845
vt 0.969072 0.536082
vt 0.948454 0.546392
vt 0.948454 0.536082
vt 0.969072 0.309278
vt 0.948454 0.154639
vt 0.927835 0.412371
vt 0.896907 0.206186
vt 0.927835 0.206186
vt 0.494845 0.969072
vt 0.247423 0.979381
vt 0.247423 0.969072
vt 0.896907 0.000000
vt 0.927835 0.958763
vt 0.907216 0.948454
vt 0.907216 0.958763
vt -0.000000 0.969072
vt -0.000000 0.979381
vt 0.948454 0.783505
vt 0.927835 0.783505
vt 0.515464 0.969072
vt 0.515464 0.958763
vt 0.474227 0.989691
vt 0.247423 0.989691
vt 0.608247 0.463918
vt 0.577320 0.432990
vt 0.577320 0.649485
vt 0.494845 0.958763
vt 0.927835 0.381443
vt 0.958763 0.402062
vt 0.927835 0.402062
vt 0.865979 0.432990
vt 0.896907 0.639175
vt 0.278351 0.494845
vt 0.288660 0.515464
vt 0.288660 0.494845
vt 0.639175 0.463918
vt 0.670103 0.463918
vt 0.278351 0.536082
vt 0.278351 0.515464
vt 0.969072 0.432990
vt 0.948454 0.422680
vt 0.948454 0.432990
vt 0.969072 0.577320
vt 0.948454 0.577320
vt 0.948454 0.948454
vt 0.000000 0.742268
vt 0.927835 0.845361
vt 0.865979 0.206186
vt 0.896907 0.412371
vt 0.865979 0.927835
vt 0.969072 0.546392
vt 0.268041 0.494845
vt 0.268041 0.742268
vt 0.257732 0.731959
vt 0.247423 0.958763
vt 0.515464 0.948454
vt 0.247423 0.948454
vt 0.319588 0.463918
vt 0.546392 0.690722
vt 0.546392 0.463918
vt 0.865979 0.958763
vt 0.886598 0.948454
vt 0.865979 0.948454
vt 0.927835 0.876289
vt 0.896907 0.907216
vt 0.927835 0.907216
vt 0.268041 0.515464
vt 0.247423 0.938144
vt 0.927835 0.927835
vt 0.865979 0.216495
vt 0.597938 0.216495
vt 0.608247 0.206186
vt 0.896907 0.845361
vt 0.536082 0.969072
vt 0.969072 0.515464
vt 0.123711 0.247423
vt 0.092784 0.247423
vt 0.030928 0.206186
vt 0.948454 0.618557
vt 0.948454 0.000000
vt 0.969072 0.154639
vt 0.865979 0.639175
vt 0.865979 0.845361
vt 0.969072 0.597938
vt 0.948454 0.608247
vt 0.288660 0.536082
vt 0.969072 0.567010
vt 0.257732 0.443299
vt 0.226804 0.463918
vt 0.257732 0.402062
vt 0.515464 0.938144
vt 0.865979 0.000000
vt 0.288660 0.556701
vt 0.278351 0.577320
vt 0.865979 0.876289
vt 0.896907 0.876289
vt 0.268041 0.536082
vt 0.927835 0.422680
vt 0.865979 0.907216
vt 0.855670 0.721649
vt 0.865979 0.711340
vt 0.865979 0.979381
vt 0.927835 0.618557
vt 0.000000 0.494845
vt 0.010309 0.505155
vt 0.319588 0.927835
vt 0.288660 0.938144
vt 0.577320 0.938144
vt 0.886598 0.958763
vt 0.865979 0.412371
vt 0.268041 0.938144
vt 0.247423 0.742268
vt 0.701031 0.979381
vt 0.474227 0.979381
vt 0.948454 0.453608
vt 0.948454 0.474227
vt 0.969072 0.453608
vt 0.948454 0.350515
vt 0.587629 0.721649
vt 0.855670 0.969072
vt 0.319588 0.000000
vt 0.288660 0.000000
vt 0.288660 0.432990
vt 0.309278 0.432990
vt 0.577320 0.216495
vt 0.577320 0.000000
vt 0.546392 0.000000
vt 0.701031 0.659794
vt 0.752577 0.701031
vt 0.783505 0.701031
vt 0.783505 0.690722
vt 0.804124 0.690722
vt 0.742268 0.463918
vt 0.701031 0.463918
vt 0.742268 0.659794
vt 0.824742 0.680412
vt 0.824742 0.670103
vt 0.804124 0.628866
vt 0.804124 0.463918
vt 0.752577 0.649485
vt 0.752577 0.659794
vt 0.041237 0.453608
vt 0.030928 0.453608
vt 0.030928 0.443299
vt 0.010309 0.443299
vt 0.010309 0.432990
vt 0.000000 0.432990
vt 0.000000 0.000000
vt 0.030928 0.000000
vt 0.030928 0.247423
vt 0.041237 0.463918
vt 0.030928 0.402062
vt 0.041237 0.402062
vt 0.041237 0.412371
vt 0.061856 0.412371
vt 0.092784 0.432990
vt 0.113402 0.432990
vt 0.113402 0.443299
vt 0.082474 0.474227
vt 0.061856 0.474227
vt 0.113402 0.484536
vt 0.082474 0.484536
vt 0.175258 0.494845
vt 0.113402 0.494845
vt 0.164948 0.443299
vt 0.175258 0.443299
vt 0.536082 0.938144
vt 0.494845 0.979381
vt 0.948454 0.381443
vt 0.958763 0.381443
vt 0.835052 0.618557
vt 0.824742 0.618557
vt 0.824742 0.628866
vt 0.835052 0.670103
vt 0.835052 0.659794
vt 0.855670 0.659794
vt 0.855670 0.649485
vt 0.865979 0.649485
vt 0.618557 0.628866
vt 0.618557 0.618557
vt 0.608247 0.618557
vt 0.587629 0.649485
vt 0.587629 0.659794
vt 0.608247 0.659794
vt 0.608247 0.670103
vt 0.618557 0.670103
vt 0.639175 0.628866
vt 0.618557 0.680412
vt 0.639175 0.680412
vt 0.835052 0.463918
vt 0.639175 0.690722
vt 0.659794 0.690722
vt 0.659794 0.701031
vt 0.690722 0.701031
vt 0.690722 0.711340
vt 0.752577 0.711340
vt 0.690722 0.659794
vt 0.690722 0.649485
vt 0.670103 0.649485
vt 0.000000 0.989691
vt 0.969072 0.422680
vt 0.948454 0.958763
vt 0.010309 0.731959
vt 0.257732 0.505155
vt 0.288660 0.463918
vt 0.288660 0.690722
vt 0.319588 0.690722
vt 0.319588 0.721649
vt 0.546392 0.721649
vt 0.546392 0.432990
vt 0.319588 0.432990
vt 0.577320 0.690722
vt 0.577320 0.463918
vt 0.597938 0.432990
vt 0.608247 0.000000
vt 0.835052 0.000000
vt 0.835052 0.206186
vt 0.556701 0.969072
vt 0.948454 0.515464
vt 0.226804 0.474227
vt 0.206186 0.474227
vt 0.206186 0.484536
vt 0.175258 0.432990
vt 0.195876 0.432990
vt 0.226804 0.412371
vt 0.257732 0.206186
vt 0.257732 0.247423
vt 0.226804 0.247423
vt 0.195876 0.247423
vt 0.164948 0.247423
vt 0.061856 0.247423
vt 0.969072 0.000000
vt 0.969072 0.608247
vt 0.257732 0.000000
vt 0.278351 0.432990
vt 0.278351 0.443299
vt 0.257732 0.453608
vt 0.247423 0.453608
vt 0.247423 0.463918
vt 0.247423 0.412371
vt 0.247423 0.402062
vt 0.288660 0.577320
vt 0.958763 0.422680
vt 0.288660 0.721649
vt 0.577320 0.721649
vt 0.546392 0.927835
vt 0.701031 0.989691
s 0
usemtl Chair_4_Material
f 60/1/1 67/2/1 62/3/1
f 65/3/1 58/4/1 64/1/1
f 96/5/1 88/6/1 86/7/1
f 41/8/2 96/9/2 86/10/2
f 35/11/3 29/12/3 33/13/3
f 29/14/4 23/15/4 19/16/4
f 115/17/5 50/18/5 78/19/5
f 133/20/4 130/21/4 126/22/4
f 85/23/6 127/24/6 110/25/6
f 11/26/4 28/27/4 15/28/4
f 43/29/3 52/30/3 51/31/3
f 83/2/1 77/32/1 93/33/1
f 99/34/3 90/35/3 100/36/3
f 107/37/2 112/38/2 103/39/2
f 115/40/3 112/41/3 116/42/3
f 99/43/2 104/44/2 89/45/2
f 56/46/4 44/47/4 54/4/4
f 27/48/2 10/49/2 14/50/2
f 139/51/6 145/52/6 138/53/6
f 24/50/6 9/54/6 10/8/6
f 97/55/4 87/56/4 88/57/4
f 32/58/2 144/52/2 140/59/2
f 51/60/2 60/30/2 43/61/2
f 115/34/2 120/62/2 111/63/2
f 147/64/4 138/52/4 145/65/4
f 45/66/5 29/67/5 76/68/5
f 33/69/4 137/53/4 143/51/4
f 47/9/2 71/70/2 39/10/2
f 125/70/3 130/71/3 129/72/3
f 5/73/5 20/74/5 6/26/5
f 61/75/1 56/76/1 54/77/1
f 30/73/5 46/78/5 47/79/5
f 141/59/5 148/65/5 142/52/5
f 74/76/3 79/80/3 73/81/3
f 67/82/4 61/83/4 62/84/4
f 123/85/2 128/22/2 119/86/2
f 79/87/2 90/55/2 73/30/2
f 145/88/3 148/53/3 147/58/3
f 26/89/6 11/74/6 12/27/6
f 3/90/4 21/91/4 7/49/4
f 50/31/3 41/92/3 42/29/3
f 109/39/4 105/93/4 102/44/4
f 140/94/3 144/95/3 142/96/3
f 143/97/5 34/98/5 33/99/5
f 20/100/1 25/101/1 21/102/1
f 81/103/4 75/104/4 70/105/4
f 4/106/1 7/107/1 8/108/1
f 75/80/3 69/109/3 70/81/3
f 31/110/6 140/98/6 137/99/6
f 48/111/3 39/107/3 40/108/3
f 36/112/2 30/113/2 22/114/2
f 1/115/1 6/106/1 2/89/1
f 101/116/4 92/36/4 82/34/4
f 122/117/3 117/40/3 118/42/3
f 40/118/6 39/119/6 17/120/6
f 42/28/4 78/121/4 50/84/4
f 37/122/2 55/123/2 53/47/2
f 22/115/5 7/124/5 21/125/5
f 131/126/2 134/127/2 127/20/2
f 117/51/4 114/63/4 110/69/4
f 94/6/1 85/128/1 84/80/1
f 125/86/4 122/129/4 118/38/4
f 89/130/6 111/131/6 54/132/6
f 81/133/3 92/34/3 91/63/3
f 2/134/2 20/49/2 17/90/2
f 104/135/3 107/136/3 103/6/3
f 10/115/1 13/137/1 14/138/1
f 105/6/3 101/139/3 102/80/3
f 128/71/3 131/140/3 127/72/3
f 37/141/3 46/29/3 45/92/3
f 32/142/3 30/143/3 36/144/3
f 38/145/4 65/60/4 46/121/4
f 137/146/3 138/147/3 143/88/3
f 27/148/5 35/149/5 36/150/5
f 83/104/2 94/57/2 84/151/2
f 123/45/3 120/117/3 124/43/3
f 133/152/3 136/28/3 135/73/3
f 95/153/4 40/154/4 85/110/4
f 142/155/2 146/64/2 139/156/2
f 109/157/3 114/41/3 113/158/3
f 12/138/1 15/141/1 16/107/1
f 57/140/2 64/84/2 58/28/2
f 78/159/1 87/84/1 98/157/1
f 55/109/1 57/75/1 53/94/1
f 60/1/1 66/160/1 67/2/1
f 65/3/1 59/46/1 58/4/1
f 96/5/1 97/136/1 88/6/1
f 41/8/2 49/122/2 96/9/2
f 29/12/3 32/142/3 31/161/3
f 33/13/3 34/162/3 36/144/3
f 29/12/3 31/161/3 33/13/3
f 33/13/3 36/144/3 35/11/3
f 5/163/4 1/164/4 69/165/4
f 69/165/4 76/166/4 29/14/4
f 35/167/4 13/168/4 9/169/4
f 35/167/4 9/169/4 23/15/4
f 5/163/4 69/165/4 29/14/4
f 29/14/4 35/167/4 23/15/4
f 19/16/4 5/163/4 29/14/4
f 95/170/5 131/171/5 132/172/5
f 123/173/5 124/174/5 115/17/5
f 95/170/5 132/172/5 123/173/5
f 49/175/5 48/176/5 95/170/5
f 96/177/5 49/175/5 95/170/5
f 95/170/5 123/173/5 115/17/5
f 115/17/5 116/178/5 107/179/5
f 66/180/5 51/181/5 50/18/5
f 115/17/5 107/179/5 66/180/5
f 96/177/5 95/170/5 115/17/5
f 78/19/5 98/182/5 97/183/5
f 97/183/5 96/177/5 115/17/5
f 115/17/5 66/180/5 50/18/5
f 78/19/5 97/183/5 115/17/5
f 133/20/4 135/126/4 130/21/4
f 102/184/6 101/185/6 82/186/6
f 82/186/6 81/187/6 70/188/6
f 70/188/6 69/189/6 1/190/6
f 1/190/6 2/191/6 17/120/6
f 1/190/6 17/120/6 37/192/6
f 82/186/6 70/188/6 1/190/6
f 110/25/6 109/193/6 102/184/6
f 1/190/6 37/192/6 53/194/6
f 53/194/6 57/195/6 58/196/6
f 58/196/6 59/197/6 71/198/6
f 71/198/6 83/199/6 84/200/6
f 58/196/6 71/198/6 84/200/6
f 82/186/6 1/190/6 53/194/6
f 82/186/6 53/194/6 58/196/6
f 110/25/6 102/184/6 82/186/6
f 118/201/6 117/202/6 110/25/6
f 126/203/6 125/204/6 118/201/6
f 134/205/6 133/206/6 126/203/6
f 86/207/6 88/208/6 127/24/6
f 127/24/6 134/205/6 126/203/6
f 126/203/6 118/201/6 110/25/6
f 110/25/6 82/186/6 58/196/6
f 110/25/6 58/196/6 84/200/6
f 127/24/6 126/203/6 110/25/6
f 85/23/6 86/207/6 127/24/6
f 110/25/6 84/200/6 85/23/6
f 11/26/4 25/74/4 28/27/4
f 43/29/3 44/111/3 52/30/3
f 83/2/1 71/160/1 77/32/1
f 99/34/3 89/209/3 90/35/3
f 107/37/2 116/129/2 112/38/2
f 115/40/3 111/158/3 112/41/3
f 99/43/2 108/93/2 104/44/2
f 56/46/4 52/123/4 44/47/4
f 27/48/2 24/91/2 10/49/2
f 139/51/6 146/210/6 145/52/6
f 24/50/6 23/49/6 9/54/6
f 97/55/4 98/30/4 87/56/4
f 32/58/2 34/53/2 144/52/2
f 51/60/2 66/87/2 60/30/2
f 115/34/2 124/116/2 120/62/2
f 147/64/4 141/156/4 138/52/4
f 45/66/5 46/78/5 29/67/5
f 33/69/4 31/97/4 137/53/4
f 47/9/2 77/211/2 71/70/2
f 125/70/3 126/212/3 130/71/3
f 5/73/5 19/124/5 20/74/5
f 61/75/1 68/81/1 56/76/1
f 56/213/5 68/214/5 67/215/5
f 67/215/5 66/180/5 107/179/5
f 107/179/5 108/216/5 99/217/5
f 99/217/5 100/218/5 79/219/5
f 79/219/5 80/220/5 30/73/5
f 30/73/5 29/67/5 46/78/5
f 99/217/5 79/219/5 30/73/5
f 67/215/5 107/179/5 99/217/5
f 56/213/5 67/215/5 99/217/5
f 64/221/5 63/222/5 55/223/5
f 55/223/5 45/66/5 76/68/5
f 75/224/5 91/225/5 92/226/5
f 55/223/5 76/68/5 75/224/5
f 64/221/5 55/223/5 75/224/5
f 92/226/5 106/227/5 105/228/5
f 64/221/5 75/224/5 92/226/5
f 65/229/5 64/221/5 92/226/5
f 105/228/5 113/230/5 114/231/5
f 65/229/5 92/226/5 105/228/5
f 56/213/5 99/217/5 30/73/5
f 52/232/5 56/213/5 30/73/5
f 65/229/5 105/228/5 114/231/5
f 114/231/5 121/233/5 122/234/5
f 122/234/5 129/235/5 130/236/5
f 130/236/5 135/237/5 136/238/5
f 136/238/5 131/171/5 95/170/5
f 94/239/5 93/240/5 77/241/5
f 136/238/5 95/170/5 94/239/5
f 122/234/5 130/236/5 136/238/5
f 65/229/5 114/231/5 122/234/5
f 51/181/5 52/232/5 30/73/5
f 50/18/5 51/181/5 30/73/5
f 46/78/5 65/229/5 122/234/5
f 122/234/5 136/238/5 94/239/5
f 122/234/5 94/239/5 77/241/5
f 49/175/5 50/18/5 30/73/5
f 48/176/5 49/175/5 30/73/5
f 46/78/5 122/234/5 77/241/5
f 47/79/5 48/176/5 30/73/5
f 46/78/5 77/241/5 47/79/5
f 141/59/5 147/242/5 148/65/5
f 74/76/3 80/128/3 79/80/3
f 67/82/4 68/243/4 61/83/4
f 123/85/2 132/21/2 128/22/2
f 79/87/2 100/244/2 90/55/2
f 145/88/3 146/154/3 148/53/3
f 26/89/6 25/115/6 11/74/6
f 3/90/4 18/152/4 21/91/4
f 50/31/3 49/105/3 41/92/3
f 109/39/4 113/37/4 105/93/4
f 143/88/3 138/147/3 141/245/3
f 143/88/3 141/245/3 142/96/3
f 139/246/3 137/146/3 140/94/3
f 144/95/3 143/88/3 142/96/3
f 142/96/3 139/246/3 140/94/3
f 143/97/5 144/63/5 34/98/5
f 20/100/1 19/247/1 23/248/1
f 24/249/1 27/250/1 28/251/1
f 20/100/1 23/248/1 24/249/1
f 18/252/1 17/253/1 20/100/1
f 26/254/1 22/255/1 21/102/1
f 21/102/1 18/252/1 20/100/1
f 20/100/1 24/249/1 28/251/1
f 25/101/1 26/254/1 21/102/1
f 20/100/1 28/251/1 25/101/1
f 81/103/4 91/151/4 75/104/4
f 4/106/1 3/138/1 7/107/1
f 75/80/3 76/139/3 69/109/3
f 31/110/6 32/133/6 140/98/6
f 48/111/3 47/29/3 39/107/3
f 30/113/2 80/256/2 74/67/2
f 74/67/2 4/168/2 8/257/2
f 30/113/2 74/67/2 8/257/2
f 12/258/2 16/134/2 36/112/2
f 26/259/2 12/258/2 36/112/2
f 30/113/2 8/257/2 22/114/2
f 22/114/2 26/259/2 36/112/2
f 1/115/1 5/138/1 6/106/1
f 101/116/4 106/260/4 92/36/4
f 122/117/3 121/261/3 117/40/3
f 111/131/6 120/262/6 119/263/6
f 119/263/6 128/264/6 127/24/6
f 88/208/6 87/265/6 72/266/6
f 119/263/6 127/24/6 88/208/6
f 60/267/6 111/131/6 119/263/6
f 18/268/6 44/269/6 43/270/6
f 43/270/6 60/267/6 119/263/6
f 119/263/6 88/208/6 72/266/6
f 119/263/6 72/266/6 42/271/6
f 17/120/6 18/268/6 43/270/6
f 43/270/6 119/263/6 42/271/6
f 41/272/6 86/207/6 85/23/6
f 17/120/6 43/270/6 42/271/6
f 41/272/6 85/23/6 40/118/6
f 17/120/6 42/271/6 41/272/6
f 38/273/6 37/192/6 17/120/6
f 71/198/6 59/197/6 38/273/6
f 39/119/6 71/198/6 38/273/6
f 17/120/6 41/272/6 40/118/6
f 39/119/6 38/273/6 17/120/6
f 42/28/4 72/145/4 78/121/4
f 37/122/2 45/274/2 55/123/2
f 22/115/5 8/74/5 7/124/5
f 131/126/2 136/275/2 134/127/2
f 117/51/4 121/62/4 114/63/4
f 94/6/1 95/135/1 85/128/1
f 125/86/4 129/85/4 122/129/4
f 18/268/6 3/276/6 4/164/6
f 4/164/6 74/165/6 73/277/6
f 73/277/6 90/278/6 89/130/6
f 89/130/6 104/279/6 103/280/6
f 103/280/6 112/281/6 111/131/6
f 111/131/6 60/267/6 62/282/6
f 62/282/6 61/283/6 54/132/6
f 44/269/6 18/268/6 4/164/6
f 111/131/6 62/282/6 54/132/6
f 54/132/6 44/269/6 4/164/6
f 4/164/6 73/277/6 89/130/6
f 89/130/6 103/280/6 111/131/6
f 54/132/6 4/164/6 89/130/6
f 81/133/3 82/209/3 92/34/3
f 2/134/2 6/54/2 20/49/2
f 104/135/3 108/284/3 107/136/3
f 10/115/1 9/125/1 13/137/1
f 105/6/3 106/7/3 101/139/3
f 128/71/3 132/285/3 131/140/3
f 37/141/3 38/107/3 46/29/3
f 36/144/3 34/162/3 32/142/3
f 32/142/3 29/12/3 30/143/3
f 38/145/4 59/61/4 65/60/4
f 137/146/3 139/246/3 138/147/3
f 27/148/5 14/250/5 13/286/5
f 36/150/5 16/287/5 15/251/5
f 36/150/5 15/251/5 28/288/5
f 27/148/5 13/286/5 35/149/5
f 36/150/5 28/288/5 27/148/5
f 83/104/2 93/56/2 94/57/2
f 123/45/3 119/261/3 120/117/3
f 133/152/3 134/48/3 136/28/3
f 95/153/4 48/95/4 40/154/4
f 142/155/2 148/289/2 146/64/2
f 109/157/3 110/159/3 114/41/3
f 12/138/1 11/137/1 15/141/1
f 57/140/2 63/83/2 64/84/2
f 78/159/1 72/82/1 87/84/1
f 55/109/1 63/81/1 57/75/1
