# Blender 5.0.1
# www.blender.org
mtllib computer_setup_5.mtl
o computer_setup_5
v -3.500001 0.100000 1.600000
v -3.500001 -0.000000 1.600000
v 1.900000 -0.000000 1.600000
v 1.900000 0.100000 1.600000
v -2.600001 0.100000 1.300000
v 0.300000 0.100000 1.300000
v 1.200000 0.100000 0.400000
v 1.500000 0.100000 0.400000
v 1.100000 0.100000 0.300000
v 1.200000 0.100000 0.300000
v 1.500000 0.100000 0.300000
v 1.600000 0.100000 0.300000
v -2.600001 0.100000 -0.200000
v 0.300000 0.100000 -0.200000
v -2.700001 0.100000 -0.300000
v -2.300001 0.100000 -0.300000
v 0.000000 0.100000 -0.300000
v 0.400000 0.100000 -0.300000
v 1.100000 0.100000 -0.300000
v 1.600000 0.100000 -0.300000
v -2.300001 0.100000 -0.400000
v -2.200001 0.100000 -0.400000
v -1.600000 0.100000 -0.400000
v -0.700000 0.100000 -0.400000
v -0.100000 0.100000 -0.400000
v 0.000000 0.100000 -0.400000
v 1.200000 0.100000 -0.400000
v 1.200000 0.100000 -0.300000
v 1.500000 0.100000 -0.300000
v 1.500000 0.100000 -0.400000
v -2.700001 0.100000 -0.500000
v -2.200001 0.100000 -0.500000
v -2.100000 0.100000 -0.500000
v -1.800000 0.100000 -0.500000
v -1.600000 0.100000 -0.500000
v -0.700000 0.100000 -0.500000
v -0.500000 0.100000 -0.500000
v -0.200000 0.100000 -0.500000
v -0.100000 0.100000 -0.500000
v 0.400000 0.100000 -0.500000
v -2.600001 0.100000 -0.500000
v -2.100000 0.100000 -0.600000
v -1.800001 0.100000 -0.600000
v -0.500000 0.100000 -0.600000
v -0.200000 0.100000 -0.600000
v 0.300000 0.100000 -0.500000
v -2.600001 0.100000 -0.800000
v 0.300000 0.100000 -0.800000
v -2.500000 0.100000 -0.800000
v 0.200000 0.100000 -0.800000
v -2.500000 0.100000 -1.000000
v 0.200000 0.100000 -1.000000
v -2.400001 0.100000 -1.100000
v -2.400001 0.100000 -1.000000
v 0.100000 0.100000 -1.000000
v 0.100000 0.100000 -1.100000
v -2.300001 0.100000 -1.100000
v 0.000000 0.100000 -1.100000
v -2.300001 0.100000 -1.300000
v 0.000000 0.100000 -1.300000
v -2.200001 0.100000 -1.400000
v -2.200001 0.100000 -1.300000
v -0.100000 0.100000 -1.300000
v -0.100000 0.100000 -1.400000
v -3.500001 0.100000 -1.500000
v -3.500001 -0.000000 -1.500000
v -2.000000 0.100000 -1.500000
v -2.000000 0.100000 -1.400000
v -1.600000 0.100000 -1.500000
v -0.700000 0.100000 -1.500000
v -0.300000 0.100000 -1.500000
v -0.300000 0.100000 -1.400000
v 1.900000 -0.000000 -1.500000
v 1.900000 0.100000 -1.500000
v 2.300001 -0.000000 1.500000
v 3.700001 -0.000000 1.500000
v 2.300001 0.100000 1.300000
v 2.300001 0.100000 1.200000
v 2.400001 0.100000 1.200000
v 2.400001 0.100000 1.300000
v 2.300001 -0.000000 -1.800001
v 3.500001 0.100000 -1.800000
v 3.600001 0.100000 -1.800000
v 3.500001 0.100000 -1.700001
v 3.600001 0.100000 -1.700001
v 3.700001 -0.000000 -1.800001
v 2.400001 0.900000 1.500000
v 2.400001 0.900000 1.400000
v 3.600001 0.900000 1.400000
v 3.600001 0.900000 1.500000
v -2.300001 0.800000 0.000000
v 0.000000 0.800000 0.000000
v -2.300001 0.800000 -0.300000
v 0.000000 0.800000 -0.300000
v 2.400001 1.000000 1.400000
v 2.400001 1.000000 1.500000
v 3.600001 1.000000 1.400000
v 3.600001 1.000000 1.500000
v -2.300001 1.000000 0.000000
v -2.300001 1.000000 -0.100000
v 0.000000 1.000000 -0.100000
v 0.000000 1.000000 0.000000
v -2.300001 1.000000 -0.300000
v 0.000000 1.000000 -0.300000
v -2.300001 1.000000 -0.400000
v 0.000000 1.000000 -0.400000
v -2.300001 1.200000 -0.100000
v -2.300001 1.200000 -0.200000
v 0.000000 1.200000 -0.200000
v 0.000000 1.200000 -0.100000
v -2.300001 1.200000 -0.400000
v 0.000000 1.200000 -0.400000
v 2.300001 1.200000 -1.000000
v 2.400001 1.200000 -1.000000
v 2.300001 1.200000 -1.200000
v 2.400001 1.200000 -1.200000
v 2.400001 1.300000 1.500000
v 2.400001 1.300000 1.400000
v 3.600001 1.300000 1.400000
v 3.600001 1.300000 1.500000
v -2.300001 1.200000 -0.500000
v -1.400000 1.200000 -0.500000
v -0.900000 1.200000 -0.500000
v 0.000000 1.200000 -0.500000
v 2.300001 1.300000 -0.900000
v 2.400001 1.300000 -1.000000
v 2.300001 1.300000 -1.000000
v 2.400001 1.300000 -0.900000
v 2.300001 1.300000 -1.200000
v 2.300001 1.300000 -1.300000
v 2.400001 1.300000 -1.300000
v 2.400001 1.300000 -1.200000
v 2.400001 1.400000 1.400000
v 2.400001 1.400000 1.500000
v 3.600001 1.400000 1.400000
v 3.600001 1.400000 1.500000
v -2.300001 1.400000 -0.200000
v -2.300001 1.400000 -0.300000
v 0.000000 1.400000 -0.300000
v 0.000000 1.400000 -0.200000
v -2.300001 1.400000 -0.500000
v -1.400000 1.400000 -0.500000
v -0.900000 1.400000 -0.500000
v 0.000000 1.400000 -0.500000
v -2.300001 1.400000 -0.600000
v -1.400000 1.400000 -0.600000
v -0.900000 1.400000 -0.600000
v 0.000000 1.400000 -0.600000
v 2.400001 1.500000 -0.900000
v 2.300001 1.500000 -0.900000
v 2.300001 1.500000 -1.300000
v 2.400001 1.500000 -1.300000
v -2.300001 1.600000 -0.300000
v -2.300001 1.600000 -0.400000
v 0.000000 1.600000 -0.400000
v 0.000000 1.600000 -0.300000
v -2.300001 1.600000 -0.600000
v 0.000000 1.600000 -0.600000
v 2.400001 1.500000 -1.000000
v 2.400001 1.600000 -1.000000
v 2.300001 1.600000 -1.000000
v 2.300001 1.500000 -1.000000
v 2.300001 1.500000 -1.200000
v 2.300001 1.600000 -1.200000
v 2.400001 1.600000 -1.200000
v 2.400001 1.500000 -1.200000
v 2.400001 1.700000 1.500000
v 2.400001 1.700000 1.400000
v 3.600001 1.700000 1.400000
v 3.600001 1.700000 1.500000
v -2.300001 1.600000 -0.700000
v 0.000000 1.600000 -0.700000
v 2.400001 1.800000 1.400000
v 2.400001 1.800000 1.500000
v 3.600001 1.800000 1.400000
v 3.600001 1.800000 1.500000
v -2.300001 1.800000 -0.400000
v -2.300001 1.800000 -0.500000
v 0.000000 1.800000 -0.500000
v 0.000000 1.800000 -0.400000
v -2.300001 1.800000 -0.700000
v 0.000000 1.800000 -0.700000
v -2.300001 1.800000 -0.800000
v 0.000000 1.800000 -0.800000
v -2.300001 2.000000 -0.500000
v -2.300001 2.000000 -0.600000
v 0.000000 2.000000 -0.600000
v 0.000000 2.000000 -0.500000
v -2.300001 2.000000 -0.800000
v 0.000000 2.000000 -0.800000
v 2.400001 2.100000 1.500000
v 2.400001 2.100000 1.400000
v 3.600001 2.100000 1.400000
v 3.600001 2.100000 1.500000
v 2.300001 2.100000 1.200000
v 2.400001 2.100000 1.200000
v -2.300001 2.000000 -0.900000
v 0.000000 2.000000 -0.900000
v 2.400001 2.100000 -1.700000
v 2.300001 2.100000 -1.800001
v 3.500001 2.100000 -1.800001
v 3.500001 2.100000 -1.700000
v 2.400001 2.200000 1.300000
v 2.300001 2.200000 1.300000
v -2.300001 2.200000 -0.600000
v -2.300001 2.200000 -0.700000
v 0.000000 2.200000 -0.700000
v 0.000000 2.200000 -0.600000
v 3.600001 2.200000 -1.800000
v 3.600001 2.200000 -1.700001
v 2.400001 2.300000 1.400000
v 2.400001 2.300000 1.500000
v 3.600001 2.300000 1.400000
v 3.600001 2.300000 1.500000
v 2.400001 2.200000 -1.700000
v 2.300001 2.200000 -1.800001
v 2.300001 2.400000 1.500000
v 3.700001 2.400000 1.500000
v -2.300001 2.400000 -0.700000
v 0.000000 2.400000 -0.700000
v -2.300001 2.400000 -0.900000
v 0.000000 2.400000 -0.900000
v 2.300001 2.400000 -1.800001
v 3.700001 2.400000 -1.800001
v -2.600001 0.199999 1.300000
v 0.300000 0.199999 1.300000
v 1.200000 0.199999 0.400000
v 1.200000 0.200000 0.300000
v 1.500000 0.200000 0.300000
v 1.500000 0.199999 0.400000
v 1.100000 0.199999 0.300000
v 1.600000 0.199999 0.300000
v -2.600001 0.199999 -0.200000
v 0.300000 0.199999 -0.200000
v 1.200000 0.200000 -0.300000
v 1.100000 0.199999 -0.300000
v 1.600000 0.199999 -0.300000
v 1.500000 0.200000 -0.300000
v 1.200000 0.199999 -0.400000
v 1.500000 0.199999 -0.400000
v 1.200000 0.299999 0.300000
v 1.500000 0.299999 0.300000
v 1.200000 0.299999 -0.300000
v 1.500000 0.299999 -0.300000
v -2.700001 0.199999 -0.300000
v -2.300001 0.200000 -0.400000
v -2.300001 0.199999 -0.300000
v 0.000000 0.199999 -0.300000
v 0.000000 0.200000 -0.400000
v 0.400000 0.199999 -0.300000
v -2.600001 0.200000 -0.500000
v -2.700001 0.199999 -0.500000
v -2.200001 0.200000 -0.500000
v -2.200001 0.199999 -0.400000
v -1.600000 0.199999 -0.400000
v -1.600000 0.200000 -0.500000
v -0.700000 0.200000 -0.500000
v -0.700000 0.199999 -0.400000
v -0.100000 0.199999 -0.400000
v -0.100000 0.200000 -0.500000
v 0.300000 0.200000 -0.500000
v 0.400000 0.199999 -0.500000
v -2.100000 0.200000 -0.600000
v -2.100000 0.199999 -0.500000
v -1.800001 0.199999 -0.500000
v -1.800000 0.200000 -0.600000
v -0.500000 0.200000 -0.600000
v -0.500000 0.199999 -0.500000
v -0.200000 0.199999 -0.500000
v -0.200000 0.200000 -0.600000
v -1.400000 0.200000 -0.700000
v -0.900000 0.200000 -0.700000
v -2.500000 0.200000 -0.800000
v -2.600001 0.199999 -0.800000
v 0.200000 0.200000 -0.800000
v 0.300000 0.199999 -0.800000
v -2.400001 0.200000 -1.000000
v -2.500000 0.199999 -1.000000
v 0.100000 0.200000 -1.000000
v 0.200000 0.199999 -1.000000
v -2.300001 0.200000 -1.100000
v -2.400001 0.199999 -1.100000
v -1.400000 0.200000 -1.100000
v -0.900000 0.200000 -1.100000
v 0.000000 0.200000 -1.100000
v 0.100000 0.199999 -1.100000
v -2.200001 0.200000 -1.300000
v -2.300001 0.199999 -1.300000
v -0.100000 0.200000 -1.300000
v 0.000000 0.199999 -1.300000
v -2.200001 0.199999 -1.400000
v -2.000000 0.200000 -1.400000
v -0.300000 0.200000 -1.400000
v -0.100000 0.199999 -1.400000
v -2.000000 0.199999 -1.500000
v -1.600000 0.200000 -1.500000
v -0.700000 0.200000 -1.500000
v -0.300000 0.199999 -1.500000
v -1.600000 0.199999 -1.600000
v -1.600000 0.100000 -1.600000
v -0.700000 0.100000 -1.600000
v -0.700000 0.199999 -1.600000
v -1.400000 0.800000 -0.700000
v -0.900000 0.800000 -0.700000
v -1.400000 0.800000 -1.000000
v -0.900000 0.800000 -1.000000
v -1.400000 0.800000 -1.100000
v -0.900000 0.800000 -1.100000
v -1.400000 0.800000 -0.600000
v -0.900000 0.800000 -0.600000
v -1.400000 1.100000 -0.600000
v -0.900000 1.100000 -0.600000
v -1.400000 1.100000 -0.900000
v -0.900000 1.100000 -0.900000
v -1.400000 1.100000 -1.000000
v -0.900000 1.100000 -1.000000
v -1.400000 1.100000 -0.500000
v -0.900000 1.100000 -0.500000
v -1.400000 1.400000 -0.900000
v -0.900000 1.400000 -0.900000
vn -1.0000 -0.0000 -0.0000
vn -0.0000 1.0000 -0.0000
vn -0.0000 -0.0000 -1.0000
vn -0.0000 -0.0000 1.0000
vn -0.0000 -1.0000 -0.0000
vn 1.0000 -0.0000 -0.0000
vt 0.884956 0.044248
vt 0.893805 0.035398
vt 0.884956 0.035398
vt 0.831858 0.823009
vt 0.787611 0.831858
vt 0.787611 0.823009
vt 0.893805 0.044248
vt 0.884956 0.053097
vt 0.893805 0.053097
vt 0.876106 0.088496
vt 0.884956 0.097345
vt 0.884956 0.088496
vt 0.575221 0.814159
vt 0.469027 0.823009
vt 0.469027 0.814159
vt 0.849558 0.849558
vt 0.840708 0.796460
vt 0.849558 0.796460
vt 0.752212 0.548673
vt 0.477876 0.539823
vt 0.477876 0.548673
vt 0.327434 0.938053
vt 0.123894 0.920354
vt 0.123894 0.938053
vt 0.884956 0.017699
vt 0.893805 0.026549
vt 0.893805 0.017699
vt 0.327434 0.955752
vt 0.123894 0.955752
vt 0.884956 0.079646
vt 0.389381 0.823009
vt 0.433628 0.796460
vt 0.433628 0.823009
vt 0.884956 0.000000
vt 0.876106 0.008850
vt 0.884956 0.008850
vt 0.867257 0.716814
vt 0.884956 0.725664
vt 0.867257 0.725664
vt 0.477876 0.513274
vt 0.681416 0.477876
vt 0.477876 0.477876
vt 0.292035 0.734513
vt 0.238938 0.681416
vt 0.238938 0.690265
vt 0.876106 0.168142
vt 0.884956 0.159292
vt 0.876106 0.159292
vt 0.893805 0.681416
vt 0.867257 0.690265
vt 0.867257 0.681416
vt 0.469027 0.778761
vt 0.389381 0.796460
vt 0.469027 0.796460
vt 0.460177 0.805310
vt 0.433628 0.814159
vt 0.433628 0.805310
vt 0.584071 0.814159
vt 0.584071 0.831858
vt 0.079646 0.982301
vt 0.123894 0.982301
vt 0.203540 0.973451
vt 0.283186 0.902655
vt 0.486726 0.893805
vt 0.283186 0.893805
vt 0.000000 0.548673
vt 0.477876 0.274336
vt 0.000000 0.274336
vt 0.893805 0.061947
vt 0.849558 0.185841
vt 0.840708 0.000000
vt 0.840708 0.176991
vt 0.831858 0.831858
vt 0.787611 0.840708
vt 0.884956 0.858407
vt 0.858407 0.867257
vt 0.858407 0.858407
vt 0.690265 0.946903
vt 0.946903 0.955752
vt 0.690265 0.955752
vt 0.690265 0.964602
vt 0.893805 0.973451
vt 0.690265 0.973451
vt 0.893805 0.088496
vt 0.893805 0.079646
vt 0.876106 0.840708
vt 0.884956 0.849558
vt 0.884956 0.840708
vt 0.876106 0.831858
vt 0.867257 0.823009
vt 0.867257 0.831858
vt 0.884956 0.061947
vt 0.893805 0.070796
vt 0.283186 0.876106
vt 0.761062 0.867257
vt 0.761062 0.876106
vt 0.575221 0.849558
vt 0.575221 0.831858
vt 0.876106 0.176991
vt 0.867257 0.000000
vt 0.876106 0.000000
vt 0.840708 0.513274
vt 0.796460 0.522124
vt 0.840708 0.522124
vt 0.168142 0.849558
vt 0.203540 0.902655
vt 0.176991 0.831858
vt 0.115044 0.769912
vt 0.123894 0.973451
vt 0.123894 0.761062
vt 0.637168 0.938053
vt 0.530973 0.946903
vt 0.530973 0.938053
vt 0.575221 0.858407
vt 0.495575 0.849558
vt 0.495575 0.858407
vt 0.522124 0.823009
vt 0.575221 0.823009
vt 0.637168 0.929204
vt 0.530973 0.929204
vt 0.849558 0.831858
vt 0.858407 0.814159
vt 0.849558 0.814159
vt 0.460177 0.796460
vt 0.460177 0.823009
vt 0.548673 0.796460
vt 0.557522 0.805310
vt 0.548673 0.805310
vt 0.876106 0.070796
vt 0.876106 0.061947
vt 0.893805 0.707965
vt 0.867257 0.699115
vt 0.893805 0.699115
vt 0.876106 0.787611
vt 0.884956 0.796460
vt 0.884956 0.787611
vt 0.530973 0.920354
vt 0.876106 0.150442
vt 0.884956 0.141593
vt 0.876106 0.141593
vt 0.884956 0.743363
vt 0.867257 0.734513
vt 0.884956 0.734513
vt 0.876106 0.079646
vt 0.637168 0.920354
vt 0.893805 0.008850
vt 0.893805 0.000000
vt 0.530973 0.955752
vt 0.876106 0.026549
vt 0.876106 0.017699
vt 0.504425 0.814159
vt 0.584071 0.805310
vt 0.504425 0.805310
vt 0.814159 0.539823
vt 0.681416 0.530973
vt 0.681416 0.539823
vt 0.566372 0.796460
vt 0.575221 0.805310
vt 0.575221 0.796460
vt 0.292035 0.840708
vt 0.292035 0.867257
vt 0.327434 0.814159
vt 0.460177 0.814159
vt 0.876106 0.097345
vt 0.884956 0.106195
vt 0.858407 0.831858
vt 0.849558 0.840708
vt 0.796460 0.504425
vt 0.840708 0.477876
vt 0.796460 0.477876
vt 0.690265 0.893805
vt 0.893805 0.911504
vt 0.893805 0.893805
vt 0.867257 0.787611
vt 0.876106 0.796460
vt 0.584071 0.761062
vt 0.292035 0.548673
vt 0.584071 0.548673
vt 0.823009 0.752212
vt 0.796460 0.778761
vt 0.805310 0.707965
vt 0.681416 0.513274
vt 0.831858 0.469027
vt 0.725664 0.477876
vt 0.725664 0.469027
vt 0.495575 0.840708
vt 0.389381 0.849558
vt 0.389381 0.840708
vt 0.876106 0.044248
vt 0.876106 0.035398
vt 0.840708 0.460177
vt 0.946903 0.451327
vt 0.840708 0.451327
vt 0.477876 0.185841
vt 0.601770 0.477876
vt 0.601770 0.185841
vt 0.026549 0.557522
vt 0.212389 0.663717
vt 0.849558 0.442478
vt 0.876106 0.805310
vt 0.867257 0.176991
vt 0.893805 0.185841
vt 0.893805 0.176991
vt 0.495575 0.761062
vt 0.389381 0.778761
vt 0.389381 0.761062
vt 0.495575 0.831858
vt 0.840708 0.530973
vt 0.814159 0.530973
vt 0.876106 0.053097
vt 0.796460 0.530973
vt 0.575221 0.840708
vt 0.893805 0.876106
vt 0.398230 0.955752
vt 0.123894 0.964602
vt 0.592920 0.893805
vt 0.486726 0.902655
vt 0.814159 0.840708
vt 0.787611 0.849558
vt 0.831858 0.539823
vt 0.840708 0.548673
vt 0.840708 0.539823
vt 0.584071 0.849558
vt 0.787611 0.867257
vt 0.831858 0.849558
vt 0.814159 0.849558
vt 0.858407 0.000000
vt 0.849558 0.000000
vt 0.884956 0.026549
vt 0.893805 0.929204
vt 0.690265 0.929204
vt 0.000000 0.000000
vt 0.477876 0.000000
vt 0.336283 0.026549
vt 0.876106 0.814159
vt 0.884956 0.805310
vt 0.858407 0.796460
vt 0.884956 0.132743
vt 0.876106 0.132743
vt 0.407080 0.973451
vt 0.610619 0.982301
vt 0.407080 0.982301
vt 0.858407 0.840708
vt 0.840708 0.504425
vt 0.557522 0.796460
vt 0.566372 0.805310
vt 0.690265 0.902655
vt 0.637168 0.893805
vt 0.637168 0.902655
vt 0.584071 0.681416
vt 0.893805 0.097345
vt 0.867257 0.769912
vt 0.884956 0.761062
vt 0.867257 0.761062
vt 0.584071 0.858407
vt 0.389381 0.831858
vt 0.734513 0.451327
vt 0.725664 0.185841
vt 0.725664 0.460177
vt 0.575221 0.778761
vt 0.584071 0.778761
vt 0.495575 0.778761
vt 0.637168 0.946903
vt 0.327434 0.973451
vt 0.530973 0.964602
vt 0.327434 0.964602
vt 0.929204 0.460177
vt 0.893805 0.106195
vt 0.840708 0.681416
vt 0.849558 0.592920
vt 0.849558 0.619469
vt 0.637168 0.911504
vt 0.504425 0.778761
vt 0.964602 0.867257
vt 0.867257 0.707965
vt 0.787611 0.796460
vt 0.584071 0.796460
vt 0.725664 0.530973
vt 0.867257 0.778761
vt 0.884956 0.115044
vt 0.876106 0.123894
vt 0.876106 0.115044
vt 0.690265 0.911504
vt 0.769912 0.530973
vt 0.610619 0.876106
vt 0.566372 0.876106
vt 0.000000 0.982301
vt 0.203540 0.991150
vt 0.000000 0.991150
vt 0.884956 0.778761
vt 0.876106 0.778761
vt 0.884956 0.123894
vt 0.486726 0.876106
vt 0.893805 0.982301
vt 0.690265 0.982301
vt 0.477876 0.787611
vt 0.477876 0.805310
vt 0.495575 0.805310
vt 0.858407 0.185841
vt 0.486726 0.176991
vt 0.398230 0.964602
vt 0.654867 0.955752
vt 0.371681 0.911504
vt 0.407080 0.911504
vt 0.123894 0.902655
vt 0.867257 0.858407
vt 0.884956 0.769912
vt 0.256637 0.831858
vt 0.247788 0.849558
vt 0.203540 0.982301
vt 0.407080 0.168142
vt 0.415929 0.176991
vt 0.345133 0.185841
vt 0.752212 0.539823
vt 0.867257 0.849558
vt 0.867257 0.840708
vt 0.867257 0.814159
vt 0.876106 0.823009
vt 0.371681 0.840708
vt 0.336283 0.867257
vt 0.345133 0.840708
vt 0.867257 0.796460
vt 0.867257 0.805310
vt 0.884956 0.752212
vt 0.867257 0.752212
vt 0.884956 0.823009
vt 0.867257 0.743363
vt 0.840708 0.858407
vt 0.787611 0.858407
vt 0.876106 0.106195
vt 0.884956 0.070796
vt 0.884956 0.150442
vt 0.584071 0.787611
vt 0.548673 0.787611
vt 0.548673 0.778761
vt 0.831858 0.477876
vt 0.884956 0.814159
vt 0.840708 0.849558
vt 0.619469 0.752212
vt 0.592920 0.699115
vt 0.637168 0.707965
vt 0.389381 0.858407
vt 0.840708 0.867257
vt 0.955752 0.592920
vt 0.964602 0.469027
vt 0.955752 0.619469
vt 0.831858 0.796460
vt 0.893805 0.964602
vt 0.884956 0.831858
vt 0.327434 0.920354
vt 0.884956 0.716814
vt 0.221239 0.690265
vt 0.026549 0.734513
vt 0.247788 0.681416
vt 0.884956 0.168142
vt 0.893805 0.690265
vt 0.787611 0.814159
vt 0.000000 0.973451
vt 0.743363 0.176991
vt 0.743363 0.185841
vt 0.831858 0.840708
vt 0.884956 0.867257
vt 0.946903 0.946903
vt 0.876106 0.849558
vt 0.283186 0.867257
vt 0.796460 0.513274
vt 0.132743 0.778761
vt 0.132743 0.796460
vt 0.141593 0.796460
vt 0.141593 0.814159
vt 0.150442 0.814159
vt 0.150442 0.831858
vt 0.159292 0.831858
vt 0.159292 0.849558
vt 0.168142 0.867257
vt 0.176991 0.867257
vt 0.176991 0.884956
vt 0.185841 0.884956
vt 0.185841 0.902655
vt 0.203540 0.867257
vt 0.194690 0.867257
vt 0.194690 0.849558
vt 0.185841 0.849558
vt 0.185841 0.831858
vt 0.176991 0.814159
vt 0.168142 0.814159
vt 0.168142 0.796460
vt 0.159292 0.796460
vt 0.159292 0.778761
vt 0.150442 0.778761
vt 0.150442 0.761062
vt 0.123894 0.778761
vt 0.115044 0.955752
vt 0.000000 0.955752
vt 0.000000 0.761062
vt 0.000000 0.946903
vt 0.106195 0.946903
vt 0.106195 0.769912
vt 0.522124 0.831858
vt 0.336283 0.814159
vt 0.336283 0.761062
vt 0.300885 0.761062
vt 0.300885 0.814159
vt 0.292035 0.814159
vt 0.318584 0.840708
vt 0.327434 0.840708
vt 0.318584 0.867257
vt 0.283186 0.849558
vt 0.283186 0.840708
vt 0.292035 0.761062
vt 0.814159 0.699115
vt 0.814159 0.690265
vt 0.823009 0.690265
vt 0.823009 0.681416
vt 0.858407 0.681416
vt 0.858407 0.699115
vt 0.849558 0.699115
vt 0.849558 0.725664
vt 0.840708 0.725664
vt 0.840708 0.743363
vt 0.831858 0.743363
vt 0.831858 0.752212
vt 0.823009 0.769912
vt 0.814159 0.769912
vt 0.814159 0.778761
vt 0.796460 0.787611
vt 0.761062 0.787611
vt 0.699115 0.752212
vt 0.743363 0.752212
vt 0.778761 0.707965
vt 0.805310 0.699115
vt 0.946903 0.460177
vt 0.247788 0.663717
vt 0.292035 0.743363
vt 0.017699 0.743363
vt 0.238938 0.654867
vt 0.238938 0.663717
vt 0.221239 0.663717
vt 0.221239 0.654867
vt 0.017699 0.557522
vt 0.221239 0.681416
vt 0.212389 0.681416
vt 0.840708 0.185841
vt 0.946903 0.442478
vt 0.867257 0.185841
vt 0.690265 0.876106
vt 0.592920 0.902655
vt 0.831858 0.548673
vt 0.584071 0.867257
vt 0.893805 0.946903
vt 0.106195 0.256637
vt 0.115044 0.256637
vt 0.115044 0.265487
vt 0.132743 0.265487
vt 0.132743 0.274336
vt 0.283186 0.274336
vt 0.283186 0.265487
vt 0.300885 0.265487
vt 0.300885 0.256637
vt 0.309735 0.256637
vt 0.097345 0.238938
vt 0.106195 0.238938
vt 0.309735 0.238938
vt 0.318584 0.238938
vt 0.318584 0.230089
vt 0.327434 0.230089
vt 0.327434 0.212389
vt 0.336283 0.212389
vt 0.442478 0.176991
vt 0.442478 0.168142
vt 0.451327 0.168142
vt 0.451327 0.115044
vt 0.442478 0.115044
vt 0.442478 0.106195
vt 0.415929 0.106195
vt 0.415929 0.115044
vt 0.407080 0.115044
vt 0.088496 0.230089
vt 0.097345 0.230089
vt 0.079646 0.212389
vt 0.088496 0.212389
vt 0.070796 0.185841
vt 0.079646 0.185841
vt 0.079646 0.159292
vt 0.106195 0.168142
vt 0.070796 0.168142
vt 0.079646 0.026549
vt 0.610619 0.973451
vt 0.858407 0.849558
vt 0.734513 0.185841
vt 0.575221 0.761062
vt 0.637168 0.955752
vt 0.530973 0.973451
vt 0.929204 0.469027
vt 0.849558 0.672566
vt 0.964602 0.681416
vt 0.840708 0.469027
vt 0.849558 0.557522
vt 0.955752 0.557522
vt 0.955752 0.584071
vt 0.849558 0.584071
vt 0.849558 0.654867
vt 0.849558 0.628319
vt 0.964602 0.876106
vt 0.893805 0.716814
vt 0.769912 0.477876
vt 0.504425 0.787611
vt 0.495575 0.787611
vt 0.477876 0.778761
vt 0.469027 0.787611
vt 0.469027 0.805310
vt 0.477876 0.814159
vt 0.495575 0.814159
vt 0.486726 0.000000
vt 0.654867 0.964602
vt 0.256637 0.911504
vt 0.256637 0.920354
vt 0.292035 0.920354
vt 0.292035 0.911504
vt 0.123894 0.911504
vt 0.601770 0.911504
vt 0.601770 0.902655
vt 0.371681 0.920354
vt 0.407080 0.920354
vt 0.203540 0.778761
vt 0.203540 0.761062
vt 0.230089 0.761062
vt 0.230089 0.778761
vt 0.238938 0.778761
vt 0.238938 0.796460
vt 0.212389 0.778761
vt 0.221239 0.796460
vt 0.212389 0.796460
vt 0.230089 0.814159
vt 0.221239 0.814159
vt 0.238938 0.831858
vt 0.230089 0.831858
vt 0.238938 0.849558
vt 0.256637 0.867257
vt 0.247788 0.867257
vt 0.265487 0.884956
vt 0.256637 0.884956
vt 0.265487 0.902655
vt 0.274336 0.867257
vt 0.265487 0.849558
vt 0.274336 0.849558
vt 0.265487 0.831858
vt 0.247788 0.814159
vt 0.256637 0.814159
vt 0.247788 0.796460
vt 0.309735 0.168142
vt 0.309735 0.176991
vt 0.300885 0.176991
vt 0.300885 0.185841
vt 0.292035 0.185841
vt 0.292035 0.194690
vt 0.265487 0.194690
vt 0.265487 0.185841
vt 0.247788 0.185841
vt 0.247788 0.176991
vt 0.168142 0.176991
vt 0.168142 0.185841
vt 0.150442 0.185841
vt 0.150442 0.194690
vt 0.123894 0.194690
vt 0.123894 0.185841
vt 0.115044 0.185841
vt 0.115044 0.176991
vt 0.106195 0.176991
vt 0.336283 0.159292
vt 0.415929 0.168142
vt 0.345133 0.168142
vt 0.336283 0.185841
vt 0.353982 0.761062
vt 0.389381 0.814159
vt 0.380531 0.814159
vt 0.380531 0.840708
vt 0.345133 0.814159
vt 0.353982 0.814159
vt 0.371681 0.867257
vt 0.345133 0.867257
vt 0.336283 0.849558
vt 0.336283 0.840708
vt 0.663717 0.707965
vt 0.663717 0.699115
vt 0.681416 0.699115
vt 0.681416 0.690265
vt 0.761062 0.690265
vt 0.761062 0.699115
vt 0.778761 0.699115
vt 0.743363 0.716814
vt 0.699115 0.716814
vt 0.628319 0.699115
vt 0.637168 0.699115
vt 0.761062 0.796460
vt 0.619469 0.690265
vt 0.628319 0.690265
vt 0.619469 0.681416
vt 0.584071 0.699115
vt 0.601770 0.725664
vt 0.592920 0.725664
vt 0.610619 0.743363
vt 0.601770 0.743363
vt 0.610619 0.752212
vt 0.628319 0.769912
vt 0.619469 0.769912
vt 0.646018 0.778761
vt 0.628319 0.778761
vt 0.681416 0.787611
vt 0.646018 0.787611
vt 0.681416 0.796460
vt 0.849558 0.548673
vt 0.955752 0.672566
vt 0.955752 0.654867
vt 0.955752 0.548673
vt 0.955752 0.628319
vt 0.893805 0.955752
s 0
usemtl computer_setup_5_Material
f 98/1/1 89/2/1 90/3/1
f 306/4/2 307/5/2 305/6/2
f 54/7/3 278/8/3 277/9/3
f 29/10/3 237/11/3 20/12/3
f 90/13/2 88/14/2 87/15/2
f 237/16/2 229/17/2 232/18/2
f 65/19/1 2/20/1 1/21/1
f 190/22/3 183/23/3 189/24/3
f 63/25/3 290/26/3 60/27/3
f 91/24/4 102/28/4 99/29/4
f 28/30/3 236/10/3 235/12/3
f 319/31/2 147/32/2 320/33/2
f 159/34/3 161/35/3 160/36/3
f 34/37/4 256/38/4 265/39/4
f 221/40/3 198/41/3 197/42/3
f 200/43/1 163/44/1 164/45/1
f 259/46/1 39/47/1 25/48/1
f 45/49/4 267/50/4 44/51/4
f 124/52/3 143/53/3 144/54/3
f 8/55/4 227/56/4 7/57/4
f 104/5/3 93/58/3 103/59/3
f 122/60/5 123/61/5 112/62/5
f 183/63/5 182/64/5 181/65/5
f 66/66/5 3/67/5 2/68/5
f 53/8/3 281/69/3 57/9/3
f 210/70/3 84/71/3 202/72/3
f 314/73/2 315/74/2 313/5/2
f 229/75/4 241/76/4 228/77/4
f 5/78/4 226/79/4 225/80/4
f 116/59/2 113/13/2 114/58/2
f 107/81/2 109/82/2 108/83/2
f 113/30/3 126/84/3 114/85/3
f 50/86/3 276/87/3 48/88/3
f 295/89/1 68/90/1 292/91/1
f 69/92/1 299/93/1 300/69/1
f 1/94/4 3/95/4 4/96/4
f 150/97/3 128/59/3 125/98/3
f 196/99/4 78/100/4 79/101/4
f 310/102/5 303/103/5 304/104/5
f 178/105/1 221/106/1 157/107/1
f 83/108/3 224/109/3 86/110/3
f 194/111/2 192/112/2 191/113/2
f 301/114/5 69/115/5 300/116/5
f 9/117/1 236/98/1 19/118/1
f 170/119/2 168/113/2 167/120/2
f 164/121/5 160/122/5 161/123/5
f 230/124/2 228/57/2 227/32/2
f 41/15/3 252/125/3 251/14/3
f 84/126/2 83/127/2 82/128/2
f 10/92/4 231/129/4 9/130/4
f 276/131/6 46/132/6 48/133/6
f 46/134/3 262/135/3 40/136/3
f 205/22/4 187/137/4 208/113/4
f 255/138/1 35/139/1 23/140/1
f 280/141/6 50/142/6 52/143/6
f 11/129/4 232/30/4 229/144/4
f 133/120/5 136/145/5 134/137/5
f 55/34/3 280/146/3 52/147/3
f 219/22/2 222/148/2 221/28/2
f 151/149/5 166/25/5 163/150/5
f 145/151/5 142/152/5 141/153/5
f 233/154/1 5/155/1 225/156/1
f 150/157/5 159/158/5 149/159/5
f 311/160/1 146/161/1 305/162/1
f 214/163/1 193/54/1 194/124/1
f 28/164/1 239/165/1 27/11/1
f 132/166/2 130/167/2 129/121/2
f 315/168/3 306/169/3 305/170/3
f 171/171/3 182/172/3 172/173/3
f 54/174/1 282/175/1 53/134/1
f 224/176/6 76/177/6 86/178/6
f 285/179/2 293/180/2 270/181/2
f 93/20/5 92/182/5 91/40/5
f 119/183/4 133/184/4 118/185/4
f 89/186/4 95/187/4 88/188/4
f 176/189/1 169/3/1 170/190/1
f 173/191/5 176/192/5 174/193/5
f 75/194/5 86/195/5 76/196/5
f 81/177/1 78/197/1 125/198/1
f 199/199/2 201/192/2 200/193/2
f 42/135/6 264/200/6 33/175/6
f 235/201/3 244/202/3 238/203/3
f 193/204/4 211/205/4 192/206/4
f 24/98/4 255/186/4 23/207/4
f 239/154/3 30/208/3 27/209/3
f 227/210/1 10/1/1 7/189/1
f 298/86/6 72/91/6 71/89/6
f 312/208/5 317/103/5 311/211/5
f 300/186/3 302/97/3 301/212/3
f 177/171/4 155/213/4 180/173/4
f 73/214/6 4/215/6 3/29/6
f 120/216/2 118/217/2 117/64/2
f 238/218/2 239/219/2 235/74/2
f 47/220/3 273/221/3 49/222/3
f 105/223/3 112/224/3 106/219/3
f 58/36/3 286/27/3 56/146/3
f 36/218/4 268/225/4 257/226/4
f 204/70/3 80/227/3 77/228/3
f 168/229/6 174/190/6 167/149/6
f 207/230/4 219/78/4 206/231/4
f 1/232/2 4/233/2 6/234/2
f 265/235/1 43/236/1 34/200/1
f 131/237/4 151/123/4 130/18/4
f 32/238/6 254/140/6 22/239/6
f 153/240/2 155/241/2 154/242/2
f 274/133/1 41/50/1 251/132/1
f 118/243/6 134/16/6 117/167/6
f 123/102/4 317/168/4 318/244/4
f 278/143/1 49/39/1 273/142/1
f 125/245/2 126/246/2 127/127/2
f 243/247/1 228/248/1 241/249/1
f 226/221/2 233/250/2 225/178/2
f 166/36/4 164/150/4 163/35/4
f 115/12/4 132/251/4 129/11/4
f 291/252/3 68/253/3 61/254/3
f 62/223/3 288/114/3 287/255/3
f 14/117/6 226/256/6 6/31/6
f 215/257/5 204/258/5 216/259/5
f 212/260/6 192/176/6 211/261/6
f 142/260/3 121/204/3 141/262/3
f 211/148/5 214/263/5 212/112/5
f 105/264/5 104/265/5 103/266/5
f 171/185/5 158/267/5 157/259/5
f 77/11/2 79/268/2 78/165/2
f 217/269/4 134/270/4 167/271/4
f 238/247/6 242/272/6 229/249/6
f 320/128/3 313/273/3 319/153/3
f 197/96/5 190/274/5 189/95/5
f 43/131/4 263/37/4 42/275/4
f 109/276/4 137/58/4 108/277/4
f 304/278/4 271/41/4 272/184/4
f 32/279/4 264/134/4 253/174/4
f 21/280/6 247/281/6 16/282/6
f 179/172/4 185/231/4 178/283/4
f 243/284/2 242/170/2 244/211/2
f 147/285/3 146/286/3 157/64/3
f 185/287/2 187/288/2 186/289/2
f 26/290/4 259/134/4 25/291/4
f 99/215/2 101/264/2 100/109/2
f 248/239/1 26/292/1 17/281/1
f 153/65/4 139/293/4 156/64/4
f 177/83/2 179/294/2 178/295/2
f 126/296/1 159/297/1 166/298/1
f 210/299/1 83/100/1 85/227/1
f 196/300/1 80/233/1 203/194/1
f 11/8/6 230/130/6 8/210/6
f 233/301/3 14/302/3 13/214/3
f 70/303/3 71/304/3 66/305/3
f 202/77/6 82/51/6 201/306/6
f 72/252/3 294/290/3 64/307/3
f 158/308/6 222/63/6 179/309/6
f 137/62/2 139/242/2 138/310/2
f 107/223/4 101/5/4 110/219/4
f 19/311/2 27/312/2 40/313/2
f 309/276/4 312/4/4 311/6/4
f 147/19/5 144/220/5 143/314/5
f 136/315/1 119/86/1 120/316/1
f 63/317/6 294/318/6 289/90/6
f 314/319/6 143/320/6 312/321/6
f 88/26/6 96/3/6 87/229/6
f 55/322/6 286/200/6 279/323/6
f 60/324/6 285/254/6 58/325/6
f 269/89/1 45/326/1 38/318/1
f 281/325/1 59/141/1 57/327/1
f 308/284/3 283/184/3 307/278/3
f 20/328/6 232/224/6 12/329/6
f 217/196/2 224/184/2 223/195/2
f 29/330/6 240/280/6 238/282/6
f 70/331/6 302/85/6 297/30/6
f 36/332/6 258/48/6 24/138/6
f 169/207/4 173/188/4 168/256/4
f 18/333/4 248/126/4 17/334/4
f 16/261/4 245/334/4 15/335/4
f 21/183/4 254/169/4 246/336/4
f 44/337/6 268/318/6 37/235/6
f 252/77/1 15/338/1 245/328/1
f 281/339/2 251/340/2 263/341/2
f 98/115/5 95/342/5 97/116/5
f 40/77/6 250/343/6 18/328/6
f 136/344/4 76/345/4 170/346/4
f 62/323/1 291/235/1 61/200/1
f 235/338/2 231/347/2 228/17/2
f 205/80/2 207/348/2 206/81/2
f 39/349/4 269/86/4 38/89/4
f 98/1/1 97/7/1 89/2/1
f 306/4/2 308/73/2 307/5/2
f 54/7/3 51/1/3 278/8/3
f 29/10/3 238/164/3 237/11/3
f 90/13/2 89/118/2 88/14/2
f 237/16/2 238/338/2 229/17/2
f 65/19/1 66/314/1 2/20/1
f 190/22/3 184/350/3 183/23/3
f 63/25/3 289/229/3 290/26/3
f 91/24/4 92/22/4 102/28/4
f 28/30/3 19/144/3 236/10/3
f 319/31/2 146/53/2 147/32/2
f 159/34/3 162/101/3 161/35/3
f 34/37/4 35/351/4 256/38/4
f 221/40/3 222/182/3 198/41/3
f 164/45/1 161/352/1 195/353/1
f 200/43/1 151/354/1 163/44/1
f 164/45/1 195/353/1 200/43/1
f 259/46/1 260/355/1 39/47/1
f 45/49/4 270/356/4 267/50/4
f 124/52/3 123/205/3 143/53/3
f 8/55/4 230/163/4 227/56/4
f 104/5/3 94/357/3 93/58/3
f 112/62/5 111/358/5 121/287/5
f 112/62/5 121/287/5 122/60/5
f 123/61/5 124/310/5 112/62/5
f 183/63/5 184/217/5 182/64/5
f 66/66/5 73/21/5 3/67/5
f 53/8/3 282/92/3 281/69/3
f 199/359/3 215/360/3 210/70/3
f 210/70/3 85/228/3 84/71/3
f 202/72/3 199/359/3 210/70/3
f 314/73/2 316/361/2 315/74/2
f 229/75/4 242/362/4 241/76/4
f 5/78/4 6/363/4 226/79/4
f 116/59/2 115/98/2 113/13/2
f 107/81/2 110/348/2 109/82/2
f 113/30/3 127/12/3 126/84/3
f 50/86/3 275/364/3 276/87/3
f 295/89/1 67/318/1 68/90/1
f 69/92/1 296/331/1 299/93/1
f 1/94/4 2/365/4 3/95/4
f 150/97/3 149/223/3 128/59/3
f 196/99/4 195/201/4 78/100/4
f 310/102/5 309/366/5 303/103/5
f 100/367/1 107/368/1 108/369/1
f 108/369/1 137/370/1 138/371/1
f 138/371/1 153/372/1 154/373/1
f 154/373/1 177/374/1 178/105/1
f 178/105/1 185/375/1 186/376/1
f 186/376/1 205/377/1 206/378/1
f 206/378/1 219/379/1 221/106/1
f 221/106/1 197/380/1 189/381/1
f 189/381/1 183/382/1 181/383/1
f 181/383/1 171/384/1 157/107/1
f 157/107/1 145/385/1 141/386/1
f 141/386/1 121/387/1 111/388/1
f 111/388/1 105/389/1 103/390/1
f 103/390/1 93/391/1 91/110/1
f 91/110/1 99/392/1 100/367/1
f 103/390/1 91/110/1 100/367/1
f 111/388/1 103/390/1 100/367/1
f 111/388/1 100/367/1 108/369/1
f 141/386/1 111/388/1 108/369/1
f 141/386/1 108/369/1 138/371/1
f 189/381/2 181/383/2 157/107/2
f 157/107/1 141/386/1 138/371/1
f 157/107/1 138/371/1 154/373/1
f 221/106/1 189/381/1 157/107/1
f 186/376/1 206/378/1 221/106/1
f 157/107/1 154/373/1 178/105/1
f 178/105/1 186/376/1 221/106/1
f 209/393/3 216/394/3 223/358/3
f 81/395/3 200/396/3 201/397/3
f 81/395/3 201/397/3 82/398/3
f 209/393/3 223/358/3 224/109/3
f 81/395/3 82/398/3 83/108/3
f 83/108/3 209/393/3 224/109/3
f 86/110/3 81/395/3 83/108/3
f 194/111/2 193/263/2 192/112/2
f 301/114/5 70/97/5 69/115/5
f 9/117/1 231/399/1 236/98/1
f 170/119/2 169/111/2 168/113/2
f 164/121/5 165/166/5 160/122/5
f 230/124/2 229/55/2 228/57/2
f 41/15/3 31/163/3 252/125/3
f 84/126/2 85/245/2 83/127/2
f 10/92/4 228/331/4 231/129/4
f 276/131/6 261/275/6 46/132/6
f 46/134/3 261/175/3 262/135/3
f 205/22/4 186/350/4 187/137/4
f 255/138/1 256/332/1 35/139/1
f 280/141/6 275/327/6 50/142/6
f 11/129/4 12/331/4 232/30/4
f 133/120/5 135/119/5 136/145/5
f 55/34/3 279/36/3 280/146/3
f 219/22/2 220/113/2 222/148/2
f 151/149/5 152/229/5 166/25/5
f 145/151/5 146/58/5 142/152/5
f 233/154/1 13/209/1 5/155/1
f 150/157/5 162/246/5 159/158/5
f 307/400/1 283/401/1 271/402/1
f 303/403/1 309/404/1 311/160/1
f 305/162/1 307/400/1 271/402/1
f 313/405/1 315/406/1 305/162/1
f 146/161/1 319/407/1 313/405/1
f 122/408/1 142/365/1 146/161/1
f 311/160/1 317/409/1 122/408/1
f 305/162/1 271/402/1 303/403/1
f 311/160/1 122/408/1 146/161/1
f 305/162/1 303/403/1 311/160/1
f 146/161/1 313/405/1 305/162/1
f 214/163/1 213/15/1 193/54/1
f 28/164/1 235/330/1 239/165/1
f 132/166/2 131/243/2 130/167/2
f 315/168/3 316/244/3 306/169/3
f 171/171/3 181/283/3 182/172/3
f 54/174/1 277/322/1 282/175/1
f 224/176/6 218/410/6 76/177/6
f 260/411/2 259/412/2 249/413/2
f 249/413/2 248/414/2 250/415/2
f 250/415/2 262/416/2 261/417/2
f 261/417/2 276/418/2 275/419/2
f 275/419/2 280/420/2 279/421/2
f 279/421/2 286/422/2 285/179/2
f 285/179/2 290/423/2 289/424/2
f 289/424/2 294/425/2 293/180/2
f 293/180/2 298/426/2 297/427/2
f 297/427/2 283/428/2 284/429/2
f 284/429/2 267/430/2 270/181/2
f 270/181/2 269/431/2 260/411/2
f 260/411/2 249/413/2 250/415/2
f 261/417/2 275/419/2 279/421/2
f 260/411/2 250/415/2 261/417/2
f 297/427/2 284/429/2 270/181/2
f 270/181/2 260/411/2 261/417/2
f 261/417/2 279/421/2 285/179/2
f 285/179/2 289/424/2 293/180/2
f 293/180/2 297/427/2 270/181/2
f 270/181/2 261/417/2 285/179/2
f 93/20/5 94/156/5 92/182/5
f 119/183/4 135/336/4 133/184/4
f 89/186/4 97/115/4 95/187/4
f 176/189/1 175/1/1 169/3/1
f 173/191/5 175/432/5 176/192/5
f 75/194/5 81/42/5 86/195/5
f 130/433/1 151/354/1 200/43/1
f 217/395/1 223/410/1 216/434/1
f 217/395/1 216/434/1 204/435/1
f 130/433/1 200/43/1 81/177/1
f 115/436/1 129/437/1 130/433/1
f 125/198/1 127/438/1 113/439/1
f 115/436/1 130/433/1 81/177/1
f 113/439/1 115/436/1 81/177/1
f 75/66/1 217/395/1 204/435/1
f 75/66/1 204/435/1 77/440/1
f 125/198/1 113/439/1 81/177/1
f 161/352/1 162/441/1 150/442/1
f 195/353/1 161/352/1 150/442/1
f 75/66/1 77/440/1 78/197/1
f 78/197/1 195/353/1 150/442/1
f 78/197/1 150/442/1 125/198/1
f 81/177/1 75/66/1 78/197/1
f 200/193/2 195/443/2 196/70/2
f 199/199/2 202/444/2 201/192/2
f 200/193/2 196/70/2 199/199/2
f 42/135/6 263/236/6 264/200/6
f 235/201/3 243/445/3 244/202/3
f 193/204/4 213/262/4 211/205/4
f 24/98/4 258/212/4 255/186/4
f 239/154/3 240/222/3 30/208/3
f 227/210/1 228/8/1 10/1/1
f 298/86/6 293/316/6 72/91/6
f 312/208/5 318/104/5 317/103/5
f 300/186/3 299/115/3 302/97/3
f 177/171/4 154/446/4 155/213/4
f 73/214/6 74/301/6 4/215/6
f 120/216/2 119/447/2 118/217/2
f 238/218/2 240/226/2 239/219/2
f 47/220/3 274/448/3 273/221/3
f 105/223/3 111/449/3 112/224/3
f 58/36/3 285/25/3 286/27/3
f 36/218/4 37/361/4 268/225/4
f 204/70/3 203/299/3 80/227/3
f 168/229/6 173/3/6 174/190/6
f 207/230/4 220/450/4 219/78/4
f 59/451/2 62/452/2 61/453/2
f 61/453/2 68/454/2 67/455/2
f 74/67/2 71/456/2 72/457/2
f 64/458/2 63/459/2 60/460/2
f 74/67/2 72/457/2 64/458/2
f 61/453/2 67/455/2 65/68/2
f 53/461/2 57/462/2 59/451/2
f 59/451/2 61/453/2 65/68/2
f 74/67/2 64/458/2 60/460/2
f 60/460/2 58/463/2 56/464/2
f 56/464/2 55/465/2 52/466/2
f 52/466/2 50/467/2 48/468/2
f 48/468/2 27/312/2 30/469/2
f 30/469/2 29/470/2 20/471/2
f 12/472/2 11/473/2 8/474/2
f 7/475/2 10/476/2 9/477/2
f 7/475/2 9/477/2 6/234/2
f 8/474/2 7/475/2 6/234/2
f 52/466/2 48/468/2 30/469/2
f 60/460/2 56/464/2 52/466/2
f 53/461/2 59/451/2 65/68/2
f 51/478/2 54/479/2 53/461/2
f 47/480/2 49/481/2 51/478/2
f 31/482/2 41/483/2 47/480/2
f 13/484/2 16/485/2 15/486/2
f 5/487/2 13/484/2 15/486/2
f 51/478/2 53/461/2 65/68/2
f 74/67/2 60/460/2 52/466/2
f 74/67/2 52/466/2 30/469/2
f 47/480/2 51/478/2 65/68/2
f 31/482/2 47/480/2 65/68/2
f 74/67/2 30/469/2 20/471/2
f 74/67/2 20/471/2 12/472/2
f 31/482/2 65/68/2 1/232/2
f 15/486/2 31/482/2 1/232/2
f 4/233/2 74/67/2 12/472/2
f 4/233/2 12/472/2 8/474/2
f 5/487/2 15/486/2 1/232/2
f 4/233/2 8/474/2 6/234/2
f 6/234/2 5/487/2 1/232/2
f 265/235/1 266/337/1 43/236/1
f 131/237/4 152/122/4 151/123/4
f 32/238/6 253/139/6 254/140/6
f 153/240/2 156/488/2 155/241/2
f 274/133/1 47/356/1 41/50/1
f 118/243/6 133/489/6 134/16/6
f 123/102/4 122/366/4 317/168/4
f 278/143/1 51/38/1 49/39/1
f 125/245/2 128/157/2 126/246/2
f 243/247/1 235/171/1 228/248/1
f 226/221/2 234/269/2 233/250/2
f 166/36/4 165/25/4 164/150/4
f 115/12/4 116/84/4 132/251/4
f 291/252/3 292/307/3 68/253/3
f 62/223/3 59/97/3 288/114/3
f 14/117/6 234/399/6 226/256/6
f 216/259/5 209/191/5 210/193/5
f 215/257/5 203/490/5 204/258/5
f 216/259/5 210/193/5 215/257/5
f 212/260/6 191/491/6 192/176/6
f 142/260/3 122/491/3 121/204/3
f 211/148/5 213/492/5 214/263/5
f 105/264/5 106/493/5 104/265/5
f 171/185/5 172/494/5 158/267/5
f 77/11/2 80/251/2 79/268/2
f 212/495/4 218/496/4 217/269/4
f 217/269/4 75/497/4 96/498/4
f 96/498/4 98/499/4 120/500/4
f 96/498/4 120/500/4 117/501/4
f 191/502/4 212/495/4 217/269/4
f 174/503/4 191/502/4 217/269/4
f 217/269/4 96/498/4 117/501/4
f 134/270/4 136/344/4 170/346/4
f 217/269/4 117/501/4 134/270/4
f 167/271/4 174/503/4 217/269/4
f 134/270/4 170/346/4 167/271/4
f 238/247/6 244/283/6 242/272/6
f 320/128/3 314/335/3 313/273/3
f 197/96/5 198/504/5 190/274/5
f 43/131/4 266/505/4 263/37/4
f 109/276/4 140/357/4 137/58/4
f 304/278/4 303/155/4 271/41/4
f 32/279/4 33/291/4 264/134/4
f 21/280/6 246/292/6 247/281/6
f 179/172/4 188/230/4 185/231/4
f 243/284/2 241/506/2 242/170/2
f 157/64/3 158/171/3 148/446/3
f 157/64/3 148/446/3 147/285/3
f 146/286/3 145/293/3 157/64/3
f 185/287/2 188/310/2 187/288/2
f 26/290/4 249/136/4 259/134/4
f 99/215/2 102/266/2 101/264/2
f 248/239/1 249/238/1 26/292/1
f 153/65/4 138/94/4 139/293/4
f 177/83/2 180/82/2 179/294/2
f 152/153/1 131/507/1 132/508/1
f 132/508/1 116/262/1 114/509/1
f 126/296/1 128/510/1 149/511/1
f 132/508/1 114/509/1 126/296/1
f 166/298/1 152/153/1 132/508/1
f 160/512/1 165/513/1 166/298/1
f 126/296/1 149/511/1 159/297/1
f 159/297/1 160/512/1 166/298/1
f 166/298/1 132/508/1 126/296/1
f 210/299/1 209/445/1 83/100/1
f 203/194/1 215/360/1 199/359/1
f 196/300/1 79/514/1 80/233/1
f 203/194/1 199/359/1 196/300/1
f 11/8/6 229/92/6 230/130/6
f 233/301/3 234/515/3 14/302/3
f 67/516/3 295/517/3 296/518/3
f 67/516/3 296/518/3 69/519/3
f 66/305/3 65/520/3 67/516/3
f 74/521/3 73/522/3 66/305/3
f 297/523/3 298/524/3 71/304/3
f 71/304/3 74/521/3 66/305/3
f 66/305/3 67/516/3 69/519/3
f 70/303/3 297/523/3 71/304/3
f 66/305/3 69/519/3 70/303/3
f 202/77/6 84/415/6 82/51/6
f 72/252/3 293/279/3 294/290/3
f 102/525/6 92/526/6 94/527/6
f 104/528/6 106/529/6 112/530/6
f 101/531/6 102/525/6 94/527/6
f 109/532/6 110/533/6 101/531/6
f 139/534/6 140/535/6 109/532/6
f 155/536/6 156/537/6 139/534/6
f 179/309/6 180/538/6 155/536/6
f 187/539/6 188/540/6 179/309/6
f 207/541/6 208/542/6 187/539/6
f 222/63/6 220/543/6 207/541/6
f 190/544/6 198/365/6 222/63/6
f 182/545/6 184/546/6 190/544/6
f 158/308/6 172/547/6 182/545/6
f 144/548/6 148/549/6 158/308/6
f 112/530/6 124/550/6 144/548/6
f 101/531/6 94/527/6 104/528/6
f 101/531/6 104/528/6 112/530/6
f 109/532/6 101/531/6 112/530/6
f 109/532/6 112/530/6 144/548/6
f 139/534/6 109/532/6 144/548/6
f 158/308/2 182/545/2 190/544/2
f 139/534/6 144/548/6 158/308/6
f 155/536/6 139/534/6 158/308/6
f 158/308/6 190/544/6 222/63/6
f 222/63/6 207/541/6 187/539/6
f 179/309/6 155/536/6 158/308/6
f 222/63/6 187/539/6 179/309/6
f 137/62/2 140/240/2 139/242/2
f 107/223/4 100/59/4 101/5/4
f 17/551/2 26/552/2 25/553/2
f 25/553/2 39/554/2 38/555/2
f 38/555/2 45/556/2 44/557/2
f 37/558/2 36/559/2 24/560/2
f 38/555/2 44/557/2 37/558/2
f 25/553/2 38/555/2 37/558/2
f 25/553/2 37/558/2 24/560/2
f 17/551/2 25/553/2 24/560/2
f 23/561/2 35/562/2 34/563/2
f 17/551/2 24/560/2 23/561/2
f 34/563/2 43/564/2 42/565/2
f 33/566/2 32/567/2 22/568/2
f 34/563/2 42/565/2 33/566/2
f 23/561/2 34/563/2 33/566/2
f 22/568/2 21/569/2 16/485/2
f 23/561/2 33/566/2 22/568/2
f 17/551/2 23/561/2 22/568/2
f 16/485/2 13/484/2 14/570/2
f 17/551/2 22/568/2 16/485/2
f 17/551/2 16/485/2 14/570/2
f 14/570/2 6/234/2 9/477/2
f 19/311/2 28/571/2 27/312/2
f 14/570/2 9/477/2 19/311/2
f 18/572/2 17/551/2 14/570/2
f 48/468/2 46/573/2 40/313/2
f 18/572/2 14/570/2 19/311/2
f 27/312/2 48/468/2 40/313/2
f 40/313/2 18/572/2 19/311/2
f 309/276/4 310/347/4 312/4/4
f 147/19/5 148/448/5 144/220/5
f 136/315/1 135/364/1 119/86/1
f 63/317/6 64/235/6 294/318/6
f 272/574/6 284/206/6 308/575/6
f 306/576/6 316/577/6 314/319/6
f 272/574/6 308/575/6 306/576/6
f 312/321/6 310/578/6 304/579/6
f 304/579/6 272/574/6 306/576/6
f 314/319/6 320/580/6 147/581/6
f 304/579/6 306/576/6 314/319/6
f 123/582/6 318/583/6 312/321/6
f 312/321/6 304/579/6 314/319/6
f 314/319/6 147/581/6 143/320/6
f 143/320/6 123/582/6 312/321/6
f 88/26/6 95/2/6 96/3/6
f 55/322/6 56/175/6 286/200/6
f 60/324/6 290/253/6 285/254/6
f 269/89/1 270/349/1 45/326/1
f 281/325/1 288/324/1 59/141/1
f 308/284/3 284/506/3 283/184/3
f 20/328/6 237/343/6 232/224/6
f 217/196/2 218/258/2 224/184/2
f 29/330/6 30/165/6 240/280/6
f 70/331/6 301/93/6 302/85/6
f 36/332/6 257/47/6 258/48/6
f 169/207/4 175/186/4 173/188/4
f 18/333/4 250/277/4 248/126/4
f 16/261/4 247/333/4 245/334/4
f 21/183/4 22/497/4 254/169/4
f 44/337/6 267/326/6 268/318/6
f 252/77/1 31/489/1 15/338/1
f 266/584/2 265/585/2 256/586/2
f 256/586/2 255/587/2 258/588/2
f 257/589/2 268/590/2 267/430/2
f 256/586/2 258/588/2 257/589/2
f 266/584/2 256/586/2 257/589/2
f 257/589/2 267/430/2 284/429/2
f 257/589/2 284/429/2 272/591/2
f 266/584/2 257/589/2 272/591/2
f 266/584/2 272/591/2 271/592/2
f 253/593/2 264/594/2 263/341/2
f 263/341/2 266/584/2 271/592/2
f 283/428/2 297/427/2 302/595/2
f 263/341/2 271/592/2 283/428/2
f 246/596/2 254/597/2 253/593/2
f 246/596/2 253/593/2 263/341/2
f 245/250/2 247/598/2 246/596/2
f 251/340/2 252/599/2 245/250/2
f 273/600/2 274/601/2 251/340/2
f 277/602/2 278/603/2 273/600/2
f 281/339/2 282/604/2 277/602/2
f 287/605/2 288/606/2 281/339/2
f 292/607/2 291/608/2 287/605/2
f 296/609/2 295/610/2 292/607/2
f 302/595/2 299/611/2 296/609/2
f 283/428/2 302/595/2 296/609/2
f 296/609/2 292/607/2 287/605/2
f 281/339/2 277/602/2 273/600/2
f 296/609/2 287/605/2 281/339/2
f 263/341/2 283/428/2 296/609/2
f 245/250/2 246/596/2 263/341/2
f 281/339/2 273/600/2 251/340/2
f 251/340/2 245/250/2 263/341/2
f 263/341/2 296/609/2 281/339/2
f 98/115/5 96/187/5 95/342/5
f 40/77/6 262/76/6 250/343/6
f 87/612/4 96/498/4 75/497/4
f 218/496/4 212/495/4 214/613/4
f 194/614/4 191/502/4 174/503/4
f 218/496/4 214/613/4 194/614/4
f 87/612/4 75/497/4 76/345/4
f 90/615/4 87/612/4 76/345/4
f 76/345/4 218/496/4 194/614/4
f 194/614/4 174/503/4 176/616/4
f 76/345/4 194/614/4 176/616/4
f 98/499/4 90/615/4 76/345/4
f 120/500/4 98/499/4 76/345/4
f 76/345/4 176/616/4 170/346/4
f 136/344/4 120/500/4 76/345/4
f 62/323/1 287/317/1 291/235/1
f 235/338/2 236/225/2 231/347/2
f 205/80/2 208/617/2 207/348/2
f 39/349/4 260/88/4 269/86/4
