# Blender 5.0.1
# www.blender.org
mtllib kasur_7.mtl
o kasur_7
v -4.000001 -0.000000 2.000000
v -3.500001 -0.000000 2.000000
v 3.500001 -0.000000 2.000000
v 4.000001 -0.000000 2.000000
v -4.000001 -0.000000 1.500000
v -3.500001 -0.000000 1.500000
v 3.500001 -0.000000 1.500000
v 4.000001 -0.000000 1.500000
v -4.000001 -0.000000 -1.500000
v -3.500001 -0.000000 -1.500000
v 3.500001 -0.000000 -1.500000
v 4.000001 -0.000000 -1.500000
v -4.000001 -0.000000 -2.000000
v -3.500001 -0.000000 -2.000000
v 3.500001 -0.000000 -2.000000
v 4.000001 -0.000000 -2.000000
v -3.500001 0.600000 2.000000
v 3.500001 0.600000 2.000000
v -4.000001 0.600000 1.500000
v -3.500001 0.600000 1.500000
v 3.500001 0.600000 1.500000
v 4.000001 0.600000 1.500000
v -4.000001 0.600000 -1.500000
v -3.500001 0.600000 -1.500000
v 3.500001 0.600000 -1.500000
v 4.000001 0.600000 -1.500000
v -3.500001 0.600000 -2.000000
v 3.500001 0.600000 -2.000000
v 4.000001 1.300000 2.000000
v 4.000001 1.300000 -2.000000
v -3.900001 1.400000 2.000000
v -3.900001 1.400000 -2.000000
v -3.900001 1.400000 1.900000
v -3.900001 1.500000 1.900000
v -3.900001 1.500000 2.000000
v -4.000001 1.500000 2.000000
v -4.000001 1.500000 1.900000
v -4.000001 1.500000 -1.900000
v -3.900001 1.400000 -1.900000
v -3.900001 1.500000 -2.000000
v -3.900001 1.500000 -1.900000
v -4.000001 1.500000 -2.000000
v -3.900001 1.500000 1.800001
v -3.900001 1.600000 1.800000
v -3.900001 1.600000 1.900000
v -4.000001 1.600000 1.900000
v -4.000001 1.600000 1.800000
v -4.000001 1.600000 -1.800000
v -3.900001 1.500000 -1.800001
v -3.900001 1.600000 -1.900000
v -3.900001 1.600000 -1.800000
v -4.000001 1.600000 -1.900000
v -3.900001 1.600000 1.700001
v -3.900001 1.700000 1.700001
v -3.900001 1.700000 1.800001
v -4.000001 1.700000 1.800001
v -4.000001 1.700000 1.700000
v -4.000001 1.700000 -1.700000
v -3.900001 1.600000 -1.700001
v -3.900001 1.700000 -1.800001
v -3.900001 1.700000 -1.700001
v -4.000001 1.700000 -1.800001
v -3.900001 1.700000 1.600000
v -3.900001 1.800000 1.600000
v -3.900001 1.800000 1.700001
v -4.000001 1.800000 1.700001
v -4.000001 1.800000 1.600000
v -4.000001 1.800000 -1.600000
v -3.900001 1.700000 -1.600000
v -3.900001 1.800000 -1.700001
v -3.900001 1.800000 -1.600000
v -4.000001 1.800000 -1.700001
v -3.900001 1.800000 1.500000
v -3.900001 1.900000 1.500000
v -3.900001 1.900000 1.600000
v -4.000001 1.900000 1.600000
v -4.000001 1.900000 1.500000
v -4.000001 1.900000 -1.500000
v -3.900001 1.800000 -1.500000
v -3.900001 1.900000 -1.600000
v -3.900001 1.900000 -1.500000
v -4.000001 1.900000 -1.600000
v -3.900001 1.900000 1.400000
v -3.900001 2.000000 1.400000
v -3.900001 2.000000 1.500000
v -4.000001 2.000000 1.500000
v -4.000001 2.000000 1.400000
v -4.000001 2.000000 -1.400000
v -3.900001 1.900000 -1.400000
v -3.900001 2.000000 -1.500000
v -3.900001 2.000000 -1.400000
v -4.000001 2.000000 -1.500000
v -3.900001 2.000000 1.300000
v -3.900001 2.100000 1.300000
v -3.900001 2.100000 1.400000
v -4.000001 2.100000 1.400000
v -4.000001 2.100000 1.300000
v -4.000001 2.100000 -1.300000
v -3.900001 2.000000 -1.300000
v -3.900001 2.100000 -1.400000
v -3.900001 2.100000 -1.300000
v -4.000001 2.100000 -1.400000
v -3.900001 2.100000 1.200000
v -3.900001 2.200000 1.200000
v -3.900001 2.200000 1.300000
v -4.000001 2.200000 1.300000
v -4.000001 2.200000 1.200000
v -4.000001 2.200000 -1.200000
v -3.900001 2.100000 -1.200000
v -3.900001 2.200000 -1.300000
v -3.900001 2.200000 -1.200000
v -4.000001 2.200000 -1.300000
v -3.900001 2.200000 1.100000
v -3.900001 2.300000 1.100000
v -3.900001 2.300000 1.200000
v -4.000001 2.300000 1.200000
v -4.000001 2.300000 1.100000
v -4.000001 2.300000 -1.100000
v -3.900001 2.200000 -1.100000
v -3.900001 2.300000 -1.200000
v -3.900001 2.300000 -1.100000
v -4.000001 2.300000 -1.200000
v -3.900001 2.300000 1.000000
v -3.900001 2.400000 1.000000
v -3.900001 2.400000 1.100000
v -4.000001 2.400000 1.100000
v -4.000001 2.400000 1.000000
v -4.000001 2.400000 -1.000000
v -3.900001 2.300000 -1.000000
v -3.900001 2.400000 -1.100000
v -3.900001 2.400000 -1.000000
v -4.000001 2.400000 -1.100000
v -3.900001 2.400000 0.900000
v -3.900001 2.500000 0.900000
v -3.900001 2.500000 1.000000
v -4.000001 2.500000 1.000000
v -4.000001 2.500000 0.800000
v -3.900001 2.500000 0.800000
v -4.000001 2.500000 -0.800000
v -3.900001 2.500000 -0.900000
v -3.900001 2.500000 -0.800000
v -3.900001 2.400000 -0.900000
v -3.900001 2.500000 -1.000000
v -4.000001 2.500000 -1.000000
v -3.900001 2.500000 0.700000
v -3.900001 2.600000 0.700000
v -3.900001 2.600000 0.800000
v -4.000001 2.600000 0.800000
v -4.000001 2.600000 0.600000
v -3.900001 2.600000 0.600000
v -4.000001 2.600000 -0.600000
v -3.900001 2.600000 -0.700000
v -3.900001 2.600000 -0.600000
v -3.900001 2.500000 -0.700000
v -3.900001 2.600000 -0.800000
v -4.000001 2.600000 -0.800000
v -3.900001 2.700000 0.600000
v -4.000001 2.700000 0.600000
v -3.900001 2.700000 -0.600000
v -4.000001 2.700000 -0.600000
v -3.800001 1.000000 2.000000
v -3.700001 1.000000 1.900000
v -1.800001 1.000000 1.900000
v -1.800000 1.000000 2.000000
v 3.700001 1.000000 2.000000
v 3.700001 1.000000 1.900000
v 3.800001 1.000000 1.900000
v 3.800001 1.000000 2.000000
v -3.700001 1.000000 -1.900000
v -3.800001 1.000000 -2.000000
v -1.800000 1.000000 -2.000000
v -1.800001 1.000000 -1.900000
v 3.800001 1.100000 1.900000
v 3.800001 1.100000 -2.000000
v 3.800001 1.300000 2.000000
v 3.800001 1.300000 -2.000000
v -3.800001 1.400000 1.900000
v -3.800001 1.400000 2.000000
v -3.800001 1.400000 -1.900000
v -3.800001 1.400000 -2.000000
v -3.800001 1.500000 1.800000
v -3.800001 1.500000 1.900000
v -3.800001 1.400000 1.700000
v -3.800001 1.400000 -1.700000
v -3.800001 1.500000 -1.800000
v -3.800001 1.500000 -1.900000
v -3.800001 1.600000 1.700000
v -3.800001 1.600000 1.800001
v -3.800001 1.500000 1.600000
v -3.800001 1.500000 -1.600000
v -3.800001 1.600000 -1.700000
v -3.800001 1.600000 -1.800001
v -3.800001 1.700000 1.600000
v -3.800001 1.700000 1.700001
v -3.800001 1.600000 1.500000
v -3.800001 1.600000 -1.500000
v -3.800001 1.700000 -1.600000
v -3.800001 1.700000 -1.700001
v -3.800001 1.800000 1.500000
v -3.800001 1.800000 1.600000
v -3.800001 1.700000 1.400000
v -3.800001 1.700000 -1.400000
v -3.800001 1.800000 -1.500000
v -3.800001 1.800000 -1.600000
v -3.800001 1.900000 1.400000
v -3.800001 1.900000 1.500000
v -3.800001 1.800000 1.300000
v -3.800001 1.800000 -1.300000
v -3.800001 1.900000 -1.400000
v -3.800001 1.900000 -1.500000
v -3.800001 2.000000 1.300000
v -3.800001 2.000000 1.400000
v -3.800001 1.900000 1.200000
v -3.800001 1.900000 -1.200000
v -3.800001 2.000000 -1.300000
v -3.800001 2.000000 -1.400000
v -3.800001 2.100000 1.200000
v -3.800001 2.100000 1.300000
v -3.800001 2.000000 1.100000
v -3.800001 2.000000 -1.100000
v -3.800001 2.100000 -1.200000
v -3.800001 2.100000 -1.300000
v -3.800001 2.200000 1.100000
v -3.800001 2.200000 1.200000
v -3.800001 2.100000 1.000000
v -3.800001 2.100000 -1.000000
v -3.800001 2.200000 -1.100000
v -3.800001 2.200000 -1.200000
v -3.800001 2.300000 1.000000
v -3.800001 2.300000 1.100000
v -3.800001 2.200000 0.900000
v -3.800001 2.200000 -0.900000
v -3.800001 2.300000 -1.000000
v -3.800001 2.300000 -1.100000
v -3.800001 2.400000 0.900000
v -3.800001 2.400000 1.000000
v -3.800001 2.300000 0.800000
v -3.800001 2.300000 -0.800000
v -3.800001 2.400000 -0.900000
v -3.800001 2.400000 -1.000000
v -3.800001 2.500000 0.900000
v -3.800001 2.500000 0.700000
v -3.800001 2.400000 0.600000
v -3.800001 2.400000 -0.600000
v -3.800001 2.500000 -0.700000
v -3.800001 2.500000 -0.900000
v -3.800001 2.600000 0.700000
v -3.800001 2.600000 -0.700000
v -3.700001 1.100000 1.900000
v -3.600001 1.100000 1.800000
v -1.800001 1.100000 1.800001
v -1.800000 1.100000 1.900000
v -3.600001 1.100000 -1.800000
v -3.700001 1.100000 -1.900000
v -1.800000 1.100000 -1.900000
v -1.800001 1.100000 -1.800001
v -3.800001 1.200000 1.700000
v -3.600001 1.200000 1.800001
v -1.800000 1.200000 1.800000
v -3.500001 1.200000 1.400000
v -2.000000 1.200000 1.400000
v -3.500001 1.200000 -1.400000
v -2.000000 1.200000 -1.400000
v -3.800001 1.200000 -1.700000
v -3.600001 1.200000 -1.800001
v -1.800000 1.200000 -1.800000
v -3.700001 1.200000 1.700001
v -3.700001 1.300000 1.600000
v -3.700001 1.300000 -1.600000
v -3.700001 1.200000 -1.700001
v -3.700001 1.400000 1.600000
v -3.700001 1.400000 1.700001
v -3.800001 1.400000 1.600000
v -3.600001 1.300000 1.600000
v -3.600001 1.400000 1.500000
v -3.600001 1.400000 1.600000
v -3.700001 1.400000 1.500000
v -3.600001 1.400000 -1.500000
v -3.600001 1.300000 -1.600000
v -3.600001 1.400000 -1.600000
v -3.700001 1.400000 -1.600000
v -3.700001 1.400000 -1.500000
v -3.700001 1.400000 -1.700001
v -3.800001 1.400000 -1.600000
v -3.700001 1.500000 1.500000
v -3.700001 1.500000 1.600000
v -3.800001 1.500000 1.500000
v -3.600001 1.500000 1.400000
v -3.600001 1.500000 1.500000
v -3.700001 1.500000 1.400000
v -3.600001 1.500000 -1.400000
v -3.600001 1.500000 -1.500000
v -3.700001 1.500000 -1.500000
v -3.700001 1.500000 -1.400000
v -3.700001 1.500000 -1.600000
v -3.800001 1.500000 -1.500000
v -3.700001 1.600000 1.400000
v -3.700001 1.600000 1.500000
v -3.800001 1.600000 1.400000
v -3.600001 1.600000 1.300000
v -3.600001 1.600000 1.400000
v -3.700001 1.600000 1.300000
v -3.600001 1.600000 -1.300000
v -3.600001 1.600000 -1.400000
v -3.700001 1.600000 -1.400000
v -3.700001 1.600000 -1.300000
v -3.700001 1.600000 -1.500000
v -3.800001 1.600000 -1.400000
v -3.700001 1.700000 1.300000
v -3.700001 1.700000 1.400000
v -3.800001 1.700000 1.300000
v -3.600001 1.700000 1.200000
v -3.600001 1.700000 1.300000
v -3.700001 1.700000 1.200000
v -3.600001 1.700000 -1.200000
v -3.600001 1.700000 -1.300000
v -3.700001 1.700000 -1.300000
v -3.700001 1.700000 -1.200000
v -3.700001 1.700000 -1.400000
v -3.800001 1.700000 -1.300000
v -3.700001 1.800000 1.200000
v -3.700001 1.800000 1.300000
v -3.800001 1.800000 1.200000
v -3.600001 1.800000 1.100000
v -3.600001 1.800000 1.200000
v -3.700001 1.800000 1.100000
v -3.600001 1.800000 -1.100000
v -3.600001 1.800000 -1.200000
v -3.700001 1.800000 -1.200000
v -3.700001 1.800000 -1.100000
v -3.700001 1.800000 -1.300000
v -3.800001 1.800000 -1.200000
v -3.700001 1.900000 1.100000
v -3.700001 1.900000 1.200000
v -3.800001 1.900000 1.100000
v -3.600001 1.900000 1.000000
v -3.600001 1.900000 1.100000
v -3.700001 1.900000 1.000000
v -3.600001 1.900000 -1.000000
v -3.600001 1.900000 -1.100000
v -3.700001 1.900000 -1.100000
v -3.700001 1.900000 -1.000000
v -3.700001 1.900000 -1.200000
v -3.800001 1.900000 -1.100000
v -3.700001 2.000000 1.000000
v -3.700001 2.000000 1.100000
v -3.800001 2.000000 1.000000
v -3.600001 2.000000 0.900000
v -3.600001 2.000000 1.000000
v -3.700001 2.000000 0.900000
v -3.600001 2.000000 -0.900000
v -3.600001 2.000000 -1.000000
v -3.700001 2.000000 -1.000000
v -3.700001 2.000000 -0.900000
v -3.700001 2.000000 -1.100000
v -3.800001 2.000000 -1.000000
v -3.700001 2.100000 0.900000
v -3.700001 2.100000 1.000000
v -3.800001 2.100000 0.900000
v -3.600001 2.100000 0.800000
v -3.600001 2.100000 0.900000
v -3.700001 2.100000 0.800000
v -3.600001 2.100000 -0.800000
v -3.600001 2.100000 -0.900000
v -3.700001 2.100000 -0.900000
v -3.700001 2.100000 -0.800000
v -3.700001 2.100000 -1.000000
v -3.800001 2.100000 -0.900000
v -3.700001 2.200000 0.800000
v -3.700001 2.200000 0.900000
v -3.800001 2.200000 0.800000
v -3.600001 2.200000 0.800000
v -3.600001 2.200000 0.600000
v -3.700001 2.200000 0.600000
v -3.600001 2.200000 -0.600000
v -3.700001 2.200000 -0.600000
v -3.600001 2.200000 -0.800000
v -3.700001 2.200000 -0.800000
v -3.700001 2.200000 -0.900000
v -3.800001 2.200000 -0.800000
v -3.700001 2.300000 0.800000
v -3.700001 2.300000 0.600000
v -3.800001 2.300000 0.600000
v -3.600001 2.300000 0.600000
v -3.600001 2.300000 -0.600000
v -3.700001 2.300000 -0.600000
v -3.800001 2.300000 -0.600000
v -3.700001 2.300000 -0.800000
v -3.700001 2.400000 0.600000
v -3.700001 2.400000 -0.600000
v -1.800001 1.100000 2.000000
v 3.700001 1.100000 1.900000
v 3.700001 1.100000 2.000000
v 3.700001 1.100000 -1.900000
v -1.800001 1.100000 -2.000000
v -1.800001 1.200000 1.900000
v 3.700001 1.200000 1.900000
v 3.600001 1.200000 1.800000
v 3.600001 1.200000 -1.800000
v -1.800001 1.200000 -1.900000
v 3.700001 1.200000 -1.900000
v -1.800001 1.300000 1.800001
v -1.800001 1.300000 -1.800001
v 3.600001 1.300000 1.800001
v 3.600001 1.300000 -1.800001
v -3.500001 1.300000 1.400000
v -3.400001 1.300000 1.300000
v -2.100000 1.300000 1.300000
v -2.000000 1.300000 1.400000
v -3.400001 1.300000 -1.300000
v -2.100000 1.300000 -1.300000
v -3.500001 1.300000 -1.400000
v -2.000000 1.300000 -1.400000
v -3.400001 1.400000 1.300000
v -3.300001 1.400000 1.200000
v -2.200001 1.400000 1.200000
v -2.100000 1.400000 1.300000
v -3.300001 1.400000 -1.100000
v -2.200001 1.400000 -1.100000
v -3.400001 1.400000 -1.300000
v -2.100000 1.400000 -1.300000
v -3.300001 1.500000 1.200000
v -2.200001 1.500000 1.200000
v -3.300001 1.500000 -1.100000
v -2.200001 1.500000 -1.100000
vn -0.0000 -0.0000 -1.0000
vn -0.0000 1.0000 -0.0000
vn -0.0000 -0.0000 1.0000
vn 1.0000 -0.0000 -0.0000
vn -0.0000 -1.0000 -0.0000
vn -1.0000 -0.0000 -0.0000
vn 1.0000 -0.0001 -0.0000
vn 0.4472 -0.0000 0.8944
vn -0.9285 -0.0000 -0.3714
vn 0.8321 -0.0000 0.5547
vt 0.871622 0.418919
vt 0.878378 0.425676
vt 0.878378 0.418919
vt 0.864865 0.195946
vt 0.858108 0.202703
vt 0.858108 0.195946
vt 0.878378 0.256757
vt 0.871622 0.263514
vt 0.871622 0.256757
vt 0.864865 0.574324
vt 0.871622 0.581081
vt 0.864865 0.581081
vt 0.871622 0.601351
vt 0.864865 0.608108
vt 0.864865 0.601351
vt 0.871622 0.310811
vt 0.878378 0.317568
vt 0.871622 0.317568
vt 0.871622 0.304054
vt 0.864865 0.310811
vt 0.864865 0.304054
vt 0.858108 0.216216
vt 0.864865 0.222973
vt 0.858108 0.222973
vt 0.351351 0.912162
vt 0.270270 0.918919
vt 0.270270 0.912162
vt 0.675676 0.263514
vt 0.804054 0.256757
vt 0.804054 0.263514
vt 0.885135 0.060811
vt 0.878378 0.067568
vt 0.878378 0.060811
vt 0.864865 0.628378
vt 0.871622 0.635135
vt 0.871622 0.628378
vt 0.858108 0.351351
vt 0.864865 0.358108
vt 0.858108 0.358108
vt 0.351351 0.871622
vt 0.358108 0.878378
vt 0.351351 0.878378
vt 0.858108 0.290541
vt 0.864865 0.297297
vt 0.864865 0.290541
vt 0.864865 0.439189
vt 0.851351 0.445946
vt 0.851351 0.439189
vt 0.871622 0.587838
vt 0.864865 0.243243
vt 0.871622 0.250000
vt 0.871622 0.243243
vt 0.871622 0.567568
vt 0.864865 0.567568
vt 0.864865 0.587838
vt 0.871622 0.594595
vt 0.864865 0.594595
vt 0.175676 0.986486
vt 0.000000 0.993243
vt 0.000000 0.986486
vt 0.858108 0.229730
vt 0.864865 0.236486
vt 0.864865 0.229730
vt 0.858108 0.317568
vt 0.864865 0.324324
vt 0.864865 0.317568
vt 0.337838 0.837838
vt 0.371622 0.871622
vt 0.371622 0.837838
vt 0.878378 0.283784
vt 0.871622 0.290541
vt 0.871622 0.283784
vt 0.878378 0.033784
vt 0.885135 0.040541
vt 0.878378 0.040541
vt 0.378378 0.817568
vt 0.371622 0.831081
vt 0.371622 0.817568
vt 0.878378 0.432432
vt 0.871622 0.439189
vt 0.871622 0.432432
vt 0.878378 0.243243
vt 0.878378 0.250000
vt 0.871622 0.398649
vt 0.864865 0.405405
vt 0.864865 0.398649
vt 0.371622 0.885135
vt 0.270270 0.878378
vt 0.371622 0.878378
vt 0.304054 0.763514
vt 0.337838 0.722973
vt 0.337838 0.763514
vt 0.871622 0.722973
vt 0.864865 0.729730
vt 0.864865 0.722973
vt 0.358108 0.905405
vt 0.270270 0.898649
vt 0.270270 0.905405
vt 0.878378 0.020270
vt 0.885135 0.027027
vt 0.878378 0.027027
vt 0.858108 0.331081
vt 0.864865 0.337838
vt 0.858108 0.337838
vt 0.756757 0.277027
vt 0.837838 0.270270
vt 0.831081 0.277027
vt 0.871622 0.222973
vt 0.878378 0.229730
vt 0.871622 0.229730
vt 0.871622 0.702703
vt 0.878378 0.709459
vt 0.871622 0.709459
vt 0.878378 0.608108
vt 0.871622 0.614865
vt 0.871622 0.608108
vt 0.864865 0.614865
vt 0.871622 0.621622
vt 0.864865 0.621622
vt 0.371622 0.858108
vt 0.378378 0.864865
vt 0.378378 0.858108
vt 0.878378 0.439189
vt 0.871622 0.445946
vt 0.871622 0.364865
vt 0.864865 0.371622
vt 0.864865 0.364865
vt 0.871622 0.695946
vt 0.864865 0.702703
vt 0.864865 0.695946
vt 0.878378 0.567568
vt 0.871622 0.574324
vt 0.304054 0.844595
vt 0.270270 0.844595
vt 0.878378 0.047297
vt 0.337838 0.844595
vt 0.304054 0.804054
vt 0.337838 0.804054
vt 0.871622 0.297297
vt 0.371622 0.763514
vt 0.817568 0.506757
vt 0.925676 0.486486
vt 0.912162 0.500000
vt 0.878378 0.554054
vt 0.871622 0.560811
vt 0.871622 0.554054
vt 0.878378 0.000000
vt 0.885135 0.006757
vt 0.878378 0.006757
vt 0.858108 0.243243
vt 0.858108 0.236486
vt 0.006757 0.918919
vt -0.000000 0.912162
vt -0.000000 0.932432
vt 0.871622 0.729730
vt 0.878378 0.736486
vt 0.878378 0.729730
vt 0.837838 0.445946
vt 0.750000 0.445946
vt 0.831081 0.432432
vt 0.858108 0.256757
vt 0.864865 0.263514
vt 0.858108 0.263514
vt 0.878378 0.209459
vt 0.871622 0.216216
vt 0.871622 0.209459
vt 0.871622 0.277027
vt 0.864865 0.283784
vt 0.864865 0.277027
vt 0.878378 0.547297
vt 0.831081 0.256757
vt 0.824324 0.175676
vt 0.831081 0.175676
vt 0.878378 0.655405
vt 0.871622 0.662162
vt 0.871622 0.655405
vt 0.371622 0.952703
vt -0.000000 0.959459
vt -0.000000 0.952703
vt 0.378378 0.770270
vt 0.391892 0.837838
vt 0.385135 0.864865
vt 0.878378 0.290541
vt 0.878378 0.297297
vt 0.871622 0.743243
vt 0.878378 0.750000
vt 0.871622 0.750000
vt 0.750000 0.743243
vt 0.743243 0.527027
vt 0.750000 0.554054
vt 0.344595 0.871622
vt 0.337838 0.878378
vt 0.337838 0.871622
vt 0.878378 0.236486
vt 0.871622 0.236486
vt 0.871622 0.527027
vt 0.878378 0.533784
vt 0.871622 0.533784
vt 0.878378 0.304054
vt 0.878378 0.310811
vt 0.885135 0.013514
vt 0.540541 0.270270
vt 0.540541 -0.000000
vt 0.547297 0.263514
vt 0.864865 0.736486
vt 0.871622 0.641892
vt 0.864865 0.648649
vt 0.864865 0.641892
vt 0.871622 0.378378
vt 0.878378 0.385135
vt 0.878378 0.378378
vt 0.864865 0.418919
vt 0.858108 0.432432
vt 0.878378 0.682432
vt 0.871622 0.689189
vt 0.871622 0.682432
vt 0.885135 0.128378
vt 0.878378 0.135135
vt 0.885135 0.135135
vt 0.864865 0.756757
vt 0.871622 0.763514
vt 0.864865 0.763514
vt 0.885135 0.054054
vt 0.878378 0.054054
vt 0.864865 0.209459
vt 0.858108 0.209459
vt 0.864865 0.709459
vt 0.871622 0.716216
vt 0.871622 0.648649
vt 0.243243 0.986486
vt 0.486486 0.979730
vt 0.243243 0.979730
vt 0.864865 0.547297
vt 0.871622 0.547297
vt 0.871622 0.675676
vt 0.864865 0.682432
vt 0.864865 0.675676
vt 0.378378 0.804054
vt 0.371622 0.790541
vt 0.378378 0.790541
vt 0.871622 0.351351
vt 0.864865 0.351351
vt 0.824324 0.256757
vt 0.817568 0.263514
vt 0.817568 0.256757
vt 0.270270 0.804054
vt 0.858108 0.283784
vt 0.864865 0.560811
vt 0.864865 0.554054
vt 0.878378 0.662162
vt 0.871622 0.668919
vt 0.006757 0.939189
vt 0.229730 0.932432
vt 0.864865 0.716216
vt 0.743243 0.277027
vt 0.750000 0.270270
vt 0.750000 0.527027
vt 0.371622 0.966216
vt 0.371622 0.959459
vt 0.864865 0.527027
vt 0.864865 0.689189
vt 0.885135 0.033784
vt 0.878378 0.195946
vt 0.871622 0.202703
vt 0.871622 0.195946
vt 0.371622 0.527027
vt 0.378378 0.270270
vt 0.378378 0.533784
vt 0.824324 0.263514
vt 0.905405 0.945946
vt 0.918919 0.959459
vt 0.885135 0.912162
vt 0.378378 0.844595
vt 0.371622 0.851351
vt 0.371622 0.844595
vt 0.878378 0.628378
vt 0.378378 0.878378
vt 0.378378 0.871622
vt 0.871622 0.331081
vt 0.878378 0.337838
vt 0.871622 0.337838
vt 0.878378 0.675676
vt 0.858108 0.371622
vt 0.864865 0.378378
vt 0.858108 0.378378
vt 0.506757 0.236486
vt 0.033784 0.033784
vt 0.033784 0.236486
vt 0.222973 0.675676
vt 0.033784 0.574324
vt 0.013514 0.641892
vt 0.878378 0.722973
vt 0.878378 0.716216
vt 0.878378 0.641892
vt 0.885135 0.121622
vt 0.878378 0.128378
vt 0.878378 0.121622
vt 0.878378 0.175676
vt 0.871622 0.182432
vt 0.871622 0.175676
vt 0.878378 0.405405
vt 0.871622 0.405405
vt 0.871622 0.324324
vt 0.885135 0.074324
vt 0.878378 0.081081
vt 0.878378 0.074324
vt 0.364865 0.716216
vt 0.371622 0.722973
vt 0.270270 0.722973
vt 0.858108 0.364865
vt 0.864865 0.662162
vt 0.864865 0.668919
vt 0.837838 0.256757
vt 0.837838 0.175676
vt 0.858108 0.277027
vt 0.878378 0.756757
vt 0.236486 0.864865
vt 0.864865 0.189189
vt 0.878378 0.540541
vt 0.871622 0.540541
vt 0.871622 0.425676
vt 0.864865 0.432432
vt 0.864865 0.425676
vt 0.878378 0.560811
vt 0.371622 0.533784
vt 0.277027 0.540541
vt 0.270270 0.533784
vt 0.851351 0.398649
vt 0.925676 0.391892
vt 0.851351 0.391892
vt 0.878378 0.614865
vt 0.878378 0.621622
vt 0.858108 0.304054
vt 0.878378 0.601351
vt 0.878378 0.594595
vt 0.871622 0.756757
vt 0.878378 0.763514
vt 0.858108 0.324324
vt 0.885135 0.108108
vt 0.878378 0.114865
vt 0.878378 0.108108
vt 0.344595 0.878378
vt 0.858108 0.189189
vt 0.864865 0.202703
vt 0.878378 0.574324
vt 0.864865 0.250000
vt 0.864865 0.256757
vt 0.378378 0.777027
vt 0.371622 0.777027
vt 0.878378 0.344595
vt 0.871622 0.344595
vt 0.878378 0.412162
vt 0.871622 0.412162
vt 0.878378 0.324324
vt 0.378378 0.837838
vt 0.871622 0.371622
vt 0.864865 0.412162
vt 0.878378 0.695946
vt 0.878378 0.216216
vt 0.878378 0.189189
vt 0.871622 0.189189
vt 0.878378 0.364865
vt 0.939189 0.513514
vt 0.750000 0.520270
vt 0.939189 0.520270
vt 0.864865 0.344595
vt 0.858108 0.344595
vt 0.858108 0.175676
vt 0.851351 0.175676
vt 0.864865 0.750000
vt 0.864865 0.540541
vt 0.304054 0.878378
vt 0.864865 0.743243
vt 0.817568 0.175676
vt 0.905405 0.986486
vt 0.729730 0.979730
vt 0.729730 0.986486
vt 0.371622 0.864865
vt 0.858108 0.385135
vt 0.864865 0.391892
vt 0.858108 0.391892
vt 0.864865 0.331081
vt 0.364865 0.966216
vt -0.000000 0.972973
vt -0.000000 0.966216
vt 0.864865 0.635135
vt 0.858108 0.405405
vt 0.858108 0.412162
vt 0.344595 0.918919
vt 0.270270 0.925676
vt 0.864865 0.655405
vt 0.006757 0.743243
vt -0.000000 0.716216
vt 0.020270 0.729730
vt 0.939189 0.168919
vt 0.817568 0.168919
vt 0.358108 0.871622
vt 0.364865 0.878378
vt 0.378378 0.763514
vt 0.972973 0.155405
vt 0.817568 0.162162
vt 0.817568 0.155405
vt 0.871622 0.270270
vt 0.864865 0.270270
vt 0.885135 0.087838
vt 0.878378 0.094595
vt 0.885135 0.094595
vt 0.351351 0.905405
vt 0.885135 0.114865
vt 0.878378 0.581081
vt 0.878378 0.587838
vt 0.864865 0.216216
vt 0.804054 0.155405
vt 0.804054 0.000000
vt 0.682432 0.250000
vt 0.675676 0.256757
vt 0.675676 0.000000
vt -0.000000 0.979730
vt 0.364865 0.972973
vt 0.864865 0.182432
vt 0.885135 0.081081
vt 0.878378 0.087838
vt 0.878378 0.972973
vt 0.621622 0.979730
vt 0.621622 0.972973
vt 0.304054 0.722973
vt 0.864865 0.770270
vt 0.851351 0.554054
vt 0.871622 0.736486
vt 0.878378 0.101351
vt 0.182432 0.817568
vt 0.094595 0.810811
vt 0.175676 0.810811
vt 0.864865 0.385135
vt 0.878378 0.702703
vt 0.939189 0.527027
vt 0.810811 0.256757
vt 0.810811 0.250000
vt 0.858108 0.270270
vt 0.486486 0.986486
vt 0.858108 0.297297
vt 0.371622 0.804054
vt 0.864865 0.533784
vt 0.885135 0.101351
vt 0.831081 0.270270
vt 0.831081 0.263514
vt 0.858108 0.310811
vt 0.270270 0.763514
vt 0.878378 0.141892
vt 0.885135 0.148649
vt 0.885135 0.141892
vt 0.858108 0.182432
vt 0.270270 0.891892
vt 0.358108 0.898649
vt 0.270270 0.885135
vt 0.371622 0.891892
vt 0.364865 0.871622
vt 0.878378 0.270270
vt 0.858108 0.250000
vt 0.878378 0.263514
vt 0.364865 0.979730
vt 0.878378 0.358108
vt 0.871622 0.358108
vt 0.229730 0.939189
vt 0.358108 0.932432
vt 0.371622 0.945946
vt -0.000000 0.945946
vt 0.878378 0.013514
vt 0.378378 0.527027
vt 0.939189 0.162162
vt 0.351351 0.918919
vt 0.885135 0.067568
vt 0.864865 0.445946
vt 0.175676 0.993243
vt 0.378378 0.831081
vt 0.885135 0.020270
vt 0.878378 0.222973
vt 0.878378 0.445946
vt 0.885135 0.047297
vt 0.804054 0.506757
vt 0.804054 0.500000
vt 0.797297 0.500000
vt 0.797297 0.493243
vt 0.790541 0.493243
vt 0.790541 0.486486
vt 0.783784 0.486486
vt 0.783784 0.479730
vt 0.777027 0.479730
vt 0.777027 0.472973
vt 0.770270 0.472973
vt 0.770270 0.466216
vt 0.763514 0.466216
vt 0.763514 0.459459
vt 0.756757 0.459459
vt 0.756757 0.452703
vt 0.750000 0.452703
vt 0.966216 0.445946
vt 0.966216 0.452703
vt 0.959459 0.452703
vt 0.959459 0.459459
vt 0.952703 0.459459
vt 0.952703 0.466216
vt 0.945946 0.466216
vt 0.945946 0.472973
vt 0.939189 0.472973
vt 0.939189 0.479730
vt 0.932432 0.479730
vt 0.932432 0.486486
vt 0.898649 0.513514
vt 0.817568 0.513514
vt 0.925676 0.493243
vt 0.918919 0.493243
vt 0.918919 0.500000
vt 0.912162 0.506757
vt 0.898649 0.506757
vt 0.885135 0.000000
vt 0.270270 0.932432
vt 0.006757 0.912162
vt 0.756757 0.432432
vt 0.385135 0.871622
vt 0.412162 0.770270
vt 0.412162 0.810811
vt 0.885135 0.810811
vt 0.885135 0.770270
vt 0.918919 0.770270
vt 0.918919 0.858108
vt 0.905405 0.858108
vt 0.905405 0.837838
vt 0.898649 0.837838
vt 0.898649 0.844595
vt 0.527027 0.844595
vt 0.527027 0.837838
vt 0.391892 0.864865
vt 0.878378 0.743243
vt 0.743243 0.770270
vt 0.878378 0.527027
vt 0.675676 0.270270
vt 0.675676 0.006757
vt 0.547297 0.006757
vt 0.871622 0.385135
vt 0.851351 0.425676
vt 0.858108 0.425676
vt 0.858108 0.418919
vt 0.858108 0.439189
vt 0.878378 0.689189
vt 0.878378 0.648649
vt 0.878378 0.668919
vt 0.006757 0.945946
vt 0.229730 0.945946
vt 0.222973 0.945946
vt 0.222973 0.939189
vt 0.378378 0.520270
vt 0.743243 0.520270
vt 0.378378 0.277027
vt 0.878378 0.202703
vt -0.000000 0.533784
vt -0.000000 0.527027
vt 0.371622 0.270270
vt 0.412162 0.871622
vt 0.378378 0.972973
vt 0.385135 0.972973
vt 0.385135 0.966216
vt 0.391892 0.966216
vt 0.391892 0.939189
vt 0.527027 0.939189
vt 0.527027 0.945946
vt 0.412162 0.912162
vt 0.918919 0.871622
vt 0.885135 0.871622
vt 0.905405 0.959459
vt 0.378378 0.851351
vt 0.878378 0.331081
vt 0.540541 0.236486
vt 0.540541 0.033784
vt 0.506757 0.033784
vt 0.506757 -0.000000
vt 0.033784 -0.000000
vt 0.033784 0.270270
vt 0.506757 0.270270
vt 0.000000 0.033784
vt 0.000000 0.236486
vt 0.189189 0.702703
vt 0.202703 0.702703
vt 0.202703 0.695946
vt 0.209459 0.695946
vt 0.209459 0.689189
vt 0.216216 0.689189
vt 0.216216 0.682432
vt 0.222973 0.682432
vt 0.229730 0.675676
vt 0.229730 0.668919
vt 0.236486 0.668919
vt 0.236486 0.662162
vt 0.243243 0.662162
vt 0.243243 0.655405
vt 0.250000 0.655405
vt 0.250000 0.648649
vt 0.256757 0.648649
vt 0.256757 0.641892
vt 0.263514 0.641892
vt 0.263514 0.635135
vt 0.270270 0.635135
vt 0.236486 0.533784
vt 0.236486 0.574324
vt 0.033784 0.533784
vt -0.000000 0.635135
vt 0.006757 0.635135
vt 0.006757 0.641892
vt 0.013514 0.648649
vt 0.020270 0.648649
vt 0.020270 0.655405
vt 0.027027 0.655405
vt 0.027027 0.662162
vt 0.033784 0.662162
vt 0.033784 0.668919
vt 0.040541 0.668919
vt 0.040541 0.675676
vt 0.047297 0.675676
vt 0.047297 0.682432
vt 0.054054 0.682432
vt 0.054054 0.689189
vt 0.060811 0.689189
vt 0.060811 0.695946
vt 0.067568 0.695946
vt 0.067568 0.702703
vt 0.081081 0.702703
vt 0.081081 0.709459
vt 0.094595 0.709459
vt 0.094595 0.716216
vt 0.175676 0.716216
vt 0.175676 0.709459
vt 0.189189 0.709459
vt 0.878378 0.182432
vt 0.878378 0.398649
vt 0.277027 0.716216
vt 0.364865 0.540541
vt -0.000000 0.824324
vt 0.033784 0.824324
vt 0.033784 0.864865
vt 0.236486 0.824324
vt 0.270270 0.824324
vt 0.925676 0.398649
vt 0.878378 0.371622
vt 0.750000 0.513514
vt 0.905405 0.979730
vt 0.851351 0.412162
vt 0.858108 0.398649
vt 0.344595 0.925676
vt 0.020270 0.743243
vt 0.027027 0.743243
vt 0.027027 0.750000
vt 0.020270 0.756757
vt 0.013514 0.756757
vt 0.013514 0.750000
vt 0.006757 0.750000
vt -0.000000 0.743243
vt 0.250000 0.729730
vt 0.939189 0.175676
vt 0.972973 0.162162
vt 0.878378 0.635135
vt 0.878378 0.155405
vt 0.804054 0.006757
vt 0.682432 0.006757
vt 0.804054 0.250000
vt 0.878378 0.277027
vt 0.878378 0.979730
vt 0.851351 0.743243
vt 0.243243 0.750000
vt 0.243243 0.743243
vt 0.250000 0.743243
vt 0.270270 0.716216
vt 0.270270 0.743243
vt 0.263514 0.743243
vt 0.263514 0.750000
vt 0.256757 0.750000
vt 0.256757 0.756757
vt 0.250000 0.756757
vt 0.250000 0.763514
vt 0.243243 0.763514
vt 0.243243 0.770270
vt 0.236486 0.770270
vt 0.236486 0.777027
vt 0.229730 0.777027
vt 0.229730 0.783784
vt 0.222973 0.783784
vt 0.222973 0.790541
vt 0.216216 0.790541
vt 0.216216 0.797297
vt 0.209459 0.797297
vt 0.209459 0.804054
vt 0.202703 0.804054
vt 0.202703 0.810811
vt 0.195946 0.810811
vt 0.195946 0.817568
vt 0.182432 0.824324
vt 0.087838 0.824324
vt 0.087838 0.817568
vt 0.074324 0.817568
vt 0.074324 0.810811
vt 0.067568 0.810811
vt 0.067568 0.804054
vt 0.060811 0.804054
vt 0.060811 0.797297
vt 0.054054 0.797297
vt 0.054054 0.790541
vt 0.047297 0.790541
vt 0.047297 0.783784
vt 0.040541 0.783784
vt 0.040541 0.777027
vt 0.033784 0.777027
vt 0.033784 0.770270
vt 0.027027 0.770270
vt 0.027027 0.763514
vt 0.020270 0.763514
vt 0.033784 0.750000
vt 0.033784 0.756757
vt 0.040541 0.756757
vt 0.040541 0.763514
vt 0.047297 0.763514
vt 0.047297 0.770270
vt 0.054054 0.770270
vt 0.054054 0.777027
vt 0.060811 0.777027
vt 0.060811 0.783784
vt 0.067568 0.783784
vt 0.067568 0.790541
vt 0.074324 0.790541
vt 0.074324 0.797297
vt 0.081081 0.797297
vt 0.081081 0.804054
vt 0.094595 0.804054
vt 0.175676 0.804054
vt 0.189189 0.804054
vt 0.189189 0.797297
vt 0.195946 0.797297
vt 0.195946 0.790541
vt 0.202703 0.790541
vt 0.202703 0.783784
vt 0.209459 0.783784
vt 0.209459 0.777027
vt 0.216216 0.777027
vt 0.216216 0.770270
vt 0.222973 0.770270
vt 0.222973 0.763514
vt 0.229730 0.763514
vt 0.229730 0.756757
vt 0.236486 0.756757
vt 0.236486 0.750000
vt 0.804054 0.168919
vt 0.810811 0.155405
vt 0.810811 0.162162
vt 0.810811 0.168919
vt 0.810811 0.263514
vt 0.878378 0.148649
vt 0.358108 0.891892
vt 0.358108 0.939189
vt 0.878378 0.351351
s 0
usemtl kasur_7_Material
f 387/1/1 390/2/1 386/3/1
f 212/4/2 93/5/2 84/6/2
f 104/7/3 116/8/3 107/9/3
f 306/10/4 319/11/4 317/12/4
f 317/13/4 329/14/4 318/15/4
f 282/16/2 280/17/2 281/18/2
f 357/19/3 231/20/3 359/21/3
f 109/22/2 222/23/2 101/24/2
f 386/25/4 389/26/4 382/27/4
f 249/28/3 163/29/3 252/30/3
f 71/31/2 72/32/2 68/33/2
f 332/34/1 343/35/1 329/36/1
f 73/37/3 206/38/3 74/39/3
f 321/40/4 333/41/4 334/42/4
f 39/43/1 186/44/1 179/45/1
f 374/46/4 381/47/4 369/48/4
f 308/12/1 319/49/1 305/11/1
f 129/50/1 240/51/1 233/52/1
f 297/53/3 201/10/3 299/54/3
f 309/55/4 321/56/4 322/57/4
f 411/58/4 417/59/4 408/60/4
f 109/61/1 228/62/1 221/63/1
f 59/64/1 198/65/1 191/66/1
f 11/67/5 16/68/5 12/69/5
f 138/70/3 148/71/3 137/72/3
f 354/73/2 352/74/2 353/75/2
f 372/76/2 374/77/2 369/78/2
f 166/79/4 393/80/4 165/81/4
f 101/82/1 112/51/1 110/83/1
f 111/84/4 121/85/4 119/86/4
f 409/87/3 260/88/3 261/89/3
f 23/90/3 10/91/3 24/92/3
f 33/93/4 35/94/4 31/95/4
f 421/96/1 410/97/1 420/98/1
f 338/99/3 349/100/3 345/101/3
f 63/102/3 200/103/3 64/104/3
f 415/105/2 417/106/2 416/107/2
f 99/108/4 100/109/4 101/110/4
f 294/111/2 292/112/2 293/113/2
f 74/114/3 86/115/3 77/116/3
f 213/117/2 333/118/2 335/119/2
f 89/120/1 216/121/1 209/122/1
f 361/123/2 362/124/2 357/80/2
f 51/125/4 61/126/4 59/127/4
f 365/128/4 378/129/4 366/130/4
f 54/131/3 66/132/3 57/53/3
f 5/88/5 2/133/5 1/134/5
f 350/74/4 358/135/4 345/75/4
f 26/136/3 11/137/3 12/138/3
f 329/139/2 208/21/2 332/44/2
f 10/91/4 27/140/4 24/92/4
f 373/141/4 339/142/4 363/143/4
f 44/144/3 56/145/3 47/146/3
f 326/147/3 337/148/3 333/149/3
f 230/62/2 123/150/2 114/151/2
f 173/152/6 168/153/6 175/154/6
f 93/23/3 218/110/3 94/63/3
f 306/155/1 316/156/1 303/157/1
f 421/158/2 420/159/2 419/160/2
f 129/161/2 234/162/2 121/163/2
f 81/164/4 91/165/4 89/166/4
f 310/167/2 311/168/2 201/169/2
f 41/170/1 52/146/1 50/144/1
f 159/171/2 158/172/2 157/173/2
f 131/174/2 132/175/2 128/176/2
f 392/177/3 396/178/3 252/179/3
f 1/180/3 161/181/3 31/182/3
f 141/183/1 156/139/1 155/184/1
f 314/185/3 325/186/3 321/187/3
f 262/188/2 258/189/2 260/190/2
f 301/191/2 302/192/2 297/193/2
f 106/110/2 104/194/2 107/195/2
f 36/196/2 34/197/2 37/198/2
f 153/199/1 160/16/1 159/200/1
f 330/149/1 340/201/1 327/148/1
f 170/202/2 161/203/2 169/204/2
f 41/155/2 42/205/2 38/94/2
f 338/206/4 346/207/4 333/208/4
f 366/209/1 377/210/1 363/211/1
f 245/212/2 140/213/2 144/48/2
f 289/214/2 290/215/2 285/216/2
f 279/217/1 281/218/1 280/219/1
f 56/220/2 54/221/2 57/222/2
f 366/135/2 364/223/2 365/224/2
f 99/5/2 216/225/2 91/226/2
f 172/227/6 395/228/6 171/113/6
f 126/229/2 124/174/2 127/176/2
f 111/83/2 112/9/2 108/51/2
f 402/230/6 266/231/6 259/232/6
f 296/233/1 307/146/1 293/234/1
f 353/235/2 220/236/2 356/237/2
f 382/238/2 237/239/2 381/240/2
f 32/241/4 41/38/4 39/242/4
f 168/243/2 166/244/2 165/245/2
f 21/134/1 8/137/1 7/246/1
f 33/247/3 182/45/3 34/43/3
f 305/146/2 196/248/2 308/249/2
f 133/250/4 135/251/4 124/175/4
f 268/252/4 267/154/4 270/253/4
f 396/95/6 251/228/6 252/254/6
f 398/255/2 397/256/2 401/257/2
f 255/178/1 401/258/1 394/259/1
f 284/260/1 295/198/1 281/196/1
f 368/261/2 367/128/2 226/130/2
f 342/101/1 352/262/1 339/100/1
f 81/263/2 82/264/2 78/265/2
f 394/266/2 173/267/2 174/268/2
f 178/171/2 33/269/2 31/243/2
f 174/270/1 30/271/1 28/272/1
f 188/273/2 53/274/2 44/275/2
f 123/62/3 236/52/3 124/50/3
f 96/118/2 94/276/2 97/36/2
f 49/38/4 50/125/4 51/127/4
f 356/68/1 367/277/1 353/278/1
f 285/279/4 297/280/4 298/281/4
f 142/251/4 143/282/4 140/235/4
f 83/283/3 212/284/3 84/285/3
f 25/286/5 20/287/5 24/288/5
f 103/24/3 224/63/3 104/61/3
f 98/289/6 19/290/6 47/291/6
f 294/228/1 304/292/1 291/293/1
f 121/294/2 122/229/2 118/206/2
f 274/295/3 271/296/3 268/297/3
f 61/298/2 62/299/2 58/300/2
f 374/84/3 384/301/3 382/302/3
f 281/17/2 184/303/2 284/18/2
f 91/304/2 92/305/2 88/306/2
f 411/307/2 413/308/2 412/309/2
f 89/310/2 210/126/2 81/283/2
f 342/311/4 355/251/4 353/312/4
f 385/313/2 382/173/2 384/314/2
f 182/169/2 43/247/2 34/315/2
f 318/187/1 328/316/1 315/186/1
f 30/27/4 29/153/4 26/317/4
f 142/318/2 240/265/2 131/4/2
f 46/198/2 44/319/2 47/320/2
f 271/321/3 189/322/3 273/323/3
f 290/113/3 301/293/3 297/228/3
f 51/324/1 62/53/1 60/131/1
f 409/325/2 407/326/2 406/327/2
f 424/328/1 419/329/1 418/330/1
f 81/331/1 92/118/1 90/332/1
f 99/63/1 222/195/1 215/110/1
f 49/333/1 192/20/1 185/21/1
f 71/334/1 82/116/1 80/114/1
f 76/49/2 74/335/2 77/56/2
f 330/336/2 328/337/2 329/221/2
f 200/65/2 73/102/2 64/338/2
f 124/339/3 136/340/3 127/341/3
f 313/40/2 314/342/2 309/191/2
f 79/343/2 204/4/2 71/6/2
f 34/319/3 46/234/3 37/320/3
f 286/1/2 287/323/2 189/212/2
f 302/145/4 310/54/4 297/248/4
f 167/265/3 392/344/3 166/4/3
f 218/225/2 103/22/2 94/226/2
f 61/345/4 71/11/4 69/132/4
f 133/346/3 241/9/3 134/347/3
f 184/239/1 270/348/1 264/349/1
f 306/281/2 304/350/2 305/351/2
f 382/352/3 243/1/3 383/353/3
f 277/354/4 286/279/4 271/303/4
f 39/77/2 180/355/2 32/69/2
f 362/356/3 372/211/3 369/209/3
f 59/274/2 192/122/2 51/120/2
f 141/353/4 152/212/4 154/357/4
f 142/347/1 246/8/1 239/9/1
f 277/215/3 289/358/3 285/128/3
f 377/106/2 376/171/2 375/313/2
f 93/359/4 95/108/4 84/165/4
f 73/360/4 75/265/4 64/361/4
f 345/362/3 225/356/3 347/125/3
f 262/363/6 406/364/6 412/365/6
f 206/366/2 83/37/2 74/367/2
f 269/330/5 274/368/5 268/369/5
f 66/299/2 64/360/2 67/361/2
f 44/370/4 54/336/4 55/220/4
f 285/320/3 195/233/3 287/371/3
f 8/192/5 3/133/5 7/372/5
f 51/185/2 52/370/2 48/373/2
f 390/243/2 243/374/2 389/172/2
f 420/375/6 407/376/6 414/377/6
f 104/378/4 114/278/4 115/68/4
f 86/32/2 84/304/2 87/306/2
f 119/379/2 228/380/2 111/381/2
f 369/18/3 237/65/3 371/66/3
f 400/281/6 256/382/6 266/103/6
f 398/383/3 402/384/3 259/385/3
f 74/264/4 84/164/4 85/166/4
f 341/35/2 214/208/2 344/386/2
f 320/14/1 331/115/1 317/116/1
f 134/387/2 242/212/2 138/388/2
f 416/389/3 422/390/3 415/26/3
f 346/229/2 347/391/2 219/207/2
f 177/392/4 161/393/4 257/394/4
f 265/374/1 256/395/1 253/396/1
f 342/397/2 340/398/2 341/41/2
f 270/399/5 257/325/5 264/140/5
f 320/168/2 319/71/2 202/45/2
f 419/400/4 423/401/4 416/402/4
f 69/104/1 204/366/1 197/103/1
f 138/85/4 146/353/4 147/357/4
f 63/356/4 65/284/4 54/126/4
f 183/162/2 271/403/2 273/404/2
f 321/118/3 213/34/3 323/119/3
f 116/35/2 114/294/2 117/206/2
f 91/405/1 102/406/1 100/407/1
f 207/45/2 321/139/2 323/44/2
f 153/408/4 157/27/4 150/98/4
f 131/409/1 144/297/1 143/295/1
f 276/282/2 277/216/2 271/235/2
f 380/65/1 388/279/1 378/303/1
f 61/410/1 72/49/1 70/411/1
f 69/412/2 198/108/2 61/23/2
f 309/56/3 207/15/3 311/57/3
f 20/138/4 2/90/4 6/92/4
f 423/147/2 424/413/2 422/414/2
f 253/415/2 254/416/2 249/417/2
f 403/418/1 399/419/1 266/384/1
f 236/299/2 133/318/2 124/420/2
f 84/421/3 96/422/3 87/305/3
f 101/166/4 111/412/4 109/225/4
f 129/167/4 130/70/4 131/72/4
f 394/423/4 397/424/4 392/425/4
f 5/309/1 20/90/1 6/426/1
f 259/260/2 266/427/2 261/428/2
f 272/348/3 257/140/3 267/399/3
f 265/230/6 250/418/6 258/60/6
f 357/103/4 369/351/4 370/366/4
f 325/156/2 326/185/2 321/429/2
f 376/302/1 385/352/1 375/301/1
f 114/407/3 126/430/3 117/406/3
f 245/431/4 243/432/4 244/433/4
f 71/209/4 81/434/4 79/284/4
f 282/128/1 292/435/1 278/358/1
f 413/436/4 261/364/4 263/365/4
f 293/403/2 190/169/2 296/404/2
f 94/344/4 104/166/4 105/225/4
f 248/245/2 152/437/2 153/438/2
f 154/439/1 248/169/1 245/404/1
f 399/376/4 404/440/4 398/231/4
f 43/441/3 188/21/3 44/333/3
f 9/138/5 14/69/5 10/442/5
f 224/284/2 113/379/2 104/285/2
f 195/443/2 297/320/2 299/371/2
f 368/20/1 379/18/1 365/16/1
f 121/444/1 132/341/1 130/339/1
f 415/28/6 424/445/6 418/446/6
f 94/194/3 106/52/3 97/195/3
f 378/111/2 232/227/2 380/129/2
f 53/447/3 194/66/3 54/64/3
f 302/93/3 313/157/3 309/155/3
f 25/246/6 15/90/6 11/448/6
f 354/224/4 367/31/4 365/33/4
f 354/449/1 364/450/1 351/451/1
f 388/76/2 387/442/2 386/238/2
f 358/216/2 359/261/2 225/236/2
f 194/420/2 63/343/2 54/452/2
f 407/453/3 417/454/3 414/97/3
f 262/455/1 413/456/1 263/87/1
f 329/68/4 341/398/4 330/457/4
f 79/39/1 210/127/1 203/38/1
f 145/163/3 247/404/3 146/439/3
f 123/458/4 125/167/4 114/403/4
f 119/459/1 234/347/1 227/346/1
f 111/460/1 122/403/1 120/458/1
f 21/442/6 3/92/6 18/138/6
f 281/81/4 293/46/4 282/322/4
f 350/218/3 361/451/3 357/449/3
f 49/69/2 186/273/2 41/275/2
f 254/424/6 162/419/6 249/461/6
f 391/81/6 163/2/6 164/321/6
f 337/462/2 338/125/2 333/463/2
f 113/150/3 230/346/3 114/459/3
f 43/429/4 45/373/4 34/205/4
f 254/464/1 172/465/1 169/253/1
f 150/184/3 158/19/3 149/139/3
f 30/47/2 175/314/2 29/369/2
f 393/466/2 252/179/2 391/467/2
f 349/201/2 350/99/2 345/468/2
f 404/189/2 403/180/2 402/469/2
f 64/335/3 76/13/3 67/56/3
f 344/312/1 355/235/1 341/251/1
f 318/241/2 316/462/2 317/463/2
f 293/350/4 305/241/4 294/351/4
f 251/470/3 258/396/3 250/401/3
f 333/176/3 219/311/3 335/391/3
f 101/276/2 102/35/2 98/36/2
f 231/366/2 369/241/2 371/242/2
f 378/300/4 386/452/4 376/368/4
f 387/1/1 244/321/1 390/2/1
f 212/4/2 211/344/2 93/5/2
f 104/7/3 115/460/3 116/8/3
f 306/10/4 305/132/4 319/11/4
f 317/13/4 331/116/4 329/14/4
f 282/16/2 278/200/2 280/17/2
f 357/19/3 370/16/3 231/20/3
f 109/22/2 221/412/2 222/23/2
f 386/25/4 390/471/4 389/26/4
f 249/28/3 162/416/3 163/29/3
f 71/31/2 70/472/2 72/32/2
f 332/34/1 214/386/1 343/35/1
f 73/37/3 199/242/3 206/38/3
f 321/40/4 326/397/4 333/41/4
f 39/43/1 41/441/1 186/44/1
f 374/46/4 382/473/4 381/47/4
f 308/12/1 202/55/1 319/49/1
f 129/50/1 131/346/1 240/51/1
f 297/53/3 310/132/3 201/10/3
f 309/55/4 314/49/4 321/56/4
f 411/58/4 421/474/4 417/59/4
f 109/61/1 111/151/1 228/62/1
f 59/64/1 61/338/1 198/65/1
f 11/67/5 15/193/5 16/68/5
f 138/70/3 147/183/3 148/71/3
f 354/73/2 351/262/2 352/74/2
f 372/76/2 373/475/2 374/77/2
f 166/79/4 392/123/4 393/80/4
f 101/82/1 98/52/1 112/51/1
f 111/84/4 120/302/4 121/85/4
f 409/87/3 406/455/3 260/88/3
f 23/90/3 9/426/3 10/91/3
f 33/93/4 34/155/4 35/94/4
f 421/96/1 411/454/1 410/97/1
f 338/99/3 336/476/3 349/100/3
f 63/102/3 193/382/3 200/103/3
f 415/105/2 414/256/2 417/106/2
f 99/108/4 91/477/4 100/109/4
f 294/111/2 291/435/2 292/112/2
f 74/114/3 85/331/3 86/115/3
f 213/117/2 334/115/2 333/118/2
f 89/120/1 91/378/1 216/121/1
f 361/123/2 360/478/2 362/124/2
f 51/125/4 60/356/4 61/126/4
f 365/128/4 379/111/4 378/129/4
f 54/131/3 65/345/3 66/132/3
f 5/88/5 6/372/5 2/133/5
f 350/74/4 357/479/4 358/135/4
f 26/136/3 25/133/3 11/137/3
f 329/139/2 331/19/2 208/21/2
f 10/91/4 14/308/4 27/140/4
f 373/141/4 372/480/4 360/481/4
f 360/481/4 361/482/4 348/483/4
f 348/483/4 349/484/4 336/485/4
f 336/485/4 337/486/4 324/487/4
f 324/487/4 325/488/4 312/489/4
f 312/489/4 313/490/4 300/491/4
f 300/491/4 301/492/4 288/493/4
f 288/493/4 289/494/4 275/495/4
f 275/495/4 276/496/4 274/159/4
f 274/159/4 279/497/4 280/498/4
f 278/499/4 292/500/4 291/501/4
f 274/159/7 280/498/7 278/499/7
f 300/491/4 288/493/4 275/495/4
f 275/495/4 274/159/4 278/499/4
f 291/501/4 304/502/4 303/503/4
f 275/495/4 278/499/4 291/501/4
f 300/491/4 275/495/4 291/501/4
f 303/503/4 316/504/4 315/505/4
f 300/491/4 291/501/4 303/503/4
f 312/489/4 300/491/4 303/503/4
f 315/505/4 328/506/4 327/507/4
f 312/489/4 303/503/4 315/505/4
f 348/483/2 336/485/2 324/487/2
f 324/487/4 312/489/4 315/505/4
f 327/507/4 340/508/4 339/142/4
f 324/487/4 315/505/4 327/507/4
f 360/481/3 348/483/3 324/487/3
f 385/509/4 384/510/4 373/141/4
f 373/141/4 360/481/4 324/487/4
f 324/487/4 327/507/4 339/142/4
f 339/142/4 352/511/4 351/512/4
f 351/512/4 364/513/4 363/143/4
f 363/143/4 377/514/4 375/515/4
f 375/515/4 385/509/4 373/141/4
f 373/141/4 324/487/4 339/142/4
f 339/142/2 351/512/2 363/143/2
f 363/143/4 375/515/4 373/141/4
f 44/144/3 55/324/3 56/145/3
f 326/147/3 324/516/3 337/148/3
f 230/62/2 229/50/2 123/150/2
f 175/154/6 176/517/6 174/26/6
f 173/152/6 167/518/6 168/153/6
f 175/154/6 174/26/6 173/152/6
f 93/23/3 211/108/3 218/110/3
f 306/155/1 317/429/1 316/156/1
f 416/107/2 417/106/2 421/158/2
f 420/159/2 414/256/2 415/105/2
f 420/159/2 415/105/2 418/519/2
f 419/160/2 416/107/2 421/158/2
f 420/159/2 418/519/2 419/160/2
f 129/161/2 233/347/2 234/162/2
f 81/164/4 90/359/4 91/165/4
f 310/167/2 309/72/2 311/168/2
f 41/170/1 38/234/1 52/146/1
f 159/171/2 160/243/2 158/172/2
f 131/174/2 130/250/2 132/175/2
f 392/177/3 397/259/3 396/178/3
f 35/520/3 36/278/3 1/180/3
f 1/180/3 2/521/3 17/522/3
f 18/523/3 3/524/3 4/525/3
f 4/525/3 29/526/3 175/527/3
f 4/525/3 175/527/3 168/528/3
f 18/523/3 4/525/3 168/528/3
f 165/529/3 393/530/3 391/531/3
f 18/523/3 168/528/3 165/529/3
f 17/522/3 18/523/3 165/529/3
f 165/529/3 391/531/3 164/532/3
f 161/181/3 178/533/3 31/182/3
f 17/522/3 165/529/3 164/532/3
f 17/522/3 164/532/3 161/181/3
f 31/182/3 35/520/3 1/180/3
f 1/180/3 17/522/3 161/181/3
f 141/183/1 139/71/1 156/139/1
f 314/185/3 312/534/3 325/186/3
f 262/188/2 265/535/2 258/189/2
f 301/191/2 300/342/2 302/192/2
f 106/110/2 105/109/2 104/194/2
f 36/196/2 35/536/2 34/197/2
f 153/199/1 151/19/1 160/16/1
f 330/149/1 341/468/1 340/201/1
f 172/28/2 171/537/2 170/202/2
f 161/203/2 164/417/2 163/538/2
f 161/203/2 163/538/2 162/539/2
f 169/204/2 172/28/2 170/202/2
f 161/203/2 162/539/2 169/204/2
f 41/155/2 40/429/2 42/205/2
f 338/206/4 345/229/4 346/207/4
f 366/209/1 378/540/1 377/210/1
f 144/48/2 139/541/2 141/542/2
f 141/542/2 154/543/2 245/212/2
f 245/212/2 246/322/2 140/213/2
f 140/213/2 143/544/2 144/48/2
f 144/48/2 141/542/2 245/212/2
f 289/214/2 288/545/2 290/215/2
f 279/217/1 269/296/1 281/218/1
f 56/220/2 55/336/2 54/221/2
f 366/135/2 363/479/2 364/223/2
f 99/5/2 215/344/2 216/225/2
f 172/227/6 255/254/6 395/228/6
f 126/229/2 125/546/2 124/174/2
f 111/83/2 110/7/2 112/9/2
f 402/230/6 403/440/6 266/231/6
f 296/233/1 196/249/1 307/146/1
f 353/235/2 355/216/2 220/236/2
f 382/238/2 383/442/2 237/239/2
f 32/241/4 40/463/4 41/38/4
f 168/243/2 167/269/2 166/244/2
f 21/134/1 22/133/1 8/137/1
f 33/247/3 177/168/3 182/45/3
f 305/146/2 307/145/2 196/248/2
f 133/250/4 134/547/4 135/251/4
f 268/252/4 271/548/4 272/467/4
f 270/253/4 283/549/4 281/550/4
f 270/253/4 281/550/4 269/551/4
f 268/252/4 272/467/4 267/154/4
f 270/253/4 269/551/4 268/252/4
f 396/95/6 259/93/6 251/228/6
f 401/257/2 400/469/2 266/552/2
f 401/257/2 266/552/2 399/553/2
f 259/554/2 396/267/2 397/256/2
f 401/257/2 399/553/2 398/255/2
f 398/255/2 259/554/2 397/256/2
f 255/178/1 400/385/1 401/258/1
f 284/260/1 190/443/1 295/198/1
f 368/261/2 365/215/2 367/128/2
f 342/101/1 353/73/1 352/262/1
f 81/263/2 80/555/2 82/264/2
f 174/268/2 395/556/2 255/557/2
f 394/266/2 392/558/2 173/267/2
f 174/268/2 255/557/2 394/266/2
f 178/171/2 177/446/2 33/269/2
f 14/559/1 13/278/1 42/560/1
f 42/560/1 40/561/1 32/562/1
f 32/562/1 180/563/1 170/564/1
f 171/565/1 395/566/1 174/270/1
f 42/560/1 32/562/1 170/564/1
f 14/559/1 42/560/1 170/564/1
f 27/567/1 14/559/1 170/564/1
f 27/567/1 170/564/1 171/565/1
f 16/568/1 15/569/1 28/272/1
f 28/272/1 27/567/1 171/565/1
f 174/270/1 176/570/1 30/271/1
f 28/272/1 171/565/1 174/270/1
f 30/271/1 16/568/1 28/272/1
f 188/273/2 187/571/2 53/274/2
f 123/62/3 229/195/3 236/52/3
f 96/118/2 95/332/2 94/276/2
f 49/38/4 41/463/4 50/125/4
f 356/68/1 226/89/1 367/277/1
f 285/279/4 290/572/4 297/280/4
f 142/251/4 131/547/4 143/282/4
f 83/283/3 205/126/3 212/284/3
f 25/286/5 26/573/5 22/574/5
f 21/575/5 18/576/5 17/577/5
f 25/286/5 22/574/5 21/575/5
f 27/578/5 28/579/5 25/286/5
f 19/580/5 23/581/5 24/288/5
f 24/288/5 27/578/5 25/286/5
f 25/286/5 21/575/5 17/577/5
f 20/287/5 19/580/5 24/288/5
f 25/286/5 17/577/5 20/287/5
f 103/24/3 217/23/3 224/63/3
f 139/582/6 144/583/6 128/584/6
f 128/584/6 132/585/6 118/586/6
f 118/586/6 122/587/6 108/588/6
f 108/588/6 112/589/6 98/289/6
f 98/289/6 102/590/6 88/591/6
f 88/591/6 92/592/6 78/593/6
f 78/593/6 82/594/6 68/595/6
f 68/595/6 72/596/6 58/597/6
f 58/597/6 62/598/6 48/599/6
f 48/599/6 52/600/6 38/601/6
f 38/601/6 42/602/6 13/327/6
f 13/327/6 9/603/6 23/604/6
f 19/290/6 5/605/6 1/556/6
f 38/601/6 13/327/6 23/604/6
f 19/290/6 1/556/6 36/606/6
f 38/601/6 23/604/6 19/290/6
f 48/599/6 38/601/6 19/290/6
f 19/290/6 36/606/6 37/607/6
f 37/607/6 46/608/6 47/291/6
f 47/291/6 56/609/6 57/610/6
f 57/610/6 66/611/6 67/612/6
f 67/612/6 76/613/6 77/614/6
f 77/614/6 86/615/6 87/616/6
f 87/616/6 96/617/6 97/618/6
f 97/618/6 106/619/6 107/620/6
f 107/620/6 116/621/6 117/622/6
f 117/622/6 126/623/6 127/624/6
f 127/624/6 136/625/6 137/626/6
f 137/626/6 148/627/6 149/628/6
f 149/628/6 158/629/6 160/630/6
f 151/631/6 156/632/6 139/582/6
f 149/628/6 160/630/6 151/631/6
f 117/622/6 127/624/6 137/626/6
f 137/626/6 149/628/6 151/631/6
f 139/582/6 128/584/6 118/586/6
f 137/626/6 151/631/6 139/582/6
f 107/620/6 117/622/6 137/626/6
f 77/614/6 87/616/6 97/618/6
f 97/618/6 107/620/6 137/626/6
f 137/626/6 139/582/6 118/586/6
f 137/626/6 118/586/6 108/588/6
f 77/614/6 97/618/6 137/626/6
f 67/612/6 77/614/6 137/626/6
f 137/626/6 108/588/6 98/289/6
f 98/289/6 88/591/6 78/593/6
f 98/289/8 78/593/8 68/595/8
f 67/612/6 137/626/6 98/289/6
f 57/610/6 67/612/6 98/289/6
f 98/289/9 68/595/9 58/597/9
f 58/597/6 48/599/6 19/290/6
f 19/290/6 37/607/6 47/291/6
f 47/291/6 57/610/6 98/289/6
f 98/289/6 58/597/6 19/290/6
f 294/228/1 305/93/1 304/292/1
f 121/294/2 120/546/2 122/229/2
f 274/295/3 276/217/3 271/296/3
f 61/298/2 60/633/2 62/299/2
f 374/84/3 373/634/3 384/301/3
f 281/17/2 283/354/2 184/303/2
f 91/304/2 90/421/2 92/305/2
f 406/327/2 407/326/2 410/635/2
f 411/307/2 408/636/2 409/325/2
f 412/309/2 406/327/2 410/635/2
f 411/307/2 409/325/2 413/308/2
f 412/309/2 410/635/2 411/307/2
f 89/310/2 209/127/2 210/126/2
f 342/311/4 341/175/4 355/251/4
f 385/313/2 386/171/2 382/173/2
f 182/169/2 181/168/2 43/247/2
f 318/187/1 329/336/1 328/316/1
f 29/153/4 4/637/4 8/638/4
f 29/153/4 8/638/4 22/639/4
f 12/640/4 16/641/4 30/27/4
f 29/153/4 22/639/4 26/317/4
f 26/317/4 12/640/4 30/27/4
f 142/318/2 239/361/2 240/265/2
f 46/198/2 45/197/2 44/319/2
f 271/321/3 286/81/3 189/322/3
f 290/113/3 288/112/3 301/293/3
f 51/324/1 48/145/1 62/53/1
f 409/325/2 408/636/2 407/326/2
f 424/328/1 425/642/1 419/329/1
f 81/331/1 78/115/1 92/118/1
f 99/63/1 101/62/1 222/195/1
f 49/333/1 51/447/1 192/20/1
f 71/334/1 68/13/1 82/116/1
f 76/49/2 75/411/2 74/335/2
f 330/336/2 327/316/2 328/337/2
f 200/65/2 199/382/2 73/102/2
f 124/339/3 135/409/3 136/340/3
f 313/40/2 312/42/2 314/342/2
f 79/343/2 203/318/2 204/4/2
f 34/319/3 45/170/3 46/234/3
f 286/1/2 285/321/2 287/323/2
f 302/145/4 309/53/4 310/54/4
f 167/265/3 173/264/3 392/344/3
f 218/225/2 217/412/2 103/22/2
f 61/345/4 70/410/4 71/11/4
f 133/346/3 235/51/3 241/9/3
f 184/239/1 283/240/1 270/348/1
f 306/281/2 303/280/2 304/350/2
f 382/352/3 389/3/3 243/1/3
f 277/354/4 285/572/4 286/279/4
f 39/77/2 179/475/2 180/355/2
f 362/356/3 360/643/3 372/211/3
f 59/274/2 191/571/2 192/122/2
f 141/353/4 155/1/4 152/212/4
f 142/347/1 140/162/1 246/8/1
f 277/215/3 275/545/3 289/358/3
f 377/106/2 378/445/2 376/171/2
f 93/359/4 94/477/4 95/108/4
f 73/360/4 74/263/4 75/265/4
f 345/362/3 358/643/3 225/356/3
f 262/363/6 260/644/6 406/364/6
f 206/366/2 205/242/2 83/37/2
f 269/330/5 279/381/5 274/368/5
f 66/299/2 65/633/2 64/360/2
f 44/370/4 53/187/4 54/336/4
f 285/320/3 298/234/3 195/233/3
f 8/192/5 4/136/5 3/133/5
f 51/185/2 50/187/2 52/370/2
f 390/243/2 244/245/2 243/374/2
f 420/375/6 410/645/6 407/376/6
f 104/378/4 113/121/4 114/278/4
f 86/32/2 85/472/2 84/304/2
f 119/379/2 227/434/2 228/380/2
f 369/18/3 381/303/3 237/65/3
f 400/281/6 255/279/6 256/382/6
f 398/383/3 404/419/3 402/384/3
f 74/264/4 83/555/4 84/164/4
f 341/35/2 343/206/2 214/208/2
f 320/14/1 208/117/1 331/115/1
f 137/646/2 136/328/2 135/647/2
f 134/387/2 241/85/2 242/212/2
f 137/646/2 135/647/2 134/387/2
f 242/212/2 145/543/2 138/388/2
f 138/388/2 137/646/2 134/387/2
f 416/389/3 423/648/3 422/390/3
f 346/229/2 345/176/2 347/391/2
f 183/649/4 273/650/4 189/651/4
f 189/651/4 187/652/4 188/653/4
f 181/654/4 182/655/4 177/392/4
f 189/651/4 188/653/4 181/654/4
f 183/649/4 189/651/4 181/654/4
f 177/392/4 178/656/4 161/393/4
f 183/649/4 181/654/4 177/392/4
f 161/393/4 264/657/4 257/394/4
f 257/394/4 183/649/4 177/392/4
f 265/374/1 266/658/1 256/395/1
f 342/397/2 339/457/2 340/398/2
f 270/399/5 267/268/5 257/325/5
f 320/168/2 317/72/2 319/71/2
f 419/400/4 425/659/4 423/401/4
f 69/104/1 71/367/1 204/366/1
f 138/85/4 145/302/4 146/353/4
f 63/356/4 64/209/4 65/284/4
f 183/162/2 272/8/2 271/403/2
f 321/118/3 334/36/3 213/34/3
f 116/35/2 115/660/2 114/294/2
f 91/405/1 88/422/1 102/406/1
f 207/45/2 322/71/2 321/139/2
f 153/408/4 159/25/4 157/27/4
f 131/409/1 128/340/1 144/297/1
f 276/282/2 275/214/2 277/216/2
f 380/65/1 238/382/1 388/279/1
f 61/410/1 58/11/1 72/49/1
f 69/412/2 197/165/2 198/108/2
f 309/56/3 322/13/3 207/15/3
f 20/138/4 17/137/4 2/90/4
f 423/147/2 425/661/2 424/413/2
f 249/417/2 252/414/2 251/662/2
f 249/417/2 251/662/2 250/663/2
f 256/664/2 255/29/2 254/416/2
f 249/417/2 250/663/2 253/415/2
f 253/415/2 256/664/2 254/416/2
f 403/418/1 405/461/1 399/419/1
f 236/299/2 235/361/2 133/318/2
f 84/421/3 95/405/3 96/422/3
f 101/166/4 110/165/4 111/412/4
f 129/167/4 121/665/4 130/70/4
f 394/423/4 401/666/4 397/424/4
f 5/309/1 19/448/1 20/90/1
f 260/190/2 258/189/2 259/260/2
f 266/427/2 265/535/2 262/188/2
f 266/427/2 262/188/2 263/667/2
f 261/428/2 260/190/2 259/260/2
f 266/427/2 263/667/2 261/428/2
f 272/348/3 183/349/3 257/140/3
f 265/230/6 253/232/6 250/418/6
f 357/103/4 362/281/4 369/351/4
f 325/156/2 324/534/2 326/185/2
f 376/302/1 386/353/1 385/352/1
f 114/407/3 125/444/3 126/430/3
f 190/668/4 284/669/4 184/670/4
f 264/657/4 161/393/4 170/671/4
f 184/670/4 264/657/4 170/671/4
f 170/671/4 180/672/4 179/673/4
f 179/673/4 186/674/4 185/675/4
f 185/675/4 192/676/4 191/677/4
f 191/677/4 198/678/4 197/679/4
f 197/679/4 204/680/4 203/681/4
f 203/681/4 210/682/4 209/683/4
f 209/683/4 216/684/4 215/685/4
f 215/685/4 222/686/4 221/687/4
f 221/687/4 228/688/4 227/689/4
f 227/689/4 234/690/4 233/691/4
f 233/691/4 240/692/4 239/693/4
f 239/693/4 246/694/4 245/431/4
f 245/431/4 248/695/4 247/696/4
f 242/697/4 241/698/4 235/699/4
f 245/431/4 247/696/4 242/697/4
f 233/691/4 239/693/4 245/431/4
f 227/689/4 233/691/4 245/431/4
f 245/431/4 242/697/4 235/699/4
f 235/699/4 236/700/4 229/701/4
f 229/701/4 230/702/4 223/703/4
f 223/703/4 224/704/4 217/705/4
f 217/705/4 218/706/4 211/707/4
f 211/707/4 212/708/4 205/709/4
f 205/709/4 206/710/4 199/711/4
f 199/711/4 200/712/4 193/713/4
f 193/713/4 194/714/4 187/652/4
f 187/652/4 189/651/4 287/715/4
f 195/716/4 299/717/4 201/718/4
f 187/652/4 287/715/4 195/716/4
f 193/713/4 187/652/4 195/716/4
f 201/718/4 311/719/4 207/720/4
f 193/713/4 195/716/4 201/718/4
f 211/707/4 205/709/4 199/711/4
f 199/711/4 193/713/4 201/718/4
f 207/720/4 323/721/4 213/722/4
f 199/711/4 201/718/4 207/720/4
f 217/705/2 211/707/2 199/711/2
f 235/699/6 229/701/6 223/703/6
f 217/705/4 199/711/4 207/720/4
f 235/699/10 223/703/10 217/705/10
f 221/687/4 227/689/4 245/431/4
f 203/681/4 209/683/4 215/685/4
f 215/685/4 221/687/4 245/431/4
f 235/699/4 217/705/4 207/720/4
f 213/722/4 335/723/4 219/724/4
f 235/699/4 207/720/4 213/722/4
f 203/681/4 215/685/4 245/431/4
f 197/679/4 203/681/4 245/431/4
f 235/699/4 213/722/4 219/724/4
f 219/724/4 347/725/4 225/726/4
f 225/726/4 359/727/4 231/728/4
f 231/728/4 371/729/4 237/730/4
f 237/730/4 383/731/4 243/432/4
f 244/433/4 387/732/4 238/733/4
f 238/733/4 380/734/4 232/735/4
f 232/735/4 368/736/4 226/737/4
f 226/737/4 356/738/4 220/739/4
f 220/739/4 344/740/4 214/741/4
f 214/741/4 332/742/4 208/743/4
f 208/743/4 320/744/4 202/745/4
f 202/745/4 308/746/4 196/747/4
f 196/747/4 296/748/4 190/668/4
f 184/670/4 170/671/4 179/673/4
f 202/745/4 196/747/4 190/668/4
f 190/668/4 184/670/4 179/673/4
f 190/668/4 179/673/4 185/675/4
f 214/741/2 208/743/2 202/745/2
f 202/745/4 190/668/4 185/675/4
f 191/677/4 197/679/4 245/431/4
f 202/745/4 185/675/4 191/677/4
f 220/739/1 214/741/1 202/745/1
f 232/735/6 226/737/6 220/739/6
f 238/733/4 232/735/4 220/739/4
f 220/739/4 202/745/4 191/677/4
f 235/699/4 219/724/4 225/726/4
f 235/699/4 225/726/4 231/728/4
f 220/739/4 191/677/4 245/431/4
f 238/733/4 220/739/4 245/431/4
f 235/699/4 231/728/4 237/730/4
f 235/699/4 237/730/4 243/432/4
f 244/433/4 238/733/4 245/431/4
f 245/431/4 235/699/4 243/432/4
f 71/209/4 80/540/4 81/434/4
f 282/128/1 293/111/1 292/435/1
f 413/436/4 409/257/4 261/364/4
f 293/403/2 295/167/2 190/169/2
f 94/344/4 103/264/4 104/166/4
f 149/749/2 148/413/2 147/750/2
f 146/751/2 247/401/2 248/245/2
f 149/749/2 147/750/2 146/751/2
f 150/752/2 149/749/2 146/751/2
f 152/437/2 155/753/2 156/30/2
f 156/30/2 151/664/2 153/438/2
f 150/752/2 146/751/2 248/245/2
f 152/437/2 156/30/2 153/438/2
f 153/438/2 150/752/2 248/245/2
f 154/439/1 152/315/1 248/169/1
f 399/376/4 405/377/4 404/440/4
f 43/441/3 181/44/3 188/21/3
f 9/138/5 13/67/5 14/69/5
f 224/284/2 223/434/2 113/379/2
f 195/443/2 298/198/2 297/320/2
f 368/20/1 232/66/1 379/18/1
f 121/444/1 118/430/1 132/341/1
f 415/28/6 422/537/6 424/445/6
f 94/194/3 105/82/3 106/52/3
f 378/111/2 379/113/2 232/227/2
f 53/447/3 187/20/3 194/66/3
f 302/93/3 300/292/3 313/157/3
f 25/246/6 28/137/6 15/90/6
f 354/224/4 353/223/4 367/31/4
f 354/449/1 365/754/1 364/450/1
f 388/76/2 238/78/2 387/442/2
f 358/216/2 357/215/2 359/261/2
f 194/420/2 193/318/2 63/343/2
f 407/453/3 408/755/3 417/454/3
f 262/455/1 412/453/1 413/456/1
f 329/68/4 343/89/4 341/398/4
f 79/39/1 81/310/1 210/127/1
f 145/163/3 242/162/3 247/404/3
f 123/458/4 124/665/4 125/167/4
f 119/459/1 121/161/1 234/347/1
f 111/460/1 108/8/1 122/403/1
f 21/442/6 7/140/6 3/92/6
f 281/81/4 295/80/4 293/46/4
f 350/218/3 348/219/3 361/451/3
f 49/69/2 185/355/2 186/273/2
f 254/424/6 169/425/6 162/419/6
f 391/81/6 252/79/6 163/2/6
f 337/462/2 336/362/2 338/125/2
f 113/150/3 223/50/3 230/346/3
f 43/429/4 44/185/4 45/373/4
f 254/464/1 255/756/1 172/465/1
f 150/184/3 157/199/3 158/19/3
f 30/47/2 176/158/2 175/314/2
f 393/466/2 392/177/2 252/179/2
f 349/201/2 348/476/2 350/99/2
f 404/189/2 405/535/2 403/180/2
f 64/335/3 75/334/3 76/13/3
f 344/312/1 220/237/1 355/235/1
f 318/241/2 315/757/2 316/462/2
f 293/350/4 307/757/4 305/241/4
f 251/470/3 259/395/3 258/396/3
f 333/176/3 346/175/3 219/311/3
f 101/276/2 100/660/2 102/35/2
f 231/366/2 370/351/2 369/241/2
f 378/300/4 388/299/4 386/452/4
