# Blender 5.0.1
# www.blender.org
mtllib Wardrobe_6.mtl
o Wardrobe_6
v -4.000001 -0.000001 1.700001
v -3.700001 -0.000001 1.700001
v -3.700001 0.099999 1.700000
v 3.700001 -0.000001 1.700001
v 3.700001 0.099999 1.700000
v 4.000001 -0.000001 1.700001
v -4.000001 -0.000001 -2.000000
v -3.700001 -0.000001 -2.000000
v -3.700001 0.099999 -2.000000
v 3.700001 0.099999 -2.000000
v 3.700001 -0.000001 -2.000000
v 4.000001 -0.000001 -2.000000
v -3.500001 0.099999 1.700001
v -3.500001 0.199999 1.700000
v 3.500001 0.099999 1.700001
v 3.500001 0.199999 1.700000
v -3.500001 0.099999 -2.000000
v -3.500001 0.199999 -2.000000
v 3.500001 0.199999 -2.000000
v 3.500001 0.099999 -2.000000
v -3.300001 0.199999 1.700001
v -3.300001 0.299999 1.700000
v 3.300001 0.199999 1.700001
v 3.300001 0.299999 1.700000
v -3.300001 0.199999 -2.000000
v -3.300001 0.299999 -2.000000
v 3.300001 0.299999 -2.000000
v 3.300001 0.199999 -2.000000
v -3.600001 0.399999 1.700000
v -0.200000 0.399999 1.700000
v 0.200000 0.399999 1.700000
v 3.600001 0.399999 1.700000
v -2.000000 0.799999 1.900000
v -2.000000 0.799999 1.800000
v -2.000000 0.899999 1.800001
v -2.000000 0.899999 1.900000
v -1.800001 0.799999 1.900000
v -1.800000 0.799999 1.800000
v -1.800001 0.899999 1.800001
v -1.800000 0.899999 1.900000
v 1.800001 0.799999 1.900000
v 1.800000 0.799999 1.800000
v 1.800001 0.899999 1.800001
v 1.800000 0.899999 1.900000
v 2.000000 0.799999 1.900000
v 2.000000 0.799999 1.800000
v 2.000000 0.899999 1.800001
v 2.000000 0.899999 1.900000
v -2.100000 0.999999 1.900000
v -2.100000 0.999999 1.800000
v -2.000000 0.999999 1.800001
v -2.000000 0.999999 1.900000
v -2.100000 0.899999 1.900000
v -2.100000 0.899999 1.800000
v -1.800000 0.999999 1.900000
v -1.700001 0.899999 1.900000
v -1.700000 0.899999 1.800000
v -1.700000 0.999999 1.800000
v -1.700001 0.999999 1.900000
v -1.800001 0.999999 1.800001
v 1.700001 0.999999 1.900000
v 1.700000 0.999999 1.800000
v 1.800001 0.999999 1.800001
v 1.800000 0.999999 1.900000
v 1.700001 0.899999 1.900000
v 1.700000 0.899999 1.800000
v 2.000000 0.999999 1.900000
v 2.100000 0.899999 1.900000
v 2.100000 0.899999 1.800000
v 2.100000 0.999999 1.800000
v 2.100000 0.999999 1.900000
v 2.000000 0.999999 1.800001
v -2.000000 1.099999 1.900000
v -2.000000 1.099999 1.800000
v -1.800000 1.099999 1.800000
v -1.800001 1.099999 1.900000
v 1.800001 1.099999 1.900000
v 1.800000 1.099999 1.800000
v 2.000000 1.099999 1.800000
v 2.000000 1.099999 1.900000
v -3.600001 1.500000 1.700000
v -0.200000 1.500000 1.700000
v 0.200000 1.500000 1.700000
v 3.600001 1.500000 1.700000
v -3.600001 1.599999 1.700000
v -0.100000 1.599999 1.700000
v 0.100000 1.599999 1.700000
v 3.600001 1.599999 1.700000
v -0.400000 4.300000 2.000000
v -0.400000 4.400000 1.900000
v -0.200000 4.300000 2.000000
v -0.200000 4.400000 1.900000
v 0.200000 4.300000 2.000000
v 0.200000 4.400000 1.900000
v 0.400000 4.300000 2.000000
v 0.400000 4.400000 1.900000
v -0.400000 4.400000 1.800000
v -0.400000 4.300000 1.800000
v -0.200000 4.300000 1.800000
v -0.200000 4.400000 1.800000
v 0.200000 4.400000 1.800000
v 0.200000 4.300000 1.800000
v 0.400000 4.300000 1.800000
v 0.400000 4.400000 1.800000
v -0.400000 4.900000 1.900000
v -0.200000 4.900000 1.900000
v 0.200000 4.900000 1.900000
v 0.400000 4.900000 1.900000
v -0.400000 5.000000 2.000000
v -0.200000 5.000000 2.000000
v 0.200000 5.000000 2.000000
v 0.400000 5.000000 2.000000
v -0.400000 5.000000 1.800000
v -0.400000 4.900000 1.800000
v -0.200000 4.900000 1.800000
v -0.200000 5.000000 1.800000
v 0.200000 5.000000 1.800000
v 0.200000 4.900000 1.800000
v 0.400000 4.900000 1.800000
v 0.400000 5.000000 1.800000
v -3.600001 7.400001 1.700000
v -0.100000 7.400001 1.700000
v 0.100000 7.400001 1.700000
v 3.600001 7.400001 1.700000
v -3.700001 7.800001 1.400000
v 3.700001 7.800001 1.400000
v -3.700001 7.800001 -1.700001
v 3.700001 7.800001 -1.700001
v -3.800001 7.900001 1.500000
v -3.700001 7.900002 1.400000
v 3.700001 7.900002 1.400000
v 3.800001 7.900001 1.500000
v -3.700001 7.900002 -1.700000
v 3.700001 7.900002 -1.700000
v -3.800001 7.900001 -1.800001
v 3.800001 7.900001 -1.800001
v -4.000001 8.000001 1.700001
v -1.300000 8.000001 1.700000
v 4.000001 8.000001 1.700001
v -3.800001 8.000001 1.500000
v 3.800001 8.000001 1.500000
v -3.800001 8.000001 -1.800000
v 3.800001 8.000001 -1.800000
v -4.000001 8.000001 -2.000000
v 4.000001 8.000001 -2.000000
v -3.600001 0.399999 1.800001
v -0.200000 0.399999 1.800001
v 0.200000 0.399999 1.800001
v 3.600001 0.399999 1.800001
v -3.600001 1.500000 1.800001
v -0.200000 1.500000 1.800001
v 0.200000 1.500000 1.800001
v 3.600001 1.500000 1.800001
v -3.600001 1.599999 1.800001
v -0.100000 1.599999 1.800001
v 0.100000 1.599999 1.800001
v 3.600001 1.599999 1.800001
v -3.300001 2.200000 1.800000
v -0.500000 2.200000 1.800000
v 0.500000 2.200000 1.800000
v 3.300001 2.200000 1.800000
v -3.300001 2.199999 1.700001
v -0.500000 2.199999 1.700001
v 0.500000 2.199999 1.700001
v 3.300001 2.199999 1.700001
v -3.300001 2.400000 1.700001
v -3.300001 2.400000 1.800000
v -0.500000 2.400000 1.700001
v -0.500000 2.400000 1.800000
v 0.500000 2.400000 1.700001
v 0.500000 2.400000 1.800000
v 3.300001 2.400000 1.700001
v 3.300001 2.400000 1.800000
v -3.300001 2.700000 1.800000
v -0.500000 2.700000 1.800000
v 0.500000 2.700000 1.800000
v 3.300001 2.700000 1.800000
v -3.300001 2.700000 1.700001
v -0.500000 2.700000 1.700001
v 0.500000 2.700000 1.700001
v 3.300001 2.700000 1.700001
v -3.300001 2.900000 1.700001
v -3.300001 2.900000 1.800000
v -0.500000 2.900000 1.700001
v -0.500000 2.900000 1.800000
v 0.500000 2.900000 1.700001
v 0.500000 2.900000 1.800000
v 3.300001 2.900000 1.700001
v 3.300001 2.900000 1.800000
v -3.300001 3.200000 1.800000
v -0.500000 3.200000 1.800000
v 0.500000 3.200000 1.800000
v 3.300001 3.200000 1.800000
v -3.300001 3.200000 1.700001
v -0.500000 3.200000 1.700001
v 0.500000 3.200000 1.700001
v 3.300001 3.200000 1.700001
v -3.300001 3.400000 1.700001
v -3.300001 3.400000 1.800000
v -0.500000 3.400000 1.700001
v -0.500000 3.400000 1.800000
v 0.500000 3.400000 1.700001
v 0.500000 3.400000 1.800000
v 3.300001 3.400000 1.700001
v 3.300001 3.400000 1.800000
v -3.300001 3.700000 1.800000
v -0.500000 3.700000 1.800000
v 0.500000 3.700000 1.800000
v 3.300001 3.700000 1.800000
v -3.300001 3.700000 1.700001
v -0.500000 3.700000 1.700001
v 0.500000 3.700000 1.700001
v 3.300001 3.700000 1.700001
v -3.300001 3.900000 1.700001
v -3.300001 3.900000 1.800000
v -0.500000 3.900000 1.700001
v -0.500000 3.900000 1.800000
v 0.500000 3.900000 1.700001
v 0.500000 3.900000 1.800000
v 3.300001 3.900000 1.700001
v 3.300001 3.900000 1.800000
v -3.300001 4.200000 1.800000
v -0.500000 4.200000 1.800000
v 0.500000 4.200000 1.800000
v 3.300001 4.200000 1.800000
v -3.300001 4.200000 1.700001
v -0.500000 4.200000 1.700001
v 0.500000 4.200000 1.700001
v 3.300001 4.200000 1.700001
v -3.300001 4.400000 1.700001
v -3.300001 4.400000 1.800000
v -0.500000 4.400000 1.700001
v -0.500000 4.400000 1.800000
v 0.500000 4.400000 1.700001
v 0.500000 4.400000 1.800000
v 3.300001 4.400000 1.700001
v 3.300001 4.400000 1.800000
v -3.300001 4.700000 1.800000
v -0.500000 4.700000 1.800000
v 0.500000 4.700000 1.800000
v 3.300001 4.700000 1.800000
v -3.300001 4.700000 1.700001
v -0.500000 4.700000 1.700001
v 0.500000 4.700000 1.700001
v 3.300001 4.700000 1.700001
v -3.300001 4.900000 1.700001
v -3.300001 4.900000 1.800000
v -0.500000 4.900000 1.700001
v -0.500000 4.900000 1.800000
v 0.500000 4.900000 1.700001
v 0.500000 4.900000 1.800000
v 3.300001 4.900000 1.700001
v 3.300001 4.900000 1.800000
v -3.300001 5.200000 1.800000
v -0.500000 5.200000 1.800000
v 0.500000 5.200000 1.800000
v 3.300001 5.200000 1.800000
v -3.300001 5.200000 1.700001
v -0.500000 5.200000 1.700001
v 0.500000 5.200000 1.700001
v 3.300001 5.200000 1.700001
v -3.300001 5.400001 1.700001
v -3.300001 5.400001 1.800000
v -0.500000 5.400001 1.700001
v -0.500000 5.400001 1.800000
v 0.500000 5.400001 1.700001
v 0.500000 5.400001 1.800000
v 3.300001 5.400001 1.700001
v 3.300001 5.400001 1.800000
v -3.300001 5.700000 1.800000
v -0.500000 5.700000 1.800000
v 0.500000 5.700000 1.800000
v 3.300001 5.700000 1.800000
v -3.600001 5.800000 1.800000
v -3.300001 5.700001 1.700001
v -0.500000 5.700001 1.700001
v 0.500000 5.700001 1.700001
v 3.300001 5.700001 1.700001
v 3.600001 5.800000 1.800000
v -3.300001 5.900001 1.700001
v -3.300001 5.900001 1.800000
v -0.500000 5.900001 1.700001
v -0.500000 5.900001 1.800000
v 0.500000 5.900001 1.700001
v 0.500000 5.900001 1.800000
v 3.300001 5.900001 1.700001
v 3.300001 5.900001 1.800000
v -3.300001 6.200001 1.800000
v -0.500000 6.200001 1.800000
v 0.500000 6.200001 1.800000
v 3.300001 6.200001 1.800000
v -3.300001 6.200001 1.700001
v -0.500000 6.200001 1.700001
v 0.500000 6.200001 1.700001
v 3.300001 6.200001 1.700001
v -3.300001 6.400001 1.700001
v -3.300001 6.400001 1.800000
v -0.500000 6.400001 1.700001
v -0.500000 6.400001 1.800000
v 0.500000 6.400001 1.700001
v 0.500000 6.400001 1.800000
v 3.300001 6.400001 1.700001
v 3.300001 6.400001 1.800000
v -3.300001 6.700001 1.800000
v -0.500000 6.700001 1.800000
v 0.500000 6.700001 1.800000
v 3.300001 6.700001 1.800000
v -3.300001 6.700001 1.700001
v -0.500000 6.700001 1.700001
v 0.500000 6.700001 1.700001
v 3.300001 6.700001 1.700001
v -3.300001 6.900001 1.700001
v -3.300001 6.900001 1.800000
v -0.500000 6.900001 1.700001
v -0.500000 6.900001 1.800000
v 0.500000 6.900001 1.700001
v 0.500000 6.900001 1.800000
v 3.300001 6.900001 1.700001
v 3.300001 6.900001 1.800000
v -3.600001 7.400001 1.800001
v -0.100000 7.400001 1.800001
v 0.100000 7.400001 1.800001
v 3.600001 7.400001 1.800001
vn -0.0000 1.0000 -0.0000
vn 1.0000 -0.0000 -0.0000
vn -0.0000 -1.0000 -0.0000
vn -1.0000 -0.0000 -0.0000
vn -0.0000 -0.0000 1.0000
vn -0.0000 -0.0000 -1.0000
vt 0.519231 0.985577
vt 0.384615 0.980769
vt 0.519231 0.980769
vt 0.740385 0.812500
vt 0.730769 0.817308
vt 0.730769 0.812500
vt 0.379808 0.836538
vt 0.375000 0.841346
vt 0.375000 0.836538
vt 0.913462 0.278846
vt 0.913462 0.201923
vt 0.918269 0.000000
vt 0.384615 0.985577
vt 0.519231 0.990385
vt 0.750000 0.721154
vt 0.745192 0.716346
vt 0.750000 0.562500
vt 0.360577 0.822115
vt 0.365385 0.831731
vt 0.360577 0.831731
vt 0.269231 0.975962
vt 0.134615 0.971154
vt 0.269231 0.971154
vt 0.552885 0.951923
vt 0.721154 0.947115
vt 0.552885 0.947115
vt 0.533654 0.961538
vt 0.384615 0.956731
vt 0.384615 0.961538
vt 0.836538 0.418269
vt 0.841346 0.423077
vt 0.836538 0.423077
vt 0.740385 0.278846
vt 0.903846 0.278846
vt 0.817308 0.298077
vt 0.269231 0.985577
vt 0.134615 0.980769
vt 0.269231 0.980769
vt 0.908654 0.000000
vt 0.913462 0.000000
vt 0.788462 0.985577
vt 0.923077 0.990385
vt 0.923077 0.985577
vt 0.836538 0.394231
vt 0.841346 0.389423
vt 0.836538 0.389423
vt 0.735577 0.798077
vt 0.730769 0.788462
vt 0.735577 0.788462
vt 0.870192 0.951923
vt 0.711538 0.956731
vt 0.711538 0.951923
vt 0.788462 0.990385
vt 0.653846 0.985577
vt 0.759615 0.197115
vt 0.894231 0.182692
vt 0.894231 0.197115
vt 0.841346 0.870192
vt 0.841346 0.865385
vt 0.913462 0.841346
vt 0.384615 0.908654
vt 0.740385 0.913462
vt 0.740385 0.908654
vt 0.706731 0.788462
vt 0.711538 0.793269
vt 0.706731 0.793269
vt 0.370192 0.822115
vt 0.375000 0.769231
vt 0.375000 0.822115
vt 0.923077 0.966346
vt 0.788462 0.961538
vt 0.923077 0.961538
vt 0.519231 0.961538
vt 0.653846 0.966346
vt 0.653846 0.961538
vt 0.177885 0.951923
vt 0.346154 0.947115
vt 0.177885 0.947115
vt 0.519231 0.975962
vt 0.384615 0.971154
vt 0.519231 0.971154
vt 0.918269 0.841346
vt 0.913462 0.697115
vt 0.913462 0.692308
vt 0.711538 0.769231
vt 0.721154 0.793269
vt 0.721154 0.769231
vt 0.548077 0.951923
vt 0.384615 0.951923
vt 0.721154 0.822115
vt 0.711538 0.817308
vt 0.711538 0.822115
vt 0.899038 0.673077
vt 0.899038 0.663462
vt 0.903846 0.692308
vt 0.735577 0.817308
vt 0.740385 0.826923
vt 0.740385 0.817308
vt 0.519231 0.937500
vt 0.384615 0.927885
vt 0.519231 0.927885
vt 0.370192 0.836538
vt 0.730769 0.769231
vt 0.750000 0.778846
vt 0.740385 0.769231
vt 0.740385 0.778846
vt 0.807692 0.384615
vt 0.817308 0.562500
vt 0.817308 0.384615
vt 0.750000 0.903846
vt 0.884615 0.913462
vt 0.750000 0.913462
vt 0.653846 0.990385
vt 0.764423 0.817308
vt 0.750000 0.841346
vt 0.764423 0.807692
vt 0.182692 0.019231
vt 0.201923 0.072115
vt 0.197115 0.076923
vt 0.802885 0.961538
vt 0.937500 0.956731
vt 0.802885 0.956731
vt 0.788462 0.980769
vt 0.653846 0.975962
vt 0.788462 0.975962
vt 0.706731 0.831731
vt 0.701923 0.836538
vt 0.701923 0.831731
vt 0.163462 0.951923
vt 0.326923 0.956731
vt 0.163462 0.956731
vt 0.355769 0.822115
vt 0.360577 0.769231
vt 0.355769 0.769231
vt 0.788462 0.966346
vt 0.384615 0.384615
vt 0.562500 0.000000
vt 0.384615 0.000000
vt 0.894231 0.245192
vt 0.908654 0.201923
vt 0.908654 0.278846
vt 0.740385 0.947115
vt 0.918269 0.942308
vt 0.918269 0.947115
vt 0.019231 0.355769
vt 0.000000 0.384615
vt 0.000000 0.000000
vt 0.841346 0.427885
vt 0.548077 0.956731
vt 0.000000 0.951923
vt 0.384615 0.947115
vt 0.701923 0.807692
vt 0.706731 0.798077
vt 0.701923 0.798077
vt 0.788462 0.971154
vt 0.740385 0.370192
vt 0.875000 0.379808
vt 0.740385 0.379808
vt 0.745192 0.826923
vt 0.745192 0.817308
vt 0.384615 0.769231
vt 0.350962 0.399038
vt 0.033654 0.399038
vt 0.711538 0.836538
vt 0.716346 0.831731
vt 0.711538 0.831731
vt 0.000000 0.918269
vt 0.355769 0.918269
vt 0.379808 0.778846
vt 0.379808 0.769231
vt 0.134615 0.927885
vt 0.000000 0.927885
vt 0.923077 0.980769
vt 0.923077 0.975962
vt 0.716346 0.750000
vt 0.711538 0.754808
vt 0.711538 0.721154
vt 0.379808 0.807692
vt 0.375000 0.798077
vt 0.379808 0.798077
vt 0.000000 0.956731
vt 0.721154 0.817308
vt 0.725962 0.826923
vt 0.725962 0.817308
vt 0.716346 0.759615
vt 0.725962 0.759615
vt 0.725962 0.764423
vt 0.884615 0.903846
vt 0.750000 0.894231
vt 0.884615 0.894231
vt 0.706731 0.822115
vt 0.384615 0.899038
vt 0.384615 0.903846
vt 0.134615 0.975962
vt 0.735577 0.764423
vt 0.745192 0.759615
vt 0.745192 0.764423
vt 0.370192 0.004808
vt 0.365385 0.072115
vt 0.365385 0.841346
vt 0.370192 0.831731
vt 0.653846 0.980769
vt 0.375000 0.831731
vt 0.903846 0.331731
vt 0.817308 0.312500
vt 0.826923 0.312500
vt 0.826923 0.384615
vt 0.836538 0.562500
vt 0.836538 0.384615
vt 0.365385 0.822115
vt 0.370192 0.769231
vt 0.365385 0.769231
vt 0.706731 0.836538
vt 0.730769 0.778846
vt 0.269231 0.966346
vt 0.134615 0.961538
vt 0.269231 0.961538
vt 0.384615 0.918269
vt 0.759615 0.394231
vt 0.769231 0.384615
vt 0.769231 0.562500
vt 0.740385 0.788462
vt 0.745192 0.798077
vt 0.740385 0.798077
vt -0.000000 0.975962
vt -0.000000 0.971154
vt 0.750000 0.812500
vt 0.307692 0.956731
vt 0.158654 0.961538
vt 0.158654 0.956731
vt 0.355769 0.841346
vt 0.355769 0.831731
vt 0.384615 0.966346
vt 0.519231 0.966346
vt 0.000000 0.947115
vt 0.134615 0.937500
vt 0.134615 0.947115
vt 0.653846 0.918269
vt 0.519231 0.918269
vt 0.562500 0.942308
vt 0.562500 0.947115
vt 0.750000 0.908654
vt 0.134615 0.966346
vt -0.000000 0.961538
vt -0.000000 0.966346
vt 0.653846 0.971154
vt 0.841346 0.384615
vt 0.745192 0.807692
vt 0.836538 0.427885
vt 0.841346 0.432692
vt 0.836538 0.432692
vt 0.134615 0.985577
vt -0.000000 0.990385
vt -0.000000 0.985577
vt 0.836538 0.408654
vt 0.841346 0.403846
vt 0.836538 0.403846
vt 0.750000 0.793269
vt 0.745192 0.793269
vt 0.740385 0.360577
vt 0.875000 0.350962
vt 0.875000 0.360577
vt 0.908654 0.557692
vt 0.913462 0.557692
vt 0.740385 0.923077
vt 0.875000 0.932692
vt 0.740385 0.932692
vt 0.562500 0.937500
vt 0.384615 0.942308
vt 0.384615 0.937500
vt 0.394231 0.394231
vt 0.384615 0.562500
vt 0.735577 0.836538
vt 0.735577 0.826923
vt 0.740385 0.942308
vt 0.923077 0.971154
vt 0.764423 0.759615
vt 0.899038 0.745192
vt 0.899038 0.759615
vt 0.889423 0.947115
vt 0.721154 0.951923
vt 0.725962 0.725962
vt 0.721154 0.721154
vt 0.721154 0.754808
vt 0.711538 0.802885
vt 0.716346 0.793269
vt 0.019231 0.072115
vt 0.187500 0.076923
vt 0.735577 0.750000
vt 0.730769 0.754808
vt 0.730769 0.721154
vt 0.740385 0.341346
vt 0.875000 0.341346
vt 0.384615 0.975962
vt 0.875000 0.923077
vt 0.875000 0.913462
vt 0.745192 0.788462
vt 0.750000 0.788462
vt 0.134615 0.995192
vt 0.134615 0.990385
vt 0.384615 0.913462
vt 0.750000 0.754808
vt 0.740385 0.721154
vt 0.836538 0.413462
vt 0.841346 0.418269
vt 0.841346 0.413462
vt 0.721154 0.812500
vt 0.725962 0.802885
vt 0.721154 0.802885
vt 0.721154 0.836538
vt 0.721154 0.826923
vt 0.701923 0.817308
vt 0.701923 0.822115
vt 0.740385 0.384615
vt 0.740385 0.000000
vt 0.706731 0.725962
vt 0.701923 0.721154
vt 0.701923 0.754808
vt 0.903846 0.725962
vt 0.899038 0.735577
vt 0.899038 0.591346
vt 0.764423 0.591346
vt 0.730769 0.826923
vt 0.841346 0.408654
vt 0.875000 0.370192
vt 0.798077 0.384615
vt 0.807692 0.562500
vt 0.903846 0.480769
vt 0.903846 0.557692
vt 0.894231 0.086538
vt 0.894231 0.076923
vt 0.375000 0.817308
vt 0.375000 0.807692
vt 0.735577 0.807692
vt 0.822115 0.870192
vt 0.822115 0.865385
vt -0.000000 0.980769
vt 0.389423 0.567308
vt 0.384615 0.721154
vt 0.740385 0.807692
vt 0.783654 0.562500
vt 0.783654 0.384615
vt 0.379808 0.826923
vt 0.379808 0.817308
vt 0.375000 0.778846
vt 0.379808 0.788462
vt 0.375000 0.826923
vt 0.269231 0.918269
vt 0.134615 0.918269
vt 0.269231 0.990385
vt 0.759615 0.086538
vt 0.759615 0.100962
vt 0.745192 0.129808
vt 0.745192 0.836538
vt 0.711538 0.788462
vt 0.798077 0.562500
vt 0.668269 0.961538
vt 0.533654 0.956731
vt 0.668269 0.956731
vt 0.740385 0.331731
vt 0.716346 0.822115
vt 0.711538 0.812500
vt 0.716346 0.802885
vt 0.269231 0.937500
vt 0.730769 0.798077
vt 0.375000 0.788462
vt 0.841346 0.399038
vt 0.836538 0.399038
vt 0.725962 0.793269
vt 0.701923 0.788462
vt 0.875000 0.942308
vt 0.899038 0.721154
vt 0.903846 0.721154
vt 0.653846 0.927885
vt 0.653846 0.937500
vt 0.754808 0.129808
vt 0.759615 0.125000
vt 0.759615 0.134615
vt 0.841346 0.394231
vt 0.701923 0.899038
vt 0.269231 0.947115
vt 0.716346 0.812500
vt 0.730769 0.807692
vt 0.000000 0.937500
vt 0.706731 0.807692
vt 0.759615 0.206731
vt 0.894231 0.206731
vt 0.759615 0.221154
vt 0.379808 0.841346
vt 0.918269 0.278846
vt 0.384615 0.990385
vt 0.745192 0.567308
vt 0.812500 0.307692
vt 0.817308 0.307692
vt 0.831731 0.307692
vt 0.831731 0.302885
vt 0.826923 0.302885
vt 0.826923 0.298077
vt 0.817308 0.302885
vt 0.812500 0.302885
vt 0.870192 0.956731
vt 0.759615 0.182692
vt 0.826923 0.870192
vt 0.826923 0.875000
vt 0.826923 0.865385
vt 0.826923 0.860577
vt 0.913462 0.894231
vt 0.836538 0.875000
vt 0.836538 0.870192
vt 0.836538 0.865385
vt 0.836538 0.860577
vt 0.346154 0.951923
vt 0.899038 0.817308
vt 0.899038 0.807692
vt 0.764423 0.769231
vt 0.899038 0.769231
vt 0.764423 0.783654
vt 0.750000 0.764423
vt 0.899038 0.600962
vt 0.918269 0.562500
vt 0.764423 0.600962
vt 0.764423 0.625000
vt 0.899038 0.639423
vt 0.764423 0.639423
vt 0.764423 0.615385
vt 0.899038 0.625000
vt 0.899038 0.615385
vt 0.764423 0.793269
vt 0.899038 0.793269
vt 0.899038 0.783654
vt 0.913462 0.725962
vt 0.913462 0.721154
vt 0.764423 0.663462
vt 0.764423 0.673077
vt 0.764423 0.649038
vt 0.899038 0.649038
vt 0.903846 0.697115
vt 0.899038 0.697115
vt 0.899038 0.687500
vt 0.370192 0.841346
vt 0.730769 0.793269
vt 0.750000 0.769231
vt 0.182692 0.072115
vt 0.201923 0.019231
vt 0.365385 0.076923
vt 0.937500 0.961538
vt 0.326923 0.951923
vt 0.562500 0.384615
vt 0.759615 0.230769
vt 0.894231 0.230769
vt 0.894231 0.221154
vt 0.759615 0.254808
vt 0.894231 0.254808
vt 0.019231 0.076923
vt 0.129808 0.384615
vt 0.014423 0.389423
vt 0.014423 0.384615
vt 0.000000 0.769231
vt 0.370192 0.384615
vt 0.370192 0.389423
vt 0.360577 0.389423
vt 0.360577 0.394231
vt 0.024038 0.394231
vt 0.024038 0.389423
vt 0.033654 0.394231
vt 0.350962 0.394231
vt 0.716346 0.836538
vt 0.721154 0.750000
vt 0.721154 0.725962
vt 0.716346 0.725962
vt 0.725962 0.769231
vt 0.716346 0.769231
vt 0.716346 0.764423
vt 0.711538 0.764423
vt 0.711538 0.759615
vt 0.730769 0.759615
vt 0.730769 0.764423
vt 0.716346 0.754808
vt 0.725962 0.754808
vt 0.750000 0.899038
vt 0.735577 0.759615
vt 0.735577 0.754808
vt 0.745192 0.754808
vt 0.745192 0.769231
vt 0.735577 0.769231
vt 0.750000 0.759615
vt 0.365385 0.019231
vt 0.370192 0.000000
vt 0.711538 0.798077
vt 0.826923 0.307692
vt 0.826923 0.562500
vt 0.514423 0.384615
vt 0.394231 0.552885
vt 0.759615 0.552885
vt 0.750000 0.817308
vt 0.360577 0.841346
vt 0.307692 0.961538
vt 0.750000 0.798077
vt 0.740385 0.350962
vt 0.740385 0.836538
vt 0.764423 0.745192
vt 0.889423 0.951923
vt 0.730769 0.750000
vt 0.725962 0.750000
vt 0.730769 0.725962
vt 0.024038 0.009615
vt 0.033654 0.009615
vt 0.033654 0.014423
vt 0.350962 0.014423
vt 0.350962 0.009615
vt 0.360577 0.009615
vt 0.360577 0.004808
vt 0.014423 0.004808
vt 0.024038 0.004808
vt 0.019231 0.019231
vt 0.014423 0.000000
vt 0.187500 0.355769
vt 0.365385 0.355769
vt 0.197115 0.355769
vt 0.740385 0.725962
vt 0.735577 0.725962
vt 0.740385 0.750000
vt 0.740385 0.754808
vt 0.740385 0.937500
vt -0.000000 0.995192
vt 0.740385 0.918269
vt 0.725962 0.812500
vt 0.725962 0.836538
vt 0.711538 0.725962
vt 0.711538 0.750000
vt 0.706731 0.750000
vt 0.764423 0.687500
vt 0.764423 0.735577
vt 0.764423 0.697115
vt 0.899038 0.711538
vt 0.764423 0.711538
vt 0.764423 0.721154
vt 0.730769 0.836538
vt 0.894231 0.149038
vt 0.894231 0.134615
vt 0.894231 0.125000
vt 0.759615 0.110577
vt 0.894231 0.110577
vt 0.759615 0.062500
vt 0.894231 0.062500
vt 0.894231 0.158654
vt 0.894231 0.028846
vt 0.894231 0.038462
vt 0.894231 0.052885
vt 0.894231 0.100962
vt 0.389423 0.716346
vt 0.750000 0.807692
vt 0.269231 0.927885
vt 0.894231 0.173077
vt 0.759615 0.173077
vt 0.754808 0.163462
vt 0.754808 0.158654
vt 0.759615 0.158654
vt 0.759615 0.149038
vt 0.745192 0.158654
vt 0.745192 0.163462
vt 0.754808 0.134615
vt 0.745192 0.134615
vt 0.759615 0.028846
vt 0.759615 0.038462
vt 0.759615 0.052885
vt 0.759615 0.076923
vt 0.875000 0.331731
vt 0.706731 0.817308
vt 0.759615 0.245192
s 0
usemtl Wardrobe_6_Material
f 278/1/1 272/2/1 273/3/1
f 92/4/1 97/5/1 90/6/1
f 69/7/2 71/8/2 68/9/2
f 323/10/2 279/11/2 88/12/2
f 301/13/3 302/14/3 303/1/3
f 136/15/1 134/16/1 132/17/1
f 192/18/2 202/19/2 203/20/2
f 227/21/1 222/22/1 223/23/1
f 85/24/3 155/25/3 154/26/3
f 134/27/4 126/28/4 131/29/4
f 37/30/2 39/31/2 40/32/2
f 148/33/5 149/34/5 42/35/5
f 276/36/1 270/37/1 271/38/1
f 122/10/2 155/39/2 86/40/2
f 313/41/3 314/42/3 315/43/3
f 39/44/3 56/45/3 40/46/3
f 214/47/2 206/48/2 210/49/2
f 135/50/2 140/51/2 129/52/2
f 311/53/1 306/54/1 307/41/1
f 272/55/5 269/56/5 273/57/5
f 58/58/5 57/59/5 147/60/5
f 125/61/6 131/62/6 126/63/6
f 49/64/1 51/65/1 50/66/1
f 153/67/2 32/68/2 84/69/2
f 195/70/1 190/71/1 191/72/1
f 183/73/3 184/74/3 185/75/3
f 87/76/3 157/77/3 156/78/3
f 229/79/1 224/80/1 225/81/1
f 321/82/5 100/83/5 99/84/5
f 90/85/6 106/86/6 92/87/6
f 29/28/3 147/88/3 146/89/3
f 119/90/3 107/91/3 118/92/3
f 217/93/5 207/94/5 98/95/5
f 177/96/4 188/97/4 181/98/4
f 252/99/5 244/100/5 245/101/5
f 65/102/3 43/8/3 44/9/3
f 107/86/6 96/103/6 94/87/6
f 103/104/3 93/105/3 102/106/3
f 23/107/3 19/108/3 16/109/3
f 258/110/5 264/111/5 262/112/5
f 309/113/1 304/1/1 305/54/1
f 313/114/5 320/115/5 304/116/5
f 30/117/5 83/118/5 87/119/5
f 166/120/3 169/121/3 167/122/3
f 261/123/1 256/124/1 257/125/1
f 57/126/2 59/127/2 56/128/2
f 152/129/1 84/130/1 83/131/1
f 150/132/4 29/133/4 146/134/4
f 188/135/3 187/75/3 186/74/3
f 137/136/4 7/137/4 1/138/4
f 307/139/5 279/140/5 323/141/5
f 3/142/2 8/143/2 9/144/2
f 121/145/5 137/146/5 1/147/5
f 41/32/4 43/148/4 42/31/4
f 81/149/1 151/52/1 82/51/1
f 11/78/4 5/150/4 10/76/4
f 323/26/1 123/89/1 322/151/1
f 237/152/4 229/153/4 225/154/4
f 213/155/1 208/74/1 209/135/1
f 226/156/5 232/157/5 230/158/5
f 198/159/2 190/98/2 194/160/2
f 145/161/6 27/162/6 26/163/6
f 61/164/4 66/165/4 65/166/4
f 127/167/1 126/134/1 128/168/1
f 166/169/2 158/68/2 162/170/2
f 275/167/5 282/171/5 280/172/5
f 263/125/3 264/173/3 265/174/3
f 106/175/2 110/176/2 91/177/2
f 234/178/2 224/179/2 228/180/2
f 32/131/3 148/150/3 31/181/3
f 175/182/4 184/183/4 179/184/4
f 36/185/5 40/186/5 55/187/5
f 236/188/5 228/189/5 229/190/5
f 250/166/2 240/191/2 244/92/2
f 141/110/6 129/192/6 140/193/6
f 247/194/3 248/38/3 249/21/3
f 64/195/5 48/196/5 67/197/5
f 5/198/5 6/138/5 84/199/5
f 319/200/4 311/201/4 307/19/4
f 71/65/1 72/153/1 67/66/1
f 259/202/1 254/79/1 255/124/1
f 49/102/4 54/203/4 53/201/4
f 285/202/3 286/41/3 287/123/3
f 153/204/5 78/205/5 79/206/5
f 15/207/3 10/208/3 5/209/3
f 152/210/4 31/211/4 148/212/4
f 61/126/1 63/164/1 62/213/1
f 99/106/3 89/103/3 98/214/3
f 179/215/1 174/216/1 175/217/1
f 178/218/5 184/101/5 182/100/5
f 141/219/1 139/220/1 145/221/1
f 208/222/2 218/223/2 219/224/2
f 218/225/3 221/22/3 219/226/3
f 96/227/1 101/98/1 94/4/1
f 316/200/2 306/20/2 310/19/2
f 127/228/2 130/229/2 125/230/2
f 315/231/4 309/20/4 305/232/4
f 203/233/3 204/81/3 205/234/3
f 312/235/5 309/236/5 314/237/5
f 181/238/5 186/101/5 180/239/5
f 22/151/2 25/240/2 26/241/2
f 135/193/5 143/242/5 142/61/5
f 172/243/3 171/244/3 170/245/3
f 236/125/3 235/246/3 234/124/3
f 59/247/1 60/46/1 55/209/1
f 266/248/2 256/224/2 260/223/2
f 45/249/2 47/250/2 48/251/2
f 291/252/1 294/253/1 290/254/1
f 77/255/4 63/256/4 64/257/4
f 47/223/3 68/258/3 48/259/3
f 214/260/5 211/261/5 216/262/5
f 87/10/4 322/263/4 123/264/4
f 194/265/5 200/266/5 198/267/5
f 17/268/2 14/269/2 13/270/2
f 140/271/1 144/272/1 137/136/1
f 303/273/4 295/97/4 291/274/4
f 28/275/4 24/241/4 27/142/4
f 215/135/3 216/276/3 217/70/3
f 151/18/2 30/212/2 82/210/2
f 270/277/5 265/278/5 271/279/5
f 198/22/3 201/215/3 199/243/3
f 321/280/1 121/281/1 320/25/1
f 94/282/4 93/283/4 111/284/4
f 221/285/4 213/286/4 209/65/4
f 81/287/5 87/119/5 86/288/5
f 108/289/2 112/290/2 95/291/2
f 19/275/4 15/268/4 16/240/4
f 172/261/5 164/292/5 165/293/5
f 205/19/4 197/67/4 193/210/4
f 251/294/3 252/3/3 253/79/3
f 293/43/1 288/123/1 289/173/1
f 246/203/2 238/67/2 242/69/2
f 268/295/5 260/62/5 261/296/5
f 53/297/3 35/258/3 36/298/3
f 317/253/3 318/299/3 319/300/3
f 283/202/3 280/1/3 282/54/3
f 243/174/1 238/155/1 239/276/1
f 128/62/5 133/218/5 127/301/5
f 110/302/5 89/303/5 91/15/5
f 33/304/4 35/305/4 34/306/4
f 283/307/4 276/308/4 271/309/4
f 299/310/4 293/183/4 289/311/4
f 115/92/3 105/312/3 114/313/3
f 145/314/2 6/137/2 12/315/2
f 90/316/4 89/317/4 109/318/4
f 113/319/5 265/278/5 255/320/5
f 110/106/1 113/48/1 109/214/1
f 154/17/5 159/321/5 158/322/5
f 300/273/2 290/323/2 294/274/2
f 72/324/2 80/304/2 67/255/2
f 218/156/5 213/262/5 220/325/5
f 14/326/3 25/327/3 21/107/3
f 186/274/2 176/5/2 180/96/2
f 85/141/4 274/328/4 320/329/4
f 205/330/5 193/331/5 279/140/5
f 277/178/2 285/332/2 272/333/2
f 265/334/4 259/224/4 255/47/4
f 50/335/5 146/115/5 54/336/5
f 241/194/1 244/337/1 240/225/1
f 111/106/1 120/298/1 117/222/1
f 130/338/1 135/339/1 129/272/1
f 46/227/3 41/340/3 42/4/3
f 1/220/3 8/341/3 2/342/3
f 182/343/2 174/332/2 178/344/2
f 159/345/4 168/346/4 163/169/4
f 292/343/2 297/9/2 288/347/2
f 278/348/5 284/171/5 277/349/5
f 77/307/1 79/5/1 78/182/1
f 297/252/3 298/350/3 299/36/3
f 203/351/5 208/352/5 102/353/5
f 136/230/4 141/244/4 143/229/4
f 312/354/2 304/97/2 308/159/2
f 112/355/5 93/318/5 95/176/5
f 4/342/3 12/356/3 6/326/3
f 230/309/2 222/286/2 226/86/2
f 163/357/1 158/358/1 159/359/1
f 165/120/1 160/359/1 161/122/1
f 162/360/5 168/293/5 166/292/5
f 210/81/1 207/74/1 211/246/1
f 253/166/4 245/361/4 241/92/4
f 201/232/4 195/18/4 191/132/4
f 249/128/4 243/191/4 239/313/4
f 269/362/4 261/363/4 257/285/4
f 9/108/3 13/207/3 3/109/3
f 242/171/5 248/364/5 246/236/5
f 262/334/2 254/365/2 258/47/2
f 231/81/3 232/124/3 233/246/3
f 268/252/3 267/337/3 266/254/3
f 170/180/2 160/366/2 164/346/2
f 217/47/4 211/222/4 207/49/4
f 60/367/2 76/257/2 55/368/2
f 74/91/1 76/307/1 75/182/1
f 223/86/4 232/308/4 227/369/4
f 161/370/4 172/153/4 165/64/4
f 300/275/5 295/266/5 302/371/5
f 249/372/5 114/373/5 113/319/5
f 296/99/5 293/374/5 298/375/5
f 103/376/5 224/377/5 235/378/5
f 73/368/4 51/379/4 52/44/4
f 193/243/1 196/226/1 192/245/1
f 176/29/1 181/234/1 180/233/1
f 27/380/3 22/339/3 26/192/3
f 318/381/5 310/236/5 311/364/5
f 275/309/2 281/382/2 270/363/2
f 34/6/3 37/340/3 33/383/3
f 196/172/5 204/236/5 202/384/5
f 287/312/4 278/385/4 273/152/4
f 285/386/5 287/387/5 290/388/5
f 278/1/1 277/13/1 272/2/1
f 92/4/1 100/98/1 97/5/1
f 69/7/2 70/389/2 71/8/2
f 88/12/2 124/390/2 323/10/2
f 279/11/2 157/40/2 88/12/2
f 301/13/3 300/391/3 302/14/3
f 136/15/1 135/339/1 134/16/1
f 134/16/1 131/392/1 132/17/1
f 192/18/2 196/210/2 202/19/2
f 227/21/1 226/194/1 222/22/1
f 85/24/3 86/281/3 155/25/3
f 134/27/4 128/358/4 126/28/4
f 37/30/2 38/305/2 39/31/2
f 62/393/5 63/394/5 78/205/5
f 78/205/5 152/360/5 148/33/5
f 149/34/5 153/204/5 70/395/5
f 69/396/5 47/397/5 46/398/5
f 149/34/5 70/395/5 69/396/5
f 62/393/5 78/205/5 148/33/5
f 42/35/5 43/399/5 66/400/5
f 66/400/5 62/393/5 148/33/5
f 149/34/5 69/396/5 46/398/5
f 42/35/5 66/400/5 148/33/5
f 149/34/5 46/398/5 42/35/5
f 276/36/1 275/252/1 270/37/1
f 122/10/2 321/141/2 155/39/2
f 313/41/3 312/53/3 314/42/3
f 39/44/3 57/379/3 56/45/3
f 214/47/2 215/365/2 206/48/2
f 135/50/2 142/401/2 140/51/2
f 311/53/1 310/113/1 306/54/1
f 272/55/5 267/402/5 269/56/5
f 150/189/5 50/335/5 51/403/5
f 150/189/5 51/403/5 74/404/5
f 35/405/5 54/336/5 146/115/5
f 34/406/5 35/405/5 146/115/5
f 151/407/5 150/189/5 74/404/5
f 75/408/5 60/409/5 58/58/5
f 151/407/5 74/404/5 75/408/5
f 34/406/5 146/115/5 147/60/5
f 57/59/5 39/410/5 38/411/5
f 38/411/5 34/406/5 147/60/5
f 147/60/5 151/407/5 75/408/5
f 147/60/5 75/408/5 58/58/5
f 57/59/5 38/411/5 147/60/5
f 125/61/6 130/301/6 131/62/6
f 49/64/1 52/355/1 51/65/1
f 153/67/2 149/211/2 32/68/2
f 195/70/1 194/135/1 190/71/1
f 183/73/3 182/234/3 184/74/3
f 87/76/3 88/412/3 157/77/3
f 229/79/1 228/294/1 224/80/1
f 321/82/5 315/413/5 305/414/5
f 281/415/5 283/416/5 288/417/5
f 274/418/5 281/415/5 288/417/5
f 169/419/5 159/321/5 155/420/5
f 154/17/5 158/322/5 167/421/5
f 183/422/5 191/423/5 190/424/5
f 183/422/5 190/424/5 154/17/5
f 174/425/5 183/422/5 154/17/5
f 99/84/5 185/426/5 175/427/5
f 174/425/5 154/17/5 167/421/5
f 174/425/5 167/421/5 169/419/5
f 175/427/5 174/425/5 169/419/5
f 274/418/5 288/417/5 297/428/5
f 299/429/5 289/430/5 116/431/5
f 304/116/5 274/418/5 297/428/5
f 304/116/5 297/428/5 299/429/5
f 305/414/5 304/116/5 299/429/5
f 305/414/5 299/429/5 116/431/5
f 175/427/5 169/419/5 155/420/5
f 99/84/5 175/427/5 155/420/5
f 321/82/5 305/414/5 116/431/5
f 321/82/5 116/431/5 115/432/5
f 99/84/5 155/420/5 321/82/5
f 321/82/5 115/432/5 100/83/5
f 90/85/6 105/65/6 106/86/6
f 29/28/3 30/149/3 147/88/3
f 119/90/3 108/182/3 107/91/3
f 206/433/5 215/434/5 274/418/5
f 274/418/5 154/17/5 190/424/5
f 274/418/5 190/424/5 199/435/5
f 206/433/5 274/418/5 199/435/5
f 206/433/5 199/435/5 201/436/5
f 207/94/5 206/433/5 201/436/5
f 191/423/5 183/422/5 185/426/5
f 191/423/5 185/426/5 99/84/5
f 98/95/5 97/437/5 233/438/5
f 191/423/5 99/84/5 98/95/5
f 201/436/5 191/423/5 98/95/5
f 98/95/5 233/438/5 223/439/5
f 98/95/5 223/439/5 217/93/5
f 207/94/5 201/436/5 98/95/5
f 177/96/4 189/274/4 188/97/4
f 252/99/5 250/270/5 244/100/5
f 65/102/3 66/440/3 43/8/3
f 107/86/6 108/441/6 96/103/6
f 103/104/3 95/442/3 93/105/3
f 23/107/3 28/327/3 19/108/3
f 258/110/5 259/188/5 264/111/5
f 309/113/1 308/14/1 304/1/1
f 313/114/5 315/413/5 321/82/5
f 320/115/5 274/418/5 304/116/5
f 313/114/5 321/82/5 320/115/5
f 87/119/5 82/443/5 30/117/5
f 30/117/5 31/444/5 83/118/5
f 83/118/5 88/445/5 87/119/5
f 166/120/3 168/446/3 169/121/3
f 261/123/1 260/202/1 256/124/1
f 57/126/2 58/213/2 59/127/2
f 152/129/1 153/447/1 84/130/1
f 150/132/4 81/18/4 29/133/4
f 188/135/3 189/71/3 187/75/3
f 137/136/4 144/448/4 7/137/4
f 307/139/5 301/449/5 303/450/5
f 303/450/5 291/451/5 279/140/5
f 323/141/5 317/452/5 319/453/5
f 307/139/5 303/450/5 279/140/5
f 323/141/5 319/453/5 307/139/5
f 3/142/2 2/275/2 8/143/2
f 1/147/5 85/454/5 121/145/5
f 121/145/5 138/455/5 137/146/5
f 41/32/4 44/249/4 43/148/4
f 81/149/1 150/88/1 151/52/1
f 11/78/4 4/235/4 5/150/4
f 323/26/1 124/24/1 123/89/1
f 237/152/4 236/385/4 229/153/4
f 213/155/1 212/246/1 208/74/1
f 226/156/5 227/325/5 232/157/5
f 198/159/2 199/97/2 190/98/2
f 9/456/6 8/457/6 7/146/6
f 7/146/6 144/458/6 145/161/6
f 145/161/6 12/136/6 11/459/6
f 10/460/6 20/461/6 19/462/6
f 145/161/6 11/459/6 10/460/6
f 9/456/6 7/146/6 145/161/6
f 18/463/6 17/464/6 9/456/6
f 26/163/6 25/465/6 18/463/6
f 19/462/6 28/466/6 27/162/6
f 145/161/6 10/460/6 19/462/6
f 18/463/6 9/456/6 145/161/6
f 26/163/6 18/463/6 145/161/6
f 145/161/6 19/462/6 27/162/6
f 61/164/4 62/467/4 66/165/4
f 127/167/1 125/458/1 126/134/1
f 166/169/2 167/345/2 158/68/2
f 275/167/5 276/349/5 282/171/5
f 263/125/3 262/123/3 264/173/3
f 106/175/2 115/468/2 116/284/2
f 91/177/2 99/283/2 100/469/2
f 91/177/2 100/469/2 92/470/2
f 106/175/2 116/284/2 110/176/2
f 91/177/2 92/470/2 106/175/2
f 234/178/2 235/333/2 224/179/2
f 32/131/3 149/129/3 148/150/3
f 175/182/4 185/311/4 184/183/4
f 55/187/5 76/471/5 73/472/5
f 52/473/5 49/474/5 53/475/5
f 55/187/5 73/472/5 52/473/5
f 56/476/5 59/477/5 55/187/5
f 33/478/5 37/479/5 40/186/5
f 40/186/5 56/476/5 55/187/5
f 55/187/5 52/473/5 53/475/5
f 36/185/5 33/478/5 40/186/5
f 55/187/5 53/475/5 36/185/5
f 236/188/5 234/110/5 228/189/5
f 250/166/2 251/126/2 240/191/2
f 141/110/6 132/480/6 129/192/6
f 247/194/3 246/37/3 248/38/3
f 64/195/5 61/477/5 65/476/5
f 44/481/5 41/482/5 45/483/5
f 64/195/5 65/476/5 44/481/5
f 80/484/5 77/485/5 64/195/5
f 68/486/5 71/418/5 67/197/5
f 67/197/5 80/484/5 64/195/5
f 64/195/5 44/481/5 45/483/5
f 48/196/5 68/486/5 67/197/5
f 64/195/5 45/483/5 48/196/5
f 84/199/5 32/487/5 5/198/5
f 5/198/5 4/488/5 6/138/5
f 319/200/4 318/440/4 311/201/4
f 71/65/1 70/489/1 72/153/1
f 259/202/1 258/3/1 254/79/1
f 49/102/4 50/9/4 54/203/4
f 285/202/3 284/54/3 286/41/3
f 72/490/5 70/395/5 153/204/5
f 153/204/5 152/360/5 78/205/5
f 79/206/5 72/490/5 153/204/5
f 15/207/3 20/491/3 10/208/3
f 152/210/4 83/67/4 31/211/4
f 61/126/1 64/166/1 63/164/1
f 99/106/3 91/105/3 89/103/3
f 179/215/1 178/243/1 174/216/1
f 178/218/5 179/239/5 184/101/5
f 141/219/1 140/271/1 138/492/1
f 145/221/1 142/493/1 143/494/1
f 141/219/1 138/492/1 139/220/1
f 145/221/1 143/494/1 141/219/1
f 208/222/2 212/297/2 218/223/2
f 218/225/3 220/194/3 221/22/3
f 96/227/1 104/495/1 101/98/1
f 316/200/2 317/496/2 306/20/2
f 127/228/2 133/497/2 130/229/2
f 315/231/4 314/496/4 309/20/4
f 203/233/3 202/80/3 204/81/3
f 312/235/5 308/384/5 309/236/5
f 181/238/5 188/374/5 186/101/5
f 22/151/2 21/269/2 25/240/2
f 135/193/5 136/110/5 143/242/5
f 172/243/3 173/216/3 171/244/3
f 236/125/3 237/155/3 235/246/3
f 59/247/1 58/45/1 60/46/1
f 266/248/2 267/340/2 256/224/2
f 45/249/2 46/148/2 47/250/2
f 291/252/1 295/300/1 294/253/1
f 77/255/4 78/324/4 63/256/4
f 47/223/3 69/498/3 68/258/3
f 214/260/5 210/499/5 211/261/5
f 87/10/4 156/141/4 322/263/4
f 194/265/5 195/295/5 200/266/5
f 17/268/2 18/240/2 14/269/2
f 142/493/1 145/221/1 144/272/1
f 137/136/1 138/492/1 140/271/1
f 140/271/1 142/493/1 144/272/1
f 303/273/4 302/500/4 295/97/4
f 28/275/4 23/240/4 24/241/4
f 215/135/3 214/155/3 216/276/3
f 151/18/2 147/133/2 30/212/2
f 270/277/5 263/501/5 265/278/5
f 198/22/3 200/23/3 201/215/3
f 321/280/1 122/502/1 121/281/1
f 111/284/4 117/290/4 118/503/4
f 111/284/4 118/503/4 107/504/4
f 101/505/4 102/291/4 93/283/4
f 111/284/4 107/504/4 94/282/4
f 94/282/4 101/505/4 93/283/4
f 221/285/4 220/363/4 213/286/4
f 14/506/5 21/507/5 22/508/5
f 24/509/5 23/510/5 16/511/5
f 16/511/5 15/512/5 5/198/5
f 81/287/5 82/443/5 87/119/5
f 16/511/5 5/198/5 32/487/5
f 24/509/5 16/511/5 32/487/5
f 24/509/5 32/487/5 31/444/5
f 22/508/5 24/509/5 31/444/5
f 22/508/5 31/444/5 30/117/5
f 3/513/5 13/514/5 14/506/5
f 22/508/5 30/117/5 29/515/5
f 14/506/5 22/508/5 29/515/5
f 3/513/5 14/506/5 29/515/5
f 1/147/5 2/516/5 3/513/5
f 138/455/5 121/145/5 122/517/5
f 84/199/5 6/138/5 139/136/5
f 88/445/5 83/118/5 84/199/5
f 88/445/5 84/199/5 139/136/5
f 139/136/5 138/455/5 122/517/5
f 124/518/5 88/445/5 139/136/5
f 123/519/5 124/518/5 139/136/5
f 85/454/5 1/147/5 3/513/5
f 3/513/5 29/515/5 81/287/5
f 123/519/5 139/136/5 122/517/5
f 123/519/5 122/517/5 86/288/5
f 85/454/5 3/513/5 81/287/5
f 87/119/5 123/519/5 86/288/5
f 86/288/5 85/454/5 81/287/5
f 95/291/2 103/303/2 104/520/2
f 95/291/2 104/520/2 96/521/2
f 119/522/2 120/523/2 112/290/2
f 95/291/2 96/521/2 108/289/2
f 108/289/2 119/522/2 112/290/2
f 19/275/4 20/524/4 15/268/4
f 172/261/5 170/499/5 164/292/5
f 205/19/4 204/201/4 197/67/4
f 251/294/3 250/2/3 252/3/3
f 293/43/1 292/41/1 288/123/1
f 246/203/2 247/201/2 238/67/2
f 268/295/5 266/265/5 260/62/5
f 53/297/3 54/259/3 35/258/3
f 317/253/3 316/525/3 318/299/3
f 283/202/3 281/3/3 280/1/3
f 243/174/1 242/125/1 238/155/1
f 128/62/5 134/526/5 133/218/5
f 110/302/5 109/523/5 89/303/5
f 33/304/4 36/30/4 35/305/4
f 283/307/4 282/527/4 276/308/4
f 299/310/4 298/528/4 293/183/4
f 115/92/3 106/91/3 105/312/3
f 145/314/2 139/448/2 6/137/2
f 90/316/4 97/529/4 98/177/4
f 109/318/4 113/176/4 114/530/4
f 109/318/4 114/530/4 105/531/4
f 90/316/4 98/177/4 89/317/4
f 109/318/4 105/531/4 90/316/4
f 270/277/5 281/415/5 274/418/5
f 215/434/5 217/93/5 223/439/5
f 215/434/5 223/439/5 222/532/5
f 263/501/5 270/277/5 274/418/5
f 254/533/5 263/501/5 274/418/5
f 274/418/5 215/434/5 222/532/5
f 274/418/5 222/532/5 231/534/5
f 97/437/5 100/83/5 115/432/5
f 115/432/5 114/373/5 239/535/5
f 97/437/5 115/432/5 239/535/5
f 233/438/5 97/437/5 239/535/5
f 233/438/5 239/535/5 238/536/5
f 289/430/5 288/417/5 283/416/5
f 113/319/5 116/431/5 289/430/5
f 247/537/5 249/372/5 113/319/5
f 231/534/5 233/438/5 238/536/5
f 274/418/5 231/534/5 238/536/5
f 274/418/5 238/536/5 247/537/5
f 113/319/5 289/430/5 283/416/5
f 113/319/5 283/416/5 271/279/5
f 254/533/5 274/418/5 247/537/5
f 255/320/5 254/533/5 247/537/5
f 113/319/5 271/279/5 265/278/5
f 255/320/5 247/537/5 113/319/5
f 110/106/1 116/222/1 113/48/1
f 154/17/5 155/420/5 159/321/5
f 300/273/2 301/538/2 290/323/2
f 72/324/2 79/306/2 80/304/2
f 218/156/5 212/260/5 213/262/5
f 14/326/3 18/356/3 25/327/3
f 186/274/2 187/323/2 176/5/2
f 320/329/4 121/263/4 85/141/4
f 85/141/4 154/34/4 274/328/4
f 241/539/5 235/378/5 237/540/5
f 225/541/5 219/542/5 221/543/5
f 193/331/5 187/544/5 189/545/5
f 279/140/5 253/546/5 241/539/5
f 161/547/5 157/39/5 279/140/5
f 173/548/5 161/547/5 279/140/5
f 279/140/5 241/539/5 237/540/5
f 279/140/5 237/540/5 225/541/5
f 177/549/5 173/548/5 279/140/5
f 189/545/5 177/549/5 279/140/5
f 279/140/5 225/541/5 221/543/5
f 279/140/5 221/543/5 209/550/5
f 193/331/5 189/545/5 279/140/5
f 279/140/5 209/550/5 205/330/5
f 277/178/2 284/344/2 285/332/2
f 265/334/4 264/340/4 259/224/4
f 50/335/5 150/189/5 146/115/5
f 241/194/1 245/37/1 244/337/1
f 111/106/1 112/104/1 120/298/1
f 133/551/1 134/16/1 135/339/1
f 129/272/1 132/17/1 131/392/1
f 130/338/1 133/551/1 135/339/1
f 129/272/1 131/392/1 130/338/1
f 46/227/3 45/552/3 41/340/3
f 1/220/3 7/221/3 8/341/3
f 182/343/2 183/347/2 174/332/2
f 159/345/4 169/366/4 168/346/4
f 292/343/2 296/7/2 297/9/2
f 278/348/5 286/553/5 284/171/5
f 77/307/1 80/6/1 79/5/1
f 297/252/3 296/300/3 298/350/3
f 279/140/5 269/56/5 257/554/5
f 257/554/5 256/555/5 120/556/5
f 257/554/5 120/556/5 119/557/5
f 253/546/5 279/140/5 257/554/5
f 251/558/5 253/546/5 257/554/5
f 251/558/5 257/554/5 119/557/5
f 235/378/5 241/539/5 240/559/5
f 240/559/5 251/558/5 119/557/5
f 118/560/5 117/561/5 322/33/5
f 240/559/5 119/557/5 118/560/5
f 103/376/5 235/378/5 240/559/5
f 104/562/5 103/376/5 240/559/5
f 118/560/5 322/33/5 156/315/5
f 104/562/5 240/559/5 118/560/5
f 101/563/5 104/562/5 118/560/5
f 156/315/5 157/39/5 161/547/5
f 156/315/5 161/547/5 160/564/5
f 101/563/5 118/560/5 156/315/5
f 102/353/5 101/563/5 156/315/5
f 156/315/5 160/564/5 171/565/5
f 171/565/5 173/548/5 177/549/5
f 171/565/5 177/549/5 176/566/5
f 102/353/5 156/315/5 171/565/5
f 219/542/5 225/541/5 224/377/5
f 102/353/5 171/565/5 176/566/5
f 187/544/5 193/331/5 192/567/5
f 102/353/5 176/566/5 187/544/5
f 219/542/5 224/377/5 102/353/5
f 205/330/5 209/550/5 208/352/5
f 208/352/5 219/542/5 102/353/5
f 102/353/5 187/544/5 192/567/5
f 203/351/5 205/330/5 208/352/5
f 102/353/5 192/567/5 203/351/5
f 136/230/4 132/181/4 141/244/4
f 312/354/2 313/500/2 304/97/2
f 112/355/5 111/370/5 93/318/5
f 4/342/3 11/341/3 12/356/3
f 230/309/2 231/363/2 222/286/2
f 163/357/1 162/27/1 158/358/1
f 165/120/1 164/357/1 160/359/1
f 162/360/5 163/568/5 168/293/5
f 210/81/1 206/234/1 207/74/1
f 253/166/4 252/165/4 245/361/4
f 201/232/4 200/20/4 195/18/4
f 249/128/4 248/126/4 243/191/4
f 269/362/4 268/382/4 261/363/4
f 9/108/3 17/491/3 13/207/3
f 242/171/5 243/553/5 248/364/5
f 262/334/2 263/383/2 254/365/2
f 231/81/3 230/79/3 232/124/3
f 268/252/3 269/37/3 267/337/3
f 170/180/2 171/179/2 160/366/2
f 217/47/4 216/224/4 211/222/4
f 60/367/2 75/256/2 76/257/2
f 74/91/1 73/362/1 76/307/1
f 223/86/4 233/309/4 232/308/4
f 161/370/4 173/154/4 172/153/4
f 300/275/5 294/267/5 295/266/5
f 249/372/5 239/535/5 114/373/5
f 296/99/5 292/101/5 293/374/5
f 103/376/5 102/353/5 224/377/5
f 73/368/4 74/367/4 51/379/4
f 193/243/1 197/22/1 196/226/1
f 176/29/1 177/73/1 181/234/1
f 27/380/3 24/317/3 22/339/3
f 318/381/5 316/237/5 310/236/5
f 275/309/2 280/307/2 281/382/2
f 34/6/3 38/4/3 37/340/3
f 196/172/5 197/171/5 204/236/5
f 287/312/4 286/569/4 278/385/4
f 273/57/5 269/56/5 279/140/5
f 301/449/5 307/139/5 306/570/5
f 317/452/5 323/141/5 322/33/5
f 306/570/5 317/452/5 322/33/5
f 322/33/5 117/561/5 120/556/5
f 120/556/5 256/555/5 267/402/5
f 120/556/5 267/402/5 272/55/5
f 306/570/5 322/33/5 120/556/5
f 301/449/5 306/570/5 120/556/5
f 120/556/5 272/55/5 285/386/5
f 287/387/5 273/57/5 279/140/5
f 287/387/5 279/140/5 291/451/5
f 290/388/5 301/449/5 120/556/5
f 287/387/5 291/451/5 290/388/5
f 290/388/5 120/556/5 285/386/5
