# Blender 5.0.1
# www.blender.org
mtllib plank lantai_1.mtl
o plank_lantai_1
v -2.000000 -0.000000 2.000000
v 2.000000 -0.000000 2.000000
v -2.000000 1.000000 2.000000
v 2.000000 1.000000 2.000000
v -2.000000 -0.000000 -2.000000
v 2.000000 -0.000000 -2.000000
v -2.000000 1.000000 -2.000000
v 2.000000 1.000000 -2.000000
vn -0.0000 -0.0000 -1.0000
vn -0.0000 1.0000 -0.0000
vn -0.0000 -0.0000 1.0000
vn -0.0000 -1.0000 -0.0000
vn -1.0000 -0.0000 -0.0000
vn 1.0000 -0.0000 -0.0000
vt 1.000000 0.500000
vt 0.500000 0.375000
vt 0.500000 0.500000
vt 0.500000 1.000000
vt 0.000000 0.500000
vt 0.500000 0.125000
vt 1.000000 0.250000
vt 0.500000 0.250000
vt 0.000000 0.000000
vt 1.000000 0.125000
vt 0.500000 0.000000
vt 1.000000 0.375000
vt 0.000000 1.000000
vt 1.000000 0.000000
s 0
usemtl plank_lantai_1_Material
f 8/1/1 5/2/1 7/3/1
f 8/4/2 3/5/2 4/3/2
f 1/6/3 4/7/3 3/8/3
f 6/3/4 1/9/4 5/5/4
f 7/10/5 1/11/5 3/6/5
f 6/7/6 4/2/6 2/8/6
f 8/1/1 6/12/1 5/2/1
f 8/4/2 7/13/2 3/5/2
f 1/6/3 2/10/3 4/7/3
f 6/3/4 2/11/4 1/9/4
f 7/10/5 5/14/5 1/11/5
f 6/7/6 8/12/6 4/2/6
