# Blender 5.0.1
# www.blender.org
mtllib kasur_double_1.mtl
o kasur_double_1
v -4.000001 -0.000000 6.000001
v -3.500001 -0.000000 6.000001
v 3.500001 -0.000000 6.000001
v 4.000001 -0.000000 6.000001
v -4.000001 -0.000000 5.500001
v -3.500001 -0.000000 5.500001
v 3.500001 -0.000000 5.500001
v 4.000001 -0.000000 5.500001
v -4.000001 -0.000000 -5.500001
v -3.500001 -0.000000 -5.500001
v 3.500001 -0.000000 -5.500001
v 4.000001 -0.000000 -5.500001
v -4.000001 -0.000000 -6.000001
v -3.500001 -0.000000 -6.000001
v 3.500001 -0.000000 -6.000001
v 4.000001 -0.000000 -6.000001
v -3.500001 0.500000 5.900002
v 3.500001 0.500000 5.900002
v -3.900001 0.500000 5.500001
v -3.500001 0.500000 5.500001
v 3.500001 0.500000 5.500001
v 3.900001 0.500000 5.500001
v -3.900001 0.500000 -5.500001
v -3.500001 0.500000 -5.500001
v 3.500001 0.500000 -5.500001
v 3.900001 0.500000 -5.500001
v -3.500001 0.500000 -5.900002
v 3.500001 0.500000 -5.900002
v -3.500001 0.800000 5.900002
v -3.500001 0.800000 6.000001
v 3.500001 0.800000 5.900002
v 3.500001 0.800000 6.000001
v -3.900001 0.800000 5.500001
v -4.000001 0.800000 5.500001
v 4.000001 0.800000 5.500001
v 3.900001 0.800000 5.500001
v -3.900001 0.800000 -5.500001
v 3.900001 0.800000 -5.500001
v -4.000001 0.800000 -5.500001
v 4.000001 0.800000 -5.500001
v -3.500001 0.800000 -5.900002
v 3.500001 0.800000 -5.900002
v -3.500001 0.800000 -6.000001
v 3.500001 0.800000 -6.000001
v -4.000001 1.100000 5.500001
v -3.900001 1.100000 5.500001
v -3.900001 1.000000 5.500001
v 3.900001 1.000000 5.500001
v 3.900001 1.100000 5.500001
v 4.000001 1.100000 5.500001
v -3.900001 1.000000 2.900001
v -3.900001 1.100000 2.900001
v 3.900001 1.100000 2.900001
v 3.900001 1.000000 2.900001
v -4.000001 1.100000 -5.500001
v 4.000001 1.100000 -5.500001
v -4.000001 1.200000 -5.500001
v -4.000001 1.200000 -5.600002
v 4.000001 1.200000 -5.600002
v 4.000001 1.200000 -5.500001
v -4.000001 1.200000 -5.900002
v 4.000001 1.200000 -5.900002
v -4.000001 1.200000 -6.000001
v 4.000001 1.200000 -6.000001
v -4.000001 1.300000 6.000001
v -3.900001 1.300000 6.000001
v 3.900001 1.300000 6.000001
v 4.000001 1.300000 6.000001
v -3.900001 1.300000 5.500001
v -4.000001 1.300000 5.500001
v -3.700001 1.300000 5.500001
v 3.700001 1.300000 5.500001
v 3.900001 1.300000 5.500001
v 4.000001 1.300000 5.500001
v -4.000001 1.300000 -5.600001
v -4.000001 1.300000 -5.700001
v 4.000001 1.300000 -5.700001
v 4.000001 1.300000 -5.600001
v -4.000001 1.300000 -5.800001
v 4.000001 1.300000 -5.800001
v -4.000001 1.300000 -5.900002
v 4.000001 1.300000 -5.900002
v -3.900001 1.400000 6.000001
v -3.800001 1.400000 6.000001
v 3.800001 1.400000 6.000001
v 3.900001 1.400000 6.000001
v -3.800001 1.400000 5.500001
v -3.900001 1.400000 5.500001
v -3.700001 1.400000 5.500001
v 3.800001 1.400000 5.500001
v 3.700001 1.400000 5.500001
v 3.900001 1.400000 5.500001
v -4.000001 1.400000 -5.800001
v -4.000001 1.400000 -5.700002
v 4.000001 1.400000 -5.800001
v 4.000001 1.400000 -5.700002
v -3.800001 1.500000 6.000001
v -3.700001 1.500000 6.000001
v 3.700001 1.500000 6.000001
v 3.800001 1.500000 6.000001
v -3.700001 1.500000 5.500001
v -3.800001 1.500000 5.500001
v -3.600001 1.400000 5.500001
v -3.600001 1.500000 5.500001
v 3.700001 1.500000 5.500001
v 3.600001 1.500000 5.500001
v 3.600001 1.400000 5.500001
v 3.800001 1.500000 5.500001
v -3.700001 1.600000 6.000001
v -3.600001 1.600000 6.000001
v 3.600001 1.600000 6.000001
v 3.700001 1.600000 6.000001
v -3.600001 1.600000 5.500001
v -3.700001 1.600000 5.500001
v -3.500001 1.500000 5.500001
v -3.500001 1.600000 5.500001
v 3.600001 1.600000 5.500001
v 3.500001 1.600000 5.500001
v 3.500001 1.500000 5.500001
v 3.700001 1.600000 5.500001
v -3.600001 1.700000 6.000001
v -3.500001 1.700000 6.000001
v 3.500001 1.700000 6.000001
v 3.600001 1.700000 6.000001
v -3.500001 1.700000 5.500001
v -3.600001 1.700000 5.500001
v -3.400001 1.600000 5.500001
v -3.400001 1.700000 5.500001
v 3.500001 1.700000 5.500001
v 3.400001 1.700000 5.500001
v 3.400001 1.600000 5.500001
v 3.600001 1.700000 5.500001
v -3.500001 1.800000 6.000001
v -3.400001 1.800000 6.000001
v 3.400001 1.800000 6.000001
v 3.500001 1.800000 6.000001
v -3.400001 1.800000 5.500001
v -3.500001 1.800000 5.500001
v -3.300001 1.700000 5.500001
v -3.300001 1.800000 5.500001
v 3.400001 1.800000 5.500001
v 3.300001 1.800000 5.500001
v 3.300001 1.700000 5.500001
v 3.500001 1.800000 5.500001
v -3.400001 1.900000 6.000001
v -3.300001 1.900000 6.000001
v 3.300001 1.900000 6.000001
v 3.400001 1.900000 6.000001
v -3.300001 1.900000 5.500001
v -3.400001 1.900000 5.500001
v -3.200001 1.800000 5.500001
v -3.200001 1.900000 5.500001
v 3.300001 1.900000 5.500001
v 3.200001 1.900000 5.500001
v 3.200001 1.800000 5.500001
v 3.400001 1.900000 5.500001
v -3.300001 2.000000 6.000001
v -3.200001 2.000000 6.000001
v 3.200001 2.000000 6.000001
v 3.300001 2.000000 6.000001
v -3.200001 2.000000 5.500001
v -3.300001 2.000000 5.500001
v -3.100001 1.900000 5.500001
v -3.100001 2.000000 5.500001
v 3.200001 2.000000 5.500001
v 3.100001 2.000000 5.500001
v 3.100001 1.900000 5.500001
v 3.300001 2.000000 5.500001
v -3.200001 2.100000 6.000001
v -3.000001 2.100000 6.000001
v 3.000001 2.100000 6.000001
v 3.200001 2.100000 6.000001
v -3.200001 2.100000 5.500001
v -3.000001 2.100000 5.500001
v -2.900001 2.000000 5.500001
v -2.900001 2.100000 5.500001
v 3.000001 2.100000 5.500001
v 2.900001 2.100000 5.500001
v 2.900001 2.000000 5.500001
v 3.200001 2.100000 5.500001
v -3.000001 2.200000 6.000001
v -2.900001 2.200000 6.000001
v 2.900001 2.200000 6.000001
v 3.000001 2.200000 6.000001
v -2.900001 2.200000 5.500001
v -3.000001 2.200000 5.500001
v -2.800001 2.100000 5.500001
v -2.800001 2.200000 5.500001
v 2.900001 2.200000 5.500001
v 2.800001 2.200000 5.500001
v 2.800001 2.100000 5.500001
v 3.000001 2.200000 5.500001
v -2.900001 2.300000 6.000001
v -2.800001 2.300000 6.000001
v 2.800001 2.300000 6.000001
v 2.900001 2.300000 6.000001
v -2.800001 2.300000 5.500001
v -2.900001 2.300000 5.500001
v -2.700001 2.200000 5.500001
v -2.700001 2.300000 5.500001
v 2.800001 2.300000 5.500001
v 2.700001 2.300000 5.500001
v 2.700001 2.200000 5.500001
v 2.900001 2.300000 5.500001
v -2.800001 2.400000 6.000001
v -2.600001 2.400000 6.000001
v 2.600001 2.400000 6.000001
v 2.800001 2.400000 6.000001
v -2.800001 2.400000 5.500001
v -2.600001 2.400000 5.500001
v -2.500000 2.300000 5.500001
v -2.500000 2.400000 5.500001
v 2.600001 2.400000 5.500001
v 2.500000 2.400000 5.500001
v 2.500000 2.300000 5.500001
v 2.800001 2.400000 5.500001
v -2.600001 2.500000 6.000001
v -2.500000 2.500000 6.000001
v 2.500000 2.500000 6.000001
v 2.600001 2.500000 6.000001
v -2.500000 2.500000 5.500001
v -2.600001 2.500000 5.500001
v -2.400001 2.400000 5.500001
v -2.400001 2.500000 5.500001
v 2.500000 2.500000 5.500001
v 2.400001 2.500000 5.500001
v 2.400001 2.400000 5.500001
v 2.600001 2.500000 5.500001
v -2.500000 2.600000 6.000001
v -2.200001 2.600000 6.000001
v 2.200001 2.600000 6.000001
v 2.500000 2.600000 6.000001
v -2.500000 2.600000 5.500001
v -2.200001 2.600000 5.500001
v -2.100000 2.500000 5.500001
v -2.100000 2.600000 5.500001
v 2.200001 2.600000 5.500001
v 2.100000 2.600000 5.500001
v 2.100000 2.500000 5.500001
v 2.500000 2.600000 5.500001
v -2.200001 2.700000 6.000001
v -2.000000 2.700000 6.000001
v 2.000000 2.700000 6.000001
v 2.200001 2.700000 6.000001
v -2.200001 2.700000 5.500001
v -2.000000 2.700000 5.500001
v -1.900000 2.600000 5.500001
v -1.900000 2.700000 5.500001
v 2.000000 2.700000 5.500001
v 1.900000 2.700000 5.500001
v 1.900000 2.600000 5.500001
v 2.200001 2.700000 5.500001
v -2.000000 2.800000 6.000001
v -1.700000 2.800000 6.000001
v 1.700000 2.800000 6.000001
v 2.000000 2.800000 6.000001
v -2.000000 2.800000 5.500001
v -1.700000 2.800000 5.500001
v -1.600000 2.700000 5.500001
v -1.600000 2.800000 5.500001
v 1.700000 2.800000 5.500001
v 1.600000 2.800000 5.500001
v 1.600000 2.700000 5.500001
v 2.000000 2.800000 5.500001
v -1.700001 2.900000 6.000001
v -1.300000 2.900000 6.000001
v 1.300000 2.900000 6.000001
v 1.700001 2.900000 6.000001
v -1.700001 2.900000 5.500001
v -1.300000 2.900000 5.500001
v -1.200000 2.800000 5.500001
v -1.200000 2.900000 5.500001
v 1.300000 2.900000 5.500001
v 1.200000 2.900000 5.500001
v 1.200000 2.800000 5.500001
v 1.700001 2.900000 5.500001
v -1.300000 3.000000 6.000001
v -1.000000 3.000000 6.000001
v 1.000000 3.000000 6.000001
v 1.300000 3.000000 6.000001
v -1.300000 3.000000 5.500001
v -1.000000 3.000000 5.500001
v -0.900000 2.900000 5.500001
v -0.900000 3.000000 5.500001
v 1.000000 3.000000 5.500001
v 0.900000 3.000000 5.500001
v 0.900000 2.900000 5.500001
v 1.300000 3.000000 5.500001
v -1.000000 3.100000 6.000001
v 1.000000 3.100000 6.000001
v -1.000000 3.100000 5.500001
v 1.000000 3.100000 5.500001
v -3.800001 1.000000 5.400002
v 3.800001 1.000000 5.400002
v -3.800001 1.000000 2.900001
v 3.800001 1.000000 2.900001
v -3.800001 1.100000 5.400002
v 3.800001 1.100000 5.400002
v -2.900001 1.100000 4.900001
v -0.900000 1.100000 4.900001
v 0.900000 1.100000 4.900001
v 2.900001 1.100000 4.900001
v -3.000001 1.100000 4.800001
v -2.900001 1.100000 4.800001
v -0.900000 1.100000 4.800001
v -0.800000 1.100000 4.800001
v 0.800000 1.100000 4.800001
v 0.900000 1.100000 4.800001
v 2.900001 1.100000 4.800001
v 3.000001 1.100000 4.800001
v -3.000001 1.100000 3.400001
v -0.800000 1.100000 3.400001
v 0.800000 1.100000 3.400001
v 3.000001 1.100000 3.400001
v -2.900001 1.100000 3.300001
v -2.900001 1.100000 3.400001
v -0.900000 1.100000 3.400001
v -0.900000 1.100000 3.300001
v 0.900000 1.100000 3.300001
v 0.900000 1.100000 3.400001
v 2.900001 1.100000 3.400001
v 2.900001 1.100000 3.300001
v -3.800001 1.100000 2.900001
v 3.800001 1.100000 2.900001
v -3.600001 1.400000 5.400002
v -3.700001 1.400000 5.400002
v -3.700001 1.300000 5.400002
v 3.600001 1.400000 5.400002
v 3.700001 1.300000 5.400002
v 3.700001 1.400000 5.400002
v -3.500001 1.500000 5.400002
v -3.600001 1.500000 5.400002
v 3.500001 1.500000 5.400002
v 3.600001 1.500000 5.400002
v -3.400001 1.600000 5.400002
v -3.500001 1.600000 5.400002
v 3.400001 1.600000 5.400002
v 3.500001 1.600000 5.400002
v -3.300001 1.700000 5.400002
v -3.400001 1.700000 5.400002
v 3.300001 1.700000 5.400002
v 3.400001 1.700000 5.400002
v -3.200001 1.800000 5.400002
v -3.300001 1.800000 5.400002
v 3.200001 1.800000 5.400002
v 3.300001 1.800000 5.400002
v -3.100001 1.900000 5.400002
v -3.200001 1.900000 5.400002
v 3.100001 1.900000 5.400002
v 3.200001 1.900000 5.400002
v -3.100001 2.000000 5.400002
v -2.900001 2.000000 5.400002
v 2.900001 2.000000 5.400002
v 3.100001 2.000000 5.400002
v -2.800001 2.100000 5.400002
v -2.900001 2.100000 5.400002
v 2.800001 2.100000 5.400002
v 2.900001 2.100000 5.400002
v -2.700001 2.200000 5.400002
v -2.800001 2.200000 5.400002
v 2.700001 2.200000 5.400002
v 2.800001 2.200000 5.400002
v -2.700001 2.300000 5.400002
v -2.500000 2.300000 5.400002
v 2.500000 2.300000 5.400002
v 2.700001 2.300000 5.400002
v -2.400001 2.400000 5.400002
v -2.500000 2.400000 5.400002
v 2.400001 2.400000 5.400002
v 2.500000 2.400000 5.400002
v -2.400001 2.500000 5.400002
v -2.100000 2.500000 5.400002
v 2.100000 2.500000 5.400002
v 2.400001 2.500000 5.400002
v -2.100000 2.600000 5.400002
v -1.900000 2.600000 5.400002
v 1.900000 2.600000 5.400002
v 2.100000 2.600000 5.400002
v -1.900000 2.700000 5.400002
v -1.600000 2.700000 5.400002
v 1.600000 2.700000 5.400002
v 1.900000 2.700000 5.400002
v -1.600000 2.800000 5.400002
v -1.200000 2.800000 5.400002
v 1.200000 2.800000 5.400002
v 1.600000 2.800000 5.400002
v -1.200000 2.900000 5.400002
v -0.900000 2.900000 5.400002
v 0.900000 2.900000 5.400002
v 1.200000 2.900000 5.400002
v -0.900000 3.000000 5.400002
v 0.900000 3.000000 5.400002
v -3.800001 1.200000 2.900001
v 3.800001 1.200000 2.900001
v -0.300000 1.200000 2.600001
v 0.300000 1.200000 2.600001
v -0.400000 1.200000 2.500000
v -0.300000 1.200000 2.500000
v 0.300000 1.200000 2.500000
v 0.400000 1.200000 2.500000
v -3.800001 1.100000 -5.400002
v 3.800001 1.100000 -5.400002
v -0.400000 1.200000 -1.700000
v 0.400000 1.200000 -1.700000
v -0.300000 1.200000 -1.800000
v -0.300000 1.200000 -1.700001
v 0.300000 1.200000 -1.700001
v 0.300000 1.200000 -1.800000
v -3.800001 1.200000 -5.400002
v 3.800001 1.200000 -5.400002
v -2.900001 1.200000 4.800001
v -2.900001 1.200000 4.900001
v -0.900000 1.200000 4.800001
v -0.900000 1.200000 4.900001
v 0.900000 1.200000 4.800001
v 0.900000 1.200000 4.900001
v 2.900001 1.200000 4.800001
v 2.900001 1.200000 4.900001
v -3.000001 1.200000 4.800001
v -0.800000 1.200000 4.800001
v 0.800000 1.200000 4.800001
v 3.000001 1.200000 4.800001
v -2.900001 1.200000 3.400001
v -3.000001 1.200000 3.400001
v -0.800000 1.200000 3.400001
v -0.900000 1.200000 3.400001
v 0.900000 1.200000 3.400001
v 0.800000 1.200000 3.400001
v 3.000001 1.200000 3.400001
v 2.900001 1.200000 3.400001
v -2.900001 1.200000 3.300001
v -0.900000 1.200000 3.300001
v 0.900000 1.200000 3.300001
v 2.900001 1.200000 3.300001
v -3.000001 1.300000 5.000001
v -3.000001 1.300000 4.900001
v -2.900001 1.300000 4.900001
v -3.000001 1.200000 5.000001
v -3.000001 1.200000 4.900001
v -0.900000 1.300000 4.900001
v -0.800000 1.200000 5.000001
v -0.800000 1.200000 4.900001
v -0.800000 1.300000 4.900001
v -0.800000 1.300000 5.000001
v 0.800000 1.300000 5.000001
v 0.800000 1.300000 4.900001
v 0.900000 1.300000 4.900001
v 0.800000 1.200000 5.000001
v 0.800000 1.200000 4.900001
v 2.900001 1.300000 4.900001
v 3.000001 1.200000 5.000001
v 3.000001 1.200000 4.900001
v 3.000001 1.300000 4.900001
v 3.000001 1.300000 5.000001
v -3.100001 1.300000 4.900001
v -3.000001 1.300000 4.800001
v -3.100001 1.200000 4.900001
v -2.900001 1.300000 4.800001
v -0.900000 1.300000 4.800001
v -0.800000 1.300000 4.800001
v -0.700000 1.200000 4.900001
v -0.700000 1.300000 4.900001
v 0.700000 1.300000 4.900001
v 0.800000 1.300000 4.800001
v 0.700000 1.200000 4.900001
v 0.900000 1.300000 4.800001
v 2.900001 1.300000 4.800001
v 3.000001 1.300000 4.800001
v 3.100001 1.200000 4.900001
v 3.100001 1.300000 4.900001
v -3.000001 1.300000 3.400001
v -0.800000 1.300000 3.400001
v 0.800000 1.300000 3.400001
v 3.000001 1.300000 3.400001
v -3.000001 1.200000 3.300001
v -3.000001 1.300000 3.300001
v -3.100001 1.300000 3.300001
v -3.100001 1.200000 3.300001
v -2.900001 1.300000 3.300001
v -2.900001 1.300000 3.400001
v -0.900000 1.300000 3.400001
v -0.900000 1.300000 3.300001
v -0.800000 1.300000 3.300001
v -0.800000 1.200000 3.300001
v -0.700000 1.200000 3.300001
v -0.700000 1.300000 3.300001
v 0.800000 1.200000 3.300001
v 0.800000 1.300000 3.300001
v 0.700000 1.300000 3.300001
v 0.700000 1.200000 3.300001
v 0.900000 1.300000 3.300001
v 0.900000 1.300000 3.400001
v 2.900001 1.300000 3.400001
v 2.900001 1.300000 3.300001
v 3.000001 1.300000 3.300001
v 3.000001 1.200000 3.300001
v 3.100001 1.200000 3.300001
v 3.100001 1.300000 3.300001
v -3.000001 1.300000 3.200001
v -3.000001 1.200000 3.200001
v -0.800000 1.200000 3.200001
v -0.800000 1.300000 3.200001
v 0.800000 1.300000 3.200001
v 0.800000 1.200000 3.200001
v 3.000001 1.200000 3.200001
v 3.000001 1.300000 3.200001
v -2.900001 1.400000 4.900001
v -2.900001 1.400000 4.800001
v -0.900000 1.400000 4.800001
v -0.900000 1.400000 4.900001
v 0.900000 1.400000 4.900001
v 0.900000 1.400000 4.800001
v 2.900001 1.400000 4.800001
v 2.900001 1.400000 4.900001
v -3.000001 1.400000 4.800001
v -0.800000 1.400000 4.800001
v 0.800000 1.400000 4.800001
v 3.000001 1.400000 4.800001
v -2.900001 1.400000 3.400001
v -3.000001 1.400000 3.400001
v -0.900000 1.400000 3.400001
v -0.800000 1.400000 3.400001
v 0.900000 1.400000 3.400001
v 0.800000 1.400000 3.400001
v 2.900001 1.400000 3.400001
v 3.000001 1.400000 3.400001
v -2.900001 1.400000 3.300001
v -0.900000 1.400000 3.300001
v 0.900000 1.400000 3.300001
v 2.900001 1.400000 3.300001
v -0.300000 1.300000 2.500000
v -0.300000 1.300000 2.600001
v 0.300000 1.300000 2.500000
v 0.300000 1.300000 2.600001
v -0.400000 1.300000 2.500000
v 0.400000 1.300000 2.500000
v -0.300000 1.300000 -1.700001
v -0.400000 1.300000 -1.700001
v 0.400000 1.300000 -1.700001
v 0.300000 1.300000 -1.700001
v -0.300000 1.300000 -1.800000
v 0.300000 1.300000 -1.800000
v -0.300000 1.300000 2.700001
v -0.200000 1.400000 2.700001
v 0.200000 1.400000 2.700001
v 0.300000 1.300000 2.700001
v -0.400000 1.300000 2.600001
v 0.400000 1.300000 2.600001
v -0.500000 1.300000 2.500000
v 0.500000 1.300000 2.500000
v -0.500000 1.300000 -1.700001
v 0.500000 1.300000 -1.700001
v -0.400000 1.300000 -1.800001
v 0.400000 1.300000 -1.800001
v -0.200000 1.400000 -1.900000
v -0.300000 1.300000 -1.900000
v 0.200000 1.400000 -1.900000
v 0.300000 1.300000 -1.900000
v -0.200000 1.400000 2.800001
v 0.200000 1.400000 2.800001
v -0.200000 1.400000 -2.000000
v 0.200000 1.400000 -2.000000
v -0.200000 1.700000 2.800001
v -0.200000 1.700000 2.700001
v 0.200000 1.700000 2.700001
v 0.200000 1.700000 2.800001
v -0.200000 1.700000 -1.900000
v 0.200000 1.700000 -1.900000
v -0.200000 1.700000 -2.000000
v 0.000000 1.700000 -1.900000
v 0.200000 1.700000 -2.000000
v -0.300000 1.800000 2.700001
v -0.300000 1.800000 2.600001
v 0.300000 1.800000 2.600001
v 0.300000 1.800000 2.700001
v -0.400000 1.800000 2.600001
v -0.400000 1.800000 2.500000
v -0.300000 1.800000 2.500000
v 0.400000 1.800000 2.500000
v 0.400000 1.800000 2.600001
v 0.300000 1.800000 2.500000
v -0.500000 1.800000 2.500000
v 0.500000 1.800000 2.500000
v -0.400000 1.800000 -1.700001
v -0.500000 1.800000 -1.700001
v 0.500000 1.800000 -1.700001
v 0.400000 1.800000 -1.700001
v -0.300000 1.800000 -1.800000
v -0.400000 1.800000 -1.800001
v -0.300000 1.800000 -1.700001
v 0.400000 1.800000 -1.800001
v 0.300000 1.800000 -1.800000
v 0.300000 1.800000 -1.700001
v -0.300000 1.800000 -1.900000
v 0.000000 1.800000 -1.900000
v 0.300000 1.800000 -1.900000
v -0.300000 1.900000 2.600001
v -0.300000 1.900000 2.500000
v 0.300000 1.900000 2.500000
v 0.300000 1.900000 2.600001
v -0.400000 1.900000 2.500000
v 0.400000 1.900000 2.500000
v -0.300000 1.900000 -1.700000
v -0.400000 1.900000 -1.700001
v 0.300000 1.900000 -1.700000
v 0.400000 1.900000 -1.700001
v -0.300000 1.900000 -1.800001
v 0.300000 1.900000 -1.800001
vn -0.0000 1.0000 -0.0000
vn -0.0000 -0.0000 -1.0000
vn -1.0000 -0.0000 -0.0000
vn 1.0000 -0.0000 -0.0000
vn -0.0000 -1.0000 -0.0000
vn -0.0000 -0.0000 1.0000
vn -0.0000 0.0005 -1.0000
vn -0.0000 0.8944 0.4472
vn -0.0000 0.7071 -0.7071
vn -0.0000 -0.7071 0.7071
vn -0.0000 -0.7071 -0.7071
vn -0.0000 -0.8944 0.4472
vn -0.0000 0.8944 -0.4472
vt 0.784553 0.565041
vt 0.780488 0.569106
vt 0.780488 0.565041
vt 0.703252 0.321138
vt 0.699187 0.150407
vt 0.703252 0.150407
vt 0.235772 0.955285
vt 0.560976 0.955285
vt 0.256098 0.939024
vt 0.776423 0.349593
vt 0.756098 0.345528
vt 0.756098 0.349593
vt 0.012195 0.715447
vt 0.000000 0.719512
vt 0.000000 0.715447
vt 0.772358 0.191057
vt 0.768293 0.170732
vt 0.772358 0.170732
vt 0.000000 0.991870
vt 0.308943 0.987805
vt 0.000000 0.987805
vt 0.788618 0.276423
vt 0.784553 0.280488
vt 0.788618 0.280488
vt 0.719512 0.743902
vt 0.638211 0.743902
vt 0.638211 0.686992
vt 0.784553 0.138211
vt 0.780488 0.142276
vt 0.784553 0.142276
vt 0.800813 0.548781
vt 0.735772 0.544715
vt 0.800813 0.544715
vt 0.776423 0.560976
vt 0.756098 0.556911
vt 0.756098 0.560976
vt 0.723577 0.609756
vt 0.638211 0.605691
vt 0.642276 0.609756
vt 0.886179 0.947154
vt 0.560976 0.943089
vt 0.886179 0.943089
vt 0.784553 0.134146
vt 0.788618 0.130081
vt 0.784553 0.130081
vt 0.024390 0.727642
vt 0.024390 0.747967
vt 0.020325 0.731707
vt 0.654472 0.520325
vt 0.634146 0.524390
vt 0.634146 0.520325
vt 0.776423 0.621951
vt 0.756098 0.617886
vt 0.776423 0.617886
vt 0.792683 0.097561
vt 0.788618 0.101626
vt 0.788618 0.097561
vt 0.776423 0.105691
vt 0.772358 0.093496
vt 0.776423 0.093496
vt 0.743902 0.715447
vt 0.739837 0.747967
vt 0.739837 0.735772
vt 0.780488 0.101626
vt 0.784553 0.097561
vt 0.780488 0.097561
vt 0.776423 0.577236
vt 0.756098 0.573171
vt 0.756098 0.577236
vt 0.796748 0.443089
vt 0.731707 0.447154
vt 0.731707 0.443089
vt 0.780488 0.630081
vt 0.776423 0.634146
vt 0.780488 0.634146
vt 0.784553 0.621951
vt 0.788618 0.626016
vt 0.784553 0.626016
vt 0.776423 0.670732
vt 0.756098 0.666667
vt 0.756098 0.670732
vt 0.788618 0.662602
vt 0.768293 0.658537
vt 0.768293 0.662602
vt 0.784553 0.300813
vt 0.764228 0.304878
vt 0.764228 0.300813
vt 0.788618 0.589431
vt 0.784553 0.593496
vt 0.784553 0.589431
vt 0.256098 0.739837
vt 0.264228 0.743902
vt 0.256098 0.743902
vt 0.325203 0.975610
vt 0.000000 0.979675
vt 0.000000 0.975610
vt 0.300813 0.731707
vt 0.296748 0.735772
vt 0.300813 0.735772
vt 0.894309 0.703252
vt 0.723577 0.707317
vt 0.723577 0.703252
vt 0.731707 0.422764
vt 0.813008 0.426829
vt 0.813008 0.422764
vt 0.894309 0.686992
vt 0.723577 0.691057
vt 0.723577 0.686992
vt 0.764228 0.191057
vt 0.768293 0.211382
vt 0.768293 0.191057
vt 0.243902 0.747967
vt 0.243902 0.743902
vt 0.731707 0.430894
vt 0.813008 0.434959
vt 0.813008 0.430894
vt 0.784553 0.211382
vt 0.788618 0.215447
vt 0.788618 0.211382
vt 0.654472 0.081301
vt 0.650406 0.081301
vt 0.650406 0.085366
vt 0.788618 0.577236
vt 0.792683 0.573171
vt 0.788618 0.573171
vt 0.788618 0.012195
vt 0.792683 0.008130
vt 0.788618 0.008130
vt 0.776423 0.166667
vt 0.780488 0.170732
vt 0.776423 0.170732
vt 0.784553 0.008130
vt 0.780488 0.012195
vt 0.780488 0.008130
vt 0.788618 0.341463
vt 0.784553 0.345528
vt 0.784553 0.341463
vt 0.784553 0.020325
vt 0.780488 0.024390
vt 0.780488 0.020325
vt 0.784553 0.577236
vt 0.780488 0.581301
vt 0.780488 0.577236
vt 0.894309 0.699187
vt 0.723577 0.695122
vt 0.723577 0.699187
vt 0.796748 0.361789
vt 0.739837 0.365854
vt 0.739837 0.361789
vt 0.760163 0.284553
vt 0.756098 0.264228
vt 0.760163 0.264228
vt 0.792683 0.666667
vt 0.788618 0.670732
vt 0.788618 0.666667
vt 0.317073 0.780488
vt 0.313008 0.784553
vt 0.313008 0.780488
vt 0.235772 0.743902
vt 0.292683 0.703252
vt 0.032520 0.723577
vt 0.772358 0.166667
vt 0.768293 0.146341
vt 0.772358 0.146341
vt 0.768293 0.142276
vt 0.764228 0.121951
vt 0.768293 0.121951
vt 0.821138 0.447154
vt 0.825203 0.000000
vt 0.821138 0.000000
vt 0.227642 0.752033
vt 0.308943 0.756098
vt 0.227642 0.756098
vt 0.796748 0.373984
vt 0.739837 0.378049
vt 0.739837 0.373984
vt 0.788618 0.093496
vt 0.792683 0.093496
vt 0.784553 0.715447
vt 0.788618 0.719512
vt 0.788618 0.715447
vt 0.317073 0.613821
vt 0.308943 0.593496
vt 0.317073 0.593496
vt 0.630081 0.788618
vt 0.487805 0.638211
vt 0.491870 0.638211
vt 0.780488 0.560976
vt 0.784553 0.556911
vt 0.780488 0.556911
vt 0.780488 0.093496
vt 0.792683 0.056911
vt 0.796748 0.052846
vt 0.792683 0.052846
vt 0.654472 0.987805
vt 0.329268 0.983740
vt 0.654472 0.983740
vt 0.784553 0.739837
vt 0.780488 0.743902
vt 0.784553 0.743902
vt 0.280488 0.719512
vt 0.292683 0.723577
vt 0.280488 0.723577
vt 0.776423 0.613821
vt 0.756098 0.609756
vt 0.756098 0.613821
vt 0.780488 0.626016
vt 0.776423 0.626016
vt 0.780488 0.154472
vt 0.776423 0.150407
vt 0.780488 0.150407
vt 0.792683 0.191057
vt 0.788618 0.195122
vt 0.788618 0.191057
vt 0.788618 0.178862
vt 0.792683 0.182927
vt 0.788618 0.182927
vt 0.772358 0.142276
vt 0.776423 0.130081
vt 0.772358 0.130081
vt 0.780488 0.333333
vt 0.784553 0.337398
vt 0.780488 0.337398
vt 0.784553 0.032520
vt 0.764228 0.028455
vt 0.764228 0.032520
vt 0.735772 0.654472
vt 0.747967 0.674797
vt 0.735772 0.674797
vt 0.780488 0.109756
vt 0.784553 0.105691
vt 0.780488 0.105691
vt 0.691057 0.516260
vt 0.682927 0.520325
vt 0.682927 0.516260
vt 0.898374 0.963415
vt 0.451219 0.975610
vt 0.451219 0.963415
vt 0.752033 0.630081
vt 0.747967 0.609756
vt 0.752033 0.609756
vt 0.796748 0.386179
vt 0.739837 0.382114
vt 0.739837 0.386179
vt 0.776423 0.642276
vt 0.772358 0.621951
vt 0.792683 0.739837
vt 0.772358 0.735772
vt 0.792683 0.735772
vt 0.776423 0.162602
vt 0.772358 0.158537
vt 0.776423 0.158537
vt 0.743902 0.081301
vt 0.739837 0.085366
vt 0.739837 0.142276
vt 0.032520 0.613821
vt 0.000000 0.589431
vt 0.036585 0.609756
vt 0.788618 0.020325
vt 0.792683 0.024390
vt 0.792683 0.020325
vt 0.784553 0.630081
vt 0.788618 0.634146
vt 0.784553 0.634146
vt 0.784553 0.666667
vt 0.780488 0.670732
vt 0.780488 0.666667
vt 0.658537 0.508130
vt 0.678862 0.528455
vt 0.678862 0.508130
vt 0.784553 0.150407
vt 0.788618 0.739837
vt 0.317073 0.471545
vt 0.313008 0.475610
vt 0.317073 0.475610
vt 0.772358 0.028455
vt 0.768293 0.008130
vt 0.772358 0.008130
vt 0.792683 0.150407
vt 0.788618 0.154472
vt 0.788618 0.150407
vt 0.743902 0.000000
vt 0.800813 0.004065
vt 0.743902 0.004065
vt 0.613821 0.987805
vt 0.313008 0.991870
vt 0.613821 0.991870
vt 0.780488 0.678862
vt 0.784553 0.674797
vt 0.780488 0.674797
vt 0.747967 0.634146
vt 0.747967 0.654472
vt 0.780488 0.117886
vt 0.784553 0.113821
vt 0.780488 0.113821
vt 0.711382 0.280488
vt 0.707317 0.284553
vt 0.707317 0.280488
vt 0.784553 0.585366
vt 0.780488 0.589431
vt 0.780488 0.585366
vt 0.784553 0.178862
vt 0.780488 0.182927
vt 0.780488 0.178862
vt 0.792683 0.081301
vt 0.788618 0.085366
vt 0.788618 0.081301
vt 0.203252 0.760163
vt 0.207317 0.764228
vt 0.203252 0.764228
vt 0.780488 0.621951
vt 0.784553 0.617886
vt 0.780488 0.617886
vt 0.792683 0.158537
vt 0.788618 0.162602
vt 0.788618 0.158537
vt 0.756098 0.146341
vt 0.760163 0.166667
vt 0.756098 0.166667
vt 0.000000 0.471545
vt 0.004065 0.475610
vt 0.004065 0.471545
vt 0.630081 0.784553
vt 0.800813 0.764228
vt 0.630081 0.764228
vt 0.272358 0.731707
vt 0.268293 0.727642
vt 0.268293 0.747967
vt 0.768293 0.065041
vt 0.743902 0.069106
vt 0.743902 0.065041
vt 0.825203 0.711382
vt 0.723577 0.711382
vt 0.772358 0.174797
vt 0.792683 0.585366
vt 0.788618 0.585366
vt 0.317073 0.634146
vt 0.308943 0.613821
vt 0.784553 0.268293
vt 0.764228 0.272358
vt 0.764228 0.268293
vt 0.089431 0.760163
vt 0.000000 0.764228
vt 0.000000 0.760163
vt 0.752033 0.593496
vt 0.747967 0.573171
vt 0.752033 0.573171
vt 0.772358 0.085366
vt 0.674797 0.154472
vt 0.650406 0.325203
vt 0.650406 0.154472
vt 0.341463 0.894309
vt 0.321138 0.849594
vt 0.341463 0.882114
vt 0.727642 0.536585
vt 0.727642 0.532520
vt 0.731707 0.532520
vt 0.317073 0.703252
vt 0.296748 0.723577
vt 0.313008 0.723577
vt 0.317073 0.638211
vt 0.308943 0.658537
vt 0.308943 0.638211
vt 0.284553 0.768293
vt 0.000000 0.780488
vt 0.000000 0.768293
vt 0.004065 0.743902
vt 0.000000 0.747967
vt 0.000000 0.727642
vt 0.634146 0.487805
vt 0.638211 0.520325
vt 0.638211 0.508130
vt 0.711382 0.170732
vt 0.707317 0.182927
vt 0.707317 0.150407
vt 0.727642 0.524390
vt 0.715447 0.520325
vt 0.723577 0.524390
vt 0.829268 0.447154
vt 0.833333 0.000000
vt 0.829268 0.000000
vt 0.784553 0.199187
vt 0.780488 0.203252
vt 0.780488 0.199187
vt 0.784553 0.719512
vt 0.788618 0.723577
vt 0.784553 0.723577
vt 0.723577 0.178862
vt 0.719512 0.182927
vt 0.719512 0.178862
vt 0.776423 0.121951
vt 0.772358 0.109756
vt 0.776423 0.109756
vt 0.760163 0.304878
vt 0.756098 0.284553
vt 0.317073 0.695122
vt 0.304878 0.699187
vt 0.304878 0.695122
vt 0.788618 0.065041
vt 0.772358 0.069106
vt 0.772358 0.065041
vt 0.788618 0.321138
vt 0.792683 0.325203
vt 0.788618 0.325203
vt 0.792683 0.142276
vt 0.788618 0.146341
vt 0.788618 0.142276
vt 0.760163 0.121951
vt 0.756098 0.101626
vt 0.760163 0.101626
vt 0.772358 0.211382
vt 0.317073 0.682927
vt 0.308943 0.662602
vt 0.317073 0.662602
vt 0.776423 0.341463
vt 0.756098 0.341463
vt 0.772358 0.186992
vt 0.776423 0.191057
vt 0.780488 0.158537
vt 0.784553 0.162602
vt 0.780488 0.162602
vt 0.313008 0.768293
vt 0.288618 0.764228
vt 0.288618 0.768293
vt 0.943089 0.471545
vt 0.947154 0.467480
vt 0.943089 0.467480
vt 0.886179 0.930894
vt 0.560976 0.934959
vt 0.560976 0.930894
vt 0.784553 0.292683
vt 0.788618 0.288618
vt 0.784553 0.288618
vt 0.703252 0.524390
vt 0.678862 0.520325
vt 0.678862 0.524390
vt 0.768293 0.085366
vt 0.768293 0.081301
vt 0.784553 0.609756
vt 0.780488 0.613821
vt 0.780488 0.609756
vt 0.788618 0.333333
vt 0.792683 0.337398
vt 0.788618 0.337398
vt 0.792683 0.170732
vt 0.788618 0.174797
vt 0.788618 0.170732
vt 0.808943 0.247967
vt 0.719512 0.252033
vt 0.719512 0.247967
vt 0.617886 0.987805
vt 0.902439 0.991870
vt 0.902439 0.987805
vt 0.788618 0.552846
vt 0.788618 0.556911
vt 0.760163 0.735772
vt 0.756098 0.715447
vt 0.760163 0.715447
vt 0.784553 0.581301
vt 0.784553 0.264228
vt 0.764228 0.264228
vt 0.670732 0.500000
vt 0.658537 0.504065
vt 0.658537 0.500000
vt 0.780488 0.126016
vt 0.772358 0.126016
vt 0.788618 0.617886
vt 0.788618 0.621951
vt 0.711382 0.207317
vt 0.707317 0.219512
vt 0.707317 0.186992
vt 0.772358 0.121951
vt 0.768293 0.101626
vt 0.772358 0.101626
vt 0.743902 0.146341
vt 0.747967 0.150407
vt 0.747967 0.146341
vt 0.638211 0.674797
vt 0.642276 0.674797
vt 0.642276 0.670732
vt 0.792683 0.040650
vt 0.788618 0.044715
vt 0.788618 0.040650
vt 0.723577 0.276423
vt 0.727642 0.288618
vt 0.727642 0.256098
vt 0.691057 0.321138
vt 0.686992 0.150407
vt 0.691057 0.150407
vt 0.792683 0.016260
vt 0.792683 0.012195
vt 0.784553 0.670732
vt 0.776423 0.195122
vt 0.780488 0.191057
vt 0.764228 0.284553
vt 0.764228 0.280488
vt 0.756098 0.211382
vt 0.760163 0.191057
vt 0.760163 0.211382
vt 0.308943 0.686992
vt 0.308943 0.682927
vt 0.764228 0.296748
vt 0.776423 0.593496
vt 0.756098 0.589431
vt 0.776423 0.589431
vt 0.764228 0.288618
vt 0.764228 0.292683
vt 0.784553 0.166667
vt 0.780488 0.166667
vt 0.317073 0.772358
vt 0.313008 0.776423
vt 0.313008 0.772358
vt 0.780488 0.719512
vt 0.760163 0.719512
vt 0.817073 0.227642
vt 0.727642 0.231707
vt 0.817073 0.231707
vt 0.784553 0.186992
vt 0.780488 0.186992
vt 0.760163 0.142276
vt 0.796748 0.357724
vt 0.646341 0.479675
vt 0.634146 0.483740
vt 0.634146 0.479675
vt 0.028455 0.727642
vt 0.032520 0.731707
vt 0.032520 0.727642
vt 0.784553 0.284553
vt 0.788618 0.138211
vt 0.313008 0.747967
vt 0.296748 0.747967
vt 0.784553 0.146341
vt 0.776423 0.552846
vt 0.756098 0.552846
vt 0.711382 0.321138
vt 0.715447 0.325203
vt 0.711382 0.325203
vt 0.747967 0.552846
vt 0.752033 0.552846
vt 0.300813 0.016260
vt 0.016260 0.463415
vt 0.300813 0.463415
vt 0.093496 0.760163
vt 0.097561 0.764228
vt 0.097561 0.760163
vt 0.792683 0.032520
vt 0.788618 0.036585
vt 0.788618 0.032520
vt 0.756098 0.065041
vt 0.743902 0.060976
vt 0.308943 0.000000
vt 0.313008 0.004065
vt 0.313008 0.000000
vt 0.784553 0.329268
vt 0.678862 0.325203
vt 0.678862 0.329268
vt 0.788618 0.268293
vt 0.788618 0.264228
vt 0.747967 0.284553
vt 0.752033 0.264228
vt 0.747967 0.264228
vt 0.325203 0.983740
vt 0.000000 0.983740
vt 0.792683 0.105691
vt 0.788618 0.109756
vt 0.788618 0.105691
vt 0.776423 0.337398
vt 0.756098 0.333333
vt 0.756098 0.337398
vt 0.792683 0.560976
vt 0.788618 0.560976
vt 0.723577 0.211382
vt 0.719512 0.215447
vt 0.719512 0.211382
vt 0.056911 0.743902
vt 0.044715 0.747967
vt 0.044715 0.743902
vt 0.788618 0.186992
vt 0.784553 0.044715
vt 0.764228 0.048780
vt 0.764228 0.044715
vt 0.191057 0.674797
vt 0.308943 0.691057
vt 0.000000 0.691057
vt 0.788618 0.650406
vt 0.768293 0.646341
vt 0.768293 0.650406
vt 0.796748 0.390244
vt 0.739837 0.394309
vt 0.739837 0.390244
vt 0.817073 0.402439
vt 0.646341 0.422764
vt 0.646341 0.402439
vt 0.792683 0.113821
vt 0.788618 0.117886
vt 0.788618 0.113821
vt 0.727642 0.443089
vt 0.727642 0.422764
vt 0.886179 0.922764
vt 0.560976 0.926829
vt 0.560976 0.922764
vt 0.776423 0.146341
vt 0.784553 0.276423
vt 0.764228 0.276423
vt 0.707317 0.321138
vt 0.711382 0.317073
vt 0.707317 0.317073
vt 0.768293 0.666667
vt 0.764228 0.646341
vt 0.727642 0.219512
vt 0.817073 0.223577
vt 0.817073 0.219512
vt 0.776423 0.674797
vt 0.756098 0.678862
vt 0.756098 0.674797
vt 0.760163 0.642276
vt 0.756098 0.621951
vt 0.760163 0.621951
vt 0.739837 0.333333
vt 0.752033 0.353659
vt 0.739837 0.353659
vt 0.780488 0.593496
vt 0.731707 0.235772
vt 0.813008 0.239837
vt 0.813008 0.235772
vt 0.743902 0.101626
vt 0.747967 0.121951
vt 0.747967 0.101626
vt 0.638211 0.528455
vt 0.642276 0.532520
vt 0.638211 0.532520
vt 0.788618 0.613821
vt 0.792683 0.609756
vt 0.788618 0.609756
vt 0.800813 0.077236
vt 0.743902 0.073171
vt 0.743902 0.077236
vt 0.752033 0.191057
vt 0.756098 0.170732
vt 0.752033 0.170732
vt 0.780488 0.349593
vt 0.780488 0.345528
vt 0.752033 0.121951
vt 0.756098 0.142276
vt 0.756098 0.121951
vt 0.772358 0.089431
vt 0.788618 0.089431
vt 0.776423 0.219512
vt 0.756098 0.215447
vt 0.756098 0.219512
vt 0.349593 0.833333
vt 0.349593 0.821138
vt 0.329268 0.841463
vt 0.073171 0.756098
vt 0.000000 0.752033
vt 0.073171 0.752033
vt 0.813008 0.256098
vt 0.731707 0.260163
vt 0.813008 0.260163
vt 0.329268 0.979675
vt 0.654472 0.975610
vt 0.329268 0.975610
vt 0.788618 0.300813
vt 0.792683 0.304878
vt 0.788618 0.304878
vt 0.784553 0.040650
vt 0.764228 0.036585
vt 0.764228 0.040650
vt 0.747967 0.142276
vt 0.743902 0.121951
vt 0.760163 0.146341
vt 0.764228 0.166667
vt 0.764228 0.146341
vt 0.792683 0.028455
vt 0.788618 0.028455
vt 0.788618 0.060976
vt 0.772358 0.056911
vt 0.772358 0.060976
vt 0.292683 0.711382
vt 0.288618 0.715447
vt 0.288618 0.711382
vt 0.780488 0.573171
vt 0.634146 0.443089
vt 0.642276 0.447154
vt 0.317073 0.447154
vt 0.662602 0.495935
vt 0.658537 0.495935
vt 0.731707 0.284553
vt 0.747967 0.304878
vt 0.731707 0.304878
vt 0.739837 0.369919
vt 0.317073 0.760163
vt 0.313008 0.739837
vt 0.317073 0.739837
vt 0.723577 0.682927
vt 0.780488 0.134146
vt 0.780488 0.130081
vt 0.028455 0.735772
vt 0.028455 0.747967
vt 0.016260 0.719512
vt 0.020325 0.723577
vt 0.016260 0.723577
vt 0.308943 0.772358
vt 0.288618 0.776423
vt 0.288618 0.772358
vt 0.731707 0.313008
vt 0.813008 0.308943
vt 0.813008 0.313008
vt 0.313008 0.760163
vt 0.207317 0.760163
vt 0.792683 0.199187
vt 0.788618 0.203252
vt 0.788618 0.199187
vt 0.747967 0.630081
vt 0.735772 0.609756
vt 0.918699 0.747967
vt 0.634146 0.760163
vt 0.918699 0.760163
vt 0.784553 0.569106
vt 0.788618 0.565041
vt 0.780488 0.552846
vt 0.784553 0.552846
vt 0.784553 0.203252
vt 0.788618 0.207317
vt 0.784553 0.207317
vt 0.886179 0.951219
vt 0.560976 0.951219
vt 0.796748 0.048780
vt 0.792683 0.048780
vt 0.747967 0.174797
vt 0.727642 0.195122
vt 0.747967 0.195122
vt 0.776423 0.207317
vt 0.776423 0.203252
vt 0.747967 0.199187
vt 0.747967 0.219512
vt 0.768293 0.739837
vt 0.747967 0.735772
vt 0.747967 0.739837
vt 0.784553 0.012195
vt 0.780488 0.016260
vt 0.967480 0.987805
vt 0.658537 0.983740
vt 0.967480 0.983740
vt 0.695122 0.321138
vt 0.695122 0.150407
vt 0.752033 0.052846
vt 0.743902 0.032520
vt 0.752033 0.032520
vt 0.792683 0.162602
vt 0.788618 0.166667
vt 0.788618 0.638211
vt 0.784553 0.638211
vt 0.284553 0.995935
vt 0.000000 1.000000
vt 0.284553 1.000000
vt 0.792683 0.345528
vt 0.788618 0.349593
vt 0.788618 0.345528
vt 0.004065 0.483740
vt 0.000000 0.479675
vt 0.317073 0.479675
vt 0.752033 0.654472
vt 0.752033 0.634146
vt 0.772358 0.739837
vt 0.776423 0.743902
vt 0.772358 0.743902
vt 0.650406 0.073171
vt 0.650406 0.069106
vt 0.654472 0.065041
vt 0.000000 0.784553
vt 0.308943 0.780488
vt 0.308943 0.784553
vt 0.121951 0.670732
vt 0.121951 0.613821
vt 0.191057 0.609756
vt 0.760163 0.646341
vt 0.756098 0.646341
vt 0.776423 0.638211
vt 0.735772 0.540650
vt 0.780488 0.341463
vt 0.743902 0.097561
vt 0.768293 0.093496
vt 0.743902 0.093496
vt 0.743902 0.089431
vt 0.743902 0.085366
vt 0.752033 0.674797
vt 0.711382 0.239837
vt 0.752033 0.735772
vt 0.747967 0.715447
vt 0.752033 0.715447
vt 0.902439 0.918699
vt 0.565041 0.922764
vt 0.565041 0.918699
vt 0.776423 0.020325
vt 0.776423 0.024390
vt 0.756098 0.585366
vt 0.808943 0.243902
vt 0.727642 0.247967
vt 0.727642 0.243902
vt 0.780488 0.211382
vt 0.776423 0.215447
vt 0.776423 0.211382
vt 0.776423 0.565041
vt 0.756098 0.569106
vt 0.756098 0.565041
vt 0.638211 0.471545
vt 0.630081 0.475610
vt 0.630081 0.471545
vt 0.813008 0.317073
vt 0.731707 0.317073
vt 0.768293 0.052846
vt 0.743902 0.056911
vt 0.743902 0.052846
vt 0.284553 0.873984
vt 0.093496 0.902439
vt 0.073171 0.894309
vt 0.731707 0.337398
vt 0.731707 0.394309
vt 0.650406 0.394309
vt 0.752033 0.284553
vt 0.760163 0.052846
vt 0.756098 0.032520
vt 0.760163 0.032520
vt 0.731707 0.264228
vt 0.565041 0.914634
vt 0.902439 0.910569
vt 0.565041 0.910569
vt 0.735772 0.552846
vt 0.008130 0.707317
vt 0.000000 0.711382
vt 0.000000 0.707317
vt 0.983740 0.975610
vt 0.658537 0.979675
vt 0.658537 0.975610
vt 0.735772 0.593496
vt 0.735772 0.573171
vt 0.731707 0.439024
vt 0.796748 0.434959
vt 0.731707 0.434959
vt 0.560976 0.939024
vt 0.886179 0.934959
vt 0.756098 0.581301
vt 0.788618 0.048780
vt 0.772358 0.052846
vt 0.772358 0.048780
vt 0.004065 0.004065
vt 0.000000 0.008130
vt 0.000000 0.004065
vt 0.764228 0.008130
vt 0.760163 0.170732
vt 0.764228 0.170732
vt 0.776423 0.199187
vt 0.447154 0.975610
vt 0.000000 0.963415
vt 0.768293 0.642276
vt 0.764228 0.621951
vt 0.768293 0.621951
vt 0.459350 0.467480
vt 0.459350 0.638211
vt 0.321138 0.451219
vt 0.739837 0.065041
vt 0.739837 0.008130
vt 0.288618 0.743902
vt 0.280488 0.747967
vt 0.292683 0.747967
vt 0.723577 0.747967
vt 0.727642 0.743902
vt 0.723577 0.743902
vt 0.784553 0.195122
vt 0.784553 0.191057
vt 0.780488 0.723577
vt 0.760163 0.723577
vt 0.760163 0.028455
vt 0.756098 0.008130
vt 0.760163 0.008130
vt 0.678862 0.321138
vt 0.682927 0.150407
vt 0.678862 0.150407
vt 0.833333 0.601626
vt 0.731707 0.605691
vt 0.731707 0.601626
vt 0.764228 0.101626
vt 0.654472 0.516260
vt 0.646341 0.520325
vt 0.646341 0.516260
vt 0.792683 0.121951
vt 0.792683 0.117886
vt 0.743902 0.028455
vt 0.752033 0.008130
vt 0.752033 0.028455
vt 0.727642 0.170732
vt 0.747967 0.170732
vt 0.776423 0.178862
vt 0.776423 0.182927
vt 0.784553 0.272358
vt 0.792683 0.065041
vt 0.788618 0.069106
vt 0.784553 0.727642
vt 0.788618 0.731707
vt 0.788618 0.727642
vt 0.776423 0.008130
vt 0.723577 0.321138
vt 0.723577 0.308943
vt 0.780488 0.174797
vt 0.784553 0.170732
vt 0.792683 0.650406
vt 0.772358 0.654472
vt 0.772358 0.650406
vt 0.780488 0.731707
vt 0.760163 0.727642
vt 0.760163 0.731707
vt 0.788618 0.296748
vt 0.784553 0.296748
vt 0.699187 0.321138
vt 0.560976 0.906504
vt 0.540650 0.906504
vt 0.540650 0.939024
vt 0.256098 0.906504
vt 0.235772 0.906504
vt 0.776423 0.345528
vt 0.012195 0.719512
vt 0.308943 0.991870
vt 0.638211 0.682927
vt 0.719512 0.682927
vt 0.719512 0.686992
vt 0.719512 0.747967
vt 0.638211 0.747967
vt 0.634146 0.743902
vt 0.634146 0.686992
vt 0.780488 0.138211
vt 0.735772 0.548781
vt 0.776423 0.556911
vt 0.723577 0.613821
vt 0.727642 0.613821
vt 0.727642 0.670732
vt 0.723577 0.670732
vt 0.723577 0.674797
vt 0.638211 0.678862
vt 0.727642 0.678862
vt 0.727642 0.674797
vt 0.731707 0.674797
vt 0.731707 0.609756
vt 0.727642 0.609756
vt 0.727642 0.605691
vt 0.638211 0.609756
vt 0.634146 0.609756
vt 0.634146 0.674797
vt 0.638211 0.670732
vt 0.638211 0.613821
vt 0.642276 0.613821
vt 0.560976 0.947154
vt 0.788618 0.134146
vt 0.020325 0.743902
vt 0.004065 0.731707
vt 0.654472 0.524390
vt 0.792683 0.101626
vt 0.772358 0.105691
vt 0.723577 0.735772
vt 0.723577 0.715447
vt 0.743902 0.747967
vt 0.784553 0.101626
vt 0.776423 0.573171
vt 0.796748 0.447154
vt 0.776423 0.630081
vt 0.776423 0.666667
vt 0.788618 0.658537
vt 0.784553 0.304878
vt 0.788618 0.593496
vt 0.264228 0.739837
vt 0.325203 0.979675
vt 0.296748 0.731707
vt 0.894309 0.707317
vt 0.731707 0.426829
vt 0.894309 0.691057
vt 0.764228 0.211382
vt 0.264228 0.747967
vt 0.784553 0.215447
vt 0.735772 0.081301
vt 0.650406 0.077236
vt 0.646341 0.081301
vt 0.654472 0.085366
vt 0.792683 0.577236
vt 0.784553 0.024390
vt 0.894309 0.695122
vt 0.796748 0.365854
vt 0.792683 0.670732
vt 0.317073 0.784553
vt 0.186992 0.760163
vt 0.199187 0.760163
vt 0.199187 0.756098
vt 0.215447 0.756098
vt 0.215447 0.752033
vt 0.227642 0.747967
vt 0.235772 0.747967
vt 0.247967 0.743902
vt 0.247967 0.739837
vt 0.252033 0.739837
vt 0.252033 0.735772
vt 0.260163 0.735772
vt 0.260163 0.731707
vt 0.264228 0.731707
vt 0.264228 0.727642
vt 0.268293 0.723577
vt 0.276423 0.723577
vt 0.276423 0.719512
vt 0.280488 0.715447
vt 0.284553 0.715447
vt 0.284553 0.711382
vt 0.288618 0.707317
vt 0.292683 0.707317
vt 0.296748 0.703252
vt 0.296748 0.699187
vt 0.300813 0.699187
vt 0.300813 0.695122
vt 0.000000 0.695122
vt 0.000000 0.699187
vt 0.004065 0.699187
vt 0.004065 0.703252
vt 0.008130 0.703252
vt 0.012195 0.707317
vt 0.012195 0.711382
vt 0.016260 0.711382
vt 0.016260 0.715447
vt 0.020325 0.715447
vt 0.020325 0.719512
vt 0.024390 0.719512
vt 0.024390 0.723577
vt 0.036585 0.727642
vt 0.036585 0.731707
vt 0.040650 0.731707
vt 0.040650 0.735772
vt 0.048780 0.735772
vt 0.048780 0.739837
vt 0.052846 0.739837
vt 0.052846 0.743902
vt 0.065041 0.743902
vt 0.065041 0.747967
vt 0.073171 0.747967
vt 0.085366 0.752033
vt 0.085366 0.756098
vt 0.101626 0.756098
vt 0.101626 0.760163
vt 0.113821 0.760163
vt 0.113821 0.764228
vt 0.186992 0.764228
vt 0.768293 0.166667
vt 0.764228 0.142276
vt 0.825203 0.447154
vt 0.308943 0.752033
vt 0.796748 0.378049
vt 0.487805 0.642276
vt 0.630081 0.451219
vt 0.784553 0.560976
vt 0.784553 0.093496
vt 0.796748 0.056911
vt 0.329268 0.987805
vt 0.780488 0.739837
vt 0.292683 0.719512
vt 0.776423 0.609756
vt 0.776423 0.154472
vt 0.792683 0.195122
vt 0.792683 0.178862
vt 0.776423 0.142276
vt 0.784553 0.333333
vt 0.784553 0.028455
vt 0.784553 0.109756
vt 0.691057 0.520325
vt 0.898374 0.975610
vt 0.796748 0.382114
vt 0.772358 0.642276
vt 0.772358 0.162602
vt 0.654472 0.146341
vt 0.654472 0.142276
vt 0.650406 0.142276
vt 0.646341 0.146341
vt 0.650406 0.146341
vt 0.650406 0.150407
vt 0.739837 0.150407
vt 0.739837 0.146341
vt 0.739837 0.081301
vt 0.739837 0.077236
vt 0.735772 0.085366
vt 0.735772 0.142276
vt 0.735772 0.146341
vt 0.117886 0.609756
vt 0.036585 0.613821
vt 0.788618 0.024390
vt 0.788618 0.630081
vt 0.658537 0.528455
vt 0.784553 0.154472
vt 0.788618 0.743902
vt 0.313008 0.471545
vt 0.768293 0.028455
vt 0.792683 0.154472
vt 0.800813 0.000000
vt 0.313008 0.987805
vt 0.784553 0.678862
vt 0.735772 0.634146
vt 0.784553 0.117886
vt 0.711382 0.284553
vt 0.784553 0.182927
vt 0.792683 0.085366
vt 0.000000 0.475610
vt 0.800813 0.784553
vt 0.280488 0.743902
vt 0.272358 0.743902
vt 0.288618 0.731707
vt 0.292683 0.727642
vt 0.768293 0.069106
vt 0.825203 0.707317
vt 0.776423 0.174797
vt 0.792683 0.589431
vt 0.308943 0.634146
vt 0.089431 0.764228
vt 0.747967 0.593496
vt 0.772358 0.081301
vt 0.678862 0.154472
vt 0.674797 0.325203
vt 0.674797 0.329268
vt 0.650406 0.329268
vt 0.674797 0.150407
vt 0.646341 0.325203
vt 0.646341 0.154472
vt 0.804878 0.898374
vt 0.804878 0.902439
vt 0.800813 0.902439
vt 0.800813 0.906504
vt 0.796748 0.906504
vt 0.796748 0.902439
vt 0.792683 0.902439
vt 0.792683 0.898374
vt 0.808943 0.849594
vt 0.808943 0.898374
vt 0.788618 0.898374
vt 0.788618 0.894309
vt 0.788618 0.849594
vt 0.788618 0.882114
vt 0.341463 0.902439
vt 0.321138 0.902439
vt 0.341463 0.849594
vt 0.642276 0.536585
vt 0.638211 0.536585
vt 0.634146 0.597561
vt 0.634146 0.532520
vt 0.727642 0.601626
vt 0.638211 0.601626
vt 0.638211 0.597561
vt 0.638211 0.593496
vt 0.642276 0.593496
vt 0.642276 0.597561
vt 0.731707 0.597561
vt 0.727642 0.597561
vt 0.727642 0.528455
vt 0.723577 0.597561
vt 0.723577 0.593496
vt 0.727642 0.593496
vt 0.723577 0.532520
vt 0.723577 0.536585
vt 0.313008 0.735772
vt 0.317073 0.735772
vt 0.317073 0.658537
vt 0.284553 0.780488
vt 0.654472 0.508130
vt 0.654472 0.487805
vt 0.727642 0.150407
vt 0.711382 0.182927
vt 0.898374 0.508130
vt 0.906504 0.508130
vt 0.906504 0.504065
vt 0.910569 0.504065
vt 0.910569 0.500000
vt 0.914634 0.500000
vt 0.914634 0.495935
vt 0.922764 0.495935
vt 0.922764 0.491870
vt 0.926829 0.491870
vt 0.926829 0.487805
vt 0.930894 0.487805
vt 0.930894 0.483740
vt 0.934959 0.483740
vt 0.934959 0.479675
vt 0.939024 0.479675
vt 0.939024 0.475610
vt 0.943089 0.475610
vt 0.939024 0.471545
vt 0.934959 0.471545
vt 0.934959 0.475610
vt 0.930894 0.475610
vt 0.930894 0.479675
vt 0.926829 0.479675
vt 0.926829 0.483740
vt 0.894309 0.512195
vt 0.898374 0.512195
vt 0.882114 0.516260
vt 0.894309 0.516260
vt 0.873984 0.520325
vt 0.882114 0.520325
vt 0.861789 0.524390
vt 0.873984 0.524390
vt 0.845528 0.528455
vt 0.861789 0.528455
vt 0.833333 0.532520
vt 0.845528 0.532520
vt 0.752033 0.536585
vt 0.833333 0.536585
vt 0.739837 0.528455
vt 0.739837 0.532520
vt 0.752033 0.532520
vt 0.723577 0.528455
vt 0.711382 0.520325
vt 0.711382 0.524390
vt 0.703252 0.516260
vt 0.703252 0.520325
vt 0.691057 0.512195
vt 0.686992 0.508130
vt 0.686992 0.512195
vt 0.678862 0.504065
vt 0.674797 0.500000
vt 0.674797 0.504065
vt 0.670732 0.495935
vt 0.662602 0.491870
vt 0.658537 0.487805
vt 0.658537 0.491870
vt 0.654472 0.483740
vt 0.650406 0.479675
vt 0.650406 0.483740
vt 0.646341 0.475610
vt 0.642276 0.471545
vt 0.642276 0.475610
vt 0.638211 0.467480
vt 0.634146 0.463415
vt 0.634146 0.467480
vt 0.630081 0.455285
vt 0.630081 0.463415
vt 0.951219 0.451219
vt 0.634146 0.451219
vt 0.634146 0.455285
vt 0.951219 0.455285
vt 0.955285 0.463415
vt 0.955285 0.455285
vt 0.951219 0.467480
vt 0.951219 0.463415
vt 0.943089 0.463415
vt 0.642276 0.463415
vt 0.922764 0.483740
vt 0.922764 0.487805
vt 0.918699 0.487805
vt 0.918699 0.491870
vt 0.910569 0.491870
vt 0.910569 0.495935
vt 0.906504 0.495935
vt 0.906504 0.500000
vt 0.902439 0.500000
vt 0.902439 0.504065
vt 0.894309 0.504065
vt 0.894309 0.508130
vt 0.890244 0.508130
vt 0.890244 0.512195
vt 0.878049 0.512195
vt 0.878049 0.516260
vt 0.869919 0.516260
vt 0.869919 0.520325
vt 0.857724 0.520325
vt 0.857724 0.524390
vt 0.841463 0.524390
vt 0.841463 0.528455
vt 0.829268 0.528455
vt 0.829268 0.532520
vt 0.756098 0.532520
vt 0.756098 0.528455
vt 0.743902 0.528455
vt 0.642276 0.467480
vt 0.646341 0.471545
vt 0.646341 0.467480
vt 0.650406 0.475610
vt 0.650406 0.471545
vt 0.654472 0.479675
vt 0.654472 0.475610
vt 0.658537 0.483740
vt 0.658537 0.479675
vt 0.662602 0.487805
vt 0.662602 0.483740
vt 0.666667 0.491870
vt 0.666667 0.487805
vt 0.674797 0.495935
vt 0.674797 0.491870
vt 0.678862 0.500000
vt 0.678862 0.495935
vt 0.682927 0.504065
vt 0.682927 0.500000
vt 0.691057 0.508130
vt 0.691057 0.504065
vt 0.695122 0.512195
vt 0.695122 0.508130
vt 0.707317 0.516260
vt 0.707317 0.512195
vt 0.715447 0.516260
vt 0.727642 0.520325
vt 0.743902 0.524390
vt 0.833333 0.447154
vt 0.723577 0.182927
vt 0.756098 0.304878
vt 0.317073 0.699187
vt 0.792683 0.321138
vt 0.792683 0.146341
vt 0.776423 0.186992
vt 0.784553 0.158537
vt 0.313008 0.764228
vt 0.939024 0.467480
vt 0.947154 0.471545
vt 0.788618 0.292683
vt 0.784553 0.613821
vt 0.792683 0.333333
vt 0.792683 0.174797
vt 0.808943 0.252033
vt 0.617886 0.991870
vt 0.756098 0.735772
vt 0.788618 0.581301
vt 0.670732 0.504065
vt 0.788618 0.126016
vt 0.727642 0.186992
vt 0.727642 0.207317
vt 0.711382 0.219512
vt 0.743902 0.150407
vt 0.792683 0.044715
vt 0.707317 0.256098
vt 0.707317 0.276423
vt 0.723577 0.288618
vt 0.686992 0.321138
vt 0.788618 0.016260
vt 0.788618 0.674797
vt 0.780488 0.195122
vt 0.756098 0.191057
vt 0.317073 0.686992
vt 0.756098 0.593496
vt 0.317073 0.776423
vt 0.780488 0.715447
vt 0.727642 0.227642
vt 0.739837 0.357724
vt 0.646341 0.483740
vt 0.028455 0.731707
vt 0.788618 0.284553
vt 0.780488 0.146341
vt 0.715447 0.321138
vt 0.300813 0.000000
vt 0.016260 0.000000
vt 0.016260 0.016260
vt 0.000000 0.016260
vt 0.000000 0.463415
vt 0.317073 0.463415
vt 0.317073 0.016260
vt 0.016260 0.479675
vt 0.300813 0.479675
vt 0.093496 0.764228
vt 0.792683 0.036585
vt 0.768293 0.060976
vt 0.308943 0.004065
vt 0.784553 0.325203
vt 0.325203 0.987805
vt 0.792683 0.109756
vt 0.776423 0.333333
vt 0.792683 0.556911
vt 0.723577 0.215447
vt 0.056911 0.747967
vt 0.792683 0.186992
vt 0.784553 0.048780
vt 0.272358 0.674797
vt 0.788618 0.646341
vt 0.796748 0.394309
vt 0.817073 0.422764
vt 0.646341 0.443089
vt 0.886179 0.926829
vt 0.772358 0.150407
vt 0.764228 0.666667
vt 0.727642 0.223577
vt 0.776423 0.678862
vt 0.756098 0.642276
vt 0.752033 0.333333
vt 0.731707 0.239837
vt 0.792683 0.613821
vt 0.800813 0.073171
vt 0.784553 0.349593
vt 0.752033 0.142276
vt 0.796748 0.833333
vt 0.796748 0.837398
vt 0.800813 0.837398
vt 0.800813 0.841463
vt 0.804878 0.841463
vt 0.804878 0.845528
vt 0.808943 0.845528
vt 0.808943 0.841463
vt 0.813008 0.841463
vt 0.813008 0.837398
vt 0.817073 0.837398
vt 0.817073 0.788618
vt 0.796748 0.788618
vt 0.796748 0.821138
vt 0.349593 0.788618
vt 0.329268 0.788618
vt 0.349593 0.841463
vt 0.000000 0.756098
vt 0.731707 0.256098
vt 0.654472 0.979675
vt 0.792683 0.300813
vt 0.784553 0.036585
vt 0.743902 0.142276
vt 0.788618 0.056911
vt 0.292683 0.715447
vt 0.784553 0.573171
vt 0.317073 0.000000
vt 0.321138 0.000000
vt 0.321138 0.105691
vt 0.325203 0.105691
vt 0.325203 0.443089
vt 0.638211 0.000000
vt 0.642276 0.000000
vt 0.634146 0.105691
vt 0.638211 0.105691
vt 0.662602 0.500000
vt 0.796748 0.369919
vt 0.894309 0.682927
vt 0.044715 0.735772
vt 0.308943 0.776423
vt 0.731707 0.308943
vt 0.792683 0.203252
vt 0.735772 0.630081
vt 0.634146 0.747967
vt 0.788618 0.569106
vt 0.886179 0.955285
vt 0.727642 0.174797
vt 0.780488 0.207317
vt 0.727642 0.199187
vt 0.768293 0.735772
vt 0.784553 0.016260
vt 0.658537 0.987805
vt 0.792683 0.166667
vt 0.000000 0.995935
vt 0.792683 0.349593
vt 0.317073 0.585366
vt 0.313008 0.585366
vt 0.313008 0.483740
vt 0.004065 0.585366
vt 0.000000 0.585366
vt 0.776423 0.739837
vt 0.654472 0.069106
vt 0.650406 0.065041
vt 0.117886 0.674797
vt 0.117886 0.670732
vt 0.117886 0.613821
vt 0.308943 0.589431
vt 0.272358 0.670732
vt 0.276423 0.670732
vt 0.276423 0.613821
vt 0.272358 0.613821
vt 0.272358 0.609756
vt 0.032520 0.670732
vt 0.036585 0.670732
vt 0.036585 0.674797
vt 0.191057 0.670732
vt 0.186992 0.670732
vt 0.191057 0.613821
vt 0.186992 0.613821
vt 0.760163 0.666667
vt 0.780488 0.638211
vt 0.800813 0.540650
vt 0.768293 0.097561
vt 0.768293 0.089431
vt 0.707317 0.252033
vt 0.711382 0.252033
vt 0.727642 0.239837
vt 0.902439 0.922764
vt 0.776423 0.585366
vt 0.780488 0.215447
vt 0.776423 0.569106
vt 0.638211 0.475610
vt 0.768293 0.056911
vt 0.317073 0.845528
vt 0.317073 0.849594
vt 0.313008 0.849594
vt 0.313008 0.853659
vt 0.308943 0.853659
vt 0.308943 0.857724
vt 0.304878 0.857724
vt 0.304878 0.861789
vt 0.300813 0.861789
vt 0.300813 0.865854
vt 0.296748 0.865854
vt 0.296748 0.869919
vt 0.292683 0.869919
vt 0.292683 0.873984
vt 0.284553 0.878049
vt 0.280488 0.878049
vt 0.280488 0.882114
vt 0.276423 0.882114
vt 0.276423 0.886179
vt 0.268293 0.886179
vt 0.268293 0.890244
vt 0.264228 0.890244
vt 0.264228 0.894309
vt 0.252033 0.894309
vt 0.252033 0.898374
vt 0.243902 0.898374
vt 0.243902 0.902439
vt 0.231707 0.902439
vt 0.231707 0.906504
vt 0.215447 0.906504
vt 0.215447 0.910569
vt 0.203252 0.910569
vt 0.203252 0.914634
vt 0.121951 0.914634
vt 0.121951 0.910569
vt 0.109756 0.910569
vt 0.109756 0.906504
vt 0.093496 0.906504
vt 0.081301 0.902439
vt 0.081301 0.898374
vt 0.073171 0.898374
vt 0.060976 0.894309
vt 0.060976 0.890244
vt 0.056911 0.890244
vt 0.056911 0.886179
vt 0.048780 0.886179
vt 0.048780 0.882114
vt 0.044715 0.882114
vt 0.044715 0.878049
vt 0.040650 0.878049
vt 0.040650 0.873984
vt 0.032520 0.873984
vt 0.032520 0.869919
vt 0.028455 0.869919
vt 0.028455 0.865854
vt 0.024390 0.865854
vt 0.024390 0.861789
vt 0.020325 0.861789
vt 0.020325 0.857724
vt 0.016260 0.857724
vt 0.016260 0.853659
vt 0.012195 0.853659
vt 0.012195 0.849594
vt 0.008130 0.849594
vt 0.008130 0.845528
vt 0.004065 0.845528
vt 0.004065 0.841463
vt 0.000000 0.841463
vt 0.000000 0.788618
vt 0.020325 0.788618
vt 0.020325 0.821138
vt 0.304878 0.821138
vt 0.304878 0.788618
vt 0.325203 0.788618
vt 0.325203 0.841463
vt 0.321138 0.841463
vt 0.321138 0.845528
vt 0.646341 0.394309
vt 0.646341 0.337398
vt 0.650406 0.337398
vt 0.650406 0.333333
vt 0.731707 0.333333
vt 0.735772 0.337398
vt 0.735772 0.394309
vt 0.731707 0.398374
vt 0.650406 0.398374
vt 0.752033 0.304878
vt 0.756098 0.052846
vt 0.902439 0.914634
vt 0.008130 0.711382
vt 0.983740 0.979675
vt 0.796748 0.439024
vt 0.886179 0.939024
vt 0.776423 0.581301
vt 0.788618 0.052846
vt 0.004065 0.008130
vt 0.447154 0.963415
vt 0.764228 0.642276
vt 0.491870 0.467480
vt 0.487805 0.467480
vt 0.487805 0.463415
vt 0.463415 0.463415
vt 0.463415 0.467480
vt 0.463415 0.638211
vt 0.463415 0.642276
vt 0.321138 0.788618
vt 0.735772 0.008130
vt 0.735772 0.004065
vt 0.654472 0.004065
vt 0.654472 0.008130
vt 0.650406 0.008130
vt 0.646341 0.069106
vt 0.646341 0.004065
vt 0.650406 0.004065
vt 0.650406 0.000000
vt 0.739837 0.000000
vt 0.739837 0.004065
vt 0.739837 0.069106
vt 0.739837 0.073171
vt 0.735772 0.069106
vt 0.735772 0.065041
vt 0.727642 0.747967
vt 0.756098 0.028455
vt 0.682927 0.321138
vt 0.833333 0.605691
vt 0.788618 0.121951
vt 0.743902 0.008130
vt 0.788618 0.272358
vt 0.792683 0.069106
vt 0.784553 0.731707
vt 0.707317 0.308943
vt 0.707317 0.288618
vt 0.727642 0.321138
vt 0.784553 0.174797
vt 0.792683 0.654472
vt 0.780488 0.727642
s 0
usemtl kasur_double_1_Material
f 118/1/1 337/2/1 131/3/1
f 584/4/1 582/5/1 577/6/1
f 63/7/2 64/8/2 43/9/2
f 233/10/3 218/11/3 229/12/3
f 226/13/1 373/14/1 239/15/1
f 168/16/1 159/17/1 160/18/1
f 409/19/2 402/20/2 401/21/2
f 590/22/2 604/23/2 603/24/2
f 525/25/1 523/26/1 512/27/1
f 480/28/2 520/29/2 519/30/2
f 498/31/4 469/32/4 497/33/4
f 245/34/3 230/35/3 241/36/3
f 414/37/5 438/38/5 412/39/5
f 96/40/6 76/41/6 77/42/6
f 272/43/3 384/44/3 271/45/3
f 546/46/6 575/47/6 545/48/6
f 153/49/4 160/50/4 147/51/4
f 292/52/4 279/53/4 285/54/4
f 328/55/4 106/56/4 107/57/4
f 565/58/4 560/59/4 545/60/4
f 12/61/6 38/62/6 26/63/6
f 476/64/3 500/65/3 475/66/3
f 269/67/3 254/68/3 265/69/3
f 485/70/4 462/71/4 461/72/4
f 492/73/2 524/74/2 523/75/2
f 300/76/4 413/77/4 414/78/4
f 102/79/3 84/80/3 97/81/3
f 257/82/3 242/83/3 253/84/3
f 201/85/4 208/86/4 195/87/4
f 398/88/6 535/89/6 397/90/6
f 164/91/1 352/92/1 351/93/1
f 59/94/6 75/95/6 58/96/6
f 497/97/2 495/98/2 498/99/2
f 587/100/4 602/101/4 579/102/4
f 315/103/2 432/104/2 318/105/2
f 404/106/4 536/107/4 400/108/4
f 551/109/2 584/110/2 538/111/2
f 73/92/4 86/112/4 67/113/4
f 319/114/2 434/115/2 322/116/2
f 299/117/3 411/118/3 304/119/3
f 416/120/5 449/121/5 421/122/5
f 176/123/3 352/124/3 175/125/3
f 164/126/3 347/127/3 163/128/3
f 128/129/1 339/130/1 340/131/1
f 501/132/4 483/133/4 484/134/4
f 461/135/6 443/136/6 442/137/6
f 399/138/4 534/139/4 396/140/4
f 357/141/4 190/142/4 191/143/4
f 604/144/3 577/145/3 601/146/3
f 472/147/4 516/148/4 460/149/4
f 185/150/1 181/151/1 182/152/1
f 365/153/4 214/154/4 215/155/4
f 322/156/4 430/157/4 321/158/4
f 373/159/2 333/160/2 352/161/2
f 120/162/1 111/163/1 112/164/1
f 113/165/1 109/166/1 110/167/1
f 39/168/5 33/169/5 34/170/5
f 437/171/6 510/172/6 507/173/6
f 474/174/4 518/175/4 468/176/4
f 593/177/2 606/55/2 587/178/2
f 490/179/2 488/180/2 487/181/2
f 174/182/1 169/183/1 170/184/1
f 410/185/1 407/186/1 404/187/1
f 188/188/3 355/189/3 187/190/3
f 459/191/6 516/65/6 509/66/6
f 260/192/3 380/193/3 259/194/3
f 95/195/1 94/196/1 96/197/1
f 312/198/2 426/199/2 425/200/2
f 287/201/1 390/202/1 389/203/1
f 291/204/3 278/205/3 289/206/3
f 467/52/6 518/207/6 513/208/6
f 331/209/1 104/210/1 115/211/1
f 381/212/4 262/213/4 263/214/4
f 176/215/1 355/216/1 356/217/1
f 563/218/3 544/219/3 559/220/3
f 155/221/1 346/222/1 345/223/1
f 150/224/3 134/225/3 145/226/3
f 229/227/1 234/228/1 233/229/1
f 488/230/3 504/231/3 487/232/3
f 202/233/1 365/234/1 215/235/1
f 26/236/4 36/237/4 22/238/4
f 132/239/1 123/240/1 124/241/1
f 424/242/3 303/243/3 419/244/3
f 204/245/1 195/246/1 196/52/1
f 264/247/4 243/248/4 249/249/4
f 334/250/1 119/251/1 106/252/1
f 469/253/5 422/254/5 429/255/5
f 303/256/1 297/257/1 299/258/1
f 448/259/3 446/260/3 449/261/3
f 302/262/4 417/263/4 418/264/4
f 377/265/4 250/266/4 251/267/4
f 1/268/5 6/269/5 2/270/5
f 542/209/5 539/271/5 540/211/5
f 152/200/3 343/272/3 151/198/3
f 314/273/2 430/274/2 429/275/2
f 161/276/1 157/277/1 158/278/1
f 103/279/1 326/280/1 89/281/1
f 310/282/4 429/283/4 422/284/4
f 72/285/5 327/286/5 329/287/5
f 248/288/3 376/289/3 247/290/3
f 257/227/1 254/291/1 258/292/1
f 532/293/3 398/294/3 395/295/3
f 482/296/4 521/297/4 481/298/4
f 361/299/4 202/300/4 203/301/4
f 329/302/4 91/303/4 72/304/4
f 369/305/4 226/306/4 227/307/4
f 574/308/1 579/309/1 581/310/1
f 236/311/3 372/312/3 235/313/3
f 345/314/4 154/315/4 155/316/4
f 546/317/4 574/318/4 575/319/4
f 313/320/2 427/321/2 320/322/2
f 582/323/3 551/324/3 549/325/3
f 555/326/2 556/327/2 594/328/2
f 396/329/6 532/330/6 395/331/6
f 323/332/3 293/101/3 297/333/3
f 130/131/1 341/334/1 143/18/1
f 178/335/1 357/88/1 191/336/1
f 180/337/1 171/338/1 172/182/1
f 117/339/4 124/340/4 111/341/4
f 441/342/6 435/343/6 438/344/6
f 125/345/1 121/346/1 122/347/1
f 557/307/5 561/348/5 562/306/5
f 599/349/1 603/350/1 598/351/1
f 50/352/4 4/353/4 35/354/4
f 460/355/1 443/356/1 462/357/1
f 15/358/3 25/359/3 28/360/3
f 206/361/1 209/362/1 205/363/1
f 18/364/6 29/365/6 17/366/6
f 564/367/6 572/368/6 543/369/6
f 5/370/2 33/371/2 19/372/2
f 23/373/6 39/374/6 9/375/6
f 260/376/2 248/377/2 258/378/2
f 38/379/5 35/380/5 36/381/5
f 151/382/1 344/383/1 140/384/1
f 399/385/6 536/386/6 533/387/6
f 54/388/6 324/389/6 296/390/6
f 571/391/4 557/392/4 562/393/4
f 192/394/1 183/395/1 184/150/1
f 250/396/1 381/397/1 263/398/1
f 262/399/1 385/400/1 275/401/1
f 407/402/4 542/403/4 540/404/4
f 341/405/4 142/406/4 143/407/4
f 228/408/1 219/409/1 220/410/1
f 198/110/1 194/16/1 197/411/1
f 216/412/1 207/413/1 208/414/1
f 189/415/4 196/11/4 183/416/4
f 307/417/6 415/418/6 421/16/6
f 584/419/1 588/420/1 589/421/1
f 558/422/5 541/423/5 556/424/5
f 105/425/2 90/426/2 91/427/2
f 80/428/1 81/429/1 79/430/1
f 116/431/3 331/432/3 115/433/3
f 534/434/5 543/435/5 532/436/5
f 405/253/2 542/437/2 408/438/2
f 373/439/4 238/440/4 239/441/4
f 107/442/1 330/443/1 328/444/1
f 349/445/4 166/446/4 167/447/4
f 451/448/6 445/449/6 448/450/6
f 30/451/5 31/452/5 32/453/5
f 485/454/2 483/189/2 486/455/2
f 101/456/1 97/457/1 98/458/1
f 511/459/3 466/123/3 447/141/3
f 105/460/4 112/341/4 99/461/4
f 259/462/1 379/463/1 248/464/1
f 570/465/1 571/44/1 567/466/1
f 406/467/2 538/76/2 537/468/2
f 17/469/4 30/470/4 2/471/4
f 92/472/1 85/473/1 86/474/1
f 573/475/3 598/476/3 578/477/3
f 475/478/5 431/479/5 423/480/5
f 579/481/6 599/482/6 581/483/6
f 22/484/2 35/485/2 8/486/2
f 586/487/1 579/488/1 583/489/1
f 438/126/3 436/490/3 439/491/3
f 140/289/3 339/154/3 139/492/3
f 423/493/3 315/494/3 316/418/3
f 141/23/4 148/495/4 135/496/4
f 592/497/4 558/498/4 596/499/4
f 211/412/1 363/500/1 200/501/1
f 209/85/3 194/502/3 205/87/3
f 288/503/4 267/504/4 273/505/4
f 173/431/3 158/506/3 169/507/3
f 587/508/1 592/130/1 593/509/1
f 573/510/1 577/511/1 576/512/1
f 114/513/3 98/458/3 109/514/3
f 505/515/2 503/516/2 506/517/2
f 127/518/1 336/494/1 116/519/1
f 587/520/2 552/166/2 539/408/2
f 471/521/3 515/149/3 520/147/3
f 283/522/1 387/523/1 272/524/1
f 478/525/2 476/526/2 475/527/2
f 104/528/3 325/24/3 103/23/3
f 283/28/3 391/407/3 388/529/3
f 571/530/2 561/98/2 569/531/2
f 538/29/5 541/532/5 537/30/5
f 225/533/4 232/35/4 219/534/4
f 51/535/6 323/536/6 52/537/6
f 108/347/1 99/538/1 100/539/1
f 21/540/5 24/541/5 25/542/5
f 534/543/5 536/544/5 548/545/5
f 467/546/4 514/547/4 450/548/4
f 596/329/1 595/549/1 588/550/1
f 311/551/2 423/552/2 316/553/2
f 53/554/3 48/555/3 49/556/3
f 301/460/3 415/557/3 308/558/3
f 584/559/3 553/560/3 538/561/3
f 78/562/1 76/21/1 75/563/1
f 333/564/4 118/565/4 119/566/4
f 198/567/3 182/568/3 193/569/3
f 167/455/1 350/570/1 349/571/1
f 469/572/6 453/573/6 452/574/6
f 235/575/1 371/576/1 224/577/1
f 441/578/4 443/212/4 444/214/4
f 165/579/4 172/580/4 159/581/4
f 319/582/1 324/583/1 323/584/1
f 222/585/3 206/586/3 217/587/3
f 312/588/4 420/589/4 306/590/4
f 552/591/4 583/592/4 550/593/4
f 337/594/4 130/595/4 131/596/4
f 292/597/1 289/592/1 290/598/1
f 60/599/1 58/600/1 57/601/1
f 608/210/4 593/164/4 592/602/4
f 129/603/4 136/496/4 123/604/4
f 523/605/3 491/606/3 492/607/3
f 74/608/1 67/609/1 68/586/1
f 500/610/2 502/611/2 501/612/2
f 90/613/4 100/614/4 85/615/4
f 573/616/6 547/617/6 532/618/6
f 231/619/1 240/620/1 237/621/1
f 200/622/3 359/90/3 199/300/3
f 479/623/2 528/624/2 482/625/2
f 547/626/3 577/627/3 535/628/3
f 435/629/1 437/630/1 436/631/1
f 212/632/3 364/633/3 211/634/3
f 428/635/3 307/636/3 421/637/3
f 588/638/3 556/639/3 541/640/3
f 199/136/1 360/641/1 188/642/1
f 543/643/3 573/644/3 532/645/3
f 564/646/1 566/306/1 565/647/1
f 186/648/3 170/649/3 181/650/3
f 45/651/3 34/652/3 65/653/3
f 392/654/1 284/655/1 286/656/1
f 494/657/2 529/658/2 530/659/2
f 81/660/2 62/661/2 61/662/2
f 451/663/4 453/664/4 454/665/4
f 162/666/3 146/667/3 157/668/3
f 579/669/4 548/670/4 536/627/4
f 553/671/2 588/672/2 541/673/2
f 459/674/4 510/548/4 440/675/4
f 545/676/5 559/677/5 544/678/5
f 494/679/4 525/680/4 493/681/4
f 203/682/1 362/141/1 361/143/1
f 402/683/1 56/684/1 55/685/1
f 519/464/3 479/686/3 480/687/3
f 267/688/1 276/689/1 273/690/1
f 524/174/3 464/691/3 517/176/3
f 87/692/1 83/693/1 84/694/1
f 538/106/3 397/695/3 535/108/3
f 466/45/6 517/696/6 464/697/6
f 559/698/6 566/576/6 563/699/6
f 457/700/6 436/701/6 455/702/6
f 177/703/4 184/704/4 171/705/4
f 412/706/6 300/707/6 414/708/6
f 51/709/4 46/309/4 47/710/4
f 353/711/4 178/712/4 179/713/4
f 288/714/1 279/715/1 280/240/1
f 28/716/2 41/717/2 42/718/2
f 507/719/3 458/720/3 437/1/3
f 481/721/2 522/189/2 472/722/2
f 287/723/4 392/724/4 286/725/4
f 56/726/6 57/8/6 55/727/6
f 224/194/3 367/728/3 223/729/3
f 10/730/5 13/731/5 14/732/5
f 427/733/3 319/383/3 320/734/3
f 12/735/5 15/610/5 16/736/5
f 88/737/3 66/738/3 83/739/3
f 505/740/4 495/741/4 496/133/4
f 394/742/6 323/743/6 324/744/6
f 551/745/5 535/5/5 549/746/5
f 252/747/1 243/748/1 244/749/1
f 163/750/1 348/751/1 152/315/1
f 465/264/6 446/752/6 463/753/6
f 42/754/5 43/755/5 44/756/5
f 223/757/1 368/758/1 212/759/1
f 293/760/1 47/761/1 48/762/1
f 149/763/1 145/291/1 146/764/1
f 574/765/4 599/766/4 600/767/4
f 503/768/1 488/769/1 492/770/1
f 297/771/6 294/772/6 298/773/6
f 312/774/1 306/775/1 301/776/1
f 548/777/6 574/80/6 534/778/6
f 306/75/6 413/779/6 305/74/6
f 489/33/3 465/780/3 463/32/3
f 493/781/2 526/136/2 474/137/2
f 607/782/2 592/783/2 588/784/2
f 574/437/6 597/785/6 573/786/6
f 221/787/1 217/292/1 218/763/1
f 3/470/3 18/788/3 7/610/3
f 156/789/1 147/790/1 148/791/1
f 402/792/4 394/793/4 324/794/4
f 607/139/3 590/795/3 603/796/3
f 281/505/3 266/797/3 277/504/3
f 450/798/6 511/799/6 447/800/6
f 458/801/6 515/802/6 456/803/6
f 237/804/4 244/805/4 231/806/4
f 238/807/1 377/808/1 251/809/1
f 301/706/6 418/810/6 416/811/6
f 575/812/1 573/813/1 572/814/1
f 171/815/6 254/816/6 230/817/6
f 509/818/1 521/819/1 519/820/1
f 554/821/4 587/689/4 539/559/4
f 144/822/1 135/823/1 136/824/1
f 270/559/1 265/825/1 266/561/1
f 393/826/3 401/827/3 323/828/3
f 264/346/1 255/829/1 256/538/1
f 166/830/1 353/831/1 179/832/1
f 62/833/1 63/834/1 61/835/1
f 278/346/1 281/836/1 277/837/1
f 455/838/3 478/839/3 457/840/3
f 93/841/2 80/842/2 79/429/2
f 261/67/4 268/843/4 255/69/4
f 271/844/1 383/845/1 260/846/1
f 310/847/6 417/848/6 309/849/6
f 592/225/2 554/277/2 542/850/2
f 577/109/6 549/851/6 535/852/6
f 318/384/4 426/734/4 317/853/4
f 37/854/3 19/855/3 33/96/3
f 69/856/1 65/857/1 66/858/1
f 397/859/1 403/860/1 393/861/1
f 474/862/1 468/863/1 498/330/1
f 568/864/2 595/865/2 596/866/2
f 535/867/5 532/868/5 547/869/5
f 385/214/4 274/870/4 275/871/4
f 126/872/3 110/514/3 121/873/3
f 137/874/1 133/875/1 134/876/1
f 539/877/5 550/878/5 536/879/5
f 296/880/4 298/881/4 294/882/4
f 550/883/6 579/408/6 536/410/6
f 247/884/1 375/885/1 236/886/1
f 406/595/3 541/887/3 405/888/3
f 245/889/1 242/890/1 246/891/1
f 4/476/5 7/892/5 8/893/5
f 303/894/6 411/303/6 419/895/6
f 578/557/6 601/896/6 577/339/6
f 214/897/1 369/898/1 227/399/1
f 407/899/2 539/900/2 404/901/2
f 567/795/3 561/134/3 555/902/3
f 14/485/4 41/903/4 27/904/4
f 89/905/3 327/906/3 71/130/3
f 213/907/4 220/908/4 207/909/4
f 138/910/3 122/911/3 133/912/3
f 128/85/3 335/913/3 127/914/3
f 118/1/1 338/719/1 337/2/1
f 584/4/1 585/915/1 582/5/1
f 64/8/2 16/916/2 15/917/2
f 64/8/2 15/917/2 44/918/2
f 14/919/2 13/920/2 63/7/2
f 64/8/2 44/918/2 43/9/2
f 43/9/2 14/919/2 63/7/2
f 233/10/3 221/921/3 218/11/3
f 226/13/1 374/922/1 373/14/1
f 168/16/1 165/111/1 159/17/1
f 409/19/2 410/923/2 402/20/2
f 590/22/2 584/603/2 604/23/2
f 511/924/1 514/925/1 513/926/1
f 513/926/1 518/108/1 526/869/1
f 525/25/1 530/927/1 529/928/1
f 513/926/1 526/869/1 525/25/1
f 512/27/1 511/924/1 513/926/1
f 524/929/1 517/930/1 512/27/1
f 525/25/1 529/928/1 523/26/1
f 523/26/1 524/929/1 512/27/1
f 512/27/1 513/926/1 525/25/1
f 480/28/2 471/931/2 520/29/2
f 498/31/4 470/932/4 469/32/4
f 245/34/3 234/933/3 230/35/3
f 414/37/5 413/934/5 420/935/5
f 425/936/5 426/937/5 432/938/5
f 432/938/5 431/479/5 500/939/5
f 500/939/5 501/940/5 484/941/5
f 484/941/5 485/942/5 461/943/5
f 442/944/5 441/945/5 438/38/5
f 432/938/5 500/939/5 484/941/5
f 425/936/5 432/938/5 484/941/5
f 439/946/5 457/947/5 478/948/5
f 478/948/5 475/478/5 424/949/5
f 419/950/5 411/951/5 412/39/5
f 478/948/5 424/949/5 419/950/5
f 439/946/5 478/948/5 419/950/5
f 439/946/5 419/950/5 412/39/5
f 425/936/5 484/941/5 461/943/5
f 420/935/5 425/936/5 461/943/5
f 420/935/5 461/943/5 442/944/5
f 414/37/5 420/935/5 442/944/5
f 438/38/5 439/946/5 412/39/5
f 414/37/5 442/944/5 438/38/5
f 96/40/6 94/952/6 76/41/6
f 272/43/3 387/953/3 384/44/3
f 575/47/6 564/367/6 565/954/6
f 545/48/6 544/955/6 543/369/6
f 575/47/6 565/954/6 545/48/6
f 545/48/6 543/369/6 546/46/6
f 153/49/4 168/956/4 160/50/4
f 292/52/4 290/617/4 279/53/4
f 328/55/4 334/957/4 106/56/4
f 565/58/4 566/958/4 560/59/4
f 25/959/6 11/960/6 12/61/6
f 12/61/6 40/961/6 38/62/6
f 26/63/6 25/959/6 12/61/6
f 476/64/3 499/962/3 500/65/3
f 269/67/3 258/963/3 254/68/3
f 485/70/4 486/964/4 462/71/4
f 492/73/2 473/965/2 524/74/2
f 300/76/4 305/468/4 413/77/4
f 102/79/3 87/966/3 84/80/3
f 257/82/3 246/967/3 242/83/3
f 201/85/4 216/968/4 208/86/4
f 398/88/6 531/969/6 535/89/6
f 164/91/1 175/970/1 352/92/1
f 59/94/6 78/971/6 75/95/6
f 497/97/2 496/972/2 495/98/2
f 587/100/4 606/973/4 602/101/4
f 315/103/2 431/974/2 432/104/2
f 404/106/4 539/975/4 536/107/4
f 551/109/2 585/976/2 584/110/2
f 73/92/4 92/977/4 86/112/4
f 319/114/2 433/840/2 434/115/2
f 299/117/3 412/978/3 411/118/3
f 416/120/5 418/979/5 448/980/5
f 449/121/5 465/981/5 421/122/5
f 416/120/5 448/980/5 449/121/5
f 421/122/5 415/982/5 416/120/5
f 176/123/3 356/983/3 352/124/3
f 164/126/3 351/491/3 347/127/3
f 128/129/1 139/509/1 339/130/1
f 501/132/4 502/740/4 483/133/4
f 461/135/6 462/759/6 443/136/6
f 399/138/4 533/984/4 534/139/4
f 357/141/4 362/459/4 190/142/4
f 604/144/3 584/985/3 577/145/3
f 472/147/4 522/986/4 516/148/4
f 185/150/1 186/395/1 181/151/1
f 365/153/4 370/987/4 214/154/4
f 322/156/4 434/988/4 430/157/4
f 389/989/2 390/990/2 385/991/2
f 385/991/2 386/992/2 381/993/2
f 381/993/2 382/171/2 377/994/2
f 377/994/2 378/995/2 373/159/2
f 373/159/2 374/996/2 369/997/2
f 369/997/2 370/998/2 365/999/2
f 365/999/2 366/1000/2 361/1001/2
f 361/1001/2 362/1002/2 357/1003/2
f 357/1003/2 358/327/2 353/1004/2
f 353/1004/2 354/1005/2 349/1006/2
f 349/1006/2 350/201/2 345/1007/2
f 345/1007/2 346/1008/2 341/1009/2
f 341/1009/2 342/681/2 337/1010/2
f 337/1010/2 338/1011/2 333/160/2
f 333/160/2 334/1012/2 328/1013/2
f 328/1013/2 330/1014/2 329/1015/2
f 329/1015/2 327/1016/2 326/1017/2
f 325/1018/2 332/1019/2 331/1020/2
f 329/1015/7 326/1017/7 325/1018/7
f 333/160/8 328/1013/8 329/1015/8
f 345/1007/9 341/1009/9 337/1010/9
f 333/160/2 329/1015/2 325/1018/2
f 345/1007/10 337/1010/10 333/160/10
f 353/1004/2 349/1006/2 345/1007/2
f 361/1001/11 357/1003/11 353/1004/11
f 373/159/2 369/997/2 365/999/2
f 365/999/2 361/1001/2 353/1004/2
f 353/1004/2 345/1007/2 333/160/2
f 333/160/2 325/1018/2 331/1020/2
f 331/1020/2 336/830/2 335/1021/2
f 335/1021/2 340/1022/2 339/1023/2
f 339/1023/2 344/1024/2 343/1025/2
f 343/1025/2 348/1026/2 347/1027/2
f 347/1027/2 351/1028/2 352/161/2
f 352/161/2 356/527/2 355/1029/2
f 355/1029/2 360/1030/2 359/1031/2
f 359/1031/2 363/1032/2 364/1033/2
f 364/1033/2 368/1034/2 367/1035/2
f 367/1035/2 371/1036/2 372/1037/2
f 372/1037/2 375/1038/2 376/1039/2
f 376/1039/2 379/656/2 380/1040/2
f 380/1040/2 383/1041/2 384/1042/2
f 384/1042/2 387/1043/2 388/1044/2
f 388/1044/2 391/1045/2 392/1046/2
f 388/1044/2 392/1046/2 389/989/2
f 376/1039/2 380/1040/2 384/1042/2
f 384/1042/2 388/1044/2 389/989/2
f 385/991/2 381/993/2 377/994/2
f 384/1042/2 389/989/2 385/991/2
f 372/1037/2 376/1039/2 384/1042/2
f 364/1033/2 367/1035/2 372/1037/2
f 355/1029/2 359/1031/2 364/1033/2
f 343/1025/2 347/1027/2 352/161/2
f 352/161/2 355/1029/2 364/1033/2
f 364/1033/2 372/1037/2 384/1042/2
f 384/1042/2 385/991/2 377/994/2
f 373/159/2 365/999/2 353/1004/2
f 384/1042/2 377/994/2 373/159/2
f 352/161/2 364/1033/2 384/1042/2
f 339/1023/2 343/1025/2 352/161/2
f 333/160/2 331/1020/2 335/1021/2
f 335/1021/2 339/1023/2 352/161/2
f 352/161/2 384/1042/2 373/159/2
f 373/159/2 353/1004/2 333/160/2
f 333/160/2 335/1021/2 352/161/2
f 120/162/1 117/1047/1 111/163/1
f 113/165/1 114/1048/1 109/166/1
f 39/168/5 37/1049/5 33/169/5
f 437/171/6 440/1050/6 510/172/6
f 474/174/4 526/1051/4 518/175/4
f 593/177/2 605/57/2 606/55/2
f 490/179/2 489/385/2 488/180/2
f 174/182/1 173/338/1 169/183/1
f 410/185/1 408/1052/1 407/186/1
f 404/187/1 394/1053/1 410/185/1
f 188/188/3 360/1054/3 355/189/3
f 459/191/6 460/1055/6 516/65/6
f 260/192/3 383/1056/3 380/193/3
f 95/195/1 93/1057/1 94/196/1
f 312/198/2 317/1058/2 426/199/2
f 287/201/1 274/1059/1 390/202/1
f 291/204/3 282/1060/3 278/205/3
f 467/52/6 468/311/6 518/207/6
f 331/209/1 332/1061/1 104/210/1
f 381/212/4 386/1062/4 262/213/4
f 176/215/1 187/1063/1 355/216/1
f 563/218/3 564/1064/3 544/219/3
f 155/221/1 142/1065/1 346/222/1
f 150/224/3 137/1066/3 134/225/3
f 229/227/1 230/292/1 234/228/1
f 488/230/3 503/1067/3 504/231/3
f 202/233/1 366/1068/1 365/234/1
f 26/236/4 38/1069/4 36/237/4
f 132/239/1 129/714/1 123/240/1
f 424/242/3 311/1070/3 303/243/3
f 204/245/1 201/1071/1 195/246/1
f 264/247/4 256/765/4 243/248/4
f 334/250/1 333/1072/1 119/251/1
f 433/1073/5 427/1074/5 428/1075/5
f 428/1075/5 421/122/5 465/981/5
f 465/981/5 490/1076/5 487/1077/5
f 487/1077/5 504/1078/5 505/1079/5
f 496/1080/5 497/475/5 469/253/5
f 428/1075/5 465/981/5 487/1077/5
f 433/1073/5 428/1075/5 487/1077/5
f 452/1081/5 451/1082/5 448/980/5
f 418/979/5 417/1083/5 422/254/5
f 452/1081/5 448/980/5 418/979/5
f 433/1073/5 487/1077/5 505/1079/5
f 429/255/5 430/1084/5 434/1085/5
f 434/1085/5 433/1073/5 505/1079/5
f 434/1085/5 505/1079/5 496/1080/5
f 429/255/5 434/1085/5 496/1080/5
f 452/1081/5 418/979/5 422/254/5
f 429/255/5 496/1080/5 469/253/5
f 469/253/5 452/1081/5 422/254/5
f 303/256/1 323/584/1 297/257/1
f 297/257/1 300/1086/1 299/258/1
f 299/258/1 304/1087/1 303/256/1
f 448/259/3 445/1088/3 446/260/3
f 302/262/4 309/1089/4 417/263/4
f 377/265/4 382/492/4 250/266/4
f 1/268/5 5/1090/5 6/269/5
f 542/209/5 554/1091/5 539/271/5
f 152/200/3 348/1092/3 343/272/3
f 314/273/2 321/1093/2 430/274/2
f 161/276/1 162/1094/1 157/277/1
f 103/279/1 325/1095/1 326/280/1
f 310/282/4 314/1096/4 429/283/4
f 72/285/5 71/1097/5 327/286/5
f 248/288/3 379/1098/3 376/289/3
f 257/227/1 253/1099/1 254/291/1
f 532/293/3 531/1100/3 398/294/3
f 482/296/4 528/1101/4 521/297/4
f 361/299/4 366/90/4 202/300/4
f 329/302/4 330/1102/4 91/303/4
f 369/305/4 374/1103/4 226/306/4
f 574/308/1 580/710/1 579/309/1
f 236/311/3 375/76/3 372/312/3
f 345/314/4 350/750/4 154/315/4
f 546/317/4 534/671/4 574/318/4
f 313/320/2 428/1104/2 427/321/2
f 582/323/3 585/1105/3 551/324/3
f 594/328/2 595/865/2 570/1106/2
f 594/328/2 570/1106/2 567/1107/2
f 557/1108/2 558/1109/2 556/327/2
f 594/328/2 567/1107/2 555/326/2
f 555/326/2 557/1108/2 556/327/2
f 396/329/6 534/1110/6 532/330/6
f 323/332/3 295/1111/3 293/101/3
f 130/131/1 342/1112/1 341/334/1
f 178/335/1 358/1113/1 357/88/1
f 180/337/1 177/1114/1 171/338/1
f 117/339/4 132/896/4 124/340/4
f 441/342/6 444/1115/6 435/343/6
f 125/345/1 126/1116/1 121/346/1
f 557/307/5 555/1117/5 561/348/5
f 599/349/1 602/1118/1 606/555/1
f 605/1119/1 608/1120/1 607/1121/1
f 599/349/1 606/555/1 605/1119/1
f 597/1078/1 600/1122/1 599/349/1
f 604/1123/1 601/1124/1 598/351/1
f 598/351/1 597/1078/1 599/349/1
f 599/349/1 605/1119/1 607/1121/1
f 603/350/1 604/1123/1 598/351/1
f 599/349/1 607/1121/1 603/350/1
f 62/1125/4 82/1126/4 80/1127/4
f 80/1127/4 95/1128/4 96/1129/4
f 77/1130/4 78/1131/4 59/1132/4
f 80/1127/4 96/1129/4 77/1130/4
f 16/1133/4 64/1134/4 62/1125/4
f 62/1125/4 80/1127/4 77/1130/4
f 59/1132/4 60/1135/4 56/1136/4
f 62/1125/4 77/1130/4 59/1132/4
f 12/1137/4 16/1133/4 62/1125/4
f 40/1138/4 12/1137/4 62/1125/4
f 62/1125/4 59/1132/4 56/1136/4
f 50/352/4 74/1139/4 68/1140/4
f 40/1138/4 62/1125/4 56/1136/4
f 50/352/4 68/1140/4 4/353/4
f 40/1138/4 56/1136/4 50/352/4
f 4/353/4 8/1141/4 35/354/4
f 35/354/4 40/1138/4 50/352/4
f 436/631/1 437/630/1 458/1142/1
f 436/631/1 458/1142/1 456/1143/1
f 477/1144/1 455/1145/1 436/631/1
f 502/1146/1 499/1147/1 476/1148/1
f 477/1144/1 436/631/1 456/1143/1
f 471/1149/1 480/1150/1 479/1151/1
f 477/1144/1 456/1143/1 471/1149/1
f 476/1148/1 477/1144/1 471/1149/1
f 476/1148/1 471/1149/1 479/1151/1
f 462/357/1 486/1152/1 483/1153/1
f 435/629/1 444/1154/1 443/356/1
f 502/1146/1 476/1148/1 479/1151/1
f 482/1155/1 481/1156/1 472/1157/1
f 502/1146/1 479/1151/1 482/1155/1
f 483/1153/1 502/1146/1 482/1155/1
f 483/1153/1 482/1155/1 472/1157/1
f 440/1158/1 435/629/1 443/356/1
f 460/355/1 459/1159/1 440/1158/1
f 462/357/1 483/1153/1 472/1157/1
f 460/355/1 440/1158/1 443/356/1
f 462/357/1 472/1157/1 460/355/1
f 42/1160/3 44/1161/3 15/358/3
f 15/358/3 11/1012/3 25/359/3
f 28/360/3 42/1160/3 15/358/3
f 206/361/1 210/1162/1 209/362/1
f 18/364/6 31/1163/6 29/365/6
f 543/369/6 544/955/6 564/367/6
f 564/367/6 575/47/6 572/368/6
f 20/1164/2 6/1165/2 5/370/2
f 5/370/2 34/51/2 33/371/2
f 19/372/2 20/1164/2 5/370/2
f 9/375/6 10/1166/6 24/892/6
f 23/373/6 37/1167/6 39/374/6
f 9/375/6 24/892/6 23/373/6
f 213/1168/2 216/1169/2 201/1170/2
f 201/1170/2 204/1171/2 189/1172/2
f 189/1172/2 192/1173/2 177/1174/2
f 177/1174/2 180/1175/2 165/1176/2
f 165/1176/2 168/1177/2 153/1178/2
f 153/1178/2 156/1179/2 141/1180/2
f 141/1180/2 144/1181/2 129/1182/2
f 129/1182/2 132/1183/2 117/1184/2
f 117/1184/2 120/1185/2 105/425/2
f 106/1186/2 119/1187/2 118/1188/2
f 117/1184/2 105/425/2 106/1186/2
f 129/1182/2 117/1184/2 106/1186/2
f 118/1188/2 131/1189/2 130/1190/2
f 129/1182/2 106/1186/2 118/1188/2
f 165/1176/2 153/1178/2 141/1180/2
f 141/1180/2 129/1182/2 118/1188/2
f 130/1190/2 143/1191/2 142/1192/2
f 141/1180/2 118/1188/2 130/1190/2
f 177/1174/2 165/1176/2 141/1180/2
f 213/1168/2 201/1170/2 189/1172/2
f 213/1168/2 189/1172/2 177/1174/2
f 225/1193/2 228/1194/2 213/1168/2
f 237/1195/2 240/1196/2 225/1193/2
f 249/1197/2 252/1198/2 237/1195/2
f 261/1199/2 264/1200/2 249/1197/2
f 273/1201/2 276/1202/2 261/1199/2
f 285/1203/2 288/1204/2 273/1201/2
f 291/1205/2 292/1206/2 285/1203/2
f 270/1207/2 281/1208/2 282/1209/2
f 273/1201/2 261/1199/2 249/1197/2
f 237/1195/2 225/1193/2 213/1168/2
f 258/378/2 269/1210/2 270/1207/2
f 246/1211/2 257/1212/2 258/378/2
f 234/1213/2 245/1214/2 246/1211/2
f 221/1215/2 233/233/2 234/1213/2
f 210/1216/2 222/1217/2 221/1215/2
f 197/1218/2 209/270/2 210/1216/2
f 185/1219/2 198/1220/2 197/1218/2
f 174/1221/2 186/462/2 185/1219/2
f 161/1222/2 173/686/2 174/1221/2
f 149/1223/2 162/1224/2 161/1222/2
f 137/1225/2 150/1165/2 149/1223/2
f 125/1226/2 138/1227/2 137/1225/2
f 113/1228/2 126/522/2 125/1226/2
f 101/1229/2 114/1230/2 113/1228/2
f 87/1231/2 102/807/2 101/1229/2
f 69/1232/2 88/1233/2 87/1231/2
f 45/1234/2 70/1235/2 69/1232/2
f 48/1236/2 47/1237/2 46/1238/2
f 46/1238/2 45/1234/2 69/1232/2
f 46/1238/2 69/1232/2 87/1231/2
f 49/1239/2 48/1236/2 46/1238/2
f 74/1240/2 50/1241/2 49/1239/2
f 90/426/2 92/1242/2 73/1243/2
f 73/1243/2 74/1240/2 49/1239/2
f 46/1238/2 87/1231/2 101/1229/2
f 101/1229/6 113/1228/6 125/1226/6
f 137/1225/2 149/1223/2 161/1222/2
f 46/1238/2 101/1229/2 125/1226/2
f 125/1226/12 137/1225/12 161/1222/12
f 125/1226/2 161/1222/2 174/1221/2
f 73/1243/2 49/1239/2 46/1238/2
f 91/427/2 90/426/2 73/1243/2
f 72/1244/2 91/427/2 73/1243/2
f 185/1219/2 197/1218/2 210/1216/2
f 210/1216/2 221/1215/2 234/1213/2
f 234/1213/2 246/1211/2 258/378/2
f 174/1221/2 185/1219/2 210/1216/2
f 72/1244/2 73/1243/2 46/1238/2
f 71/1245/2 72/1244/2 46/1238/2
f 125/1226/2 174/1221/2 210/1216/2
f 141/1180/2 130/1190/2 142/1192/2
f 142/1192/2 155/1246/2 154/1247/2
f 154/1247/2 167/1248/2 166/1249/2
f 166/1249/2 179/1250/2 178/1251/2
f 178/1251/2 191/1252/2 190/1253/2
f 190/1253/2 203/1254/2 202/1255/2
f 202/1255/2 215/1256/2 214/1257/2
f 214/1257/2 227/1258/2 226/1259/2
f 226/1259/2 239/1260/2 238/1261/2
f 238/1261/2 251/1262/2 250/1263/2
f 250/1263/2 263/1264/2 262/1265/2
f 262/1265/2 275/1266/2 274/1267/2
f 274/1267/2 287/1268/2 286/1269/2
f 284/1270/2 283/1271/2 272/1272/2
f 262/1265/2 274/1267/2 286/1269/2
f 226/1259/2 238/1261/2 250/1263/2
f 202/1255/2 214/1257/2 226/1259/2
f 166/1249/2 178/1251/2 190/1253/2
f 166/1249/2 190/1253/2 202/1255/2
f 142/1192/6 154/1247/6 166/1249/6
f 89/1273/2 71/1245/2 46/1238/2
f 104/1274/2 103/1275/2 89/1273/2
f 116/1276/2 115/1277/2 104/1274/2
f 128/1278/2 127/1279/2 116/1276/2
f 140/1280/2 139/1281/2 128/1278/2
f 152/1282/2 151/1283/2 140/1280/2
f 164/1284/2 163/1285/2 152/1282/2
f 176/1286/2 175/1287/2 164/1284/2
f 188/1288/2 187/1289/2 176/1286/2
f 200/1290/2 199/1291/2 188/1288/2
f 212/1292/2 211/1293/2 200/1290/2
f 224/1294/2 223/1295/2 212/1292/2
f 236/1296/2 235/1297/2 224/1294/2
f 248/377/2 247/1298/2 236/1296/2
f 260/376/2 259/1299/2 248/377/2
f 272/1272/2 271/1300/2 260/376/2
f 284/1270/2 272/1272/2 260/376/2
f 248/377/2 236/1296/2 224/1294/2
f 224/1294/2 212/1292/2 200/1290/2
f 188/1288/2 176/1286/2 164/1284/2
f 200/1290/2 188/1288/2 164/1284/2
f 164/1284/6 152/1282/6 140/1280/6
f 128/1278/2 116/1276/2 104/1274/2
f 140/1280/8 128/1278/8 104/1274/8
f 89/1273/1 46/1238/1 125/1226/1
f 104/1274/2 89/1273/2 125/1226/2
f 141/1180/2 142/1192/2 166/1249/2
f 141/1180/2 166/1249/2 202/1255/2
f 177/1174/2 141/1180/2 202/1255/2
f 213/1168/2 177/1174/2 202/1255/2
f 213/1168/2 202/1255/2 226/1259/2
f 237/1195/2 213/1168/2 226/1259/2
f 140/1280/2 104/1274/2 125/1226/2
f 164/1284/2 140/1280/2 125/1226/2
f 237/1195/2 226/1259/2 250/1263/2
f 249/1197/2 237/1195/2 250/1263/2
f 249/1197/2 250/1263/2 262/1265/2
f 249/1197/2 262/1265/2 286/1269/2
f 273/1201/2 249/1197/2 286/1269/2
f 285/1203/2 273/1201/2 286/1269/2
f 164/1284/2 125/1226/2 210/1216/2
f 200/1290/2 164/1284/2 210/1216/2
f 291/1205/2 285/1203/2 286/1269/2
f 291/1205/2 286/1269/2 284/1270/2
f 282/1209/2 291/1205/2 284/1270/2
f 270/1207/2 282/1209/2 284/1270/2
f 224/1294/2 200/1290/2 210/1216/2
f 224/1294/2 210/1216/2 234/1213/2
f 270/1207/2 284/1270/2 260/376/2
f 248/377/2 224/1294/2 234/1213/2
f 258/378/2 270/1207/2 260/376/2
f 248/377/2 234/1213/2 258/378/2
f 38/379/5 40/1301/5 35/380/5
f 151/382/1 343/723/1 344/383/1
f 399/385/6 400/180/6 536/386/6
f 54/388/6 53/1302/6 324/389/6
f 571/391/4 568/472/4 557/392/4
f 192/394/1 189/1303/1 183/395/1
f 250/396/1 382/1304/1 381/397/1
f 262/399/1 386/898/1 385/400/1
f 407/402/4 408/1305/4 542/403/4
f 341/405/4 346/1306/4 142/406/4
f 228/408/1 225/645/1 219/409/1
f 198/110/1 193/111/1 194/16/1
f 216/412/1 213/501/1 207/413/1
f 189/415/4 204/921/4 196/11/4
f 307/417/6 308/1307/6 415/418/6
f 584/419/1 590/1308/1 588/420/1
f 558/422/5 542/1309/5 541/423/5
f 91/427/2 107/1310/2 106/1186/2
f 105/425/2 108/1311/2 90/426/2
f 91/427/2 106/1186/2 105/425/2
f 80/428/1 82/842/1 81/429/1
f 116/431/3 336/1312/3 331/432/3
f 534/434/5 546/1214/5 543/435/5
f 405/253/2 541/786/2 542/437/2
f 373/439/4 378/1313/4 238/440/4
f 107/442/1 91/1314/1 330/443/1
f 349/445/4 354/1315/4 166/446/4
f 451/448/6 454/1316/6 445/449/6
f 30/451/5 29/1317/5 31/452/5
f 485/454/2 484/722/2 483/189/2
f 101/456/1 102/1318/1 97/457/1
f 511/459/3 512/1319/3 466/123/3
f 105/460/4 120/339/4 112/341/4
f 259/462/1 380/1320/1 379/463/1
f 570/465/1 568/1321/1 571/44/1
f 571/44/1 569/220/1 567/466/1
f 406/467/2 403/312/2 538/76/2
f 2/471/4 6/1322/4 20/1323/4
f 17/469/4 29/1324/4 30/470/4
f 2/471/4 20/1323/4 17/469/4
f 92/472/1 90/167/1 85/473/1
f 573/475/3 597/1325/3 598/476/3
f 423/480/5 424/949/5 475/478/5
f 475/478/5 500/939/5 431/479/5
f 579/481/6 602/1326/6 599/482/6
f 8/486/2 7/1327/2 21/1328/2
f 22/484/2 36/1329/2 35/485/2
f 8/486/2 21/1328/2 22/484/2
f 586/487/1 587/1330/1 579/488/1
f 438/126/3 435/1331/3 436/490/3
f 140/289/3 344/1332/3 339/154/3
f 423/493/3 431/1333/3 315/494/3
f 141/23/4 156/528/4 148/495/4
f 592/497/4 542/1334/4 558/498/4
f 211/412/1 364/1335/1 363/500/1
f 209/85/3 197/914/3 194/502/3
f 288/503/4 280/1336/4 267/504/4
f 173/431/3 161/433/3 158/506/3
f 587/508/1 591/906/1 592/130/1
f 573/510/1 578/1337/1 577/511/1
f 114/513/3 101/1338/3 98/458/3
f 505/515/2 504/1339/2 503/516/2
f 127/518/1 335/871/1 336/494/1
f 587/520/2 586/1048/2 552/166/2
f 471/521/3 456/1340/3 515/149/3
f 283/522/1 388/1341/1 387/523/1
f 478/525/2 477/1342/2 476/526/2
f 104/528/3 332/1343/3 325/24/3
f 283/28/3 284/30/3 391/407/3
f 571/530/2 562/1160/2 561/98/2
f 538/29/5 553/1344/5 541/532/5
f 225/533/4 240/933/4 232/35/4
f 51/535/6 295/1345/6 323/536/6
f 108/347/1 105/346/1 99/538/1
f 21/540/5 18/1346/5 17/1347/5
f 20/1348/5 19/1349/5 23/1350/5
f 21/540/5 17/1347/5 20/1348/5
f 26/1351/5 22/1352/5 21/540/5
f 27/1353/5 28/1354/5 25/542/5
f 25/542/5 26/1351/5 21/540/5
f 21/540/5 20/1348/5 23/1350/5
f 24/541/5 27/1353/5 25/542/5
f 21/540/5 23/1350/5 24/541/5
f 534/543/5 533/1355/5 536/544/5
f 467/546/4 513/1356/4 514/547/4
f 588/550/1 592/1357/1 596/329/1
f 595/549/1 594/331/1 588/550/1
f 311/551/2 424/1358/2 423/552/2
f 53/554/3 54/1359/3 48/555/3
f 301/460/3 416/339/3 415/557/3
f 584/559/3 589/821/3 553/560/3
f 78/562/1 77/1360/1 76/21/1
f 333/564/4 338/1361/4 118/565/4
f 198/567/3 185/1362/3 182/568/3
f 167/455/1 154/1363/1 350/570/1
f 469/572/6 470/1364/6 453/573/6
f 235/575/1 372/1365/1 371/576/1
f 441/578/4 442/1366/4 443/212/4
f 165/579/4 180/1367/4 172/580/4
f 319/582/1 322/1368/1 324/583/1
f 222/585/3 210/1369/3 206/586/3
f 312/588/4 425/1370/4 420/589/4
f 552/591/4 586/1371/4 583/592/4
f 337/594/4 342/888/4 130/595/4
f 292/597/1 291/1372/1 289/592/1
f 60/599/1 59/1373/1 58/600/1
f 608/210/4 605/1374/4 593/164/4
f 129/603/4 144/23/4 136/496/4
f 523/605/3 529/535/3 491/606/3
f 74/608/1 73/1375/1 67/609/1
f 500/610/2 499/1376/2 502/611/2
f 90/613/4 108/1377/4 100/614/4
f 573/616/6 576/1378/6 547/617/6
f 231/619/1 232/1379/1 240/620/1
f 200/622/3 363/89/3 359/90/3
f 479/623/2 527/1380/2 528/624/2
f 547/626/3 576/670/3 577/627/3
f 435/629/1 440/1158/1 437/630/1
f 212/632/3 368/1381/3 364/633/3
f 428/635/3 313/1382/3 307/636/3
f 588/638/3 594/1334/3 556/639/3
f 199/136/1 359/1383/1 360/641/1
f 543/643/3 572/1384/3 573/644/3
f 564/646/1 563/348/1 566/306/1
f 186/648/3 174/802/3 170/649/3
f 55/1385/3 57/1386/3 58/1387/3
f 58/1387/3 75/1388/3 76/1389/3
f 76/1389/3 94/1390/3 93/1391/3
f 79/1392/3 81/1393/3 61/1394/3
f 76/1389/3 93/1391/3 79/1392/3
f 58/1387/3 76/1389/3 79/1392/3
f 61/1394/3 63/1395/3 13/1396/3
f 58/1387/3 79/1392/3 61/1394/3
f 55/1385/3 58/1387/3 61/1394/3
f 61/1394/3 13/1396/3 9/1397/3
f 61/1394/3 9/1397/3 39/1398/3
f 55/1385/3 61/1394/3 39/1398/3
f 34/652/3 5/1399/3 1/1400/3
f 55/1385/3 39/1398/3 34/652/3
f 65/653/3 70/1401/3 45/651/3
f 45/651/3 55/1385/3 34/652/3
f 34/652/3 1/1400/3 65/653/3
f 392/654/1 391/1402/1 284/655/1
f 494/657/2 491/1403/2 529/658/2
f 81/660/2 82/1404/2 62/661/2
f 451/663/4 452/1405/4 453/664/4
f 162/666/3 149/1406/3 146/667/3
f 579/669/4 580/1407/4 548/670/4
f 553/671/2 589/318/2 588/672/2
f 459/674/4 509/546/4 510/548/4
f 545/676/5 560/1408/5 559/677/5
f 494/679/4 530/1409/4 525/680/4
f 203/682/1 190/1410/1 362/141/1
f 55/685/1 45/1411/1 46/1412/1
f 52/1413/1 323/1414/1 401/1415/1
f 55/685/1 46/1412/1 52/1413/1
f 49/1416/1 50/1417/1 56/684/1
f 402/683/1 324/1418/1 53/1419/1
f 53/1419/1 49/1416/1 56/684/1
f 55/685/1 52/1413/1 401/1415/1
f 402/683/1 53/1419/1 56/684/1
f 55/685/1 401/1415/1 402/683/1
f 519/464/3 527/1420/3 479/686/3
f 267/688/1 268/559/1 276/689/1
f 524/174/3 473/1421/3 464/691/3
f 87/692/1 88/709/1 83/693/1
f 538/106/3 403/1422/3 397/695/3
f 466/45/6 512/43/6 517/696/6
f 559/698/6 560/1423/6 566/576/6
f 457/700/6 439/1026/6 436/701/6
f 177/703/4 192/1424/4 184/704/4
f 412/706/6 299/1425/6 300/707/6
f 51/709/4 52/1309/4 46/309/4
f 353/711/4 358/1426/4 178/712/4
f 288/714/1 285/1427/1 279/715/1
f 28/716/2 27/1428/2 41/717/2
f 507/719/3 508/1429/3 458/720/3
f 481/721/2 521/190/2 522/189/2
f 287/723/4 389/712/4 392/724/4
f 56/726/6 60/1430/6 57/8/6
f 224/194/3 371/193/3 367/728/3
f 10/730/5 9/1431/5 13/731/5
f 427/733/3 433/1432/3 319/383/3
f 12/735/5 11/1433/5 15/610/5
f 88/737/3 69/1434/3 66/738/3
f 505/740/4 506/1435/4 495/741/4
f 394/742/6 393/1436/6 323/743/6
f 551/745/5 538/915/5 535/5/5
f 252/747/1 249/814/1 243/748/1
f 163/750/1 347/1437/1 348/751/1
f 465/264/6 449/263/6 446/752/6
f 42/754/5 41/1438/5 43/755/5
f 223/757/1 367/1439/1 368/758/1
f 48/762/1 54/1440/1 296/1441/1
f 48/762/1 296/1441/1 294/1442/1
f 295/1443/1 51/1444/1 47/761/1
f 48/762/1 294/1442/1 293/760/1
f 293/760/1 295/1443/1 47/761/1
f 149/763/1 150/292/1 145/291/1
f 574/765/4 581/1445/4 599/766/4
f 492/770/1 491/1446/1 503/768/1
f 488/769/1 473/1447/1 492/770/1
f 297/771/6 293/365/6 294/772/6
f 318/1448/1 317/1449/1 312/774/1
f 306/775/1 305/1450/1 300/1086/1
f 300/1086/1 297/257/1 298/1451/1
f 324/583/1 322/1368/1 321/1452/1
f 324/583/1 321/1452/1 314/1453/1
f 306/775/1 300/1086/1 298/1451/1
f 298/1451/1 324/583/1 314/1453/1
f 310/1454/1 309/1455/1 302/1456/1
f 298/1451/1 314/1453/1 310/1454/1
f 311/1457/1 316/1458/1 315/1459/1
f 323/584/1 303/256/1 311/1457/1
f 320/1460/1 319/582/1 323/584/1
f 313/1461/1 320/1460/1 323/584/1
f 323/584/1 311/1457/1 315/1459/1
f 323/584/1 315/1459/1 318/1448/1
f 301/776/1 308/1462/1 307/1463/1
f 298/1451/1 310/1454/1 302/1456/1
f 298/1451/1 302/1456/1 301/776/1
f 313/1461/1 323/584/1 318/1448/1
f 307/1463/1 313/1461/1 318/1448/1
f 307/1463/1 318/1448/1 312/774/1
f 306/775/1 298/1451/1 301/776/1
f 301/776/1 307/1463/1 312/774/1
f 548/777/6 580/1464/6 574/80/6
f 306/75/6 420/1465/6 413/779/6
f 489/33/3 490/1466/3 465/780/3
f 493/781/2 525/642/2 526/136/2
f 607/782/2 608/1467/2 592/783/2
f 574/437/6 600/1468/6 597/785/6
f 221/787/1 222/228/1 217/292/1
f 3/470/3 32/1469/3 31/1470/3
f 18/788/3 21/1471/3 7/610/3
f 3/470/3 31/1470/3 18/788/3
f 156/789/1 153/738/1 147/790/1
f 402/792/4 410/1472/4 394/793/4
f 607/139/3 588/140/3 590/795/3
f 281/505/3 270/1473/3 266/797/3
f 450/798/6 514/448/6 511/799/6
f 458/801/6 508/1474/6 515/802/6
f 237/804/4 252/1475/4 244/805/4
f 238/807/1 378/1476/1 377/808/1
f 301/706/6 302/708/6 418/810/6
f 575/812/1 574/1477/1 573/813/1
f 85/1478/6 100/1479/6 99/1480/6
f 99/1480/6 112/1481/6 111/1482/6
f 111/1482/6 124/1483/6 123/1484/6
f 123/1484/6 136/1485/6 135/1486/6
f 135/1486/6 148/1487/6 147/1488/6
f 147/1488/6 160/1489/6 159/1490/6
f 159/1490/6 172/1491/6 171/815/6
f 171/815/6 184/1492/6 183/1493/6
f 183/1493/6 196/1494/6 195/1495/6
f 195/1495/6 208/1496/6 207/1497/6
f 207/1497/6 220/1498/6 219/1499/6
f 219/1499/6 232/1500/6 231/1501/6
f 231/1501/6 244/1502/6 243/1503/6
f 243/1503/6 256/1504/6 255/1505/6
f 255/1505/6 268/1506/6 267/1507/6
f 267/1507/6 280/1508/6 279/1509/6
f 279/1509/6 290/1510/6 289/1511/6
f 278/1512/6 277/1513/6 266/1514/6
f 279/1509/6 289/1511/6 278/1512/6
f 243/1503/6 255/1505/6 267/1507/6
f 267/1507/6 279/1509/6 278/1512/6
f 266/1514/6 265/1515/6 254/816/6
f 267/1507/6 278/1512/6 266/1514/6
f 231/1501/6 243/1503/6 267/1507/6
f 207/1497/6 219/1499/6 231/1501/6
f 183/1493/6 195/1495/6 207/1497/6
f 147/1488/6 159/1490/6 171/815/6
f 171/815/6 183/1493/6 207/1497/6
f 207/1497/6 231/1501/6 267/1507/6
f 267/1507/6 266/1514/6 254/816/6
f 254/816/6 253/1516/6 242/1517/6
f 242/1517/6 241/1518/6 230/817/6
f 230/817/6 229/1519/6 218/1520/6
f 218/1520/6 217/1521/6 206/1522/6
f 206/1522/6 205/1523/6 194/1524/6
f 194/1524/6 193/1525/6 182/1526/6
f 182/1526/6 181/1527/6 170/1528/6
f 170/1528/6 169/1529/6 158/1530/6
f 158/1530/6 157/1531/6 146/1532/6
f 146/1532/6 145/1533/6 134/1534/6
f 134/1534/6 133/1535/6 122/1536/6
f 122/1536/6 121/1537/6 110/1538/6
f 110/1538/6 109/1539/6 98/1540/6
f 98/1540/6 97/1541/6 84/1542/6
f 84/1542/6 83/1543/6 66/1544/6
f 66/1544/6 65/1545/6 1/1546/6
f 1/1546/6 2/1547/6 30/1548/6
f 32/1549/6 3/1550/6 4/1551/6
f 66/1544/6 1/1546/6 30/1548/6
f 32/1549/6 4/1551/6 68/1552/6
f 66/1544/6 30/1548/6 32/1549/6
f 84/1542/6 66/1544/6 32/1549/6
f 32/1549/6 68/1552/6 67/1553/6
f 67/1553/6 86/1554/6 85/1478/6
f 99/1480/2 111/1482/2 123/1484/2
f 32/1549/6 67/1553/6 85/1478/6
f 32/1549/6 85/1478/6 99/1480/6
f 98/1540/6 84/1542/6 32/1549/6
f 122/1536/2 110/1538/2 98/1540/2
f 158/1530/6 146/1532/6 134/1534/6
f 122/1536/6 98/1540/6 32/1549/6
f 158/1530/13 134/1534/13 122/1536/13
f 170/1528/6 158/1530/6 122/1536/6
f 122/1536/6 32/1549/6 99/1480/6
f 122/1536/6 99/1480/6 123/1484/6
f 170/1528/6 122/1536/6 123/1484/6
f 135/1486/6 147/1488/6 171/815/6
f 170/1528/6 123/1484/6 135/1486/6
f 206/1522/6 194/1524/6 182/1526/6
f 182/1526/6 170/1528/6 135/1486/6
f 171/815/6 207/1497/6 267/1507/6
f 182/1526/6 135/1486/6 171/815/6
f 230/817/6 218/1520/6 206/1522/6
f 206/1522/6 182/1526/6 171/815/6
f 171/815/6 267/1507/6 254/816/6
f 254/816/6 242/1517/6 230/817/6
f 230/817/6 206/1522/6 171/815/6
f 520/1555/1 515/1556/1 508/1557/1
f 508/1557/1 507/1558/1 510/1559/1
f 509/818/1 516/1560/1 522/1561/1
f 508/1557/1 510/1559/1 509/818/1
f 519/820/1 520/1555/1 508/1557/1
f 528/1562/1 527/1563/1 519/820/1
f 509/818/1 522/1561/1 521/819/1
f 521/819/1 528/1562/1 519/820/1
f 519/820/1 508/1557/1 509/818/1
f 554/821/4 591/1564/4 587/689/4
f 144/822/1 141/1565/1 135/823/1
f 270/559/1 269/688/1 265/825/1
f 393/826/3 409/1566/3 401/827/3
f 264/346/1 261/837/1 255/829/1
f 166/830/1 354/1567/1 353/831/1
f 62/833/1 64/1568/1 63/834/1
f 278/346/1 282/1116/1 281/836/1
f 455/838/3 477/1569/3 478/839/3
f 93/841/2 95/1570/2 80/842/2
f 261/67/4 276/1571/4 268/843/4
f 271/844/1 384/1572/1 383/845/1
f 310/847/6 422/1573/6 417/848/6
f 592/225/2 591/1094/2 554/277/2
f 577/109/6 582/498/6 549/851/6
f 318/384/4 432/383/4 426/734/4
f 37/854/3 23/1574/3 19/855/3
f 69/856/1 70/1575/1 65/857/1
f 400/1576/1 399/1577/1 396/1578/1
f 395/1579/1 398/1580/1 397/859/1
f 403/860/1 406/1581/1 405/1582/1
f 405/1582/1 408/1052/1 410/185/1
f 394/1053/1 404/187/1 400/1576/1
f 394/1053/1 400/1576/1 396/1578/1
f 405/1582/1 410/185/1 409/1583/1
f 403/860/1 405/1582/1 409/1583/1
f 393/861/1 394/1053/1 396/1578/1
f 393/861/1 396/1578/1 395/1579/1
f 403/860/1 409/1583/1 393/861/1
f 393/861/1 395/1579/1 397/859/1
f 468/863/1 467/1584/1 450/1585/1
f 447/1586/1 466/1587/1 464/1588/1
f 473/1447/1 488/769/1 489/1589/1
f 489/1589/1 463/1590/1 446/1591/1
f 446/1591/1 445/1592/1 454/1593/1
f 453/1594/1 470/284/1 498/330/1
f 464/1588/1 473/1447/1 489/1589/1
f 464/1588/1 489/1589/1 446/1591/1
f 495/1595/1 506/1596/1 503/768/1
f 503/768/1 491/1446/1 494/1597/1
f 494/1597/1 493/1598/1 474/862/1
f 495/1595/1 503/768/1 494/1597/1
f 447/1586/1 464/1588/1 446/1591/1
f 447/1586/1 446/1591/1 454/1593/1
f 450/1585/1 447/1586/1 454/1593/1
f 450/1585/1 454/1593/1 453/1594/1
f 495/1595/1 494/1597/1 474/862/1
f 468/863/1 450/1585/1 453/1594/1
f 498/330/1 495/1595/1 474/862/1
f 468/863/1 453/1594/1 498/330/1
f 558/1109/2 557/1108/2 568/864/2
f 568/864/2 570/1106/2 595/865/2
f 596/866/2 558/1109/2 568/864/2
f 535/867/5 531/1599/5 532/868/5
f 385/214/4 390/213/4 274/870/4
f 126/872/3 113/513/3 110/514/3
f 137/874/1 138/1600/1 133/875/1
f 539/877/5 552/1601/5 550/878/5
f 296/880/4 324/1602/4 298/881/4
f 550/883/6 583/166/6 579/408/6
f 247/884/1 376/49/1 375/885/1
f 406/595/3 537/1603/3 541/887/3
f 245/889/1 241/1604/1 242/890/1
f 4/476/5 3/1166/5 7/892/5
f 303/894/6 304/304/6 411/303/6
f 578/557/6 598/1605/6 601/896/6
f 214/897/1 370/1606/1 369/898/1
f 407/899/2 540/1607/2 539/900/2
f 567/795/3 569/140/3 561/134/3
f 24/1608/4 10/1609/4 14/485/4
f 14/485/4 43/1610/4 41/903/4
f 27/904/4 24/1608/4 14/485/4
f 89/905/3 326/1611/3 327/906/3
f 213/907/4 228/1612/4 220/908/4
f 138/910/3 125/1613/3 122/911/3
f 128/85/3 340/663/3 335/913/3
