# Blender 5.0.1
# www.blender.org
mtllib desk_6.mtl
o desk_6
v -4.000001 -0.000000 1.700001
v -3.300001 -0.000000 1.700001
v 3.300001 -0.000000 1.700001
v 4.000001 -0.000000 1.700001
v -4.000001 -0.000000 -2.000000
v -3.300001 -0.000000 -2.000000
v 3.300001 -0.000000 -2.000000
v 4.000001 -0.000000 -2.000000
v 3.300001 0.900000 1.700000
v -3.300001 0.900000 -0.700000
v -3.300001 0.900000 -2.000000
v 3.300001 0.900000 -2.000000
v 0.700000 0.900000 1.700001
v 0.700000 0.900000 -0.700000
v 0.700000 1.000000 -0.700000
v -3.300001 1.000000 -0.700000
v -3.300001 1.000000 -1.900000
v 0.700000 1.000000 -1.900000
v -3.300001 3.000000 1.600000
v 0.700000 3.000000 1.600000
v -3.200001 3.000000 1.600000
v -3.200001 3.000000 1.500000
v 0.600000 3.000000 1.600000
v 0.600000 3.000000 1.500000
v -3.300001 3.300000 -1.900000
v 0.700000 3.300000 -1.900000
v -3.300001 3.800001 1.600000
v -3.300001 3.800000 1.700000
v 0.700000 3.800001 1.600000
v 0.700000 3.800000 1.700000
v -3.200001 3.800001 1.500000
v -3.200001 3.800000 1.600000
v 0.600000 3.800001 1.500000
v 0.600000 3.800000 1.600000
v -4.000001 4.000000 1.700001
v 4.000001 4.000000 1.700001
v -4.000001 4.000000 -2.000000
v 4.000001 4.000000 -2.000000
v 1.200000 1.700000 1.800001
v 1.200000 1.700000 1.700000
v 1.200000 1.800000 1.700001
v 1.200000 1.800000 1.800000
v 1.100000 1.700000 1.800001
v 1.100000 1.700000 1.700000
v 1.100000 1.800000 1.700001
v 1.100000 1.800000 1.800000
v 1.200000 1.800000 1.900000
v 1.200000 1.900000 1.800000
v 1.200000 1.900000 1.900000
v 1.100000 1.900000 1.900000
v 1.100000 1.900000 1.800000
v 1.100000 1.800000 1.900000
v 1.000000 1.900000 1.800001
v 1.000000 1.900000 1.700000
v 1.100000 1.900000 1.700001
v 1.000000 1.800000 1.800001
v 1.000000 1.800000 1.700000
v 1.300000 1.800000 1.800001
v 1.300000 1.800000 1.700000
v 1.300000 1.900000 1.700000
v 1.300000 1.900000 1.800001
v 1.200000 1.900000 1.700001
v 1.200000 2.000000 1.700000
v 1.200000 2.000000 1.800001
v 1.100000 2.000000 1.800001
v 1.100000 2.000000 1.700000
v -3.300001 3.000000 1.400000
v 0.700000 3.000000 1.400000
v -3.300001 3.300000 1.400000
v 0.700000 3.300000 1.400000
v 1.700001 3.600000 1.900000
v 1.800000 3.600000 1.800000
v 1.700001 3.500000 1.900000
v 1.800000 3.500000 1.800000
v 2.200001 3.500000 1.800000
v 2.200001 3.600000 1.800000
v 2.300001 3.500000 1.900000
v 2.300001 3.600000 1.900000
v 1.800000 3.500000 1.700000
v 1.800000 3.600000 1.700000
v 1.700000 3.600000 1.700000
v 1.700000 3.500000 1.700000
v 2.300001 3.500000 1.700000
v 2.300001 3.600000 1.700000
v 2.200001 3.600000 1.700000
v 2.200001 3.500000 1.700000
vn -1.0000 -0.0000 -0.0000
vn -0.0000 -1.0000 -0.0000
vn -0.0000 1.0000 -0.0000
vn -0.0000 -0.0000 1.0000
vn 1.0000 -0.0000 -0.0000
vn -0.0000 -0.0000 -1.0000
vt 0.820513 0.730769
vt 0.826923 0.724359
vt 0.820513 0.724359
vt 0.256410 0.961538
vt 0.000000 0.750000
vt 0.000000 0.961538
vt 0.801282 0.724359
vt 0.807692 0.730769
vt 0.801282 0.730769
vt 0.826923 0.717949
vt 0.833333 0.724359
vt 0.006410 0.987179
vt 0.250000 0.987179
vt 0.000000 0.980769
vt 0.512821 0.512821
vt 0.000000 0.512821
vt 0.769231 0.153846
vt 0.512821 0.237179
vt 0.935897 0.237179
vt 0.788462 0.730769
vt 0.750000 0.730769
vt 0.782051 0.737179
vt 0.980769 0.750000
vt 0.743590 0.807692
vt 0.980769 0.807692
vt 0.493590 0.980769
vt 0.487179 0.987179
vt 0.743590 0.987179
vt 0.487179 0.993590
vt 0.788462 0.737179
vt 0.794872 0.743590
vt 0.788462 0.743590
vt 0.512821 0.493590
vt 0.750000 0.237179
vt 0.743590 0.974359
vt 0.487179 0.897436
vt 0.743590 0.897436
vt 0.371795 0.224359
vt 0.333333 0.128205
vt 0.467949 0.057692
vt 0.750000 0.750000
vt 0.750000 0.743590
vt 0.410256 0.756410
vt 0.256410 0.750000
vt 0.262821 0.884615
vt 0.788462 0.724359
vt 0.839744 0.717949
vt 0.833333 0.717949
vt 0.820513 0.743590
vt 0.814103 0.737179
vt 0.820513 0.737179
vt 0.487179 0.750000
vt 0.743590 0.750000
vt 0.826923 0.730769
vt 0.256410 0.980769
vt 0.750000 0.480769
vt 0.794872 0.717949
vt 0.794872 0.480769
vt 0.814103 0.730769
vt 0.839744 0.480769
vt 0.839744 0.634615
vt 0.846154 0.583333
vt 0.839744 0.583333
vt 0.814103 0.724359
vt 0.820513 0.717949
vt 0.814103 0.717949
vt 0.846154 0.532051
vt 0.846154 0.480769
vt 0.839744 0.532051
vt 0.512821 0.750000
vt 0.807692 0.743590
vt 0.807692 0.737179
vt 0.833333 0.737179
vt 0.826923 0.743590
vt 0.826923 0.737179
vt 0.833333 0.730769
vt 0.839744 0.730769
vt 0.846154 0.634615
vt 0.839744 0.685897
vt 0.044872 0.314103
vt 0.301282 0.057692
vt 0.326923 0.108974
vt 0.320513 0.115385
vt 0.788462 0.717949
vt 0.801282 0.743590
vt 0.801282 0.737179
vt 0.903846 0.301282
vt 0.980769 0.448718
vt 0.794872 0.737179
vt 0.807692 0.724359
vt 0.756410 0.724359
vt 0.750000 0.717949
vt 0.987179 0.807692
vt 0.743590 0.858974
vt 0.839744 0.724359
vt 0.006410 0.993590
vt 0.250000 0.993590
vt 0.256410 0.987179
vt 0.000000 0.987179
vt 0.935897 0.000000
vt 0.769231 0.000000
vt 0.512821 0.153846
vt 0.782051 0.743590
vt 0.756410 0.743590
vt 0.756410 0.737179
vt 0.737179 0.974359
vt 0.737179 0.980769
vt 0.493590 0.974359
vt 0.487179 0.974359
vt 0.743590 0.993590
vt 0.750000 0.493590
vt 0.512821 0.000000
vt 0.512821 0.256410
vt 0.403846 0.224359
vt 0.397436 0.224359
vt 0.371795 0.230769
vt 0.467949 0.000000
vt 0.339744 0.121795
vt 0.339744 0.115385
vt 0.333333 0.121795
vt 0.365385 0.224359
vt 0.326923 0.128205
vt 0.788462 0.750000
vt 0.275641 0.903846
vt 0.487179 0.903846
vt 0.487179 0.756410
vt 0.410256 0.750000
vt 0.275641 0.884615
vt 0.256410 0.935897
vt 0.262821 0.935897
vt 0.814103 0.743590
vt 0.833333 0.743590
vt 0.839744 0.737179
vt 0.846154 0.685897
vt 0.044872 0.256410
vt 0.000000 0.256410
vt 0.467949 0.256410
vt 0.467949 0.314103
vt 0.365385 0.230769
vt 0.397436 0.230769
vt 0.403846 0.230769
vt 0.000000 0.000000
vt 0.044872 0.000000
vt 0.044872 0.243590
vt 0.301282 0.243590
vt 0.320513 0.121795
vt 0.326923 0.121795
vt 0.326923 0.115385
vt 0.333333 0.115385
vt 0.333333 0.108974
vt 0.756410 0.480769
vt 0.987179 0.237179
vt 0.987179 0.294872
vt 0.903846 0.294872
vt 0.756410 0.429487
vt 0.769231 0.448718
vt 0.769231 0.429487
vt 0.980769 0.301282
vt 0.782051 0.730769
vt 0.782051 0.724359
vt 0.756410 0.730769
vt 0.987179 0.858974
s 0
usemtl desk_6_Material
f 65/1/1 55/2/1 51/3/1
f 26/4/2 69/5/2 25/6/2
f 53/7/3 55/8/3 54/9/3
f 51/10/4 64/11/4 65/2/4
f 32/12/2 34/13/2 28/14/2
f 36/15/3 37/5/3 35/16/3
f 14/17/2 11/18/2 12/19/2
f 77/20/2 73/21/2 75/22/2
f 7/23/1 9/24/1 12/25/1
f 22/26/2 67/27/2 68/28/2
f 14/28/4 16/29/4 10/27/4
f 48/30/3 60/31/3 62/32/3
f 35/33/1 5/34/1 1/18/1
f 18/35/3 16/36/3 15/37/3
f 79/38/4 63/39/4 9/40/4
f 77/32/4 71/41/4 73/42/4
f 15/43/1 13/44/1 20/45/1
f 81/9/1 73/46/1 71/20/1
f 49/47/3 51/11/3 50/48/3
f 63/49/5 48/50/5 62/51/5
f 26/37/4 17/52/4 18/53/4
f 39/54/4 46/51/4 43/1/4
f 68/4/6 69/14/6 70/55/6
f 1/56/2 6/57/2 2/58/2
f 59/1/5 61/50/5 58/59/5
f 3/58/2 8/47/2 4/60/2
f 34/61/1 24/62/1 23/63/1
f 53/64/1 57/65/1 56/66/1
f 32/67/4 19/60/4 21/68/4
f 22/67/5 32/63/5 21/69/5
f 4/33/5 38/41/5 36/70/5
f 44/71/2 39/50/2 43/72/2
f 42/73/5 49/74/5 47/75/5
f 83/9/5 78/30/5 77/20/5
f 76/75/1 86/76/1 75/54/1
f 46/3/4 53/59/4 56/64/4
f 46/73/2 47/77/2 52/76/2
f 64/10/3 66/3/3 65/65/3
f 20/78/4 34/79/4 23/61/4
f 37/16/6 38/15/6 11/80/6
f 13/81/4 44/82/4 57/83/4
f 74/84/6 76/64/6 75/66/6
f 79/11/5 72/54/5 74/2/5
f 58/72/4 48/85/4 42/86/4
f 2/34/5 16/87/5 25/88/5
f 47/75/4 50/49/4 52/51/4
f 56/9/2 45/72/2 46/8/2
f 42/89/2 59/85/2 58/86/2
f 41/59/5 39/90/5 40/64/5
f 72/91/3 71/92/3 78/84/3
f 24/93/4 31/94/4 22/24/4
f 50/76/1 46/95/1 52/11/1
f 45/50/1 43/8/1 46/72/1
f 65/1/1 66/54/1 55/2/1
f 26/4/2 70/44/2 69/5/2
f 53/7/3 51/90/3 55/8/3
f 51/10/4 48/48/4 64/11/4
f 32/12/2 31/96/2 33/97/2
f 34/13/2 29/98/2 30/55/2
f 32/12/2 33/97/2 34/13/2
f 28/14/2 27/99/2 32/12/2
f 34/13/2 30/55/2 28/14/2
f 36/15/3 38/70/3 37/5/3
f 12/19/2 9/100/2 13/101/2
f 14/17/2 10/102/2 11/18/2
f 12/19/2 13/101/2 14/17/2
f 86/103/2 83/32/2 77/20/2
f 73/21/2 82/42/2 79/104/2
f 73/21/2 79/104/2 74/105/2
f 75/22/2 86/103/2 77/20/2
f 73/21/2 74/105/2 75/22/2
f 7/23/1 3/53/1 9/24/1
f 68/28/2 20/35/2 23/106/2
f 68/28/2 23/106/2 24/107/2
f 21/108/2 19/109/2 67/27/2
f 68/28/2 24/107/2 22/26/2
f 22/26/2 21/108/2 67/27/2
f 14/28/4 15/110/4 16/29/4
f 48/30/3 61/89/3 60/31/3
f 35/33/1 37/111/1 5/34/1
f 18/35/3 17/109/3 16/36/3
f 4/112/4 36/113/4 83/114/4
f 86/115/4 80/116/4 79/38/4
f 4/112/4 83/114/4 86/115/4
f 9/40/4 3/117/4 4/112/4
f 60/118/4 59/119/4 9/40/4
f 63/39/4 62/120/4 60/118/4
f 82/121/4 66/122/4 63/39/4
f 4/112/4 86/115/4 79/38/4
f 79/38/4 82/121/4 63/39/4
f 63/39/4 60/118/4 9/40/4
f 9/40/4 4/112/4 79/38/4
f 77/32/4 78/123/4 71/41/4
f 70/124/1 26/125/1 18/126/1
f 15/43/1 14/127/1 13/44/1
f 70/124/1 18/126/1 15/43/1
f 68/128/1 70/124/1 15/43/1
f 13/44/1 30/129/1 29/130/1
f 20/45/1 68/128/1 15/43/1
f 13/44/1 29/130/1 20/45/1
f 81/9/1 82/7/1 73/46/1
f 49/47/3 48/95/3 51/11/3
f 63/49/5 64/131/5 48/50/5
f 26/37/4 25/36/4 17/52/4
f 39/54/4 42/75/4 46/51/4
f 68/4/6 67/6/6 69/14/6
f 1/56/2 5/92/2 6/57/2
f 59/1/5 60/51/5 61/50/5
f 3/58/2 7/57/2 8/47/2
f 34/61/1 33/78/1 24/62/1
f 53/64/1 54/3/1 57/65/1
f 32/67/4 27/69/4 19/60/4
f 22/67/5 31/62/5 32/63/5
f 4/33/5 8/111/5 38/41/5
f 44/71/2 40/131/2 39/50/2
f 42/73/5 48/132/5 49/74/5
f 83/9/5 84/86/5 78/30/5
f 76/75/1 85/73/1 86/76/1
f 46/3/4 51/1/4 53/59/4
f 46/73/2 42/133/2 47/77/2
f 64/10/3 63/2/3 66/3/3
f 20/78/4 29/134/4 34/79/4
f 6/135/6 5/136/6 37/16/6
f 38/15/6 8/113/6 7/137/6
f 38/15/6 7/137/6 12/138/6
f 11/80/6 6/135/6 37/16/6
f 38/15/6 12/138/6 11/80/6
f 66/122/4 82/121/4 81/139/4
f 80/116/4 86/115/4 85/140/4
f 84/141/4 83/114/4 36/113/4
f 35/136/4 1/142/4 2/143/4
f 35/136/4 2/143/4 28/144/4
f 85/140/4 84/141/4 36/113/4
f 80/116/4 85/140/4 36/113/4
f 36/113/4 35/136/4 28/144/4
f 36/113/4 28/144/4 30/145/4
f 81/139/4 80/116/4 36/113/4
f 54/146/4 55/147/4 66/122/4
f 81/139/4 36/113/4 30/145/4
f 54/146/4 66/122/4 81/139/4
f 44/82/4 45/148/4 57/83/4
f 54/146/4 81/139/4 30/145/4
f 57/83/4 54/146/4 30/145/4
f 13/81/4 9/40/4 59/119/4
f 59/119/4 41/149/4 40/150/4
f 13/81/4 59/119/4 40/150/4
f 57/83/4 30/145/4 13/81/4
f 13/81/4 40/150/4 44/82/4
f 74/84/6 72/46/6 76/64/6
f 79/11/5 80/76/5 72/54/5
f 58/72/4 61/71/4 48/85/4
f 27/151/5 28/56/5 2/34/5
f 2/34/5 6/152/5 11/153/5
f 2/34/5 11/153/5 10/154/5
f 19/155/5 27/151/5 2/34/5
f 25/88/5 69/156/5 67/157/5
f 67/157/5 19/155/5 2/34/5
f 2/34/5 10/154/5 16/87/5
f 16/87/5 17/158/5 25/88/5
f 25/88/5 67/157/5 2/34/5
f 47/75/4 49/74/4 50/49/4
f 56/9/2 57/86/2 45/72/2
f 42/89/2 41/31/2 59/85/2
f 41/59/5 42/8/5 39/90/5
f 78/84/3 84/20/3 85/159/3
f 78/84/3 85/159/3 76/160/3
f 80/161/3 81/21/3 71/92/3
f 78/84/3 76/160/3 72/91/3
f 72/91/3 80/161/3 71/92/3
f 24/93/4 33/162/4 31/94/4
f 50/76/1 51/77/1 46/95/1
f 45/50/1 44/59/1 43/8/1
