# Blender 5.0.1
# www.blender.org
mtllib rug-door_2.mtl
o rug-door_2
v -0.500000 0.100000 1.500000
v -0.500000 0.100000 1.400000
v -0.500000 -0.000000 1.500000
v -0.500000 -0.000000 1.400000
v -0.800000 0.100000 1.400000
v -0.800000 0.100000 1.300000
v -0.800000 -0.000000 1.400000
v -0.800000 -0.000000 1.300000
v -1.000000 0.100000 1.300000
v -1.000000 0.100000 1.200000
v -1.000000 -0.000000 1.300000
v -1.000000 -0.000000 1.200000
v -1.200000 0.100000 1.200000
v -1.200000 0.100000 1.100000
v -1.200000 -0.000000 1.200000
v -1.200000 -0.000000 1.100000
v -1.300000 0.100000 1.100000
v -1.300000 0.100000 1.000000
v -1.300000 -0.000000 1.100000
v -1.300000 -0.000000 1.000000
v -1.400000 0.100000 1.000000
v -1.400000 0.100000 0.900000
v -1.400000 -0.000000 1.000000
v -1.400000 -0.000000 0.900000
v -1.500000 0.100000 0.900000
v -1.500000 0.100000 0.800000
v -1.500000 -0.000000 0.900000
v -1.500000 -0.000000 0.800000
v -1.600000 0.100000 0.800000
v -1.600000 -0.000000 0.800000
v -1.600000 0.100000 0.600000
v -1.600000 -0.000000 0.600000
v -1.700001 0.100000 0.600000
v -1.700001 -0.000000 0.600000
v -1.700000 0.100000 0.400000
v -1.700000 -0.000000 0.400000
v -1.800001 0.100000 0.400000
v -1.800001 -0.000000 0.400000
v -1.700000 -0.000000 -0.400000
v -1.700000 0.100000 -0.400000
v -1.800001 0.100000 -0.400000
v -1.800001 -0.000000 -0.400000
v -1.600000 -0.000000 -0.600000
v -1.600000 0.100000 -0.600000
v -1.700001 0.100000 -0.600000
v -1.700001 -0.000000 -0.600000
v -1.500000 -0.000000 -0.800000
v -1.500000 0.100000 -0.800000
v -1.600000 0.100000 -0.800000
v -1.600000 -0.000000 -0.800000
v -1.400000 -0.000000 -0.900000
v -1.400000 0.100000 -0.900000
v -1.500000 0.100000 -0.900000
v -1.500000 -0.000000 -0.900000
v -1.300000 -0.000000 -1.000000
v -1.300000 0.100000 -1.000000
v -1.400000 0.100000 -1.000000
v -1.400000 -0.000000 -1.000000
v -1.200000 -0.000000 -1.100000
v -1.200000 0.100000 -1.100000
v -1.300000 0.100000 -1.100000
v -1.300000 -0.000000 -1.100000
v -1.200000 0.100000 -1.200000
v -1.200000 -0.000000 -1.200000
v -1.000000 -0.000000 -1.200000
v -1.000000 0.100000 -1.200000
v -1.000000 0.100000 -1.300000
v -1.000000 -0.000000 -1.300000
v -0.800000 -0.000000 -1.300000
v -0.800000 0.100000 -1.300000
v -0.800000 0.100000 -1.400000
v -0.800000 -0.000000 -1.400000
v -0.500000 -0.000000 -1.400000
v -0.500000 0.100000 -1.400000
v -0.500000 0.100000 -1.500000
v -0.500000 -0.000000 -1.500000
v 0.500000 -0.000000 1.500000
v 0.500000 -0.000000 1.400000
v 0.500000 0.100000 1.400000
v 0.500000 0.100000 1.500000
v 0.800000 -0.000000 1.400000
v 0.800000 -0.000000 1.300000
v 0.800000 0.100000 1.300000
v 0.800000 0.100000 1.400000
v 1.000000 -0.000000 1.300000
v 1.000000 -0.000000 1.200000
v 1.000000 0.100000 1.200000
v 1.000000 0.100000 1.300000
v 1.200000 -0.000000 1.200000
v 1.200000 -0.000000 1.100000
v 1.200000 0.100000 1.100000
v 1.200000 0.100000 1.200000
v 1.300000 -0.000000 1.100000
v 1.300000 -0.000000 1.000000
v 1.300000 0.100000 1.000000
v 1.300000 0.100000 1.100000
v 1.400000 -0.000000 1.000000
v 1.400000 -0.000000 0.900000
v 1.400000 0.100000 0.900000
v 1.400000 0.100000 1.000000
v 1.500000 -0.000000 0.900000
v 1.500000 -0.000000 0.800000
v 1.500000 0.100000 0.800000
v 1.500000 0.100000 0.900000
v 1.600000 -0.000000 0.800000
v 1.600000 0.100000 0.800000
v 1.600000 -0.000000 0.600000
v 1.600000 0.100000 0.600000
v 1.700001 -0.000000 0.600000
v 1.700001 0.100000 0.600000
v 1.700000 -0.000000 0.400000
v 1.700000 0.100000 0.400000
v 1.800001 -0.000000 0.400000
v 1.800001 0.100000 0.400000
v 1.700000 0.100000 -0.400000
v 1.700000 -0.000000 -0.400000
v 1.800001 -0.000000 -0.400000
v 1.800001 0.100000 -0.400000
v 1.600000 0.100000 -0.600000
v 1.600000 -0.000000 -0.600000
v 1.700001 -0.000000 -0.600000
v 1.700001 0.100000 -0.600000
v 1.500000 0.100000 -0.800000
v 1.500000 -0.000000 -0.800000
v 1.600000 -0.000000 -0.800000
v 1.600000 0.100000 -0.800000
v 1.400000 0.100000 -0.900000
v 1.400000 -0.000000 -0.900000
v 1.500000 -0.000000 -0.900000
v 1.500000 0.100000 -0.900000
v 1.300000 0.100000 -1.000000
v 1.300000 -0.000000 -1.000000
v 1.400000 -0.000000 -1.000000
v 1.400000 0.100000 -1.000000
v 1.200000 0.100000 -1.100000
v 1.200000 -0.000000 -1.100000
v 1.300000 -0.000000 -1.100000
v 1.300000 0.100000 -1.100000
v 1.000000 0.100000 -1.200000
v 1.000000 -0.000000 -1.200000
v 1.200000 -0.000000 -1.200000
v 1.200000 0.100000 -1.200000
v 0.800000 0.100000 -1.300000
v 0.800000 -0.000000 -1.300000
v 1.000000 -0.000000 -1.300000
v 1.000000 0.100000 -1.300000
v 0.500000 0.100000 -1.400000
v 0.500000 -0.000000 -1.400000
v 0.800000 -0.000000 -1.400000
v 0.800000 0.100000 -1.400000
v 0.500000 -0.000000 -1.500000
v 0.500000 0.100000 -1.500000
vn -0.0000 -0.0000 -1.0000
vn 1.0000 -0.0000 -0.0000
vn -0.0000 -0.0000 1.0000
vn -1.0000 -0.0000 -0.0000
vn -0.0000 1.0000 -0.0000
vn -0.0000 -1.0000 -0.0000
vt 0.543860 0.000000
vt 0.561404 0.017544
vt 0.561404 0.000000
vt 0.017544 0.578947
vt 0.000000 0.596491
vt 0.000000 0.578947
vt 0.140351 0.526316
vt 0.000000 0.543860
vt 0.000000 0.526316
vt 0.087719 0.035088
vt 0.052632 0.052632
vt 0.052632 0.035088
vt 0.000000 0.035088
vt 0.017544 0.543860
vt 0.000000 0.561404
vt 0.035088 0.578947
vt 0.017544 0.596491
vt 0.035088 0.473684
vt 0.070175 0.491228
vt 0.070175 0.473684
vt 0.105263 0.017544
vt 0.122807 0.035088
vt 0.122807 0.017544
vt 0.000000 0.456140
vt 0.000000 0.473684
vt 0.035088 0.491228
vt 0.000000 0.508772
vt 0.000000 0.491228
vt 0.298246 0.543860
vt 0.315789 0.561404
vt 0.315789 0.543860
vt 0.070175 0.578947
vt 0.087719 0.596491
vt 0.087719 0.578947
vt 0.245614 0.578947
vt 0.228070 0.596491
vt 0.228070 0.578947
vt 0.087719 0.543860
vt 0.105263 0.561404
vt 0.105263 0.543860
vt 0.280702 0.578947
vt 0.263158 0.596491
vt 0.263158 0.578947
vt 0.140351 0.473684
vt 0.070175 0.421053
vt 0.035088 0.157895
vt 0.245614 0.561404
vt 0.263158 0.543860
vt 0.245614 0.543860
vt 0.157895 0.561404
vt 0.140351 0.578947
vt 0.140351 0.561404
vt 0.298246 0.578947
vt 0.315789 0.596491
vt 0.315789 0.578947
vt 0.140351 0.017544
vt 0.000000 0.000000
vt 0.000000 0.017544
vt 0.578947 0.438596
vt 0.561404 0.456140
vt 0.561404 0.438596
vt 0.280702 0.561404
vt 0.280702 0.543860
vt 0.543860 0.035088
vt 0.543860 0.017544
vt 0.263158 0.561404
vt 0.508772 0.035088
vt 0.508772 0.017544
vt 0.087719 0.017544
vt 0.052632 0.017544
vt 0.070175 0.035088
vt 0.333333 0.543860
vt 0.350877 0.561404
vt 0.350877 0.543860
vt 0.035088 0.543860
vt 0.017544 0.561404
vt 0.228070 0.561404
vt 0.228070 0.543860
vt 0.035088 0.456140
vt 0.000000 0.438596
vt 0.105263 0.578947
vt 0.122807 0.596491
vt 0.122807 0.578947
vt 0.561404 0.087719
vt 0.578947 0.070175
vt 0.561404 0.070175
vt 0.210526 0.596491
vt 0.210526 0.578947
vt 0.000000 0.122807
vt 0.017544 0.105263
vt 0.000000 0.105263
vt 0.561404 0.052632
vt 0.578947 0.035088
vt 0.561404 0.035088
vt 0.052632 0.421053
vt 0.035088 0.438596
vt 0.035088 0.421053
vt 0.210526 0.561404
vt 0.210526 0.543860
vt 0.052632 0.578947
vt 0.035088 0.596491
vt 0.578947 0.000000
vt 0.280702 0.596491
vt 0.017544 0.122807
vt 0.000000 0.140351
vt 0.368421 0.561404
vt 0.385965 0.543860
vt 0.368421 0.543860
vt 0.157895 0.000000
vt 0.140351 0.000000
vt 0.000000 0.403509
vt 0.000000 0.421053
vt 0.192982 0.543860
vt 0.175439 0.561404
vt 0.175439 0.543860
vt 0.070175 0.070175
vt 0.052632 0.087719
vt 0.052632 0.070175
vt 0.350877 0.526316
vt 0.175439 0.526316
vt 0.491228 0.000000
vt 0.456140 0.017544
vt 0.456140 0.000000
vt 0.175439 0.508772
vt 0.035088 0.508772
vt 0.578947 0.017544
vt 0.122807 0.561404
vt 0.140351 0.543860
vt 0.122807 0.543860
vt 0.070175 0.561404
vt 0.070175 0.543860
vt 0.052632 0.561404
vt 0.052632 0.543860
vt 0.192982 0.578947
vt 0.175439 0.596491
vt 0.175439 0.578947
vt 0.508772 0.000000
vt 0.105263 0.473684
vt 0.017544 0.368421
vt 0.000000 0.385965
vt 0.000000 0.368421
vt 0.403509 0.526316
vt 0.385965 0.526316
vt 0.421053 0.543860
vt 0.421053 0.526316
vt 0.122807 0.491228
vt 0.140351 0.508772
vt 0.140351 0.491228
vt 0.894737 0.894737
vt 0.894737 0.543860
vt 0.578947 0.473684
vt 0.526316 0.052632
vt 0.526316 0.035088
vt 0.070175 0.456140
vt 0.000000 0.087719
vt 0.052632 0.105263
vt 0.368421 0.526316
vt 0.403509 0.543860
vt 0.000000 0.070175
vt 0.157895 0.596491
vt 0.157895 0.578947
vt 0.087719 0.052632
vt 0.000000 0.052632
vt 0.105263 0.035088
vt 0.298246 0.561404
vt 0.070175 0.596491
vt 0.245614 0.596491
vt 0.087719 0.561404
vt 0.578947 0.122807
vt 0.596491 0.122807
vt 0.596491 0.157895
vt 0.614035 0.157895
vt 0.614035 0.192982
vt 0.631579 0.192982
vt 0.631579 0.333333
vt 0.614035 0.333333
vt 0.614035 0.368421
vt 0.596491 0.368421
vt 0.596491 0.403509
vt 0.578947 0.403509
vt 0.561404 0.105263
vt 0.578947 0.105263
vt 0.578947 0.421053
vt 0.561404 0.421053
vt 0.543860 0.087719
vt 0.543860 0.438596
vt 0.526316 0.070175
vt 0.543860 0.070175
vt 0.543860 0.456140
vt 0.526316 0.456140
vt 0.491228 0.052632
vt 0.526316 0.473684
vt 0.491228 0.473684
vt 0.456140 0.035088
vt 0.491228 0.035088
vt 0.491228 0.491228
vt 0.456140 0.491228
vt 0.403509 0.017544
vt 0.456140 0.508772
vt 0.403509 0.508772
vt 0.228070 0.000000
vt 0.403509 0.000000
vt 0.228070 0.526316
vt 0.228070 0.017544
vt 0.175439 0.035088
vt 0.175439 0.017544
vt 0.140351 0.052632
vt 0.140351 0.035088
vt 0.105263 0.070175
vt 0.105263 0.052632
vt 0.087719 0.087719
vt 0.087719 0.070175
vt 0.070175 0.105263
vt 0.070175 0.087719
vt 0.052632 0.122807
vt 0.035088 0.122807
vt 0.017544 0.192982
vt 0.017544 0.157895
vt 0.000000 0.333333
vt 0.000000 0.192982
vt 0.035088 0.368421
vt 0.017544 0.333333
vt 0.052632 0.403509
vt 0.035088 0.403509
vt 0.228070 0.508772
vt 0.175439 0.491228
vt 0.105263 0.456140
vt 0.087719 0.456140
vt 0.087719 0.438596
vt 0.070175 0.438596
vt 0.298246 0.596491
vt 0.578947 0.456140
vt 0.070175 0.052632
vt 0.333333 0.561404
vt 0.035088 0.561404
vt 0.105263 0.596491
vt 0.578947 0.087719
vt 0.578947 0.052632
vt 0.052632 0.438596
vt 0.052632 0.596491
vt 0.017544 0.140351
vt 0.140351 0.596491
vt 0.385965 0.561404
vt 0.157895 0.017544
vt 0.192982 0.561404
vt 0.491228 0.017544
vt 0.070175 0.508772
vt 0.192982 0.596491
vt 0.105263 0.491228
vt 0.017544 0.385965
vt 0.122807 0.508772
vt 0.385965 0.824561
vt 0.385965 0.859649
vt 0.403509 0.859649
vt 0.403509 0.877193
vt 0.421053 0.877193
vt 0.421053 0.894737
vt 0.438596 0.894737
vt 0.438596 0.912281
vt 0.456140 0.912281
vt 0.456140 0.929825
vt 0.491228 0.929825
vt 0.491228 0.947368
vt 0.526316 0.947368
vt 0.526316 0.964912
vt 0.578947 0.964912
vt 0.578947 0.982456
vt 0.754386 0.982456
vt 0.754386 0.964912
vt 0.807018 0.964912
vt 0.807018 0.947368
vt 0.368421 0.789474
vt 0.368421 0.824561
vt 0.842105 0.947368
vt 0.842105 0.929825
vt 0.877193 0.929825
vt 0.877193 0.912281
vt 0.894737 0.912281
vt 0.912281 0.894737
vt 0.912281 0.877193
vt 0.929825 0.877193
vt 0.929825 0.859649
vt 0.947368 0.859649
vt 0.947368 0.824561
vt 0.964912 0.824561
vt 0.964912 0.789474
vt 0.982456 0.789474
vt 0.982456 0.649123
vt 0.964912 0.649123
vt 0.964912 0.614035
vt 0.947368 0.614035
vt 0.947368 0.578947
vt 0.929825 0.578947
vt 0.350877 0.649123
vt 0.350877 0.789474
vt 0.929825 0.561404
vt 0.912281 0.561404
vt 0.368421 0.649123
vt 0.385965 0.614035
vt 0.368421 0.614035
vt 0.403509 0.578947
vt 0.385965 0.578947
vt 0.421053 0.561404
vt 0.403509 0.561404
vt 0.438596 0.543860
vt 0.456140 0.526316
vt 0.438596 0.526316
vt 0.491228 0.508772
vt 0.526316 0.491228
vt 0.754386 0.456140
vt 0.807018 0.491228
vt 0.807018 0.473684
vt 0.754386 0.473684
vt 0.842105 0.508772
vt 0.842105 0.491228
vt 0.877193 0.526316
vt 0.877193 0.508772
vt 0.894737 0.526316
vt 0.912281 0.543860
vt 0.543860 0.052632
s 0
usemtl rug-door_2_Material
f 62/1/1 60/2/1 59/3/1
f 98/4/2 100/5/2 97/6/2
f 117/7/2 114/8/2 113/9/2
f 12/10/3 13/11/3 15/12/3
f 72/13/1 74/11/1 73/12/1
f 86/14/2 88/15/2 85/8/2
f 97/16/3 95/17/3 94/4/3
f 64/18/1 66/19/1 65/20/1
f 116/21/1 118/22/1 117/23/1
f 49/18/4 43/24/4 44/25/4
f 111/26/2 110/27/2 109/28/2
f 50/29/1 48/30/1 47/31/1
f 128/32/1 130/33/1 129/34/1
f 24/35/3 25/36/3 27/37/3
f 136/38/1 138/39/1 137/40/1
f 78/41/2 80/42/2 77/43/2
f 66/44/5 52/45/5 31/46/5
f 21/47/4 24/48/4 23/49/4
f 94/50/2 96/51/2 93/52/2
f 124/53/1 126/54/1 125/55/1
f 41/56/4 38/57/4 37/58/4
f 90/59/2 92/60/2 89/61/2
f 28/29/3 29/62/3 30/63/3
f 66/64/4 68/2/4 65/65/4
f 20/63/3 21/66/3 23/48/3
f 125/65/2 119/67/2 120/68/2
f 8/69/3 9/12/3 11/70/3
f 13/11/4 16/71/4 15/12/4
f 58/72/1 56/73/1 55/74/1
f 93/75/3 91/76/3 90/14/3
f 17/77/4 20/49/4 19/78/4
f 35/79/4 34/80/4 33/24/4
f 132/81/1 134/82/1 133/83/1
f 70/84/4 72/85/4 69/86/4
f 1/87/4 4/37/4 3/88/4
f 9/89/4 12/90/4 11/91/4
f 60/92/4 64/93/4 59/94/4
f 4/70/3 5/13/3 7/58/3
f 109/95/3 108/96/3 107/97/3
f 5/98/4 8/78/4 7/99/4
f 101/100/3 99/101/3 98/16/3
f 74/2/4 76/102/4 73/3/4
f 105/53/3 103/103/3 102/41/3
f 16/104/3 17/105/3 19/89/3
f 133/81/2 127/33/2 128/34/2
f 137/51/2 131/82/2 132/83/2
f 56/106/4 62/107/4 55/108/4
f 32/109/3 33/56/3 34/110/3
f 52/73/4 58/108/4 51/74/4
f 31/97/4 30/111/4 29/112/4
f 102/113/2 104/114/2 101/115/2
f 113/116/3 112/117/3 111/118/3
f 75/115/1 151/119/1 76/120/1
f 89/121/3 87/122/3 86/123/3
f 77/124/3 1/9/3 3/27/3
f 107/19/2 106/125/2 105/26/2
f 82/126/2 84/94/2 81/2/2
f 54/35/1 52/42/1 51/43/1
f 25/127/4 28/128/4 27/129/4
f 129/38/2 123/130/2 124/131/2
f 120/75/1 122/132/1 121/133/1
f 151/134/2 147/135/2 148/136/2
f 121/1/2 115/68/2 116/137/2
f 145/129/2 139/39/2 140/40/2
f 85/138/3 83/19/3 82/20/3
f 36/139/3 37/140/3 38/141/3
f 141/142/2 135/107/2 136/143/2
f 46/142/1 44/144/1 43/145/1
f 68/25/1 70/26/1 69/18/1
f 42/146/1 40/147/1 39/148/1
f 132/149/6 94/150/6 4/151/6
f 48/152/4 54/64/4 47/153/4
f 45/154/4 39/96/4 40/79/4
f 148/155/1 150/156/1 149/117/1
f 140/157/1 142/158/1 141/142/1
f 81/118/3 79/155/3 78/159/3
f 149/136/2 143/160/2 144/161/2
f 144/128/1 146/114/1 145/115/1
f 62/1/1 61/65/1 60/2/1
f 98/4/2 99/17/2 100/5/2
f 117/7/2 118/128/2 114/8/2
f 12/10/3 10/162/3 13/11/3
f 72/13/1 71/163/1 74/11/1
f 86/14/2 87/76/2 88/15/2
f 97/16/3 100/101/3 95/17/3
f 64/18/1 63/26/1 66/19/1
f 116/21/1 115/164/1 118/22/1
f 49/18/4 50/79/4 43/24/4
f 111/26/2 112/125/2 110/27/2
f 50/29/1 49/165/1 48/30/1
f 128/32/1 127/166/1 130/33/1
f 24/35/3 22/167/3 25/36/3
f 136/38/1 135/168/1 138/39/1
f 78/41/2 79/103/2 80/42/2
f 103/169/5 106/170/5 108/171/5
f 108/171/5 110/172/5 112/173/5
f 112/173/5 114/174/5 118/175/5
f 115/176/5 122/177/5 119/178/5
f 112/173/5 118/175/5 115/176/5
f 108/171/5 112/173/5 115/176/5
f 119/178/5 126/179/5 123/180/5
f 108/171/5 115/176/5 119/178/5
f 99/181/5 104/182/5 103/169/5
f 103/169/5 108/171/5 119/178/5
f 123/180/5 130/183/5 127/184/5
f 103/169/5 119/178/5 123/180/5
f 95/185/5 100/84/5 99/181/5
f 99/181/5 103/169/5 123/180/5
f 127/184/5 134/61/5 131/186/5
f 99/181/5 123/180/5 127/184/5
f 91/187/5 96/188/5 95/185/5
f 95/185/5 99/181/5 127/184/5
f 131/186/5 138/189/5 135/190/5
f 95/185/5 127/184/5 131/186/5
f 87/191/5 92/152/5 91/187/5
f 91/187/5 95/185/5 131/186/5
f 135/190/5 142/192/5 139/193/5
f 91/187/5 131/186/5 135/190/5
f 83/194/5 88/195/5 87/191/5
f 87/191/5 91/187/5 135/190/5
f 139/193/5 146/196/5 143/197/5
f 87/191/5 135/190/5 139/193/5
f 79/198/5 84/122/5 83/194/5
f 83/194/5 87/191/5 139/193/5
f 143/197/5 150/199/5 147/200/5
f 83/194/5 139/193/5 143/197/5
f 1/201/5 80/202/5 79/198/5
f 79/198/5 83/194/5 143/197/5
f 147/200/5 152/142/5 75/203/5
f 79/198/5 143/197/5 147/200/5
f 2/204/5 1/201/5 79/198/5
f 6/205/5 5/206/5 2/204/5
f 10/207/5 9/208/5 6/205/5
f 14/209/5 13/210/5 10/207/5
f 18/211/5 17/212/5 14/209/5
f 22/213/5 21/214/5 18/211/5
f 26/215/5 25/156/5 22/213/5
f 31/46/5 29/216/5 26/215/5
f 35/217/5 33/218/5 31/46/5
f 41/219/5 37/220/5 35/217/5
f 44/221/5 45/139/5 40/222/5
f 40/222/5 41/219/5 35/217/5
f 31/46/5 26/215/5 22/213/5
f 40/222/5 35/217/5 31/46/5
f 48/223/5 49/224/5 44/221/5
f 44/221/5 40/222/5 31/46/5
f 31/46/5 22/213/5 18/211/5
f 18/211/5 14/209/5 10/207/5
f 10/207/5 6/205/5 2/204/5
f 2/204/5 79/198/5 147/200/5
f 147/200/5 75/203/5 74/225/5
f 74/225/5 71/124/5 70/226/5
f 70/226/5 67/148/5 66/44/5
f 66/44/5 63/138/5 60/227/5
f 60/227/5 61/228/5 56/229/5
f 56/229/5 57/230/5 52/45/5
f 52/45/5 53/95/5 48/223/5
f 48/223/5 44/221/5 31/46/5
f 31/46/5 18/211/5 10/207/5
f 10/207/5 2/204/5 147/200/5
f 147/200/5 74/225/5 70/226/5
f 66/44/5 60/227/5 56/229/5
f 147/200/5 70/226/5 66/44/5
f 31/46/5 10/207/5 147/200/5
f 52/45/5 48/223/5 31/46/5
f 66/44/5 56/229/5 52/45/5
f 31/46/5 147/200/5 66/44/5
f 21/47/4 22/66/4 24/48/4
f 94/50/2 95/161/2 96/51/2
f 124/53/1 123/231/1 126/54/1
f 41/56/4 42/110/4 38/57/4
f 90/59/2 91/232/2 92/60/2
f 28/29/3 26/165/3 29/62/3
f 66/64/4 67/94/4 68/2/4
f 20/63/3 18/62/3 21/66/3
f 125/65/2 126/64/2 119/67/2
f 8/69/3 6/10/3 9/12/3
f 13/11/4 14/233/4 16/71/4
f 58/72/1 57/234/1 56/73/1
f 93/75/3 96/235/3 91/76/3
f 17/77/4 18/47/4 20/49/4
f 35/79/4 36/96/4 34/80/4
f 132/81/1 131/236/1 134/82/1
f 70/84/4 71/237/4 72/85/4
f 1/87/4 2/36/4 4/37/4
f 9/89/4 10/104/4 12/90/4
f 60/92/4 63/238/4 64/93/4
f 4/70/3 2/12/3 5/13/3
f 109/95/3 110/239/3 108/96/3
f 5/98/4 6/77/4 8/78/4
f 101/100/3 104/240/3 99/101/3
f 74/2/4 75/126/4 76/102/4
f 105/53/3 106/231/3 103/103/3
f 16/104/3 14/241/3 17/105/3
f 133/81/2 134/236/2 127/33/2
f 137/51/2 138/242/2 131/82/2
f 56/106/4 61/243/4 62/107/4
f 32/109/3 31/244/3 33/56/3
f 52/73/4 57/106/4 58/108/4
f 31/97/4 32/224/4 30/111/4
f 102/113/2 103/245/2 104/114/2
f 113/116/3 114/214/3 112/117/3
f 75/115/1 152/74/1 151/119/1
f 89/121/3 92/246/3 87/122/3
f 77/124/3 80/120/3 1/9/3
f 107/19/2 108/247/2 106/125/2
f 82/126/2 83/93/2 84/94/2
f 54/35/1 53/167/1 52/42/1
f 25/127/4 26/52/4 28/128/4
f 129/38/2 130/168/2 123/130/2
f 120/75/1 119/235/1 122/132/1
f 151/134/2 152/248/2 147/135/2
f 121/1/2 122/65/2 115/68/2
f 145/129/2 146/127/2 139/39/2
f 85/138/3 88/249/3 83/19/3
f 36/139/3 35/250/3 37/140/3
f 141/142/2 142/158/2 135/107/2
f 46/142/1 45/158/1 44/144/1
f 68/25/1 67/28/1 70/26/1
f 42/146/1 41/251/1 40/147/1
f 43/252/6 50/253/6 47/254/6
f 47/254/6 54/255/6 51/256/6
f 51/256/6 58/257/6 55/258/6
f 55/258/6 62/259/6 59/260/6
f 59/260/6 64/261/6 65/262/6
f 65/262/6 68/263/6 69/264/6
f 69/264/6 72/265/6 73/266/6
f 73/266/6 76/267/6 151/268/6
f 148/269/6 149/270/6 144/271/6
f 73/266/6 151/268/6 148/269/6
f 65/262/6 69/264/6 73/266/6
f 55/258/6 59/260/6 65/262/6
f 47/254/6 51/256/6 55/258/6
f 39/272/6 46/273/6 43/252/6
f 43/252/6 47/254/6 55/258/6
f 55/258/6 65/262/6 73/266/6
f 73/266/6 148/269/6 144/271/6
f 144/271/6 145/274/6 140/275/6
f 140/275/6 141/276/6 136/277/6
f 136/277/6 137/278/6 132/149/6
f 132/149/6 133/279/6 128/280/6
f 128/280/6 129/281/6 124/282/6
f 124/282/6 125/283/6 120/284/6
f 120/284/6 121/285/6 116/286/6
f 116/286/6 117/287/6 113/288/6
f 111/289/6 109/290/6 107/291/6
f 116/286/6 113/288/6 111/289/6
f 128/280/6 124/282/6 120/284/6
f 120/284/6 116/286/6 111/289/6
f 107/291/6 105/292/6 102/293/6
f 120/284/6 111/289/6 107/291/6
f 132/149/6 128/280/6 120/284/6
f 140/275/6 136/277/6 132/149/6
f 73/266/6 144/271/6 140/275/6
f 43/252/6 55/258/6 73/266/6
f 38/294/6 42/295/6 39/272/6
f 39/272/6 43/252/6 73/266/6
f 73/266/6 140/275/6 132/149/6
f 132/149/6 120/284/6 107/291/6
f 102/293/6 101/296/6 98/297/6
f 132/149/6 107/291/6 102/293/6
f 39/272/6 73/266/6 132/149/6
f 36/298/6 38/294/6 39/272/6
f 32/299/6 34/300/6 36/298/6
f 28/301/6 30/302/6 32/299/6
f 24/303/6 27/304/6 28/301/6
f 20/305/6 23/144/6 24/303/6
f 16/306/6 19/307/6 20/305/6
f 12/308/6 15/199/6 16/306/6
f 8/309/6 11/196/6 12/308/6
f 4/151/6 7/192/6 8/309/6
f 77/310/6 3/232/6 4/151/6
f 82/311/6 81/312/6 78/313/6
f 78/313/6 77/310/6 4/151/6
f 4/151/6 8/309/6 12/308/6
f 12/308/6 16/306/6 20/305/6
f 20/305/6 24/303/6 28/301/6
f 32/299/6 36/298/6 39/272/6
f 20/305/6 28/301/6 32/299/6
f 4/151/6 12/308/6 20/305/6
f 82/311/6 78/313/6 4/151/6
f 86/314/6 85/315/6 82/311/6
f 90/316/6 89/317/6 86/314/6
f 94/150/6 93/318/6 90/316/6
f 98/297/6 97/319/6 94/150/6
f 132/149/6 102/293/6 98/297/6
f 32/299/6 39/272/6 132/149/6
f 4/151/6 20/305/6 32/299/6
f 86/314/6 82/311/6 4/151/6
f 94/150/6 90/316/6 86/314/6
f 132/149/6 98/297/6 94/150/6
f 4/151/6 32/299/6 132/149/6
f 94/150/6 86/314/6 4/151/6
f 48/152/4 53/320/4 54/64/4
f 45/154/4 46/230/4 39/96/4
f 148/155/1 147/91/1 150/156/1
f 140/157/1 139/108/1 142/158/1
f 81/118/3 84/117/3 79/155/3
f 149/136/2 150/135/2 143/160/2
f 144/128/1 143/52/1 146/114/1
