# Blender 5.0.1
# www.blender.org
mtllib Wall_100_5.mtl
o Wall_100_5
v -2.000000 -0.000001 -1.300000
v 2.000000 -0.000001 -1.300000
v -2.000000 -0.000001 -2.000000
v 2.000000 -0.000001 -2.000000
v -2.000000 10.000001 -1.300000
v 2.000000 10.000001 -1.300000
v -2.000000 10.000001 -2.000000
v 2.000000 10.000001 -2.000000
vn -0.0000 -0.0000 -1.0000
vn 1.0000 -0.0000 -0.0000
vn -0.0000 -0.0000 1.0000
vn -0.0000 1.0000 -0.0000
vn -0.0000 -1.0000 -0.0000
vn -1.0000 -0.0000 -0.0000
vt 0.370370 0.925926
vt 0.740741 0.000000
vt 0.370370 0.000000
vt 0.870370 0.000000
vt 0.805556 0.925926
vt 0.805556 0.000000
vt 0.000000 0.925926
vt 0.000000 0.000000
vt 0.740741 0.990741
vt 0.370370 0.990741
vt 0.000000 0.990741
vt 0.740741 0.925926
vt 0.870370 0.925926
s 0
usemtl Wall_100_5_Material
f 7/1/1 4/2/1 3/3/1
f 4/4/2 6/5/2 2/6/2
f 2/3/3 5/7/3 1/8/3
f 5/1/4 8/9/4 7/10/4
f 4/10/5 1/7/5 3/11/5
f 1/2/6 7/5/6 3/6/6
f 7/1/1 8/12/1 4/2/1
f 4/4/2 8/13/2 6/5/2
f 2/3/3 6/1/3 5/7/3
f 5/1/4 6/12/4 8/9/4
f 4/10/5 2/1/5 1/7/5
f 1/2/6 5/12/6 7/5/6
