# Blender 5.0.1
# www.blender.org
mtllib Tv-with-meja_4.mtl
o Tv-with-meja_4
v -4.000001 -0.000001 2.000000
v 4.000001 -0.000001 2.000000
v -4.000001 -0.000001 -2.000000
v 4.000001 -0.000001 -2.000000
v -3.500001 0.299999 2.000000
v -0.100000 0.299999 1.900000
v 3.200001 0.299999 1.900000
v 3.500001 0.299999 2.000000
v -3.200001 0.299999 1.800000
v -1.300000 0.299999 1.800000
v -1.200000 0.299999 1.800000
v -0.300000 0.299999 1.800000
v 3.200001 0.299999 0.800000
v -1.200000 0.299999 0.700000
v -0.300000 0.299999 0.700000
v 2.300001 0.299999 0.800000
v -3.200001 0.299999 -1.500000
v -1.300000 0.299999 -1.500000
v -0.100000 0.299999 -1.900000
v 2.300001 0.299999 -1.900000
v -3.500001 0.299999 -2.000000
v 3.500001 0.299999 -2.000000
v -3.500001 1.799999 2.000000
v 3.500001 1.799999 2.000000
v -3.500001 1.799999 -2.000000
v 3.500001 1.799999 -2.000000
v -0.100000 1.799999 1.900000
v 2.300001 1.799999 1.900000
v -0.100000 1.799999 -1.900000
v 2.300001 1.799999 -1.900000
v -4.000001 2.099999 2.000000
v 4.000001 2.099999 2.000000
v -3.100001 2.099999 0.300000
v -2.700001 2.099999 0.300000
v 2.700001 2.099999 0.300000
v 3.100001 2.099999 0.300000
v -2.700001 2.099999 0.100000
v 2.700001 2.099999 0.100000
v -2.800001 2.099999 0.100000
v 2.800001 2.099999 0.100000
v -2.800001 2.099999 -0.100000
v -2.700001 2.099999 -0.100000
v 2.700001 2.099999 -0.100000
v 2.800001 2.099999 -0.100000
v -3.100001 2.099999 -0.200000
v -2.700001 2.099999 -0.200000
v 2.700001 2.099999 -0.200000
v 3.100001 2.099999 -0.200000
v -3.100001 2.099999 -0.600000
v -2.900001 2.099999 -0.600000
v 2.900001 2.099999 -0.600000
v 3.100001 2.099999 -0.600000
v -2.900001 2.099999 -0.700000
v -2.700001 2.099999 -0.700000
v 2.700001 2.099999 -0.700000
v 2.900001 2.099999 -0.700000
v -3.100001 2.099999 -1.000000
v -2.700001 2.099999 -1.000000
v 2.700001 2.099999 -1.000000
v 3.100001 2.099999 -1.000000
v -4.000001 2.099999 -2.000000
v 4.000001 2.099999 -2.000000
v 2.300001 1.199999 1.900000
v 2.300001 1.199999 0.800000
v -3.100001 0.699999 1.700001
v -3.100001 0.799999 1.700001
v -2.100000 0.799999 1.700001
v -2.100000 0.699999 1.700001
v 3.200001 1.199999 1.900000
v 3.200001 1.199999 0.800000
v -3.100001 0.699999 1.800000
v -2.100000 0.699999 1.800000
v -3.100001 0.799999 1.800000
v -2.100000 0.799999 1.800000
v -3.200001 0.899999 1.800001
v -1.300000 0.899999 1.800001
v -3.200001 0.899999 -1.500000
v -1.300000 0.899999 -1.500000
v -1.200000 0.899999 1.800001
v -0.300000 0.899999 1.800001
v -1.200000 0.899999 0.700000
v -0.300000 0.899999 0.700000
v -3.100001 2.199999 0.300000
v -3.100001 2.200000 0.200000
v -2.800001 2.200000 0.200000
v -2.700001 2.199999 0.300000
v 2.700001 2.199999 0.300000
v 2.800001 2.200000 0.200000
v 3.100001 2.200000 0.200000
v 3.100001 2.199999 0.300000
v -2.700001 2.199999 0.100000
v -2.800001 2.200000 0.100000
v 2.800001 2.200000 0.100000
v 2.700001 2.199999 0.100000
v -3.100001 2.200000 -0.100000
v 3.100001 2.200000 -0.100000
v -3.100001 2.199999 -0.200000
v -2.900001 2.200000 -0.200000
v -2.900001 2.199999 -0.100000
v 2.900001 2.200000 -0.200000
v 2.900001 2.199999 -0.100000
v 3.100001 2.199999 -0.200000
v -2.900001 2.199999 -0.700000
v -2.900001 2.200000 -0.600000
v 2.900001 2.199999 -0.700000
v 2.900001 2.200000 -0.600000
v -2.700001 2.200000 -0.800000
v -2.700001 2.200000 -0.700000
v 2.700001 2.200000 -0.800000
v 2.700001 2.200000 -0.700000
v -3.100001 2.200000 -0.900000
v -2.800001 2.199999 -0.800000
v -2.800001 2.200000 -0.900000
v 2.800001 2.200000 -0.900000
v 2.800001 2.199999 -0.800000
v 3.100001 2.200000 -0.900000
v -3.000001 2.200000 -1.000000
v -3.100001 2.199999 -1.000000
v -3.000001 2.199999 -0.900000
v -2.900001 2.200000 -1.000000
v -2.900001 2.199999 -0.900000
v -2.700001 2.199999 -1.000000
v 2.700001 2.199999 -1.000000
v 2.900001 2.200000 -1.000000
v 2.900001 2.199999 -0.900000
v 3.000001 2.200000 -1.000000
v 3.100001 2.199999 -1.000000
v 3.000001 2.199999 -0.900000
v -3.100001 2.299999 0.200000
v -3.100001 2.300000 0.100000
v -2.900001 2.300000 0.100000
v -2.800001 2.299999 0.100000
v -2.800001 2.299999 0.200000
v 2.800001 2.299999 0.200000
v 2.800001 2.299999 0.100000
v 2.900001 2.300000 0.100000
v 3.100001 2.300000 0.100000
v 3.100001 2.299999 0.200000
v -3.100001 2.300000 0.000000
v -2.800001 2.299999 0.000000
v -2.900001 2.299999 0.000000
v 2.800001 2.299999 0.000000
v 2.900001 2.299999 0.000000
v 3.100001 2.300000 0.000000
v -3.000001 2.299999 -0.100000
v -3.100001 2.299999 -0.100000
v -3.000001 2.299999 0.000000
v -2.900001 2.299999 -0.100000
v -2.800001 2.299999 -0.100000
v 2.800001 2.299999 -0.100000
v 3.000001 2.299999 -0.100000
v 2.900001 2.299999 -0.100000
v 3.100001 2.299999 -0.100000
v 3.000001 2.299999 0.000000
v -2.900001 2.299999 -0.200000
v -2.700001 2.300000 -0.200000
v -2.700001 2.300000 -0.100000
v 2.700001 2.300000 -0.200000
v 2.700001 2.300000 -0.100000
v 2.900001 2.299999 -0.200000
v -3.100001 2.299999 -0.600000
v -3.000001 2.300000 -0.700000
v -2.900001 2.299999 -0.700000
v -2.900001 2.300000 -0.600000
v -2.700001 2.199999 -0.600000
v -2.700001 2.300000 -0.700000
v 2.700001 2.199999 -0.600000
v 2.700001 2.300000 -0.700000
v 2.900001 2.300000 -0.600000
v 2.900001 2.299999 -0.700000
v 3.000001 2.300000 -0.700000
v 3.100001 2.299999 -0.600000
v -2.700001 2.299999 -0.800000
v -2.800001 2.299999 -0.800000
v -2.800001 2.299999 -0.700000
v 2.800001 2.299999 -0.800000
v 2.700001 2.299999 -0.800000
v 2.800001 2.299999 -0.700000
v -3.000001 2.299999 -0.900000
v -3.100001 2.299999 -0.900000
v -2.800001 2.299999 -0.900000
v -2.900001 2.299999 -0.900000
v -2.900001 2.299999 -0.800000
v 2.900001 2.299999 -0.900000
v 2.800001 2.299999 -0.900000
v 2.900001 2.299999 -0.800000
v 3.100001 2.299999 -0.900000
v 3.000001 2.299999 -0.900000
v -2.900001 2.299999 -1.000000
v -3.000001 2.299999 -1.000000
v 3.000001 2.299999 -1.000000
v 2.900001 2.299999 -1.000000
v -3.000001 2.400000 0.000000
v -3.100001 2.400000 0.000000
v -3.100001 2.400000 0.100000
v -2.900001 2.400000 0.000000
v -2.900001 2.400000 0.100000
v -2.700001 2.299999 0.100000
v -2.700001 2.400000 0.000000
v -2.700001 2.400000 0.100000
v -2.800001 2.400000 0.100000
v -2.800001 2.400000 0.000000
v 2.800001 2.400000 0.000000
v 2.800001 2.400000 0.100000
v 2.700001 2.400000 0.100000
v 2.700001 2.400000 0.000000
v 2.700001 2.299999 0.100000
v 2.900001 2.400000 0.100000
v 2.900001 2.400000 0.000000
v 3.000001 2.400000 0.000000
v 3.100001 2.400000 0.000000
v 3.100001 2.400000 0.100000
v -3.000001 2.400000 -0.100000
v 3.000001 2.400000 -0.100000
v -2.900001 2.400000 -0.200000
v -3.000001 2.400000 -0.200000
v -3.000001 2.299999 -0.200000
v -2.900001 2.400000 -0.100000
v 3.000001 2.299999 -0.200000
v 3.000001 2.400000 -0.200000
v 2.900001 2.400000 -0.200000
v 2.900001 2.400000 -0.100000
v -2.900001 2.400000 -0.300000
v -2.900001 2.299999 -0.300000
v -2.700001 2.299999 -0.300000
v -2.700001 2.400000 -0.300000
v 2.700001 2.400000 -0.300000
v 2.700001 2.299999 -0.300000
v 2.900001 2.299999 -0.300000
v 2.900001 2.400000 -0.300000
v -2.900001 2.400000 -0.700000
v -2.900001 2.400000 -0.600000
v -2.700001 2.400000 -0.700000
v -2.700001 2.400000 -0.600000
v -2.800001 2.400000 -0.700000
v 2.800001 2.400000 -0.700000
v 2.700001 2.400000 -0.700000
v 2.700001 2.400000 -0.600000
v 2.900001 2.400000 -0.700000
v 2.900001 2.400000 -0.600000
v -3.000001 2.400000 -0.700000
v -2.900001 2.400000 -0.800000
v -2.800001 2.400000 -0.800000
v 2.900001 2.400000 -0.800000
v 2.800001 2.400000 -0.800000
v 3.000001 2.400000 -0.700000
v -2.900001 2.400000 -0.900000
v -3.000001 2.400000 -0.900000
v 3.000001 2.400000 -0.900000
v 2.900001 2.400000 -0.900000
v -2.900001 2.500000 -0.100000
v -3.000001 2.500000 -0.100000
v -3.000001 2.500000 0.000000
v -2.600001 2.400000 0.000000
v -2.600001 2.500000 -0.100000
v -2.600001 2.500000 0.000000
v 2.600001 2.500000 0.000000
v 2.600001 2.500000 -0.100000
v 2.600001 2.400000 0.000000
v 2.900001 2.500000 -0.100000
v 3.000001 2.500000 -0.100000
v 3.000001 2.500000 0.000000
v -2.600001 2.500000 -0.200000
v 2.600001 2.500000 -0.200000
v -2.700001 2.400000 -0.500000
v -2.600001 2.400000 -0.500000
v -2.600001 2.500000 -0.500000
v -2.700001 2.500000 -0.500000
v 2.700001 2.400000 -0.500000
v 2.700001 2.500000 -0.500000
v 2.600001 2.500000 -0.500000
v 2.600001 2.400000 -0.500000
v -2.900001 2.500000 -0.600000
v 2.900001 2.500000 -0.600000
v -2.900001 2.500000 -0.700000
v -2.700001 2.500000 -0.700000
v 2.700001 2.500000 -0.700000
v 2.900001 2.500000 -0.700000
v -2.800001 2.500000 -0.800000
v -2.700001 2.400000 -0.800000
v -2.700001 2.500000 -0.800000
v 2.800001 2.500000 -0.800000
v 2.700001 2.500000 -0.800000
v 2.700001 2.400000 -0.800000
v -2.800001 2.400000 -0.900000
v -2.800001 2.500000 -0.900000
v -2.900001 2.500000 -0.900000
v 2.900001 2.500000 -0.900000
v 2.800001 2.500000 -0.900000
v 2.800001 2.400000 -0.900000
v -2.900001 2.599999 -0.100000
v -2.600001 2.600000 -0.200000
v -2.600001 2.599999 -0.100000
v 2.600001 2.600000 -0.200000
v 2.600001 2.599999 -0.100000
v 2.900001 2.599999 -0.100000
v -2.500000 2.500000 -0.200000
v -2.500000 2.599999 -0.200000
v 2.500000 2.500000 -0.200000
v 2.500000 2.599999 -0.200000
v -2.500000 2.500000 -0.500000
v -2.500000 2.599999 -0.500000
v -2.600001 2.600000 -0.500000
v 2.600001 2.600000 -0.500000
v 2.500000 2.599999 -0.500000
v 2.500000 2.500000 -0.500000
v -2.900001 2.599999 -0.600000
v -2.600001 2.599999 -0.600000
v 2.600001 2.599999 -0.600000
v 2.900001 2.599999 -0.600000
v -3.000001 2.600000 -0.700000
v -3.000001 2.500000 -0.700000
v -3.000001 2.599999 -0.600000
v -3.000001 2.500000 -0.600000
v -2.600001 2.500000 -0.700000
v -2.600001 2.600000 -0.700000
v 2.600001 2.600000 -0.700000
v 2.600001 2.500000 -0.700000
v 3.000001 2.500000 -0.600000
v 3.000001 2.500000 -0.700000
v 3.000001 2.600000 -0.700000
v 3.000001 2.599999 -0.600000
v -3.100001 2.600000 -0.100000
v 3.100001 2.600000 -0.100000
v -3.100001 5.900001 -0.100000
v 3.100001 5.900001 -0.100000
v -3.100001 2.600000 -0.600000
v 3.100001 2.600000 -0.600000
v -3.100001 5.900001 -0.600000
v 3.100001 5.900001 -0.600000
vn 1.0000 -0.0000 -0.0000
vn -0.0000 -1.0000 -0.0000
vn -0.0000 1.0000 -0.0000
vn -0.0000 -0.0000 -1.0000
vn -1.0000 -0.0000 -0.0000
vn -0.0000 -0.0000 1.0000
vn -0.7071 -0.0000 -0.7071
vn -0.0000 -1.0000 0.0001
vn -0.6804 0.2722 -0.6804
vn -0.7809 -0.6247 -0.0000
vn -0.0000 0.2983 -0.9545
vt 0.227273 0.920455
vt 0.454545 0.801136
vt 0.454545 0.920455
vt 0.732955 0.937500
vt 0.886364 0.886364
vt 0.886364 0.971591
vt 0.920455 0.488636
vt 0.926136 0.517045
vt 0.931818 0.517045
vt 0.926136 0.545455
vt 0.920455 0.551136
vt 0.920455 0.545455
vt 0.926136 0.357955
vt 0.931818 0.363636
vt 0.931818 0.357955
vt 0.926136 0.840909
vt 0.920455 0.846591
vt 0.920455 0.840909
vt 0.863636 0.414773
vt 0.869318 0.414773
vt 0.875000 0.409091
vt 0.250000 0.920455
vt 0.312500 0.954545
vt 0.312500 0.920455
vt 0.926136 0.238636
vt 0.920455 0.244318
vt 0.926136 0.244318
vt 0.914773 0.193182
vt 0.926136 0.198864
vt 0.920455 0.198864
vt 0.670455 0.971591
vt 0.454545 0.886364
vt 0.454545 0.971591
vt 0.795455 0.676136
vt 0.806818 0.681818
vt 0.795455 0.681818
vt 0.590909 0.460227
vt 0.397727 0.454545
vt 0.590909 0.676136
vt 0.187500 0.954545
vt 0.250000 0.954545
vt 0.403409 0.397727
vt 0.403409 0.375000
vt 0.454545 0.454545
vt 0.920455 0.761364
vt 0.914773 0.767045
vt 0.926136 0.761364
vt 0.806818 0.085227
vt 0.943182 0.170455
vt 0.943182 0.085227
vt 0.926136 0.875000
vt 0.920455 0.880682
vt 0.920455 0.875000
vt 0.920455 0.568182
vt 0.926136 0.562500
vt 0.920455 0.562500
vt 0.920455 0.267045
vt 0.926136 0.261364
vt 0.914773 0.267045
vt 0.920455 0.363636
vt 0.926136 0.363636
vt 0.465909 0.193182
vt 0.460227 0.198864
vt 0.460227 0.193182
vt 0.931818 0.238636
vt 0.920455 0.232955
vt 0.920455 0.238636
vt 0.926136 0.181818
vt 0.931818 0.187500
vt 0.926136 0.187500
vt 0.750000 0.414773
vt 0.937500 0.448864
vt 0.937500 0.414773
vt 0.920455 0.369318
vt 0.914773 0.357955
vt 0.920455 0.357955
vt 0.931818 0.221591
vt 0.920455 0.215909
vt 0.920455 0.221591
vt 0.926136 0.272727
vt 0.931818 0.267045
vt 0.926136 0.267045
vt 0.857955 0.681818
vt 0.863636 0.676136
vt 0.857955 0.676136
vt 0.920455 0.272727
vt 0.926136 0.278409
vt 0.920455 0.278409
vt 0.693182 0.443182
vt 0.715909 0.448864
vt 0.710227 0.448864
vt 0.914773 0.232955
vt 0.914773 0.215909
vt 0.914773 0.625000
vt 0.920455 0.625000
vt 0.926136 0.619318
vt 0.590909 0.454545
vt 0.568182 0.448864
vt 0.590909 0.448864
vt 0.914773 0.670455
vt 0.920455 0.670455
vt 0.903409 0.664773
vt 0.000000 0.920455
vt 0.000000 0.954545
vt 0.863636 0.170455
vt 0.835227 0.357955
vt 0.835227 0.170455
vt 0.903409 0.409091
vt 0.909091 0.397727
vt 0.914773 0.397727
vt 0.625000 0.448864
vt 0.613636 0.454545
vt 0.613636 0.448864
vt 0.926136 0.284091
vt 0.931818 0.278409
vt 0.852273 0.392045
vt 0.846591 0.397727
vt 0.846591 0.392045
vt 0.869318 0.352273
vt 0.863636 0.346591
vt 0.886364 0.352273
vt 0.914773 0.653409
vt 0.914773 0.659091
vt 0.903409 0.647727
vt 0.931818 0.176136
vt 0.926136 0.176136
vt 0.846591 0.676136
vt 0.852273 0.681818
vt 0.852273 0.676136
vt 0.886364 0.409091
vt 0.892045 0.414773
vt 0.892045 0.409091
vt 0.625000 0.443182
vt 0.568182 0.443182
vt 0.926136 0.289773
vt 0.931818 0.295455
vt 0.931818 0.289773
vt 0.909091 0.801136
vt 0.920455 0.806818
vt 0.914773 0.806818
vt 0.738636 0.443182
vt 0.744318 0.454545
vt 0.744318 0.443182
vt 0.926136 0.301136
vt 0.926136 0.295455
vt 0.926136 0.812500
vt 0.926136 0.806818
vt 0.482955 0.005682
vt 0.806818 0.193182
vt 0.454545 0.005682
vt 0.931818 0.193182
vt 0.926136 0.193182
vt 0.914773 0.784091
vt 0.920455 0.778409
vt 0.914773 0.778409
vt 0.920455 0.835227
vt 0.522727 0.448864
vt 0.517045 0.448864
vt 0.539773 0.443182
vt 0.062500 0.375000
vt 0.051136 0.375000
vt 0.051136 0.352273
vt 0.926136 0.204545
vt 0.920455 0.210227
vt 0.125000 0.465909
vt 0.130682 0.528409
vt 0.125000 0.653409
vt 0.920455 0.795455
vt 0.914773 0.801136
vt 0.914773 0.795455
vt 0.863636 0.295455
vt 0.863636 0.232955
vt 0.926136 0.375000
vt 0.931818 0.380682
vt 0.931818 0.375000
vt 0.727273 0.676136
vt 0.397727 0.681818
vt 0.511364 0.448864
vt 0.454545 0.443182
vt 0.511364 0.443182
vt 0.181818 0.528409
vt 0.193182 0.460227
vt 0.193182 0.676136
vt 0.931818 0.272727
vt 0.801136 0.193182
vt 0.795455 0.198864
vt 0.795455 0.193182
vt 0.670455 0.443182
vt 0.687500 0.454545
vt 0.687500 0.448864
vt 0.414773 0.954545
vt 0.363636 0.920455
vt 0.363636 0.954545
vt 0.920455 0.857955
vt 0.926136 0.852273
vt 0.920455 0.852273
vt 0.926136 0.556818
vt 0.857955 0.670455
vt 0.903409 0.676136
vt 0.801136 0.670455
vt 0.926136 0.215909
vt 0.931818 0.210227
vt 0.926136 0.210227
vt 0.914773 0.250000
vt 0.926136 0.255682
vt 0.914773 0.255682
vt 0.744318 0.437500
vt 0.460227 0.437500
vt 0.750000 0.443182
vt 0.835227 0.676136
vt 0.840909 0.681818
vt 0.840909 0.676136
vt 0.914773 0.789773
vt 0.920455 0.448864
vt 0.926136 0.454545
vt 0.920455 0.454545
vt 0.329545 0.676136
vt 0.380682 0.522727
vt 0.926136 0.863636
vt 0.920455 0.869318
vt 0.920455 0.863636
vt 0.846591 0.409091
vt 0.829545 0.414773
vt 0.829545 0.409091
vt 0.892045 0.397727
vt 0.897727 0.392045
vt 0.892045 0.392045
vt 0.767045 0.448864
vt 0.755682 0.448864
vt 0.750000 0.454545
vt 0.926136 0.323864
vt 0.931818 0.329545
vt 0.931818 0.323864
vt 0.931818 0.204545
vt 0.926136 0.335227
vt 0.931818 0.340909
vt 0.926136 0.340909
vt 0.920455 0.693182
vt 0.920455 0.687500
vt 0.931818 0.681818
vt 0.545455 0.448864
vt 0.551136 0.448864
vt 0.028409 0.784091
vt 0.000000 0.801136
vt 0.886364 0.937500
vt 0.937500 0.886364
vt 0.914773 0.772727
vt 0.926136 0.767045
vt 0.926136 0.846591
vt 0.909091 0.732955
vt 0.914773 0.727273
vt 0.914773 0.721591
vt 0.897727 0.448864
vt 0.892045 0.454545
vt 0.886364 0.454545
vt 0.931818 0.250000
vt 0.926136 0.250000
vt 0.920455 0.585227
vt 0.926136 0.590909
vt 0.926136 0.585227
vt 0.926136 0.369318
vt 0.914773 0.375000
vt 0.914773 0.369318
vt 0.909091 0.482955
vt 0.914773 0.482955
vt 0.931818 0.488636
vt 0.909091 0.539773
vt 0.914773 0.539773
vt 0.914773 0.534091
vt 0.920455 0.721591
vt 0.920455 0.801136
vt 0.926136 0.801136
vt 0.931818 0.244318
vt 0.914773 0.852273
vt 0.909091 0.852273
vt 0.931818 0.227273
vt 0.920455 0.227273
vt 0.846591 0.414773
vt 0.806818 0.170455
vt 0.732955 0.448864
vt 0.715909 0.443182
vt 0.926136 0.346591
vt 0.909091 0.886364
vt 0.681818 0.801136
vt 0.681818 0.886364
vt 0.806818 0.392045
vt 0.806818 0.357955
vt 0.931818 0.255682
vt 0.914773 0.170455
vt 0.426136 0.926136
vt 0.437500 0.931818
vt 0.414773 0.931818
vt 0.818182 0.448864
vt 0.801136 0.454545
vt 0.795455 0.454545
vt 0.926136 0.312500
vt 0.931818 0.318182
vt 0.931818 0.312500
vt 0.818182 0.676136
vt 0.823864 0.681818
vt 0.823864 0.676136
vt 0.926136 0.329545
vt 0.920455 0.829545
vt 0.926136 0.823864
vt 0.920455 0.823864
vt 0.920455 0.579545
vt 0.880682 0.784091
vt 0.909091 0.681818
vt 0.903409 0.482955
vt 0.914773 0.454545
vt 0.920455 0.181818
vt 0.920455 0.187500
vt 0.448864 0.926136
vt 0.448864 0.920455
vt 0.931818 0.261364
vt 0.852273 0.448864
vt 0.835227 0.454545
vt 0.835227 0.448864
vt 0.829545 0.681818
vt 0.829545 0.676136
vt 0.909091 0.636364
vt 0.926136 0.636364
vt 0.920455 0.642045
vt 0.437500 0.920455
vt 0.823864 0.414773
vt 0.806818 0.409091
vt 0.926136 0.857955
vt 0.920455 0.590909
vt 0.926136 0.596591
vt 0.926136 0.602273
vt 0.920455 0.607955
vt 0.920455 0.602273
vt 0.914773 0.875000
vt 0.914773 0.880682
vt 0.926136 0.704545
vt 0.926136 0.715909
vt 0.931818 0.715909
vt 0.920455 0.596591
vt 0.909091 0.448864
vt 0.909091 0.454545
vt 0.789773 0.448864
vt 0.772727 0.454545
vt 0.795455 0.448864
vt 0.914773 0.573864
vt 0.914773 0.562500
vt 0.909091 0.875000
vt 0.886364 0.346591
vt 0.892045 0.352273
vt 0.897727 0.352273
vt 0.926136 0.829545
vt 0.875000 0.414773
vt 0.818182 0.397727
vt 0.812500 0.397727
vt 0.806818 0.403409
vt 0.909091 0.607955
vt 0.909091 0.596591
vt 0.903409 0.579545
vt 0.017045 0.653409
vt 0.000000 0.681818
vt 0.000000 0.454545
vt 0.931818 0.170455
vt 0.926136 0.170455
vt 0.920455 0.818182
vt 0.914773 0.835227
vt 0.914773 0.823864
vt 0.926136 0.551136
vt 0.920455 0.352273
vt 0.914773 0.352273
vt 0.914773 0.863636
vt 0.909091 0.869318
vt 0.914773 0.857955
vt 0.931818 0.198864
vt 0.909091 0.840909
vt 0.914773 0.840909
vt 0.926136 0.869318
vt 0.926136 0.818182
vt 0.926136 0.380682
vt 0.846591 0.681818
vt 0.920455 0.812500
vt 0.806818 0.414773
vt 0.454545 0.386364
vt 0.806818 0.386364
vt 0.869318 0.681818
vt 0.869318 0.676136
vt 0.454545 0.681818
vt 0.426136 0.698864
vt 0.028409 0.698864
vt 0.778409 0.198864
vt 0.482955 0.198864
vt 0.482955 0.698864
vt 0.897727 0.454545
vt 0.000000 0.227273
vt 0.454545 0.000000
vt 0.000000 0.000000
vt 0.806818 0.000000
vt 0.994318 0.051136
vt 0.943182 0.051136
vt 0.914773 0.750000
vt 0.920455 0.744318
vt 0.926136 0.744318
vt 0.914773 0.289773
vt 0.914773 0.278409
vt 0.931818 0.284091
vt 0.914773 0.380682
vt 0.926136 0.386364
vt 0.852273 0.454545
vt 0.857955 0.454545
vt 0.863636 0.448864
vt 0.636364 0.448864
vt 0.647727 0.454545
vt 0.647727 0.443182
vt 0.806818 0.676136
vt 0.801136 0.664773
vt 0.795455 0.642045
vt 0.926136 0.573864
vt 0.920455 0.573864
vt 0.835227 0.681818
vt 0.659091 0.454545
vt 0.659091 0.448864
vt 0.926136 0.306818
vt 0.931818 0.301136
vt 0.914773 0.869318
vt 0.903409 0.522727
vt 0.920455 0.517045
vt 0.931818 0.232955
vt 0.454545 0.448864
vt 0.511364 0.454545
vt 0.875000 0.454545
vt 0.863636 0.454545
vt 0.880682 0.454545
vt 0.875000 0.448864
vt 0.818182 0.454545
vt 0.926136 0.568182
vt 0.920455 0.284091
vt 0.903409 0.454545
vt 0.880682 0.397727
vt 0.886364 0.397727
vt 0.880682 0.403409
vt 0.920455 0.261364
vt 0.914773 0.176136
vt 0.920455 0.176136
vt 0.875000 0.681818
vt 0.875000 0.676136
vt 0.920455 0.704545
vt 0.909091 0.698864
vt 0.931818 0.306818
vt 0.227273 0.801136
vt 0.670455 0.937500
vt 0.732955 0.886364
vt 0.863636 0.409091
vt 0.920455 0.204545
vt 0.914773 0.204545
vt 0.670455 0.886364
vt 0.727273 0.460227
vt 0.187500 0.920455
vt 0.380682 0.335227
vt 0.386364 0.335227
vt 0.386364 0.346591
vt 0.380682 0.346591
vt 0.073864 0.346591
vt 0.068182 0.346591
vt 0.068182 0.335227
vt 0.073864 0.335227
vt 0.073864 0.323864
vt 0.454545 0.227273
vt 0.380682 0.323864
vt 0.051136 0.397727
vt 0.073864 0.397727
vt 0.073864 0.380682
vt 0.380682 0.380682
vt 0.403409 0.323864
vt 0.380682 0.397727
vt 0.403409 0.352273
vt 0.909091 0.761364
vt 0.909091 0.767045
vt 0.931818 0.767045
vt 0.931818 0.761364
vt 0.926136 0.750000
vt 0.920455 0.750000
vt 0.926136 0.880682
vt 0.914773 0.261364
vt 0.465909 0.198864
vt 0.931818 0.181818
vt 0.750000 0.448864
vt 0.931818 0.215909
vt 0.863636 0.681818
vt 0.710227 0.454545
vt 0.693182 0.454545
vt 0.931818 0.613636
vt 0.903409 0.613636
vt 0.903409 0.619318
vt 0.909091 0.619318
vt 0.909091 0.625000
vt 0.931818 0.619318
vt 0.926136 0.625000
vt 0.914773 0.630682
vt 0.920455 0.630682
vt 0.568182 0.454545
vt 0.914773 0.676136
vt 0.920455 0.676136
vt 0.926136 0.670455
vt 0.926136 0.664773
vt 0.903409 0.670455
vt 0.863636 0.357955
vt 0.914773 0.403409
vt 0.909091 0.403409
vt 0.909091 0.409091
vt 0.914773 0.409091
vt 0.914773 0.414773
vt 0.909091 0.414773
vt 0.897727 0.414773
vt 0.897727 0.409091
vt 0.903409 0.397727
vt 0.909091 0.392045
vt 0.926136 0.392045
vt 0.926136 0.397727
vt 0.625000 0.454545
vt 0.852273 0.397727
vt 0.869318 0.357955
vt 0.926136 0.653409
vt 0.914773 0.664773
vt 0.903409 0.659091
vt 0.914773 0.647727
vt 0.886364 0.414773
vt 0.914773 0.818182
vt 0.909091 0.818182
vt 0.738636 0.454545
vt 0.778409 0.005682
vt 0.778409 0.000000
vt 0.795455 0.000000
vt 0.795455 0.005682
vt 0.806818 0.005682
vt 0.465909 0.000000
vt 0.482955 0.000000
vt 0.465909 0.005682
vt 0.454545 0.193182
vt 0.920455 0.784091
vt 0.926136 0.835227
vt 0.522727 0.454545
vt 0.517045 0.454545
vt 0.539773 0.448864
vt 0.392045 0.380682
vt 0.062500 0.380682
vt 0.392045 0.375000
vt 0.051136 0.323864
vt 0.380682 0.352273
vt 0.073864 0.352273
vt 0.914773 0.210227
vt 0.130682 0.465909
vt 0.914773 0.295455
vt 0.181818 0.465909
vt 0.801136 0.198864
vt 0.693182 0.448864
vt 0.670455 0.454545
vt 0.414773 0.920455
vt 0.920455 0.556818
vt 0.857955 0.664773
vt 0.903409 0.642045
vt 0.744318 0.420455
vt 0.750000 0.420455
vt 0.454545 0.414773
vt 0.454545 0.420455
vt 0.460227 0.420455
vt 0.454545 0.437500
vt 0.750000 0.437500
vt 0.926136 0.795455
vt 0.926136 0.784091
vt 0.909091 0.789773
vt 0.909091 0.795455
vt 0.926136 0.448864
vt 0.380682 0.460227
vt 0.329545 0.522727
vt 0.897727 0.397727
vt 0.772727 0.448864
vt 0.931818 0.335227
vt 0.920455 0.698864
vt 0.909091 0.687500
vt 0.920455 0.681818
vt 0.931818 0.693182
vt 0.545455 0.454545
vt 0.551136 0.454545
vt 0.426136 0.784091
vt 0.937500 0.937500
vt 0.926136 0.778409
vt 0.909091 0.778409
vt 0.909091 0.772727
vt 0.909091 0.721591
vt 0.914773 0.732955
vt 0.886364 0.448864
vt 0.909091 0.488636
vt 0.931818 0.482955
vt 0.920455 0.534091
vt 0.920455 0.528409
vt 0.931818 0.528409
vt 0.931818 0.522727
vt 0.914773 0.522727
vt 0.914773 0.528409
vt 0.909091 0.528409
vt 0.903409 0.539773
vt 0.903409 0.545455
vt 0.914773 0.545455
vt 0.920455 0.539773
vt 0.914773 0.715909
vt 0.931818 0.721591
vt 0.920455 0.727273
vt 0.909091 0.857955
vt 0.909091 0.846591
vt 0.914773 0.846591
vt 0.732955 0.454545
vt 0.914773 0.392045
vt 0.426136 0.920455
vt 0.431818 0.920455
vt 0.431818 0.926136
vt 0.437500 0.926136
vt 0.414773 0.926136
vt 0.420455 0.926136
vt 0.926136 0.318182
vt 0.818182 0.681818
vt 0.926136 0.579545
vt 0.880682 0.698864
vt 0.482955 0.784091
vt 0.914773 0.181818
vt 0.454545 0.926136
vt 0.920455 0.647727
vt 0.914773 0.642045
vt 0.909091 0.642045
vt 0.903409 0.636364
vt 0.903409 0.630682
vt 0.931818 0.630682
vt 0.931818 0.636364
vt 0.926136 0.642045
vt 0.920455 0.250000
vt 0.926136 0.607955
vt 0.931818 0.704545
vt 0.926136 0.710227
vt 0.778409 0.448864
vt 0.903409 0.562500
vt 0.914773 0.579545
vt 0.909091 0.880682
vt 0.909091 0.352273
vt 0.909091 0.346591
vt 0.892045 0.357955
vt 0.897727 0.357955
vt 0.840909 0.397727
vt 0.840909 0.392045
vt 0.835227 0.392045
vt 0.835227 0.397727
vt 0.852273 0.403409
vt 0.840909 0.403409
vt 0.835227 0.409091
vt 0.835227 0.403409
vt 0.818182 0.392045
vt 0.812500 0.392045
vt 0.806818 0.397727
vt 0.903409 0.607955
vt 0.909091 0.613636
vt 0.920455 0.613636
vt 0.909091 0.579545
vt 0.017045 0.465909
vt 0.909091 0.823864
vt 0.926136 0.352273
vt 0.931818 0.352273
vt 0.909091 0.357955
vt 0.914773 0.346591
vt 0.920455 0.346591
vt 0.909091 0.835227
vt 0.454545 0.198864
vt 0.806818 0.198864
vt 0.994318 0.000000
vt 0.931818 0.744318
vt 0.931818 0.750000
vt 0.909091 0.750000
vt 0.909091 0.744318
vt 0.920455 0.732955
vt 0.926136 0.732955
vt 0.920455 0.289773
vt 0.914773 0.386364
vt 0.636364 0.454545
vt 0.670455 0.448864
vt 0.926136 0.522727
vt 0.903409 0.517045
vt 0.857955 0.397727
vt 0.857955 0.392045
vt 0.863636 0.392045
vt 0.863636 0.397727
vt 0.852273 0.409091
vt 0.880682 0.409091
vt 0.897727 0.403409
vt 0.886364 0.403409
vt 0.880682 0.392045
vt 0.886364 0.392045
vt 0.920455 0.170455
vt 0.926136 0.698864
vt 0.920455 0.710227
vt 0.909091 0.704545
s 0
usemtl Tv-with-meja_4_Material
f 32/1/1 4/2/1 62/3/1
f 64/4/1 20/5/1 30/6/1
f 296/7/2 322/8/2 328/9/2
f 144/10/3 151/11/3 154/12/3
f 183/13/4 243/14/4 174/15/4
f 178/16/3 177/17/3 168/18/3
f 152/19/4 151/20/4 96/21/4
f 11/22/5 81/23/5 14/24/5
f 116/25/4 188/26/4 187/27/4
f 275/28/3 281/29/3 279/30/3
f 29/31/5 6/32/5 27/33/5
f 130/34/6 197/35/6 195/36/6
f 27/37/2 23/38/2 29/39/2
f 80/40/1 15/22/1 82/41/1
f 60/42/3 52/43/3 62/44/3
f 159/45/5 206/46/5 158/47/5
f 19/48/4 30/49/4 20/50/4
f 126/51/1 188/52/1 128/53/1
f 174/54/4 107/55/4 112/56/4
f 309/57/5 318/58/5 304/59/5
f 271/13/4 305/60/4 304/61/4
f 273/62/6 313/63/6 314/64/6
f 229/65/2 158/66/2 228/67/2
f 131/68/1 196/69/1 197/70/1
f 9/71/5 77/72/5 17/73/5
f 150/74/6 43/75/6 44/76/6
f 108/77/2 104/78/2 103/79/2
f 284/80/2 236/81/2 237/82/2
f 282/83/5 290/84/5 245/85/5
f 263/86/6 298/87/6 292/88/6
f 52/89/1 127/90/1 116/91/1
f 267/92/2 297/78/2 263/93/2
f 130/94/5 139/95/5 95/96/5
f 86/97/6 33/98/6 34/99/6
f 124/100/4 126/101/4 59/102/4
f 10/103/1 78/40/1 76/104/1
f 328/105/1 326/106/1 324/107/1
f 234/108/1 108/109/1 107/110/1
f 37/111/1 86/112/1 34/113/1
f 312/114/2 273/115/2 314/87/2
f 182/116/1 242/117/1 183/118/1
f 88/119/3 87/120/3 89/121/3
f 104/122/6 164/123/6 49/124/6
f 184/68/5 124/125/5 125/126/5
f 284/127/4 282/128/4 245/129/4
f 111/130/4 179/131/4 119/132/4
f 68/133/6 66/98/6 65/134/6
f 274/135/2 320/136/2 319/137/2
f 161/138/3 163/139/3 162/140/3
f 268/141/2 315/142/2 267/143/2
f 65/136/1 73/144/1 71/145/1
f 184/139/4 249/146/4 188/147/4
f 293/148/6 326/149/6 323/150/6
f 201/70/3 199/151/3 202/152/3
f 201/153/5 140/154/5 132/155/5
f 175/156/3 173/16/3 174/18/3
f 263/157/1 255/158/1 266/159/1
f 50/160/3 49/161/3 45/162/3
f 278/163/3 289/78/3 282/164/3
f 10/165/3 14/166/3 18/167/3
f 142/168/1 204/169/1 135/170/1
f 69/92/3 64/171/3 63/172/3
f 176/173/4 244/174/4 186/175/4
f 26/36/2 30/176/2 25/177/2
f 68/178/3 71/179/3 72/180/3
f 15/181/3 6/182/3 19/183/3
f 313/87/5 312/184/5 314/80/5
f 319/185/6 310/186/6 274/187/6
f 49/188/5 180/189/5 111/190/5
f 82/191/4 14/192/4 81/193/4
f 176/194/5 114/195/5 115/196/5
f 40/197/4 94/56/4 93/55/4
f 74/198/6 76/199/6 73/200/6
f 217/201/2 148/202/2 145/203/2
f 171/204/1 249/205/1 246/206/1
f 305/207/2 302/208/2 309/209/2
f 272/210/4 270/211/4 269/212/4
f 93/213/5 135/170/5 142/168/5
f 139/214/3 145/215/3 146/216/3
f 22/177/3 20/217/3 13/218/3
f 182/219/3 190/220/3 179/221/3
f 285/85/1 279/128/1 243/129/1
f 89/222/6 134/223/6 88/224/6
f 244/225/5 184/226/5 186/227/5
f 276/228/4 275/229/4 311/230/4
f 168/231/4 236/232/4 178/233/4
f 218/234/3 216/203/3 213/163/3
f 176/235/3 184/236/3 185/237/3
f 169/238/6 106/239/6 52/240/6
f 259/159/5 258/241/5 264/242/5
f 23/243/6 32/2/6 31/244/6
f 64/245/4 13/246/4 16/5/4
f 92/247/1 41/248/1 132/155/1
f 113/249/1 174/196/1 112/17/1
f 159/250/2 142/251/2 135/252/2
f 212/253/3 210/254/3 209/255/3
f 174/256/1 235/205/1 175/257/1
f 214/65/3 221/27/3 222/25/3
f 217/258/4 215/259/4 155/260/4
f 54/261/6 103/262/6 53/263/6
f 313/264/3 307/265/3 316/266/3
f 238/267/5 237/268/5 168/269/5
f 135/252/3 136/270/3 142/251/3
f 179/271/4 247/147/4 182/272/4
f 160/257/2 151/273/2 152/27/2
f 214/274/1 210/275/1 219/17/1
f 105/276/2 167/79/2 110/277/2
f 305/19/5 299/222/5 300/278/5
f 323/279/5 329/106/5 327/107/5
f 85/280/3 83/281/3 86/141/3
f 7/171/1 70/282/1 69/120/1
f 26/283/5 8/284/5 24/285/5
f 77/286/4 18/75/4 17/287/4
f 236/58/5 176/288/5 178/205/5
f 80/289/3 81/172/3 79/105/3
f 203/290/6 262/291/6 257/292/6
f 256/293/3 251/294/3 252/295/3
f 114/296/4 184/297/4 125/298/4
f 213/299/4 251/300/4 218/301/4
f 174/232/3 182/235/3 183/302/3
f 148/303/5 98/304/5 99/305/5
f 207/306/6 204/260/6 205/258/6
f 26/307/4 62/138/4 4/308/4
f 327/309/2 313/264/2 291/310/2
f 123/28/3 115/311/3 114/312/3
f 116/3/3 126/313/3 128/314/3
f 235/58/2 280/81/2 233/315/2
f 11/24/6 80/193/6 79/23/6
f 301/316/1 298/317/1 297/318/1
f 222/301/4 261/319/4 214/320/4
f 89/321/1 96/322/1 144/323/1
f 139/26/4 193/257/4 147/27/4
f 228/324/4 230/313/4 229/314/4
f 261/223/3 260/325/3 257/326/3
f 120/327/1 182/221/1 121/194/1
f 160/328/4 220/329/4 219/259/4
f 171/330/6 239/331/6 170/332/6
f 244/333/3 246/220/3 250/334/3
f 132/335/2 149/336/2 157/337/2
f 162/338/6 231/330/6 241/332/6
f 248/216/5 162/339/5 241/340/5
f 61/1/5 1/244/5 31/103/5
f 36/113/6 87/97/6 35/99/6
f 278/341/4 317/342/4 320/343/4
f 265/344/2 254/12/2 226/345/2
f 245/346/2 250/334/2 244/333/2
f 57/347/4 117/348/4 120/349/4
f 100/350/1 152/156/1 101/303/1
f 96/130/3 100/351/3 101/21/3
f 223/352/5 215/353/5 251/354/5
f 111/60/3 117/261/3 118/74/3
f 269/355/2 227/356/2 259/357/2
f 17/358/3 21/359/3 5/360/3
f 306/204/2 264/66/2 299/92/2
f 188/361/3 192/126/3 184/362/3
f 172/363/3 188/364/3 171/365/3
f 39/11/4 91/197/4 37/366/4
f 202/367/6 256/15/6 196/368/6
f 144/82/4 210/86/4 211/80/4
f 242/369/3 248/370/3 231/371/3
f 136/29/5 209/234/5 143/372/5
f 193/373/5 213/374/5 145/364/5
f 179/53/5 117/375/5 119/220/5
f 51/363/5 105/304/5 56/376/5
f 105/377/6 55/262/6 56/173/6
f 243/212/4 281/378/4 280/127/4
f 50/379/1 103/376/1 104/363/1
f 330/380/3 325/381/3 326/382/3
f 247/84/4 286/383/4 285/384/4
f 2/385/6 8/386/6 5/387/6
f 309/388/4 308/389/4 330/382/4
f 3/385/4 61/2/4 21/390/4
f 38/339/5 87/391/5 94/340/5
f 3/392/2 2/393/2 1/394/2
f 6/395/6 69/396/6 63/397/6
f 199/398/1 157/399/1 156/400/1
f 42/88/6 149/401/6 41/402/6
f 320/403/1 322/135/1 319/114/1
f 224/404/4 226/405/4 225/377/4
f 146/406/4 145/407/4 99/408/4
f 98/409/4 156/410/4 46/411/4
f 137/299/6 208/35/6 136/412/6
f 71/413/6 75/34/6 9/414/6
f 198/415/6 201/306/6 132/416/6
f 266/210/4 268/319/4 267/417/4
f 47/411/4 160/418/4 100/419/4
f 74/420/5 68/421/5 72/144/5
f 247/422/2 243/221/2 242/369/2
f 317/423/3 310/424/3 322/8/3
f 225/425/2 155/277/2 224/66/2
f 73/426/2 67/427/2 74/178/2
f 95/408/3 98/428/3 97/429/3
f 196/255/3 193/430/3 195/431/3
f 85/318/6 129/432/6 84/293/6
f 318/402/2 270/57/2 271/59/2
f 177/416/4 115/433/4 109/54/4
f 264/87/6 300/434/6 299/88/6
f 267/434/4 302/135/4 301/114/4
f 76/435/3 77/414/3 75/295/3
f 240/436/1 239/437/1 274/438/1
f 316/58/1 308/439/1 267/206/1
f 122/68/3 121/440/3 113/441/3
f 290/384/4 288/442/4 250/443/4
f 132/335/3 131/444/3 129/445/3
f 23/32/1 21/284/1 25/285/1
f 113/446/4 182/296/4 181/298/4
f 166/297/4 235/231/4 233/233/4
f 204/151/3 206/29/3 205/152/3
f 32/1/1 2/447/1 4/2/1
f 30/6/1 28/31/1 63/448/1
f 64/4/1 16/449/1 20/5/1
f 30/6/1 63/448/1 64/4/1
f 328/9/2 324/266/2 296/7/2
f 296/7/2 310/424/2 322/8/2
f 144/10/3 153/366/3 151/11/3
f 183/13/4 242/61/4 243/14/4
f 178/16/3 176/249/3 177/17/3
f 96/21/4 101/450/4 152/19/4
f 151/20/4 153/351/4 96/21/4
f 11/22/5 79/41/5 81/23/5
f 116/25/4 128/67/4 188/26/4
f 286/451/3 287/452/3 275/28/3
f 275/28/3 276/152/3 281/29/3
f 279/30/3 286/451/3 275/28/3
f 29/31/5 19/453/5 6/32/5
f 130/34/6 131/412/6 197/35/6
f 27/37/2 28/454/2 24/295/2
f 23/38/2 25/177/2 29/39/2
f 27/37/2 24/295/2 23/38/2
f 80/40/1 12/455/1 15/22/1
f 38/456/3 40/457/3 44/458/3
f 38/456/3 44/458/3 43/459/3
f 38/456/3 43/459/3 42/460/3
f 42/460/3 41/461/3 39/462/3
f 37/463/3 34/464/3 32/465/3
f 42/460/3 39/462/3 37/463/3
f 35/466/3 38/456/3 42/460/3
f 35/466/3 42/460/3 37/463/3
f 62/44/3 61/360/3 57/467/3
f 58/468/3 54/469/3 55/470/3
f 62/44/3 57/467/3 58/468/3
f 35/466/3 37/463/3 32/465/3
f 36/471/3 35/466/3 32/465/3
f 58/468/3 55/470/3 59/472/3
f 62/44/3 58/468/3 59/472/3
f 36/471/3 32/465/3 62/44/3
f 48/473/3 36/471/3 62/44/3
f 62/44/3 59/472/3 60/42/3
f 52/43/3 48/473/3 62/44/3
f 159/45/5 207/474/5 205/475/5
f 206/46/5 227/476/5 228/477/5
f 159/45/5 205/475/5 206/46/5
f 47/478/5 43/479/5 159/45/5
f 206/46/5 228/477/5 158/47/5
f 158/47/5 47/478/5 159/45/5
f 19/48/4 29/279/4 30/49/4
f 126/51/1 191/480/1 188/52/1
f 174/54/4 173/433/4 107/55/4
f 309/57/5 317/82/5 318/58/5
f 318/58/5 271/481/5 304/59/5
f 271/13/4 306/76/4 305/60/4
f 273/62/6 307/482/6 313/63/6
f 229/65/2 160/425/2 158/66/2
f 131/68/1 141/483/1 196/69/1
f 9/71/5 75/484/5 77/72/5
f 150/74/6 159/263/6 43/75/6
f 108/77/2 165/485/2 104/78/2
f 284/80/2 245/184/2 236/81/2
f 282/83/5 289/486/5 290/84/5
f 263/86/6 297/80/6 298/87/6
f 187/487/1 172/488/1 52/89/1
f 52/89/1 60/281/1 127/90/1
f 116/91/1 187/487/1 52/89/1
f 267/92/2 301/66/2 297/78/2
f 45/489/5 33/490/5 83/491/5
f 84/492/5 129/493/5 130/94/5
f 45/489/5 83/491/5 84/492/5
f 95/96/5 97/494/5 45/489/5
f 139/95/5 146/495/5 95/96/5
f 195/496/5 194/497/5 139/95/5
f 45/489/5 84/492/5 130/94/5
f 130/94/5 195/496/5 139/95/5
f 95/96/5 45/489/5 130/94/5
f 86/97/6 83/498/6 33/98/6
f 124/100/4 192/499/4 191/500/4
f 126/101/4 127/501/4 60/502/4
f 124/100/4 191/500/4 126/101/4
f 59/102/4 123/503/4 124/100/4
f 126/101/4 60/502/4 59/102/4
f 10/103/1 18/455/1 78/40/1
f 328/105/1 330/504/1 326/106/1
f 107/110/1 173/505/1 166/506/1
f 233/507/1 280/508/1 281/509/1
f 233/507/1 281/509/1 276/510/1
f 276/510/1 268/511/1 265/512/1
f 234/108/1 165/513/1 108/109/1
f 276/510/1 265/512/1 234/108/1
f 233/507/1 276/510/1 234/108/1
f 108/109/1 54/514/1 58/515/1
f 166/506/1 233/507/1 234/108/1
f 58/515/1 122/516/1 107/110/1
f 107/110/7 166/506/7 234/108/7
f 108/109/1 58/515/1 107/110/1
f 37/111/1 91/517/1 86/112/1
f 312/114/2 275/403/2 273/115/2
f 182/116/1 247/518/1 242/117/1
f 88/119/3 93/519/3 94/504/3
f 87/120/3 90/347/3 89/121/3
f 88/119/3 94/504/3 87/120/3
f 104/122/6 165/520/6 234/502/6
f 234/502/6 232/521/6 164/123/6
f 164/123/6 161/522/6 49/124/6
f 49/124/6 50/523/6 104/122/6
f 104/122/6 234/502/6 164/123/6
f 184/68/5 192/483/5 124/125/5
f 284/127/4 283/378/4 282/128/4
f 111/130/4 180/524/4 179/131/4
f 68/133/6 67/111/6 66/98/6
f 274/135/2 278/145/2 320/136/2
f 179/525/3 180/526/3 161/138/3
f 161/138/3 164/271/3 163/139/3
f 162/140/3 179/525/3 161/138/3
f 268/141/2 276/527/2 315/142/2
f 65/136/1 66/421/1 73/144/1
f 184/139/4 250/379/4 249/146/4
f 295/528/6 258/529/6 260/530/6
f 296/531/6 324/532/6 326/149/6
f 295/528/6 260/530/6 296/531/6
f 251/533/6 255/534/6 293/148/6
f 295/528/6 296/531/6 326/149/6
f 291/535/6 251/533/6 293/148/6
f 293/148/6 295/528/6 326/149/6
f 326/149/6 325/536/6 323/150/6
f 323/150/6 291/535/6 293/148/6
f 201/70/3 200/69/3 199/151/3
f 201/153/5 202/537/5 140/154/5
f 175/156/3 166/538/3 173/16/3
f 263/157/1 292/539/1 293/540/1
f 255/158/1 256/178/1 254/180/1
f 263/157/1 293/540/1 255/158/1
f 266/159/1 267/541/1 263/157/1
f 255/158/1 254/180/1 266/159/1
f 56/542/3 55/470/3 54/469/3
f 54/469/3 53/543/3 50/160/3
f 49/161/3 57/467/3 61/360/3
f 56/542/3 54/469/3 50/160/3
f 49/161/3 61/360/3 31/392/3
f 51/544/3 56/542/3 50/160/3
f 31/392/3 32/465/3 34/464/3
f 31/392/3 34/464/3 33/545/3
f 48/473/3 52/43/3 51/544/3
f 42/460/3 43/459/3 47/546/3
f 47/546/3 48/473/3 51/544/3
f 47/546/3 51/544/3 50/160/3
f 46/547/3 42/460/3 47/546/3
f 31/392/3 33/545/3 45/162/3
f 46/547/3 47/546/3 50/160/3
f 49/161/3 31/392/3 45/162/3
f 45/162/3 46/547/3 50/160/3
f 283/548/3 277/452/3 278/163/3
f 278/163/3 288/201/3 289/78/3
f 282/164/3 283/548/3 278/163/3
f 10/165/3 11/549/3 14/166/3
f 142/168/1 203/271/1 204/169/1
f 69/92/3 70/550/3 64/171/3
f 176/173/4 245/377/4 244/174/4
f 26/36/2 24/295/2 28/454/2
f 30/176/2 29/39/2 25/177/2
f 26/36/2 28/454/2 30/176/2
f 68/178/3 65/426/3 71/179/3
f 15/181/3 12/551/3 6/182/3
f 313/87/5 311/115/5 312/184/5
f 319/185/6 322/552/6 310/186/6
f 118/553/5 57/89/5 49/188/5
f 49/188/5 161/554/5 180/189/5
f 111/190/5 118/553/5 49/188/5
f 82/191/4 15/555/4 14/192/4
f 176/194/5 185/327/5 114/195/5
f 40/197/4 38/556/4 94/56/4
f 74/198/6 72/557/6 10/558/6
f 76/199/6 75/34/6 73/200/6
f 74/198/6 10/558/6 76/199/6
f 217/201/2 155/485/2 148/202/2
f 171/204/1 188/257/1 249/205/1
f 300/559/2 294/560/2 295/71/2
f 295/71/2 293/561/2 292/562/2
f 295/71/8 292/562/8 298/563/8
f 300/559/2 295/71/2 298/563/2
f 302/208/2 303/564/2 308/179/2
f 300/559/2 298/563/2 302/208/2
f 309/209/2 304/565/2 305/207/2
f 305/207/2 300/559/2 302/208/2
f 302/208/2 308/179/2 309/209/2
f 272/210/4 271/417/4 270/211/4
f 150/566/5 44/567/5 40/153/5
f 93/213/5 88/568/5 134/569/5
f 150/566/5 40/153/5 93/213/5
f 142/168/5 150/566/5 93/213/5
f 93/213/5 134/569/5 135/170/5
f 139/214/3 147/570/3 145/215/3
f 6/182/3 12/551/3 11/549/3
f 11/549/3 10/165/3 5/360/3
f 18/167/3 14/166/3 15/181/3
f 18/167/3 15/181/3 19/183/3
f 6/182/3 11/549/3 5/360/3
f 7/571/3 6/182/3 5/360/3
f 21/359/3 18/167/3 19/183/3
f 20/217/3 16/572/3 13/218/3
f 21/359/3 19/183/3 20/217/3
f 7/571/3 5/360/3 8/38/3
f 13/218/3 7/571/3 8/38/3
f 22/177/3 21/359/3 20/217/3
f 13/218/3 8/38/3 22/177/3
f 182/219/3 189/375/3 190/220/3
f 285/85/1 286/83/1 279/128/1
f 89/222/6 138/278/6 134/223/6
f 244/225/5 250/573/5 184/226/5
f 311/230/4 316/342/4 315/574/4
f 311/230/4 315/574/4 276/228/4
f 275/229/4 312/484/4 311/230/4
f 168/231/4 237/302/4 236/232/4
f 218/234/3 215/202/3 216/203/3
f 176/235/3 186/575/3 184/236/3
f 169/238/6 240/576/6 238/445/6
f 238/445/6 167/577/6 106/239/6
f 106/239/6 51/578/6 52/240/6
f 52/240/6 172/579/6 169/238/6
f 169/238/6 238/445/6 106/239/6
f 271/98/5 272/134/5 259/159/5
f 259/159/5 257/541/5 258/241/5
f 258/241/5 295/580/5 294/581/5
f 264/242/5 271/98/5 259/159/5
f 258/241/5 294/581/5 264/242/5
f 1/359/6 5/387/6 23/243/6
f 24/582/6 8/386/6 32/2/6
f 31/244/6 1/359/6 23/243/6
f 23/243/6 24/582/6 32/2/6
f 64/245/4 70/583/4 13/246/4
f 92/247/1 39/46/1 41/248/1
f 41/248/1 149/584/1 140/154/1
f 132/155/1 133/585/1 85/586/1
f 41/248/1 140/154/1 132/155/1
f 132/155/1 85/586/1 92/247/1
f 113/249/1 181/195/1 174/196/1
f 135/252/2 207/587/2 159/250/2
f 159/250/2 150/588/2 142/251/2
f 209/255/3 208/589/3 212/253/3
f 212/253/3 211/391/3 210/254/3
f 174/256/1 243/288/1 235/205/1
f 214/65/3 220/273/3 221/27/3
f 217/258/4 216/328/4 215/259/4
f 54/261/6 108/173/6 103/262/6
f 316/266/3 311/590/3 313/264/3
f 307/265/3 308/591/3 316/266/3
f 168/269/5 177/592/5 109/593/5
f 109/593/5 123/594/5 59/595/5
f 59/595/5 55/596/5 110/597/5
f 110/597/5 167/598/5 238/267/5
f 238/267/5 269/599/5 270/600/5
f 277/601/5 283/12/5 284/602/5
f 238/267/5 270/600/5 277/601/5
f 109/593/5 59/595/5 110/597/5
f 168/269/5 109/593/5 110/597/5
f 277/601/5 284/602/5 237/268/5
f 168/269/5 110/597/5 238/267/5
f 238/267/5 277/601/5 237/268/5
f 135/252/3 134/603/3 138/337/3
f 138/337/3 137/604/3 136/270/3
f 136/270/3 143/605/3 142/251/3
f 135/252/3 138/337/3 136/270/3
f 179/271/4 248/139/4 247/147/4
f 160/257/2 219/256/2 151/273/2
f 214/274/1 261/371/1 262/606/1
f 210/275/1 154/607/1 151/608/1
f 214/274/1 262/606/1 210/275/1
f 219/17/1 220/196/1 214/274/1
f 210/275/1 151/608/1 219/17/1
f 105/276/2 106/77/2 167/79/2
f 305/19/5 306/450/5 299/222/5
f 323/279/5 325/287/5 329/106/5
f 86/141/3 91/527/3 92/609/3
f 85/280/3 84/90/3 83/281/3
f 86/141/3 92/609/3 85/280/3
f 7/171/1 13/145/1 70/282/1
f 26/283/5 22/138/5 8/284/5
f 77/286/4 78/610/4 18/75/4
f 236/58/5 245/315/5 176/288/5
f 80/289/3 82/92/3 81/172/3
f 203/290/6 142/611/6 143/612/6
f 209/613/6 210/614/6 262/291/6
f 203/290/6 143/612/6 209/613/6
f 257/292/6 259/615/6 206/616/6
f 203/290/6 209/613/6 262/291/6
f 257/292/6 206/616/6 203/290/6
f 252/295/3 253/343/3 256/293/3
f 256/293/3 255/432/3 251/294/3
f 114/296/4 185/617/4 184/297/4
f 213/299/4 252/618/4 251/300/4
f 174/232/3 181/575/3 182/235/3
f 148/303/5 155/350/5 98/304/5
f 207/306/6 135/619/6 204/260/6
f 4/308/4 22/620/4 26/307/4
f 26/307/4 25/621/4 62/138/4
f 291/310/2 323/435/2 327/309/2
f 313/264/2 307/265/2 291/310/2
f 125/70/3 124/152/3 123/28/3
f 123/28/3 109/622/3 115/311/3
f 114/312/3 125/70/3 123/28/3
f 116/3/3 127/623/3 126/313/3
f 235/58/2 243/82/2 280/81/2
f 11/24/6 12/192/6 80/193/6
f 301/316/1 302/406/1 298/317/1
f 222/301/4 260/300/4 261/319/4
f 211/624/1 212/523/1 137/625/1
f 137/625/1 138/626/1 89/321/1
f 89/321/1 90/627/1 36/628/1
f 36/628/1 48/629/1 102/630/1
f 96/322/1 153/631/1 144/323/1
f 36/628/1 102/630/1 96/322/1
f 211/624/9 137/625/9 89/321/9
f 89/321/1 36/628/1 96/322/1
f 144/323/1 211/624/1 89/321/1
f 139/26/4 194/632/4 193/257/4
f 228/324/4 227/614/4 230/313/4
f 257/326/3 262/224/3 261/223/3
f 260/325/3 258/380/3 257/326/3
f 120/327/1 189/219/1 182/221/1
f 160/328/4 221/338/4 220/329/4
f 171/330/6 246/633/6 239/331/6
f 244/333/3 239/422/3 246/220/3
f 246/220/3 249/52/3 250/334/3
f 157/337/2 198/634/2 132/335/2
f 132/335/10 140/635/10 149/336/10
f 162/338/6 163/329/6 231/330/6
f 248/216/5 179/214/5 162/339/5
f 61/1/5 3/447/5 1/244/5
f 36/113/6 90/112/6 87/97/6
f 277/636/4 318/574/4 317/342/4
f 317/342/4 321/295/4 320/343/4
f 278/341/4 277/636/4 317/342/4
f 223/637/2 232/357/2 234/638/2
f 265/344/2 266/416/2 254/12/2
f 223/637/2 234/638/2 265/344/2
f 254/12/2 199/601/2 226/345/2
f 226/345/2 223/637/2 265/344/2
f 245/346/2 290/639/2 250/334/2
f 122/640/4 58/641/4 57/347/4
f 57/347/4 118/121/4 117/348/4
f 117/348/4 190/642/4 189/643/4
f 120/349/4 122/640/4 57/347/4
f 117/348/4 189/643/4 120/349/4
f 100/350/1 160/538/1 152/156/1
f 96/130/3 102/524/3 100/351/3
f 231/644/5 163/645/5 164/646/5
f 231/644/5 164/646/5 232/647/5
f 287/648/5 247/518/5 242/117/5
f 287/648/5 242/117/5 231/644/5
f 275/649/5 287/648/5 231/644/5
f 275/649/5 231/644/5 232/647/5
f 291/326/5 307/650/5 273/651/5
f 273/651/5 275/649/5 232/647/5
f 223/352/5 224/652/5 155/653/5
f 273/651/5 232/647/5 223/352/5
f 251/354/5 291/326/5 273/651/5
f 215/353/5 218/654/5 251/354/5
f 223/352/5 155/653/5 215/353/5
f 251/354/5 273/651/5 223/352/5
f 111/60/3 119/61/3 117/261/3
f 259/357/2 272/655/2 269/355/2
f 269/355/2 238/656/2 240/657/2
f 240/657/2 230/338/2 227/356/2
f 227/356/2 206/658/2 259/357/2
f 269/355/2 240/657/2 227/356/2
f 5/360/3 10/165/3 9/659/3
f 17/358/3 18/167/3 21/359/3
f 5/360/3 9/659/3 17/358/3
f 306/204/2 271/632/2 264/66/2
f 188/361/3 191/125/3 192/126/3
f 170/660/3 169/526/3 172/363/3
f 172/363/3 187/156/3 188/364/3
f 171/365/3 170/660/3 172/363/3
f 39/11/4 92/556/4 91/197/4
f 199/661/6 254/662/6 256/15/6
f 256/15/6 253/663/6 193/640/6
f 196/368/6 141/664/6 140/665/6
f 256/15/6 193/640/6 196/368/6
f 202/367/6 199/661/6 256/15/6
f 196/368/6 140/665/6 202/367/6
f 144/82/4 154/57/4 210/86/4
f 242/369/3 247/422/3 248/370/3
f 248/370/3 241/606/3 231/371/3
f 136/29/5 208/163/5 209/234/5
f 193/373/5 253/607/5 252/608/5
f 213/374/5 216/18/5 217/156/5
f 193/373/5 252/608/5 213/374/5
f 145/364/5 147/666/5 193/373/5
f 213/374/5 217/156/5 145/364/5
f 179/53/5 190/51/5 117/375/5
f 51/363/5 106/305/5 105/304/5
f 105/377/6 110/404/6 55/262/6
f 243/212/4 279/211/4 281/378/4
f 50/379/1 53/146/1 103/376/1
f 330/380/3 329/561/3 325/381/3
f 247/84/4 287/486/4 286/383/4
f 5/387/6 1/359/6 2/385/6
f 2/385/6 32/2/6 8/386/6
f 307/482/11 313/63/11 327/667/11
f 327/667/4 329/381/4 330/382/4
f 330/382/4 328/668/4 322/552/4
f 330/382/4 322/552/4 310/186/4
f 307/482/4 327/667/4 330/382/4
f 308/389/4 307/482/4 330/382/4
f 330/382/4 310/186/4 309/388/4
f 22/620/4 4/308/4 3/385/4
f 61/2/4 62/138/4 25/621/4
f 21/390/4 22/620/4 3/385/4
f 61/2/4 25/621/4 21/390/4
f 38/339/5 35/253/5 87/391/5
f 3/392/2 4/465/2 2/393/2
f 28/50/6 27/48/6 6/395/6
f 6/395/6 7/669/6 69/396/6
f 63/397/6 28/50/6 6/395/6
f 225/670/1 226/671/1 199/398/1
f 199/398/1 200/672/1 198/673/1
f 157/399/1 42/674/1 46/675/1
f 199/398/1 198/673/1 157/399/1
f 156/400/1 225/670/1 199/398/1
f 157/399/1 46/675/1 156/400/1
f 42/88/6 157/676/6 149/401/6
f 320/403/1 321/137/1 322/135/1
f 224/404/4 223/677/4 226/405/4
f 99/408/4 95/316/4 146/406/4
f 145/407/4 148/429/4 99/408/4
f 46/411/4 45/133/4 97/111/4
f 98/409/4 155/678/4 156/410/4
f 46/411/4 97/111/4 98/409/4
f 137/299/6 212/618/6 208/35/6
f 10/558/6 72/557/6 71/413/6
f 71/413/6 73/200/6 75/34/6
f 9/414/6 10/558/6 71/413/6
f 198/415/6 200/619/6 201/306/6
f 266/210/4 265/320/4 268/319/4
f 102/679/4 48/188/4 47/411/4
f 47/411/4 158/410/4 160/418/4
f 100/419/4 102/679/4 47/411/4
f 74/420/5 67/446/5 68/421/5
f 247/422/2 285/220/2 243/221/2
f 322/8/3 321/680/3 317/423/3
f 317/423/3 309/681/3 310/424/3
f 225/425/2 156/276/2 155/277/2
f 73/426/2 66/44/2 67/427/2
f 95/408/3 99/431/3 98/428/3
f 195/431/3 197/589/3 196/255/3
f 193/430/3 194/428/3 195/431/3
f 85/318/6 133/317/6 129/432/6
f 318/402/2 277/88/2 270/57/2
f 177/416/4 176/415/4 115/433/4
f 264/87/6 294/114/6 300/434/6
f 267/434/4 303/676/4 302/135/4
f 76/435/3 78/558/3 77/414/3
f 260/648/1 222/518/1 221/682/1
f 221/682/1 160/683/1 229/684/1
f 221/682/1 229/684/1 230/685/1
f 296/686/1 260/648/1 221/682/1
f 274/438/1 310/687/1 296/686/1
f 250/573/1 288/688/1 278/689/1
f 274/438/1 296/686/1 221/682/1
f 250/573/1 278/689/1 274/438/1
f 244/225/1 250/573/1 274/438/1
f 274/438/1 221/682/1 230/685/1
f 240/436/1 169/690/1 170/691/1
f 274/438/1 230/685/1 240/436/1
f 239/437/1 244/225/1 274/438/1
f 240/436/1 170/691/1 239/437/1
f 267/206/1 315/205/1 316/58/1
f 308/439/1 303/481/1 267/206/1
f 112/692/3 107/362/3 122/68/3
f 122/68/3 120/622/3 121/440/3
f 113/441/3 112/692/3 122/68/3
f 290/384/4 289/383/4 288/442/4
f 129/445/3 133/693/3 132/335/3
f 132/335/3 140/635/3 141/694/3
f 131/444/3 130/695/3 129/445/3
f 132/335/3 141/694/3 131/444/3
f 23/32/1 5/2/1 21/284/1
f 113/446/4 121/420/4 182/296/4
f 166/297/4 175/617/4 235/231/4
f 204/151/3 203/372/3 206/29/3
