# Blender 5.0.1
# www.blender.org
mtllib lampu belajar_3.mtl
o lampu_belajar_3
v -0.400000 0.100000 -0.000000
v -0.400000 0.100000 -0.100000
v -0.400000 -0.000000 -0.000000
v -0.400000 -0.000000 -0.100000
v -0.000000 -0.000000 -0.000000
v -0.000000 -0.000000 -0.100000
v -0.000000 0.100000 -0.100000
v -0.000000 0.100000 -0.000000
v -0.500000 0.100000 -0.100000
v -0.500000 0.100000 -0.200000
v -0.500000 -0.000000 -0.100000
v -0.500000 -0.000000 -0.200000
v 0.100000 -0.000000 -0.100000
v 0.100000 -0.000000 -0.200000
v 0.100000 0.100000 -0.200000
v 0.100000 0.100000 -0.100000
v -0.600000 0.100000 -0.200000
v -0.600000 -0.000000 -0.200000
v -0.300000 0.100000 -0.300000
v -0.100000 0.100000 -0.300000
v 0.200000 -0.000000 -0.200000
v 0.200000 0.100000 -0.200000
v -0.300000 0.100000 -0.500000
v -0.100000 0.100000 -0.500000
v -0.500000 -0.000000 -0.600000
v -0.500000 0.100000 -0.600000
v -0.600000 0.100000 -0.600000
v -0.600000 -0.000000 -0.600000
v 0.100000 0.100000 -0.600000
v 0.100000 -0.000000 -0.600000
v 0.200000 -0.000000 -0.600000
v 0.200000 0.100000 -0.600000
v -0.400000 -0.000000 -0.700000
v -0.400000 0.100000 -0.700000
v -0.500000 0.100000 -0.700000
v -0.500000 -0.000000 -0.700000
v -0.000000 0.100000 -0.700000
v -0.000000 -0.000000 -0.700000
v 0.100000 -0.000000 -0.700000
v 0.100000 0.100000 -0.700000
v -0.400000 0.100000 -0.800000
v -0.400000 -0.000000 -0.800000
v -0.000000 -0.000000 -0.800000
v -0.000000 0.100000 -0.800000
v 0.400000 1.200000 0.900000
v 0.400000 1.100000 0.900000
v 0.400000 1.200000 1.000000
v 0.400000 1.100000 1.000000
v 1.000000 1.100000 1.000000
v 1.000000 1.100000 0.900000
v 1.000000 1.200000 0.900000
v 1.000000 1.200000 1.000000
v 0.400000 1.100000 0.800000
v 0.400000 1.200000 0.800000
v 0.300000 1.200000 0.800000
v 0.300000 1.100000 0.800000
v 0.300000 1.200000 0.900000
v 0.300000 1.100000 0.900000
v 1.100000 1.100000 0.900000
v 1.100000 1.100000 0.800000
v 1.100000 1.200000 0.800000
v 1.100000 1.200000 0.900000
v 1.000000 1.200000 0.800000
v 1.000000 1.100000 0.800000
v 0.200000 1.200000 0.800000
v 0.200000 1.100000 0.800000
v 1.200000 1.100000 0.800000
v 1.200000 1.200000 0.800000
v 0.300000 1.100000 0.200000
v 0.300000 1.200000 0.200000
v 1.200000 1.100000 0.200000
v 1.200000 1.200000 0.200000
v 1.100000 1.200000 0.200000
v 1.100000 1.100000 0.200000
v 0.300000 1.100000 0.100000
v 0.300000 1.200000 0.100000
v 0.200000 1.200000 0.100000
v 0.200000 1.100000 0.100000
v 0.400000 1.100000 0.200000
v 0.400000 1.100000 0.100000
v 0.400000 1.200000 0.100000
v 0.400000 1.200000 0.200000
v 1.100000 1.100000 0.100000
v 1.100000 1.200000 0.100000
v 1.000000 1.200000 0.100000
v 1.000000 1.100000 0.100000
v 1.000000 1.200000 0.200000
v 1.000000 1.100000 0.200000
v 0.300000 1.200000 -0.000000
v 0.300000 1.100000 -0.000000
v 1.000000 1.100000 -0.000000
v 1.000000 1.200000 -0.000000
v 0.400000 1.300000 0.900000
v 0.400000 1.300000 0.800000
v 1.000000 1.300000 0.800000
v 1.000000 1.300000 0.900000
v 0.300000 1.300000 0.800000
v 0.400000 1.300000 0.700000
v 0.600000 1.200000 0.700000
v 0.800000 1.200000 0.700000
v 0.900000 1.300000 0.700000
v 1.100000 1.300000 0.800000
v 0.400000 1.300000 0.600000
v 0.500000 1.200000 0.600000
v 0.600000 1.200000 0.600000
v 0.900000 1.200000 0.600000
v 0.800000 1.200000 0.600000
v 0.500000 1.300000 0.600000
v 0.500000 1.200000 0.400000
v 0.900000 1.200000 0.400000
v 0.500000 1.300000 0.300000
v 0.600000 1.200000 0.400000
v 0.600000 1.200000 0.300000
v 0.800000 1.200000 0.400000
v 0.800000 1.200000 0.300000
v 0.400000 1.300000 0.200000
v 0.300000 1.300000 0.200000
v 0.800000 1.300000 0.200000
v 0.800000 1.300000 0.300000
v 0.900000 1.300000 0.200000
v 1.000000 1.300000 0.200000
v 1.100000 1.300000 0.200000
v 0.400000 1.300000 0.100000
v 1.000000 1.300000 0.100000
v 0.500000 1.400000 0.600000
v 0.400000 1.400000 0.600000
v 0.400000 1.400000 0.700000
v 0.800000 1.400000 0.600000
v 0.900000 1.400000 0.700000
v 0.500000 1.400000 0.300000
v 0.800000 1.400000 0.300000
v 0.900000 1.400000 0.200000
v 0.800000 1.400000 0.200000
v 0.400000 1.500000 0.600000
v 0.400000 1.500000 0.500000
v 0.700000 1.500000 0.500000
v 0.800000 1.500000 0.600000
v 0.400000 1.500000 0.400000
v 0.400000 1.400000 0.300000
v 0.400000 1.500000 0.300000
v 0.600000 1.500000 0.200000
v 0.500000 1.500000 0.200000
v 0.500000 1.400000 0.200000
v 0.700000 1.500000 0.200000
v 0.800000 1.500000 0.200000
v 0.400000 1.600000 0.500000
v 0.400000 1.600000 0.400000
v 0.600000 1.600000 0.400000
v 0.700000 1.600000 0.500000
v 0.300000 1.500000 0.400000
v 0.300000 1.500000 0.300000
v 0.300000 1.600000 0.300000
v 0.700000 1.600000 0.200000
v 0.600000 1.600000 0.200000
v 0.600000 1.500000 0.100000
v 0.500000 1.600000 0.100000
v 0.500000 1.500000 0.100000
v 0.300000 1.700000 0.400000
v 0.400000 1.700000 0.300000
v 0.500000 1.700000 0.300000
v 0.600000 1.700000 0.400000
v 0.500000 1.700000 0.200000
v 0.600000 1.700000 0.100000
v 0.500000 1.800000 0.200000
v 0.500000 1.800000 0.300000
v 0.400000 1.800000 0.200000
v 0.400000 1.700000 0.200000
v 0.400000 1.800000 0.300000
v -0.200000 0.700000 -0.300000
v -0.100000 0.700000 -0.400000
v -0.100000 0.700000 -0.300000
v -0.100000 0.700000 -0.200000
v -0.100000 0.800000 -0.300000
v -0.100000 0.800000 -0.200000
v -0.200000 0.700000 -0.200000
v -0.200000 0.800000 -0.300000
v -0.300000 0.800000 -0.300000
v -0.300000 0.800000 -0.400000
v -0.200000 0.800000 -0.400000
v -0.000000 0.700000 -0.300000
v -0.000000 0.700000 -0.400000
v -0.000000 0.800000 -0.300000
v -0.100000 0.800000 -0.400000
v -0.200000 0.800000 -0.500000
v -0.100000 0.800000 -0.500000
v -0.000000 0.800000 -0.200000
v -0.200000 0.900000 -0.400000
v -0.200000 0.900000 -0.500000
v -0.300000 0.900000 -0.500000
v -0.300000 0.900000 -0.400000
v -0.100000 1.000000 -0.200000
v -0.000000 1.000000 -0.300000
v -0.000000 1.000000 -0.200000
v -0.000000 1.000000 -0.100000
v -0.000000 1.100000 -0.200000
v -0.000000 1.100000 -0.100000
v -0.100000 1.000000 -0.100000
v -0.100000 1.100000 -0.200000
v -0.200000 1.100000 -0.200000
v -0.200000 1.100000 -0.300000
v -0.100000 1.100000 -0.300000
v 0.100000 1.000000 -0.200000
v 0.100000 1.000000 -0.300000
v 0.100000 1.100000 -0.200000
v -0.000000 1.100000 -0.300000
v -0.100000 1.100000 -0.400000
v -0.000000 1.100000 -0.400000
v 0.100000 1.100000 -0.000000
v 0.100000 1.100000 -0.100000
v 0.100000 1.200000 -0.100000
v 0.100000 1.200000 -0.000000
v -0.000000 1.100000 -0.000000
v 0.200000 1.100000 -0.100000
v 0.200000 1.100000 -0.200000
v 0.200000 1.200000 -0.100000
v -0.100000 1.200000 -0.300000
v -0.100000 1.200000 -0.400000
v -0.200000 1.200000 -0.400000
v -0.200000 1.200000 -0.300000
v 0.200000 1.200000 -0.000000
v 0.200000 1.300000 -0.000000
v 0.200000 1.300000 0.100000
v 0.100000 1.200000 0.100000
v -0.000000 1.300000 -0.100000
v 0.300000 1.200000 -0.100000
v 0.300000 1.300000 -0.000000
v -0.100000 1.300000 -0.100000
v -0.100000 1.300000 -0.200000
v -0.000000 1.300000 -0.200000
v 0.100000 1.300000 -0.200000
v -0.000000 1.300000 -0.300000
v 0.100000 1.300000 -0.300000
v 0.300000 1.300000 0.100000
v 0.300000 1.400000 0.100000
v 0.300000 1.400000 0.200000
v 0.200000 1.300000 0.200000
v 0.100000 1.400000 -0.000000
v 0.400000 1.300000 -0.000000
v 0.400000 1.400000 0.100000
v -0.000000 1.400000 -0.000000
v -0.000000 1.400000 -0.100000
v 0.100000 1.400000 -0.100000
v 0.200000 1.400000 -0.100000
v 0.100000 1.400000 -0.200000
v -0.000000 1.400000 -0.200000
v 0.200000 1.400000 -0.200000
v -0.000000 1.400000 -0.300000
v -0.100000 1.400000 -0.300000
v -0.100000 1.400000 -0.200000
v 0.300000 1.400000 0.300000
v 0.300000 1.500000 0.200000
v 0.200000 1.500000 0.100000
v 0.200000 1.500000 0.200000
v 0.500000 1.400000 0.100000
v 0.400000 1.500000 0.100000
v 0.100000 1.500000 0.100000
v 0.100000 1.500000 -0.000000
v 0.200000 1.500000 -0.000000
v 0.400000 1.500000 -0.000000
v 0.300000 1.500000 -0.000000
v 0.200000 1.500000 -0.100000
v 0.100000 1.500000 -0.100000
v 0.300000 1.500000 -0.100000
v 0.100000 1.500000 -0.200000
v -0.000000 1.500000 -0.200000
v -0.000000 1.500000 -0.100000
v 0.200000 1.600000 0.300000
v 0.200000 1.600000 0.200000
v 0.300000 1.600000 0.200000
v 0.200000 1.500000 0.300000
v 0.200000 1.600000 -0.000000
v 0.400000 1.600000 -0.000000
v 0.500000 1.500000 -0.000000
v 0.500000 1.600000 -0.000000
v 0.400000 1.600000 0.100000
v 0.200000 1.600000 -0.100000
v 0.100000 1.600000 -0.100000
v 0.100000 1.600000 -0.000000
v 0.300000 1.700000 0.200000
v 0.200000 1.700000 0.200000
v 0.400000 1.700000 0.100000
v 0.200000 1.700000 -0.000000
v 0.400000 1.700000 -0.000000
v 0.600000 1.000000 0.600000
v 0.600000 1.100000 0.600000
v 0.800000 1.000000 0.600000
v 0.800000 1.100000 0.600000
v 0.600000 1.100000 0.400000
v 0.600000 1.000000 0.400000
v 0.800000 1.000000 0.400000
v 0.800000 1.100000 0.400000
v 0.600000 1.100000 0.700000
v 0.800000 1.100000 0.700000
v 0.500000 1.100000 0.600000
v 0.900000 1.100000 0.600000
v 0.500000 1.100000 0.400000
v 0.900000 1.100000 0.400000
v 0.600000 1.100000 0.300000
v 0.800000 1.100000 0.300000
vn -0.0000 -1.0000 -0.0000
vn 1.0000 -0.0000 -0.0000
vn -0.0000 -0.0000 1.0000
vn -0.0000 1.0000 -0.0000
vn -0.0000 -0.0000 -1.0000
vn -1.0000 -0.0000 -0.0000
vn -0.6247 -0.0000 0.7809
vn -0.7682 -0.0000 -0.6402
vt 0.363636 0.454545
vt 0.333333 0.424242
vt 0.333333 0.454545
vt 0.848485 0.363636
vt 0.818182 0.393939
vt 0.818182 0.363636
vt 0.909091 0.303030
vt 0.909091 0.333333
vt 0.878788 0.393939
vt 0.969697 0.030303
vt 0.939394 0.060606
vt 0.939394 0.030303
vt 0.242424 0.939394
vt 0.212121 0.969697
vt 0.212121 0.939394
vt 0.909091 0.393939
vt 0.909091 0.424242
vt 0.878788 0.454545
vt 0.363636 0.909091
vt 0.333333 0.939394
vt 0.333333 0.909091
vt 0.484848 0.909091
vt 0.454545 0.939394
vt 0.454545 0.909091
vt 0.575758 0.666667
vt 0.606061 0.696970
vt 0.575758 0.696970
vt 0.515152 0.878788
vt 0.424242 0.909091
vt 0.424242 0.878788
vt 0.939394 0.363636
vt 0.939394 0.303030
vt 0.121212 0.939394
vt 0.090909 0.969697
vt 0.090909 0.939394
vt 0.909091 0.909091
vt 0.878788 0.878788
vt 0.878788 0.848485
vt 0.818182 0.909091
vt 0.848485 0.939394
vt 0.848485 0.909091
vt 0.121212 0.090909
vt 0.060606 0.030303
vt 0.242424 0.060606
vt 0.939394 0.757576
vt 0.909091 0.787879
vt 0.909091 0.757576
vt 0.939394 0.575758
vt 0.969697 0.545455
vt 0.939394 0.545455
vt 0.606061 0.272727
vt 0.545455 0.303030
vt 0.606061 0.242424
vt 0.939394 0.333333
vt 0.969697 0.303030
vt 0.212121 0.909091
vt 0.181818 0.939394
vt 0.181818 0.909091
vt 0.636364 0.727273
vt 0.454545 0.757576
vt 0.454545 0.727273
vt 0.848485 0.272727
vt 0.818182 0.303030
vt 0.818182 0.272727
vt 0.272727 0.787879
vt 0.272727 0.757576
vt 0.151515 0.575758
vt 0.060606 0.575758
vt 0.181818 0.545455
vt 0.818182 0.787879
vt 0.848485 0.757576
vt 0.818182 0.757576
vt 0.818182 0.848485
vt 0.696970 0.878788
vt 0.696970 0.848485
vt 0.878788 0.242424
vt 0.878788 0.212121
vt 0.333333 0.969697
vt 0.363636 0.939394
vt 0.212121 0.727273
vt 0.242424 0.757576
vt 0.212121 0.757576
vt 0.848485 0.484848
vt 0.878788 0.303030
vt 0.848485 0.303030
vt 0.212121 0.818182
vt 0.000000 0.787879
vt 0.000000 0.818182
vt 0.727273 0.606061
vt 0.696970 0.424242
vt 0.757576 0.424242
vt 0.939394 0.454545
vt 0.969697 0.424242
vt 0.939394 0.424242
vt 0.787879 0.787879
vt 0.787879 0.757576
vt 0.848485 0.818182
vt 0.696970 0.818182
vt 0.454545 0.969697
vt 0.484848 0.939394
vt 0.666667 0.757576
vt 0.666667 0.727273
vt 0.272727 0.727273
vt 0.060606 0.272727
vt 0.242424 0.303030
vt 0.030303 0.272727
vt 0.515152 0.909091
vt 0.030303 0.484848
vt 0.060606 0.333333
vt 0.090909 0.393939
vt 0.424242 0.939394
vt 0.060606 0.939394
vt 0.030303 0.969697
vt 0.030303 0.939394
vt 0.575758 0.060606
vt 0.757576 0.030303
vt 0.757576 0.060606
vt 0.424242 0.818182
vt 0.606061 0.787879
vt 0.424242 0.787879
vt 0.121212 0.848485
vt 0.181818 0.878788
vt 0.090909 0.878788
vt 0.969697 0.515152
vt 0.939394 0.484848
vt 0.969697 0.484848
vt 0.545455 0.939394
vt 0.515152 0.969697
vt 0.515152 0.939394
vt 0.818182 0.484848
vt 0.787879 0.545455
vt 0.818182 0.515152
vt 0.909091 0.030303
vt 0.909091 0.060606
vt 0.848485 0.545455
vt 0.909091 0.515152
vt 0.878788 0.515152
vt 0.757576 0.909091
vt 0.787879 0.939394
vt 0.787879 0.909091
vt 0.848485 0.151515
vt 0.818182 0.181818
vt 0.848485 0.090909
vt 0.636364 0.454545
vt 0.606061 0.484848
vt 0.606061 0.454545
vt 0.909091 0.606061
vt 0.878788 0.575758
vt 0.848485 0.606061
vt 0.212121 0.333333
vt 0.212121 0.363636
vt 0.060606 0.909091
vt 0.969697 0.212121
vt 0.939394 0.242424
vt 0.939394 0.212121
vt 0.121212 0.878788
vt 0.121212 0.909091
vt 0.878788 0.696970
vt 0.878788 0.666667
vt 0.848485 0.636364
vt 0.909091 0.242424
vt 0.727273 0.939394
vt 0.727273 0.909091
vt 0.666667 0.878788
vt 0.545455 0.848485
vt 0.545455 0.878788
vt 0.666667 0.060606
vt 0.636364 0.090909
vt 0.545455 0.060606
vt 0.242424 0.969697
vt 0.272727 0.939394
vt 0.939394 0.272727
vt 0.969697 0.242424
vt 0.212121 0.787879
vt 0.969697 0.121212
vt 0.939394 0.151515
vt 0.939394 0.121212
vt 0.272727 0.606061
vt 0.303030 0.636364
vt 0.272727 0.636364
vt 0.878788 0.909091
vt 0.393939 0.818182
vt 0.424242 0.848485
vt 0.363636 0.848485
vt 0.363636 0.818182
vt 0.757576 0.121212
vt 0.757576 0.151515
vt 0.787879 0.151515
vt 0.424242 0.969697
vt 0.393939 0.878788
vt 0.333333 0.848485
vt 0.363636 0.878788
vt 0.939394 0.818182
vt 0.909091 0.848485
vt 0.909091 0.818182
vt 0.696970 0.727273
vt 0.151515 0.939394
vt 0.121212 0.969697
vt 0.606061 0.363636
vt 0.636364 0.393939
vt 0.636364 0.363636
vt 0.242424 0.727273
vt 0.393939 0.848485
vt 0.181818 0.848485
vt 0.181818 0.818182
vt 0.636364 0.606061
vt 0.636364 0.696970
vt 0.666667 0.636364
vt 0.939394 0.636364
vt 0.909091 0.666667
vt 0.909091 0.636364
vt 0.606061 0.818182
vt 0.060606 0.969697
vt 0.606061 0.909091
vt 0.636364 0.939394
vt 0.636364 0.909091
vt 0.878788 0.787879
vt 0.606061 0.424242
vt 0.545455 0.636364
vt 0.575758 0.636364
vt 0.666667 0.848485
vt 0.636364 0.818182
vt 0.666667 0.818182
vt 0.696970 0.787879
vt 0.848485 0.242424
vt 0.878788 0.272727
vt 0.909091 0.484848
vt 0.969697 0.060606
vt 0.939394 0.090909
vt 0.212121 0.878788
vt 0.303030 0.909091
vt 0.303030 0.878788
vt 0.939394 0.787879
vt 0.000000 0.939394
vt 0.000000 0.909091
vt 0.939394 0.878788
vt 0.909091 0.878788
vt 0.575758 0.909091
vt 0.757576 0.333333
vt 0.727273 0.363636
vt 0.727273 0.333333
vt 0.666667 0.454545
vt 0.666667 0.545455
vt 0.848485 0.181818
vt 0.818182 0.212121
vt 0.818182 0.727273
vt 0.818182 0.666667
vt 0.242424 0.909091
vt 0.969697 0.363636
vt 0.939394 0.393939
vt 0.909091 0.575758
vt 0.909091 0.545455
vt 0.727273 0.272727
vt 0.666667 0.303030
vt 0.666667 0.272727
vt 0.696970 0.909091
vt 0.636364 0.878788
vt 0.030303 0.848485
vt 0.060606 0.848485
vt 0.090909 0.818182
vt 0.575758 0.000000
vt 0.545455 0.030303
vt 0.545455 0.000000
vt 0.969697 0.333333
vt 0.939394 0.181818
vt 0.848485 0.212121
vt 0.030303 0.727273
vt 0.000000 0.757576
vt 0.000000 0.727273
vt 0.333333 0.060606
vt 0.363636 0.212121
vt 0.484848 0.212121
vt 0.606061 0.727273
vt 0.393939 0.909091
vt 0.696970 0.939394
vt 0.939394 0.727273
vt 0.909091 0.727273
vt 0.303030 0.969697
vt 0.272727 0.969697
vt 0.666667 0.909091
vt 0.878788 0.818182
vt 0.848485 0.848485
vt 0.939394 0.515152
vt 0.909091 0.121212
vt 0.909091 0.151515
vt 0.696970 0.242424
vt 0.727273 0.666667
vt 0.696970 0.696970
vt 0.696970 0.666667
vt 0.787879 0.363636
vt 0.787879 0.393939
vt 0.818182 0.424242
vt 0.303030 0.939394
vt 0.939394 0.848485
vt 0.575758 0.939394
vt 0.636364 0.212121
vt 0.575758 0.181818
vt 0.666667 0.181818
vt 0.818182 0.121212
vt 0.787879 0.121212
vt 0.030303 0.757576
vt 0.909091 0.939394
vt 0.939394 0.909091
vt 0.878788 0.181818
vt 0.666667 0.939394
vt 0.000000 0.969697
vt 0.575758 0.878788
vt 0.969697 0.272727
vt 0.666667 0.787879
vt 0.696970 0.757576
vt 0.393939 0.969697
vt 0.393939 0.939394
vt 0.969697 0.151515
vt 0.939394 0.666667
vt 0.909091 0.696970
vt 0.030303 0.060606
vt 0.030303 0.030303
vt 0.333333 0.545455
vt 0.303030 0.696970
vt 0.333333 0.515152
vt 0.787879 0.242424
vt 0.757576 0.303030
vt 0.787879 0.272727
vt 0.757576 0.484848
vt 0.787879 0.515152
vt 0.757576 0.515152
vt 0.363636 0.969697
vt 0.969697 0.090909
vt 0.909091 0.000000
vt 0.939394 0.000000
vt 0.060606 0.696970
vt 0.030303 0.575758
vt 0.030303 0.666667
vt 0.575758 0.363636
vt 0.545455 0.393939
vt 0.545455 0.363636
vt 0.272727 0.909091
vt 0.212121 0.636364
vt 0.242424 0.606061
vt 0.212121 0.606061
vt 0.848485 0.030303
vt 0.878788 0.000000
vt 0.878788 0.060606
vt 0.878788 0.090909
vt 0.909091 0.090909
vt 0.848485 0.787879
vt 0.818182 0.818182
vt 0.575758 0.030303
vt 0.757576 0.000000
vt 0.181818 0.666667
vt 0.212121 0.696970
vt 0.212121 0.666667
vt 0.757576 0.242424
vt 0.727273 0.242424
vt 0.636364 0.787879
vt 0.636364 0.757576
vt 0.242424 -0.000000
vt 0.060606 -0.000000
vt 0.939394 0.696970
vt 0.757576 0.878788
vt 0.151515 0.969697
vt 0.878788 0.727273
vt 0.848485 0.727273
vt 0.878788 0.757576
vt 0.878788 0.030303
vt 0.969697 0.454545
vt 0.303030 0.060606
vt 0.272727 0.242424
vt 0.272727 0.060606
vt 0.909091 0.454545
vt 0.878788 0.939394
vt 0.969697 0.000000
vt 0.545455 0.696970
vt 0.545455 0.666667
vt 0.242424 0.242424
vt 0.060606 0.242424
vt 0.121212 0.212121
vt 0.181818 0.696970
vt 0.303030 0.727273
vt 0.242424 0.272727
vt 0.000000 0.878788
vt 0.909091 0.212121
vt 0.181818 0.969697
vt 0.787879 0.030303
vt 0.272727 0.515152
vt 0.303030 0.303030
vt 0.909091 0.363636
vt 0.272727 0.030303
vt 0.242424 0.030303
vt 0.818182 0.636364
vt 0.818182 0.575758
vt 0.545455 0.909091
vt 0.696970 0.606061
vt 0.666667 0.606061
vt 0.696970 0.333333
vt 0.696970 0.393939
vt 0.727273 0.424242
vt 0.939394 0.606061
vt 0.515152 0.696970
vt 0.333333 0.727273
vt 0.484848 0.696970
vt 0.757576 0.666667
vt 0.727273 0.757576
vt 0.757576 0.727273
vt 0.969697 0.393939
vt 0.363636 0.424242
vt 0.333333 0.242424
vt 0.303030 0.242424
vt 0.303030 0.454545
vt 0.333333 0.484848
vt 0.545455 0.484848
vt 0.545455 0.454545
vt 0.848485 0.393939
vt 0.606061 0.666667
vt 0.818182 0.939394
vt 0.181818 0.090909
vt 0.060606 0.060606
vt 0.969697 0.575758
vt 0.606061 0.303030
vt 0.545455 0.242424
vt 0.575758 0.242424
vt 0.636364 0.242424
vt 0.454545 0.787879
vt 0.151515 0.696970
vt 0.151515 0.666667
vt 0.030303 0.545455
vt 0.818182 0.878788
vt 0.878788 0.484848
vt 0.757576 0.636364
vt 0.727273 0.636364
vt 0.484848 0.969697
vt 0.000000 0.272727
vt 0.000000 0.060606
vt 0.030303 0.242424
vt 0.030303 0.303030
vt 0.181818 0.515152
vt 0.060606 0.545455
vt 0.060606 0.515152
vt 0.030303 0.515152
vt 0.212121 0.484848
vt 0.212121 0.515152
vt 0.242424 0.363636
vt 0.242424 0.484848
vt 0.151515 0.393939
vt 0.151515 0.454545
vt 0.000000 0.484848
vt 0.000000 0.363636
vt 0.030303 0.363636
vt 0.030303 0.333333
vt 0.090909 0.454545
vt 0.060606 0.303030
vt 0.181818 0.303030
vt 0.181818 0.333333
vt 0.121212 0.818182
vt 0.545455 0.969697
vt 0.848485 0.515152
vt 0.848485 0.424242
vt 0.787879 0.484848
vt 0.818182 0.545455
vt 0.757576 0.939394
vt 0.878788 0.151515
vt 0.818182 0.060606
vt 0.848485 0.060606
vt 0.636364 0.484848
vt 0.878788 0.545455
vt 0.848485 0.575758
vt 0.848485 0.666667
vt 0.848485 0.696970
vt 0.878788 0.636364
vt 0.636364 0.181818
vt 0.545455 0.090909
vt 0.303030 0.606061
vt 0.727273 0.060606
vt 0.727273 0.151515
vt 0.757576 0.181818
vt 0.787879 0.181818
vt 0.333333 0.878788
vt 0.575758 0.393939
vt 0.575758 0.424242
vt 0.636364 0.424242
vt 0.666667 0.393939
vt 0.666667 0.363636
vt 0.636364 0.303030
vt 0.636364 0.575758
vt 0.606061 0.575758
vt 0.606061 0.848485
vt 0.606061 0.939394
vt 0.545455 0.424242
vt 0.636364 0.848485
vt 0.757576 0.363636
vt 0.666667 0.575758
vt 0.696970 0.545455
vt 0.666667 0.424242
vt 0.787879 0.727273
vt 0.787879 0.666667
vt 0.818182 0.242424
vt 0.727273 0.303030
vt 0.000000 0.848485
vt 0.030303 0.878788
vt 0.060606 0.878788
vt 0.090909 0.848485
vt 0.969697 0.181818
vt 0.545455 0.181818
vt 0.515152 0.060606
vt 0.515152 0.030303
vt 0.484848 0.030303
vt 0.484848 -0.000000
vt 0.363636 -0.000000
vt 0.363636 0.030303
vt 0.333333 0.030303
vt 0.515152 0.212121
vt 0.515152 0.181818
vt 0.303030 0.181818
vt 0.333333 0.181818
vt 0.333333 0.212121
vt 0.363636 0.242424
vt 0.484848 0.242424
vt 0.575758 0.727273
vt 0.878788 0.121212
vt 0.696970 0.272727
vt 0.727273 0.696970
vt 0.787879 0.303030
vt 0.757576 0.393939
vt 0.787879 0.424242
vt 0.606061 0.212121
vt 0.818182 0.151515
vt 0.030303 0.787879
vt 0.939394 0.939394
vt 0.333333 0.575758
vt 0.303030 0.515152
vt 0.757576 0.272727
vt 0.060606 0.727273
vt 0.060606 0.666667
vt 0.000000 0.666667
vt 0.000000 0.696970
vt 0.272727 0.666667
vt 0.242424 0.545455
vt 0.212121 0.545455
vt 0.181818 0.606061
vt 0.181818 0.636364
vt 0.787879 0.060606
vt 0.848485 0.000000
vt 0.181818 0.121212
vt 0.212121 0.121212
vt 0.181818 0.212121
vt 0.181818 0.181818
vt 0.212121 0.181818
vt 0.121212 0.121212
vt 0.090909 0.121212
vt 0.090909 0.181818
vt 0.121212 0.181818
vt 0.181818 0.727273
vt 0.272727 0.272727
vt 0.787879 0.000000
vt 0.272727 0.545455
vt 0.757576 0.575758
vt 0.757576 0.545455
vt 0.696970 0.636364
vt 0.696970 0.303030
vt 0.515152 0.515152
vt 0.545455 0.515152
vt 0.515152 0.727273
vt 0.515152 0.484848
vt 0.484848 0.545455
vt 0.333333 0.696970
vt 0.363636 0.575758
vt 0.363636 0.666667
vt 0.454545 0.666667
vt 0.454545 0.696970
vt 0.787879 0.636364
vt 0.757576 0.757576
s 0
usemtl lampu_belajar_3_Material
f 80/1/1 69/2/1 75/3/1
f 244/4/2 262/5/2 242/6/2
f 77/7/3 222/8/3 256/9/3
f 237/10/4 241/11/4 240/12/4
f 156/13/4 272/14/4 275/15/4
f 117/16/3 235/17/3 253/18/3
f 89/19/3 221/20/3 220/21/3
f 272/22/2 281/23/2 275/24/2
f 46/25/2 54/26/2 45/27/2
f 144/28/2 149/29/2 136/30/2
f 288/31/4 294/7/4 285/32/4
f 260/33/4 261/34/4 258/35/4
f 259/36/2 239/37/2 123/38/2
f 167/39/5 164/40/5 162/41/5
f 99/42/4 45/43/4 63/44/4
f 162/45/2 165/46/2 160/47/2
f 114/48/6 299/49/6 291/50/6
f 281/51/4 282/52/4 167/53/4
f 76/54/6 90/55/6 75/32/6
f 12/56/3 17/57/3 18/58/3
f 86/59/3 81/60/3 80/61/3
f 61/62/3 95/63/3 63/64/3
f 97/65/6 70/60/6 55/66/6
f 128/67/4 125/68/4 129/69/4
f 87/70/6 86/71/6 88/72/6
f 31/73/2 22/74/2 21/75/2
f 232/7/2 204/76/2 202/77/2
f 127/78/6 103/79/6 98/20/6
f 50/80/3 62/81/3 51/82/3
f 74/83/1 67/84/1 60/85/1
f 77/86/6 66/87/6 65/88/6
f 170/89/2 20/90/2 24/91/2
f 100/92/6 287/93/6 293/94/6
f 131/95/6 118/72/6 119/96/6
f 101/97/3 127/75/3 98/98/3
f 107/99/5 295/100/5 287/23/5
f 86/59/5 84/101/5 83/102/5
f 70/60/2 56/103/2 69/61/2
f 81/104/4 92/105/4 76/106/4
f 216/107/4 218/100/4 219/22/4
f 26/108/4 2/109/4 19/110/4
f 254/24/2 142/111/2 143/29/2
f 224/112/4 228/113/4 227/114/4
f 102/115/2 73/116/2 122/117/2
f 46/118/1 49/119/1 48/120/1
f 147/121/3 161/122/3 158/123/3
f 239/17/5 157/92/5 254/94/5
f 112/124/3 296/125/3 288/126/3
f 123/127/3 234/128/3 233/129/3
f 243/130/5 277/131/5 261/132/5
f 55/133/3 94/11/3 97/134/3
f 158/135/6 269/136/6 152/137/6
f 50/138/1 60/139/1 59/140/1
f 191/141/3 199/142/3 174/143/3
f 179/144/3 190/145/3 178/146/3
f 163/147/5 156/148/5 281/149/5
f 19/110/4 16/150/4 15/151/4
f 110/33/6 295/152/6 106/112/6
f 271/153/4 277/154/4 278/155/4
f 130/56/6 108/156/6 125/157/6
f 204/158/1 209/159/1 212/160/1
f 243/7/2 215/161/2 214/155/2
f 198/138/4 200/162/4 199/163/4
f 27/164/6 18/165/6 17/166/6
f 137/167/4 136/168/4 134/169/4
f 56/170/1 46/171/1 58/13/1
f 151/172/1 138/173/1 150/154/1
f 90/174/5 92/118/5 91/120/5
f 152/175/4 268/176/4 267/177/4
f 258/178/2 276/179/2 271/180/2
f 284/73/4 290/181/4 289/39/4
f 74/182/5 72/183/5 71/118/5
f 74/182/3 87/184/3 88/185/3
f 224/186/6 241/187/6 245/188/6
f 285/23/2 99/189/2 292/111/2
f 5/165/3 1/30/3 3/183/3
f 297/111/4 287/190/4 295/30/4
f 33/191/6 41/192/6 42/184/6
f 160/193/3 168/194/3 159/195/3
f 80/196/2 82/101/2 79/102/2
f 262/197/4 265/198/4 266/33/4
f 260/199/5 272/200/5 259/201/5
f 137/98/2 131/95/2 133/70/2
f 57/81/6 56/103/6 58/202/6
f 73/203/5 121/192/5 122/190/5
f 49/185/3 47/204/3 48/205/3
f 176/206/6 200/207/6 187/208/6
f 176/209/4 178/210/4 177/211/4
f 71/212/2 68/183/2 67/118/2
f 243/35/4 244/213/4 242/112/4
f 38/214/5 40/215/5 39/216/5
f 226/217/2 225/47/2 260/38/2
f 23/218/6 177/219/6 178/220/6
f 38/221/2 44/74/2 37/164/2
f 135/222/6 138/223/6 139/224/6
f 60/225/3 68/226/3 61/62/3
f 139/125/3 151/136/3 250/227/3
f 245/228/4 248/229/4 249/11/4
f 111/230/5 131/231/5 119/232/5
f 165/233/4 166/195/4 168/46/4
f 296/152/2 104/234/2 294/235/2
f 168/40/6 167/181/6 159/41/6
f 173/36/1 186/236/1 174/237/1
f 287/238/5 284/28/5 285/107/5
f 206/239/2 216/240/2 201/241/2
f 183/242/5 206/243/5 181/90/5
f 50/244/2 52/245/2 49/142/2
f 192/246/2 182/247/2 181/160/2
f 25/248/5 27/15/5 26/13/5
f 209/249/2 211/250/2 208/31/2
f 60/225/5 63/64/5 61/62/5
f 6/50/2 8/251/2 5/252/2
f 289/253/2 285/254/2 284/255/2
f 291/256/3 289/257/3 290/74/3
f 141/258/5 144/259/5 133/260/5
f 60/261/2 62/262/2 59/263/2
f 118/54/5 132/249/5 120/264/5
f 157/265/2 274/153/2 156/155/2
f 51/266/2 95/76/2 96/225/2
f 46/267/3 57/268/3 58/269/3
f 12/270/1 33/271/1 38/272/1
f 45/27/6 94/273/6 54/26/6
f 151/79/6 235/274/6 250/19/6
f 205/163/4 206/275/4 201/256/4
f 86/47/1 74/276/1 88/277/1
f 30/171/2 40/278/2 29/279/2
f 170/215/1 180/280/1 171/216/1
f 183/281/4 184/282/4 179/97/4
f 298/124/2 112/50/2 288/283/2
f 194/284/3 196/285/3 227/77/3
f 169/286/3 177/255/3 19/167/3
f 201/287/3 219/288/3 200/289/3
f 237/290/6 257/291/6 277/292/6
f 78/293/5 76/78/5 75/20/5
f 9/147/6 12/48/6 11/251/6
f 171/294/2 174/237/2 172/194/2
f 14/214/2 16/295/2 13/238/2
f 160/296/4 158/297/4 161/298/4
f 231/299/2 245/188/2 229/300/2
f 96/174/3 45/301/3 51/82/3
f 136/190/3 146/231/3 135/232/3
f 220/21/2 222/293/2 77/231/2
f 191/302/1 194/303/1 197/36/1
f 50/244/6 63/77/6 64/304/6
f 169/305/1 172/256/1 175/280/1
f 192/306/1 202/114/1 193/234/1
f 291/216/6 286/307/6 287/238/6
f 25/172/6 35/55/6 36/308/6
f 157/139/1 141/39/1 142/140/1
f 116/309/6 81/310/6 82/101/6
f 213/111/3 210/311/3 209/312/3
f 253/265/1 151/313/1 270/176/1
f 4/314/3 9/315/3 11/210/3
f 45/43/4 55/316/4 57/317/4
f 98/318/4 117/319/4 94/320/4
f 230/321/5 265/322/5 244/323/5
f 293/147/4 285/160/4 292/149/4
f 241/324/3 262/325/3 266/326/3
f 187/312/4 189/327/4 190/79/4
f 110/128/3 291/100/3 297/129/3
f 252/328/4 257/177/4 256/229/4
f 56/329/5 54/12/5 53/330/5
f 143/331/1 126/332/1 139/333/1
f 258/334/3 278/335/3 257/336/3
f 202/231/3 195/171/3 193/337/3
f 268/338/6 252/339/6 253/340/6
f 115/57/3 298/157/3 299/58/3
f 154/341/2 155/342/2 163/343/2
f 45/301/5 50/80/5 46/267/5
f 222/344/1 226/284/1 233/345/1
f 85/346/2 121/347/2 87/70/2
f 61/348/6 74/349/6 60/261/6
f 103/350/5 125/351/5 108/352/5
f 229/353/3 249/253/3 228/354/3
f 81/60/5 124/355/5 85/356/5
f 52/357/4 45/43/4 47/358/4
f 33/359/5 35/277/5 34/276/5
f 291/360/4 298/256/4 288/74/4
f 151/57/3 267/361/3 270/197/3
f 220/362/1 211/363/1 215/364/1
f 56/329/3 65/365/3 66/342/3
f 104/125/5 285/366/5 294/92/5
f 68/367/4 73/368/4 61/369/4
f 268/370/3 279/125/3 280/227/3
f 180/36/3 173/371/3 171/181/3
f 230/372/4 231/12/4 229/330/4
f 14/107/3 22/127/3 15/129/3
f 47/373/6 46/25/6 48/374/6
f 87/375/4 82/376/4 113/377/4
f 126/378/3 125/351/3 137/379/3
f 73/368/4 85/380/4 87/375/4
f 44/157/5 42/381/5 41/235/5
f 120/191/2 129/122/2 101/204/2
f 1/252/6 4/283/6 3/136/6
f 208/177/3 211/176/3 240/382/3
f 259/383/1 157/15/1 255/57/1
f 74/349/2 84/384/2 73/116/2
f 184/385/5 24/386/5 23/105/5
f 100/39/5 292/360/5 99/138/5
f 79/31/3 70/16/3 69/387/3
f 62/388/4 63/44/4 51/389/4
f 149/135/4 154/390/4 148/391/4
f 6/392/3 16/295/3 7/127/3
f 184/393/2 187/208/2 179/394/2
f 70/16/5 116/94/5 82/250/5
f 193/337/2 196/13/2 194/248/2
f 198/395/6 228/396/6 248/397/6
f 30/147/5 32/209/5 31/398/5
f 121/399/4 123/400/4 120/401/4
f 205/402/5 248/403/5 231/404/5
f 86/71/2 92/217/2 85/346/2
f 233/405/2 235/94/2 117/250/2
f 80/1/1 79/406/1 69/2/1
f 69/2/1 56/407/1 66/408/1
f 66/408/1 78/409/1 75/3/1
f 75/3/1 90/410/1 91/411/1
f 91/411/1 86/412/1 80/1/1
f 69/2/1 66/408/1 75/3/1
f 75/3/1 91/411/1 80/1/1
f 244/4/2 264/413/2 262/5/2
f 256/9/3 223/84/3 77/7/3
f 222/8/3 252/16/3 256/9/3
f 237/10/4 242/228/4 241/11/4
f 156/13/4 274/170/4 272/14/4
f 253/18/3 236/9/3 117/16/3
f 235/17/3 251/370/3 253/18/3
f 89/19/3 226/79/3 221/20/3
f 272/22/2 283/100/2 281/23/2
f 46/25/2 53/414/2 54/26/2
f 144/28/2 153/107/2 149/29/2
f 288/31/4 296/387/4 294/7/4
f 260/33/4 263/198/4 261/34/4
f 123/38/2 238/194/2 259/36/2
f 259/36/2 255/181/2 239/37/2
f 167/39/5 166/415/5 164/40/5
f 63/44/4 100/416/4 99/42/4
f 99/42/4 54/417/4 45/43/4
f 45/43/4 51/389/4 63/44/4
f 162/45/2 164/233/2 165/46/2
f 114/48/6 115/418/6 299/49/6
f 281/51/4 283/419/4 282/52/4
f 282/52/4 280/420/4 279/421/4
f 167/53/4 162/422/4 281/51/4
f 282/52/4 279/421/4 167/53/4
f 76/54/6 89/264/6 90/55/6
f 12/56/3 10/15/3 17/57/3
f 86/59/3 85/356/3 81/60/3
f 61/62/3 102/85/3 95/63/3
f 97/65/6 117/423/6 70/60/6
f 129/69/4 132/378/4 133/424/4
f 129/69/4 133/424/4 131/425/4
f 126/332/4 127/426/4 129/69/4
f 125/68/4 126/332/4 129/69/4
f 129/69/4 131/425/4 128/67/4
f 87/70/6 85/346/6 86/71/6
f 31/73/2 32/427/2 22/74/2
f 202/77/2 203/382/2 232/7/2
f 232/7/2 230/84/2 204/76/2
f 127/78/6 126/327/6 103/79/6
f 50/80/3 59/202/3 62/81/3
f 74/83/1 71/428/1 67/84/1
f 77/86/6 78/174/6 66/87/6
f 24/91/2 185/429/2 183/430/2
f 170/89/2 171/393/2 20/90/2
f 24/91/2 183/430/2 170/89/2
f 100/92/6 107/366/6 287/93/6
f 131/95/6 133/70/6 118/72/6
f 101/97/3 129/282/3 127/75/3
f 107/99/5 106/431/5 295/100/5
f 86/59/5 85/356/5 84/101/5
f 70/60/2 55/66/2 56/103/2
f 77/432/4 65/433/4 55/316/4
f 70/434/4 82/376/4 81/104/4
f 77/432/4 55/316/4 70/434/4
f 92/105/4 89/435/4 76/106/4
f 76/106/4 77/432/4 70/434/4
f 81/104/4 85/380/4 92/105/4
f 76/106/4 70/434/4 81/104/4
f 216/107/4 217/129/4 218/100/4
f 37/436/4 44/69/4 41/437/4
f 34/438/4 35/439/4 26/108/4
f 37/436/4 41/437/4 34/438/4
f 29/440/4 40/441/4 37/436/4
f 22/442/4 32/443/4 29/440/4
f 20/444/4 15/151/4 22/442/4
f 24/445/4 20/444/4 22/442/4
f 22/442/4 29/440/4 37/436/4
f 37/436/4 34/438/4 26/108/4
f 26/108/4 27/446/4 17/447/4
f 10/448/4 9/449/4 2/109/4
f 26/108/4 17/447/4 10/448/4
f 24/445/4 22/442/4 37/436/4
f 23/450/4 24/445/4 37/436/4
f 26/108/4 10/448/4 2/109/4
f 2/109/4 1/451/4 8/452/4
f 8/452/4 7/453/4 19/110/4
f 23/450/4 37/436/4 26/108/4
f 2/109/4 8/452/4 19/110/4
f 19/110/4 23/450/4 26/108/4
f 254/24/2 157/23/2 142/111/2
f 224/112/4 229/213/4 228/113/4
f 102/115/2 61/348/2 73/116/2
f 46/118/1 50/212/1 49/119/1
f 158/123/3 150/260/3 138/454/3
f 147/121/3 148/204/3 161/122/3
f 158/123/3 138/454/3 147/121/3
f 239/17/5 255/370/5 157/92/5
f 112/124/3 109/283/3 296/125/3
f 123/127/3 239/455/3 234/128/3
f 263/456/5 225/457/5 215/292/5
f 243/130/5 242/458/5 262/325/5
f 263/456/5 215/292/5 243/130/5
f 277/131/5 276/459/5 261/132/5
f 261/132/5 263/456/5 243/130/5
f 243/130/5 262/325/5 277/131/5
f 55/133/3 54/12/3 94/11/3
f 151/428/6 150/83/6 158/135/6
f 158/135/6 279/252/6 269/136/6
f 152/137/6 151/428/6 158/135/6
f 50/138/1 64/460/1 60/139/1
f 186/344/3 193/461/3 191/141/3
f 191/141/3 198/244/3 199/142/3
f 199/142/3 175/462/3 172/463/3
f 174/143/3 186/344/3 191/141/3
f 199/142/3 172/463/3 174/143/3
f 179/144/3 187/464/3 190/145/3
f 163/147/5 155/252/5 157/465/5
f 156/148/5 275/466/5 281/149/5
f 163/147/5 157/465/5 156/148/5
f 15/151/4 20/444/4 19/110/4
f 19/110/4 7/453/4 16/150/4
f 110/33/6 297/157/6 295/152/6
f 271/153/4 276/173/4 277/154/4
f 130/56/6 111/230/6 108/156/6
f 196/467/1 195/468/1 204/158/1
f 204/158/1 214/315/1 213/210/1
f 209/159/1 208/469/1 212/160/1
f 204/158/1 213/210/1 209/159/1
f 212/160/1 196/467/1 204/158/1
f 214/155/2 246/32/2 243/7/2
f 215/161/2 213/382/2 214/155/2
f 198/138/4 201/460/4 200/162/4
f 27/164/6 28/221/6 18/165/6
f 137/167/4 145/298/4 144/470/4
f 136/168/4 135/471/4 134/169/4
f 137/167/4 144/470/4 136/168/4
f 56/170/1 53/279/1 46/171/1
f 151/172/1 140/308/1 138/173/1
f 90/174/5 89/86/5 92/118/5
f 152/175/4 269/313/4 268/176/4
f 258/178/2 261/472/2 276/179/2
f 284/73/4 286/38/4 290/181/4
f 74/182/5 73/203/5 72/183/5
f 74/182/3 73/203/3 87/184/3
f 224/186/6 196/117/6 212/473/6
f 212/473/6 240/474/6 241/187/6
f 241/187/6 266/475/6 265/476/6
f 245/188/6 229/300/6 224/186/6
f 241/187/6 265/476/6 245/188/6
f 224/186/6 212/473/6 241/187/6
f 285/23/2 105/99/2 99/189/2
f 5/165/3 8/166/3 1/30/3
f 297/111/4 291/312/4 287/190/4
f 33/191/6 34/477/6 41/192/6
f 160/193/3 165/294/3 168/194/3
f 80/196/2 81/310/2 82/101/2
f 262/197/4 264/361/4 265/198/4
f 260/199/5 258/334/5 271/478/5
f 271/478/5 282/479/5 283/480/5
f 272/200/5 274/481/5 273/482/5
f 271/478/5 283/480/5 272/200/5
f 238/483/5 226/419/5 260/199/5
f 260/199/5 271/478/5 272/200/5
f 272/200/5 273/482/5 259/201/5
f 259/201/5 238/483/5 260/199/5
f 133/70/2 145/347/2 137/98/2
f 137/98/2 128/224/2 131/95/2
f 57/81/6 55/66/6 56/103/6
f 73/203/5 87/184/5 121/192/5
f 49/185/3 52/184/3 47/204/3
f 176/206/6 169/484/6 175/485/6
f 175/485/6 199/26/6 200/207/6
f 200/207/6 219/59/6 218/102/6
f 187/208/6 179/394/6 176/206/6
f 200/207/6 218/102/6 187/208/6
f 176/206/6 175/485/6 200/207/6
f 176/209/4 179/314/4 178/210/4
f 71/212/2 72/486/2 68/183/2
f 243/35/4 246/34/4 244/213/4
f 38/214/5 37/487/5 40/215/5
f 226/217/2 89/364/2 225/47/2
f 225/47/2 263/194/2 260/38/2
f 190/25/6 189/414/6 23/218/6
f 23/218/6 19/488/6 177/219/6
f 178/220/6 190/25/6 23/218/6
f 38/221/2 43/75/2 44/74/2
f 139/224/6 126/119/6 134/212/6
f 135/222/6 146/489/6 147/221/6
f 139/224/6 134/212/6 135/222/6
f 138/223/6 140/98/6 139/224/6
f 135/222/6 147/221/6 138/223/6
f 60/225/3 67/76/3 68/226/3
f 139/125/3 140/283/3 151/136/3
f 245/228/4 247/328/4 248/229/4
f 111/230/5 130/56/5 131/231/5
f 165/233/4 164/193/4 166/195/4
f 296/152/2 109/112/2 104/234/2
f 168/40/6 166/371/6 167/181/6
f 173/36/1 182/303/1 186/236/1
f 287/238/5 286/307/5 284/28/5
f 206/239/2 217/490/2 216/240/2
f 183/242/5 179/144/5 187/464/5
f 187/464/5 218/484/5 217/491/5
f 206/243/5 207/492/5 181/90/5
f 187/464/5 217/491/5 206/243/5
f 181/90/5 170/493/5 183/242/5
f 183/242/5 187/464/5 206/243/5
f 50/244/2 51/266/2 52/245/2
f 181/160/2 207/71/2 205/72/2
f 192/246/2 193/494/2 186/495/2
f 181/160/2 205/72/2 192/246/2
f 182/247/2 180/390/2 181/160/2
f 192/246/2 186/495/2 182/247/2
f 25/248/5 28/56/5 27/15/5
f 209/249/2 210/405/2 211/250/2
f 60/225/5 64/496/5 63/64/5
f 6/50/2 7/48/2 8/251/2
f 289/253/2 288/497/2 285/254/2
f 291/256/3 288/216/3 289/257/3
f 133/260/5 143/88/5 142/498/5
f 141/258/5 154/499/5 153/500/5
f 133/260/5 142/498/5 141/258/5
f 144/259/5 145/501/5 133/260/5
f 141/258/5 153/500/5 144/259/5
f 60/261/2 61/348/2 62/262/2
f 118/54/5 133/31/5 132/249/5
f 157/265/2 273/502/2 274/153/2
f 51/266/2 63/77/2 95/76/2
f 46/267/3 45/301/3 57/268/3
f 31/503/1 21/169/1 14/504/1
f 14/504/1 13/505/1 6/506/1
f 6/506/1 5/507/1 3/508/1
f 4/509/1 11/510/1 12/270/1
f 6/506/1 3/508/1 4/509/1
f 31/503/1 14/504/1 6/506/1
f 38/272/1 39/511/1 30/512/1
f 30/512/1 31/503/1 6/506/1
f 6/506/1 4/509/1 12/270/1
f 12/270/1 18/367/1 28/513/1
f 25/514/1 36/515/1 33/271/1
f 12/270/1 28/513/1 25/514/1
f 30/512/1 6/506/1 12/270/1
f 42/516/1 43/517/1 38/272/1
f 38/272/1 30/512/1 12/270/1
f 12/270/1 25/514/1 33/271/1
f 33/271/1 42/516/1 38/272/1
f 45/27/6 93/518/6 94/273/6
f 151/79/6 251/312/6 235/274/6
f 205/163/4 207/162/4 206/275/4
f 86/47/1 83/45/1 74/276/1
f 30/171/2 39/293/2 40/278/2
f 170/215/1 181/305/1 180/280/1
f 183/281/4 185/38/4 184/282/4
f 298/124/2 113/49/2 112/50/2
f 227/77/3 197/519/3 194/284/3
f 196/285/3 224/382/3 227/77/3
f 19/167/3 20/473/3 171/354/3
f 169/286/3 176/520/3 177/255/3
f 19/167/3 171/354/3 169/286/3
f 201/287/3 216/521/3 219/288/3
f 237/290/6 211/522/6 223/322/6
f 223/322/6 256/523/6 257/291/6
f 257/291/6 278/524/6 277/292/6
f 277/292/7 262/5/7 242/6/7
f 237/290/6 223/322/6 257/291/6
f 277/292/6 242/6/6 237/290/6
f 78/293/5 77/278/5 76/78/5
f 9/147/6 10/398/6 12/48/6
f 171/294/2 173/236/2 174/237/2
f 14/214/2 15/487/2 16/295/2
f 159/525/4 167/53/4 279/421/4
f 163/255/4 281/51/4 162/422/4
f 163/255/4 162/422/4 160/296/4
f 159/525/4 279/421/4 158/297/4
f 161/298/4 163/255/4 160/296/4
f 160/296/4 159/525/4 158/297/4
f 231/299/2 247/526/2 245/188/2
f 96/174/3 93/527/3 45/301/3
f 136/190/3 149/274/3 146/231/3
f 220/21/2 221/20/2 222/293/2
f 191/302/1 193/528/1 194/303/1
f 50/244/6 51/266/6 63/77/6
f 169/305/1 171/275/1 172/256/1
f 192/306/1 203/113/1 202/114/1
f 291/216/6 290/257/6 286/307/6
f 25/172/6 26/32/6 35/55/6
f 157/139/1 155/415/1 141/39/1
f 116/309/6 123/224/6 81/310/6
f 213/111/3 215/189/3 210/311/3
f 253/265/1 251/502/1 151/313/1
f 4/314/3 2/359/3 9/315/3
f 45/43/4 54/417/4 55/316/4
f 98/318/4 103/529/4 117/319/4
f 117/319/4 97/530/4 94/320/4
f 246/64/5 214/142/5 204/476/5
f 230/321/5 229/353/5 245/531/5
f 246/64/5 204/476/5 230/321/5
f 265/322/5 264/522/5 244/323/5
f 244/323/5 246/64/5 230/321/5
f 230/321/5 245/531/5 265/322/5
f 293/147/4 287/211/4 285/160/4
f 241/324/3 242/458/3 262/325/3
f 187/312/4 188/311/4 189/327/4
f 110/128/3 114/431/3 291/100/3
f 252/328/4 258/175/4 257/177/4
f 56/329/5 55/133/5 54/12/5
f 239/267/1 254/532/1 143/331/1
f 143/331/1 133/424/1 131/425/1
f 130/533/1 125/68/1 126/332/1
f 143/331/1 131/425/1 130/533/1
f 234/269/1 239/267/1 143/331/1
f 139/333/1 250/534/1 235/535/1
f 235/535/1 234/269/1 143/331/1
f 143/331/1 130/533/1 126/332/1
f 139/333/1 235/535/1 143/331/1
f 258/334/3 271/478/3 278/335/3
f 202/231/3 204/293/3 195/171/3
f 268/338/6 280/352/6 282/536/6
f 282/536/6 271/180/6 258/178/6
f 252/339/6 222/537/6 236/538/6
f 282/536/6 258/178/6 252/339/6
f 270/539/6 267/540/6 268/338/6
f 268/338/6 282/536/6 252/339/6
f 252/339/6 236/538/6 253/340/6
f 253/340/6 270/539/6 268/338/6
f 115/57/3 113/33/3 298/157/3
f 163/343/2 161/541/2 148/384/2
f 154/341/2 141/542/2 155/342/2
f 163/343/2 148/384/2 154/341/2
f 45/301/5 51/82/5 50/80/5
f 117/134/1 236/343/1 222/344/1
f 222/344/1 221/519/1 226/284/1
f 226/284/1 238/177/1 123/229/1
f 233/345/1 117/134/1 222/344/1
f 226/284/1 123/229/1 233/345/1
f 85/346/2 124/97/2 121/347/2
f 61/348/6 73/116/6 74/349/6
f 103/350/5 126/378/5 125/351/5
f 229/353/3 245/531/3 249/253/3
f 81/60/5 123/423/5 124/355/5
f 52/357/4 51/389/4 45/43/4
f 33/359/5 36/315/5 35/277/5
f 291/360/4 299/138/4 298/256/4
f 151/57/3 152/383/3 267/361/3
f 225/47/1 89/277/1 220/362/1
f 220/362/1 77/158/1 223/468/1
f 211/363/1 210/71/1 215/364/1
f 220/362/1 223/468/1 211/363/1
f 215/364/1 225/47/1 220/362/1
f 56/329/3 55/133/3 65/365/3
f 104/125/5 105/126/5 285/366/5
f 68/367/4 72/408/4 73/368/4
f 268/370/3 269/92/3 279/125/3
f 180/36/3 182/302/3 173/371/3
f 230/372/4 232/10/4 231/12/4
f 14/107/3 21/392/3 22/127/3
f 47/373/6 45/27/6 46/25/6
f 107/543/4 100/416/4 63/44/4
f 63/44/4 61/369/4 73/368/4
f 87/375/4 85/380/4 81/104/4
f 63/44/4 73/368/4 87/375/4
f 106/544/4 107/543/4 63/44/4
f 115/545/4 114/546/4 110/547/4
f 110/547/4 106/544/4 63/44/4
f 87/375/4 81/104/4 82/376/4
f 82/376/4 70/434/4 55/316/4
f 55/316/4 54/417/4 99/42/4
f 99/42/4 105/548/4 104/549/4
f 109/550/4 112/551/4 113/377/4
f 55/316/4 99/42/4 104/549/4
f 55/316/4 104/549/4 109/550/4
f 110/547/4 63/44/4 87/375/4
f 115/545/4 110/547/4 87/375/4
f 82/376/4 55/316/4 109/550/4
f 113/377/4 115/545/4 87/375/4
f 82/376/4 109/550/4 113/377/4
f 137/379/3 134/552/3 126/378/3
f 125/351/3 128/319/3 137/379/3
f 73/368/4 84/553/4 85/380/4
f 44/157/5 43/156/5 42/381/5
f 120/191/2 132/477/2 129/122/2
f 1/252/6 2/50/6 4/283/6
f 240/382/3 212/284/3 208/177/3
f 211/176/3 237/155/3 240/382/3
f 259/383/1 273/14/1 157/15/1
f 74/349/2 83/554/2 84/384/2
f 23/105/5 189/537/5 188/555/5
f 184/385/5 185/530/5 24/386/5
f 23/105/5 188/555/5 184/385/5
f 100/39/5 293/427/5 292/360/5
f 79/31/3 82/250/3 70/16/3
f 62/388/4 61/369/4 63/44/4
f 147/556/4 146/557/4 149/135/4
f 149/135/4 153/160/4 154/390/4
f 148/391/4 147/556/4 149/135/4
f 6/392/3 13/238/3 16/295/3
f 184/393/2 188/558/2 187/208/2
f 70/16/5 117/17/5 116/94/5
f 193/337/2 195/171/2 196/13/2
f 198/395/6 191/559/6 197/254/6
f 197/254/6 227/481/6 228/396/6
f 228/396/6 249/90/6 248/397/6
f 248/397/8 216/240/8 201/241/8
f 198/395/6 197/254/6 228/396/6
f 248/397/6 201/241/6 198/395/6
f 30/147/5 29/211/5 32/209/5
f 95/560/4 102/561/4 122/373/4
f 121/399/4 124/562/4 123/400/4
f 95/560/4 122/373/4 121/399/4
f 93/410/4 96/563/4 95/560/4
f 101/564/4 98/318/4 94/320/4
f 94/320/4 93/410/4 95/560/4
f 116/565/4 117/319/4 103/529/4
f 103/529/4 108/566/4 111/567/4
f 111/567/4 119/568/4 118/569/4
f 116/565/4 103/529/4 111/567/4
f 101/564/4 94/320/4 95/560/4
f 120/401/4 101/564/4 95/560/4
f 123/400/4 116/565/4 111/567/4
f 123/400/4 111/567/4 118/569/4
f 120/401/4 95/560/4 121/399/4
f 123/400/4 118/569/4 120/401/4
f 232/494/5 203/570/5 192/429/5
f 205/402/5 201/287/5 216/521/5
f 232/494/5 192/429/5 205/402/5
f 248/403/5 247/571/5 231/404/5
f 231/404/5 232/494/5 205/402/5
f 205/402/5 216/521/5 248/403/5
f 86/71/2 91/364/2 92/217/2
f 233/405/2 234/93/2 235/94/2
