# Blender 5.0.1
# www.blender.org
mtllib rubic_5.mtl
o rubic_5
v -0.800000 -0.000000 0.800000
v 0.800000 -0.000000 0.800000
v -0.800000 -0.000000 -0.800000
v 0.800000 -0.000000 -0.800000
v -0.800000 1.600000 0.800000
v 0.800000 1.600000 0.800000
v -0.800000 1.600000 -0.800000
v 0.800000 1.600000 -0.800000
vn -0.0000 1.0000 -0.0000
vn 1.0000 -0.0000 -0.0000
vn -0.0000 -0.0000 1.0000
vn -1.0000 -0.0000 -0.0000
vn -0.0000 -1.0000 -0.0000
vn -0.0000 -0.0000 -1.0000
vt 0.500000 0.500000
vt 1.000000 1.000000
vt 0.500000 1.000000
vt 1.000000 0.000000
vt 0.500000 0.000000
vt 0.000000 0.000000
vt 0.000000 0.500000
vt 0.000000 1.000000
vt 1.000000 0.500000
s 0
usemtl rubic_5_Material
f 5/1/1 8/2/1 7/3/1
f 4/4/2 6/1/2 2/5/2
f 1/6/3 6/1/3 5/7/3
f 1/6/4 7/1/4 3/5/4
f 3/8/5 2/1/5 1/7/5
f 7/1/6 4/4/6 3/5/6
f 5/1/1 6/9/1 8/2/1
f 4/4/2 8/9/2 6/1/2
f 1/6/3 2/5/3 6/1/3
f 1/6/4 5/7/4 7/1/4
f 3/8/5 4/3/5 2/1/5
f 7/1/6 8/9/6 4/4/6
