# Blender 5.0.1
# www.blender.org
mtllib lantern_1.mtl
o lantern_1
v -0.700000 0.100000 0.700000
v -0.700000 0.100000 0.600000
v -0.700000 -0.000000 0.700000
v -0.700000 -0.000000 0.600000
v -0.300000 -0.000000 0.700000
v -0.300000 -0.000000 0.600000
v -0.300000 0.100000 0.600000
v -0.300000 0.100000 0.700000
v -0.800000 0.100000 0.600000
v -0.800000 0.100000 0.500000
v -0.700000 0.100000 0.500000
v -0.800000 -0.000000 0.600000
v -0.800000 -0.000000 0.500000
v -0.200000 -0.000000 0.600000
v -0.200000 -0.000000 0.500000
v -0.200000 0.100000 0.500000
v -0.200000 0.100000 0.600000
v -0.300000 0.100000 0.500000
v -0.900000 0.100000 0.500000
v -0.900000 -0.000000 0.500000
v -0.100000 -0.000000 0.500000
v -0.100000 0.100000 0.500000
v -0.800000 -0.000000 0.100000
v -0.800000 0.100000 0.100000
v -0.900000 0.100000 0.100000
v -0.900000 -0.000000 0.100000
v -0.200000 -0.000000 0.100000
v -0.100000 -0.000000 0.100000
v -0.100000 0.100000 0.100000
v -0.200000 0.100000 0.100000
v -0.700000 -0.000000 -0.000000
v -0.700000 0.100000 -0.000000
v -0.800000 0.100000 -0.000000
v -0.800000 -0.000000 -0.000000
v -0.700000 0.100000 0.100000
v -0.300000 -0.000000 -0.000000
v -0.200000 -0.000000 -0.000000
v -0.200000 0.100000 -0.000000
v -0.300000 0.100000 -0.000000
v -0.300000 0.100000 0.100000
v -0.700000 0.100000 -0.100000
v -0.700000 -0.000000 -0.100000
v -0.300000 -0.000000 -0.100000
v -0.300000 0.100000 -0.100000
v -0.700000 0.300000 0.500000
v -0.700000 0.300000 0.600000
v -0.300000 0.300000 0.500000
v -0.300000 0.300000 0.600000
v -0.800000 0.300000 0.500000
v -0.200000 0.300000 0.500000
v -0.700000 0.300000 0.100000
v -0.800000 0.300000 0.100000
v -0.200000 0.300000 0.100000
v -0.300000 0.300000 0.100000
v -0.700000 0.300000 -0.000000
v -0.300000 0.300000 -0.000000
v -0.700000 0.300000 0.700000
v -0.300000 0.300000 0.700000
v -0.800000 0.300000 0.600000
v -0.200000 0.300000 0.600000
v -0.900000 0.300000 0.500000
v -0.100000 0.300000 0.500000
v -0.900000 0.300000 0.100000
v -0.100000 0.300000 0.100000
v -0.800000 0.300000 -0.000000
v -0.200000 0.300000 -0.000000
v -0.700000 0.300000 -0.100000
v -0.300000 0.300000 -0.100000
v -0.700000 0.600000 0.700000
v -0.700000 0.600000 0.600000
v -0.300000 0.600000 0.600000
v -0.300000 0.600000 0.700000
v -0.800000 0.600000 0.500000
v -0.200000 0.600000 0.500000
v -0.900000 0.600000 0.500000
v -0.100000 0.600000 0.500000
v -0.800000 0.600000 0.100000
v -0.900000 0.600000 0.100000
v -0.100000 0.600000 0.100000
v -0.200000 0.600000 0.100000
v -0.700000 0.600000 -0.000000
v -0.300000 0.600000 -0.000000
v -0.700000 0.600000 -0.100000
v -0.300000 0.600000 -0.100000
v -0.700000 0.700000 0.600000
v -0.700000 0.700000 0.500000
v -0.300000 0.700000 0.500000
v -0.300000 0.700000 0.600000
v -0.800000 0.700000 0.500000
v -0.200000 0.700000 0.500000
v -0.800000 0.700000 0.100000
v -0.700000 0.700000 0.100000
v -0.200000 0.700000 0.100000
v -0.300000 0.700000 0.100000
v -0.700000 0.700000 -0.000000
v -0.300000 0.700000 -0.000000
v -0.700000 0.800000 0.500000
v -0.600000 0.800000 0.400000
v -0.400000 0.800000 0.400000
v -0.300000 0.800000 0.500000
v -0.600000 0.800000 0.200000
v -0.400000 0.800000 0.200000
v -0.700000 0.800000 0.100000
v -0.300000 0.800000 0.100000
v -0.700000 1.000000 0.600000
v -0.800000 1.000000 0.500000
v -0.200000 1.000000 0.500000
v -0.300000 1.000000 0.600000
v -0.700000 1.000000 -0.000000
v -0.800000 1.000000 0.100000
v -0.200000 1.000000 0.100000
v -0.300000 1.000000 -0.000000
v -0.600000 0.900000 0.400000
v -0.600000 0.900000 0.300000
v -0.500000 0.900000 0.300000
v -0.400000 0.900000 0.400000
v -0.500000 0.900000 0.200000
v -0.400000 0.900000 0.200000
v -0.500000 1.000000 0.200000
v -0.500000 1.000000 0.300000
v -0.600000 1.000000 0.200000
v -0.600000 1.000000 0.300000
v -0.600000 1.100000 0.700000
v -0.600000 1.000000 0.700000
v -0.600000 1.100000 0.800000
v -0.600000 1.000000 0.800000
v -0.400000 1.000000 0.800000
v -0.400000 1.000000 0.700000
v -0.400000 1.100000 0.700000
v -0.400000 1.100000 0.800000
v -0.600000 1.000000 0.600000
v -0.600000 1.100000 0.600000
v -0.700000 1.100000 0.600000
v -0.700000 1.100000 0.700000
v -0.700000 1.000000 0.700000
v -0.300000 1.000000 0.700000
v -0.300000 1.100000 0.600000
v -0.300000 1.100000 0.700000
v -0.400000 1.100000 0.600000
v -0.400000 1.000000 0.600000
v -0.700000 1.100000 0.500000
v -0.800000 1.100000 0.500000
v -0.800000 1.100000 0.600000
v -0.200000 1.100000 0.500000
v -0.200000 1.100000 0.600000
v -0.300000 1.100000 0.500000
v -0.800000 1.000000 0.400000
v -0.800000 1.100000 0.400000
v -0.900000 1.100000 0.400000
v -0.900000 1.000000 0.400000
v -0.900000 1.100000 0.500000
v -0.900000 1.000000 0.500000
v -0.100000 1.000000 0.500000
v -0.100000 1.000000 0.400000
v -0.100000 1.100000 0.400000
v -0.100000 1.100000 0.500000
v -0.200000 1.100000 0.400000
v -0.200000 1.000000 0.400000
v -1.000000 1.100000 0.400000
v -1.000000 1.000000 0.400000
v 0.000000 1.000000 0.400000
v 0.000000 1.100000 0.400000
v -0.900000 1.000000 0.200000
v -0.900000 1.100000 0.200000
v -1.000000 1.100000 0.200000
v -1.000000 1.000000 0.200000
v 0.000000 1.000000 0.200000
v 0.000000 1.100000 0.200000
v -0.100000 1.100000 0.200000
v -0.100000 1.000000 0.200000
v -0.800000 1.000000 0.200000
v -0.800000 1.100000 0.100000
v -0.800000 1.100000 0.200000
v -0.900000 1.100000 0.100000
v -0.900000 1.000000 0.100000
v -0.100000 1.000000 0.100000
v -0.100000 1.100000 0.100000
v -0.200000 1.100000 0.100000
v -0.200000 1.100000 0.200000
v -0.200000 1.000000 0.200000
v -0.700000 1.100000 -0.000000
v -0.700000 1.100000 0.100000
v -0.800000 1.100000 -0.000000
v -0.200000 1.100000 -0.000000
v -0.300000 1.100000 -0.000000
v -0.300000 1.100000 0.100000
v -0.600000 1.000000 -0.000000
v -0.600000 1.000000 -0.100000
v -0.600000 1.100000 -0.100000
v -0.600000 1.100000 -0.000000
v -0.700000 1.100000 -0.100000
v -0.700000 1.000000 -0.100000
v -0.300000 1.000000 -0.100000
v -0.300000 1.100000 -0.100000
v -0.400000 1.100000 -0.100000
v -0.400000 1.000000 -0.100000
v -0.400000 1.100000 -0.000000
v -0.400000 1.000000 -0.000000
v -0.600000 1.100000 -0.200000
v -0.600000 1.000000 -0.200000
v -0.400000 1.000000 -0.200000
v -0.400000 1.100000 -0.200000
v -0.600000 1.100000 0.500000
v -0.400000 1.100000 0.500000
v -0.700000 1.100000 0.400000
v -0.300000 1.100000 0.400000
v -0.600000 1.100000 0.200000
v -0.300000 1.100000 0.200000
v -0.400000 1.100000 0.100000
v -0.600000 1.300000 0.600000
v -0.600000 1.300000 0.700000
v -0.400000 1.300000 0.600000
v -0.400000 1.300000 0.700000
v -0.600000 1.300000 0.500000
v -0.700000 1.300000 0.500000
v -0.700000 1.300000 0.600000
v -0.300000 1.300000 0.500000
v -0.300000 1.300000 0.600000
v -0.400000 1.300000 0.500000
v -0.700000 1.300000 0.400000
v -0.800000 1.300000 0.400000
v -0.800000 1.300000 0.500000
v -0.200000 1.300000 0.400000
v -0.200000 1.300000 0.500000
v -0.300000 1.300000 0.400000
v -0.900000 1.300000 0.400000
v -0.100000 1.300000 0.400000
v -0.800000 1.300000 0.200000
v -0.900000 1.300000 0.200000
v -0.100000 1.300000 0.200000
v -0.200000 1.300000 0.200000
v -0.700000 1.300000 0.100000
v -0.800000 1.300000 0.100000
v -0.700000 1.300000 0.200000
v -0.600000 1.300000 0.100000
v -0.200000 1.300000 0.100000
v -0.300000 1.300000 0.100000
v -0.300000 1.300000 0.200000
v -0.600000 1.300000 -0.000000
v -0.700000 1.300000 -0.000000
v -0.300000 1.300000 -0.000000
v -0.400000 1.300000 -0.000000
v -0.400000 1.300000 0.100000
v -0.600000 1.300000 -0.100000
v -0.400000 1.300000 -0.100000
v -0.600000 1.300000 0.400000
v -0.400000 1.300000 0.400000
v -0.400000 1.300000 0.200000
v -0.600000 1.600000 0.500000
v -0.600000 1.600000 0.600000
v -0.400000 1.600000 0.500000
v -0.400000 1.600000 0.600000
v -0.600000 1.600000 0.400000
v -0.700000 1.600000 0.400000
v -0.700000 1.600000 0.500000
v -0.300000 1.600000 0.400000
v -0.300000 1.600000 0.500000
v -0.400000 1.600000 0.400000
v -0.800000 1.600000 0.400000
v -0.200000 1.600000 0.400000
v -0.700000 1.600000 0.200000
v -0.800000 1.600000 0.200000
v -0.200000 1.600000 0.200000
v -0.300000 1.600000 0.200000
v -0.600000 1.600000 0.100000
v -0.600000 1.600000 0.200000
v -0.700000 1.600000 0.100000
v -0.300000 1.600000 0.100000
v -0.400000 1.600000 0.100000
v -0.400000 1.600000 0.200000
v -0.600000 1.600000 -0.000000
v -0.400000 1.600000 -0.000000
v -0.600000 1.700000 0.500000
v -0.600000 1.700000 0.400000
v -0.400000 1.700000 0.400000
v -0.400000 1.700000 0.500000
v -0.700000 1.700000 0.400000
v -0.300000 1.700000 0.400000
v -0.600000 1.700000 0.200000
v -0.700000 1.700000 0.200000
v -0.300000 1.700000 0.200000
v -0.400000 1.700000 0.200000
v -0.600000 1.700000 0.100000
v -0.400000 1.700000 0.100000
v -0.600000 1.800000 0.400000
v -0.400000 1.800000 0.400000
v -0.600000 1.800000 0.200000
v -0.400000 1.800000 0.200000
vn -0.0000 1.0000 -0.0000
vn -0.0000 -1.0000 -0.0000
vn -0.0000 -0.0000 1.0000
vn -0.0000 -0.0000 -1.0000
vn -1.0000 -0.0000 -0.0000
vn 1.0000 -0.0000 -0.0000
vn -0.0995 -0.0000 0.9950
vn -0.0995 -0.0000 -0.9950
vn 0.1322 -0.0000 -0.9912
vt 0.294118 0.176471
vt 0.264706 0.117647
vt 0.294118 0.117647
vt 0.735294 0.970588
vt 0.764706 0.941176
vt 0.735294 0.941176
vt 0.382353 0.176471
vt 0.352941 0.117647
vt 0.382353 0.117647
vt 0.176471 0.764706
vt 0.147059 0.794118
vt 0.147059 0.764706
vt 0.029412 0.470588
vt 0.058824 0.411765
vt 0.029412 0.411765
vt 0.294118 0.588235
vt 0.352941 0.676471
vt 0.352941 0.588235
vt 0.294118 0.852941
vt 0.264706 0.764706
vt 0.294118 0.764706
vt 0.617647 0.941176
vt 0.647059 0.970588
vt 0.647059 0.941176
vt 0.852941 -0.000000
vt 0.823529 0.029412
vt 0.852941 0.029412
vt 0.764706 0.970588
vt 0.794118 0.941176
vt 0.088235 0.470588
vt 0.147059 0.558824
vt 0.088235 0.558824
vt 0.176471 0.617647
vt 0.147059 0.647059
vt 0.147059 0.617647
vt 0.382353 0.529412
vt 0.352941 0.529412
vt 0.382353 0.970588
vt 0.411765 0.941176
vt 0.382353 0.941176
vt 0.882353 0.882353
vt 0.823529 0.911765
vt 0.823529 0.882353
vt 0.205882 0.382353
vt 0.235294 0.411765
vt 0.235294 0.382353
vt 0.735294 0.794118
vt 0.794118 0.852941
vt 0.794118 0.794118
vt 0.705882 0.911765
vt 0.588235 0.941176
vt 0.588235 0.911765
vt 0.852941 0.852941
vt 0.823529 0.823529
vt 0.882353 0.823529
vt 0.058824 0.558824
vt 0.058824 0.470588
vt 0.852941 0.382353
vt 0.882353 0.411765
vt 0.882353 0.382353
vt 0.029412 0.382353
vt 0.000000 0.411765
vt 0.000000 0.382353
vt 0.617647 0.970588
vt 0.352941 0.970588
vt 0.352941 0.941176
vt 0.058824 0.735294
vt 0.029412 0.676471
vt 0.058824 0.676471
vt 0.529412 0.529412
vt 0.558824 0.500000
vt 0.529412 0.500000
vt 0.441176 0.176471
vt 0.470588 0.264706
vt 0.470588 0.176471
vt 0.823529 0.852941
vt 0.705882 0.852941
vt 0.470588 0.588235
vt 0.441176 0.529412
vt 0.470588 0.529412
vt 0.352941 0.911765
vt 0.235294 0.882353
vt 0.235294 0.911765
vt 0.323529 0.088235
vt 0.294118 0.088235
vt 0.058824 0.176471
vt 0.029412 0.205882
vt 0.029412 0.176471
vt 0.117647 0.941176
vt 0.117647 0.911765
vt 0.205882 0.205882
vt 0.235294 0.235294
vt 0.205882 0.235294
vt 0.205882 0.647059
vt 0.176471 0.676471
vt 0.176471 0.647059
vt 0.617647 0.470588
vt 0.588235 0.500000
vt 0.588235 0.470588
vt 0.941176 0.500000
vt 0.970588 0.441176
vt 0.941176 0.441176
vt 0.558824 0.588235
vt 0.558824 0.529412
vt 0.264706 0.500000
vt 0.294118 0.529412
vt 0.264706 0.529412
vt 0.941176 0.705882
vt 0.970588 0.735294
vt 0.970588 0.705882
vt 0.323529 0.176471
vt 0.323529 0.117647
vt 0.176471 0.470588
vt 0.205882 0.411765
vt 0.176471 0.411765
vt 0.647059 0.500000
vt 0.647059 0.470588
vt 0.941176 0.558824
vt 0.970588 0.500000
vt 0.147059 0.470588
vt 0.147059 0.411765
vt 0.911765 0.235294
vt 0.882353 0.117647
vt 0.911765 0.117647
vt 0.794118 0.558824
vt 0.764706 0.647059
vt 0.764706 0.558824
vt 0.147059 0.588235
vt 0.088235 0.617647
vt 0.088235 0.588235
vt 0.352941 0.176471
vt 0.735294 0.411765
vt 0.705882 0.441176
vt 0.705882 0.411765
vt 0.205882 0.941176
vt 0.176471 0.970588
vt 0.176471 0.941176
vt 0.764706 0.205882
vt 0.794118 0.235294
vt 0.794118 0.205882
vt 0.705882 0.764706
vt 0.676471 0.794118
vt 0.676471 0.764706
vt 0.735294 0.470588
vt 0.705882 0.500000
vt 0.705882 0.470588
vt 0.441176 0.941176
vt 0.470588 0.970588
vt 0.441176 0.970588
vt 0.735294 0.705882
vt 0.794118 0.764706
vt 0.794118 0.705882
vt 0.647059 0.294118
vt 0.529412 0.235294
vt 0.647059 0.235294
vt 0.411765 0.970588
vt 0.941176 0.676471
vt 0.970588 0.676471
vt 0.941176 0.264706
vt 0.911765 0.176471
vt 0.941176 0.176471
vt 0.911765 0.470588
vt 0.882353 0.352941
vt 0.911765 0.352941
vt 0.264706 0.705882
vt 0.294118 0.705882
vt 0.970588 0.264706
vt 0.941176 0.205882
vt 0.970588 0.205882
vt 0.235294 0.088235
vt 0.205882 0.117647
vt 0.205882 0.088235
vt 0.617647 0.500000
vt 0.235294 0.852941
vt 0.264706 0.882353
vt 0.264706 0.852941
vt 0.264706 0.176471
vt 0.235294 0.205882
vt 0.235294 0.176471
vt 0.941176 0.911765
vt 0.970588 0.941176
vt 0.970588 0.911765
vt 0.264706 0.088235
vt 0.235294 0.117647
vt 0.117647 0.235294
vt 0.088235 0.264706
vt 0.088235 0.235294
vt 0.735294 0.323529
vt 0.705882 0.352941
vt 0.705882 0.323529
vt 0.970588 0.764706
vt 0.941176 0.794118
vt 0.941176 0.764706
vt 0.529412 0.588235
vt 0.058824 0.970588
vt 0.000000 0.941176
vt 0.000000 0.970588
vt 0.441176 0.705882
vt 0.470588 0.676471
vt 0.441176 0.676471
vt 0.058824 0.088235
vt 0.029412 0.117647
vt 0.029412 0.088235
vt 0.852941 0.794118
vt 0.823529 0.676471
vt 0.852941 0.676471
vt 0.500000 0.088235
vt 0.470588 0.000000
vt 0.470588 0.029412
vt 0.176471 0.235294
vt 0.176471 0.205882
vt 0.647059 0.647059
vt 0.676471 0.558824
vt 0.647059 0.558824
vt 0.323529 0.676471
vt 0.352941 0.705882
vt 0.294118 0.500000
vt 0.441176 0.500000
vt 0.470588 0.500000
vt 0.382353 0.264706
vt 0.794118 0.176471
vt 0.764706 0.088235
vt 0.794118 0.088235
vt 0.823529 0.941176
vt 0.852941 0.970588
vt 0.852941 0.941176
vt 0.735294 0.764706
vt 0.764706 0.176471
vt 0.058824 0.323529
vt 0.029412 0.294118
vt 0.941176 0.088235
vt 0.911765 0.000000
vt 0.941176 0.000000
vt 0.294118 0.941176
vt 0.088235 0.411765
vt 0.352941 0.264706
vt 0.970588 0.382353
vt 0.941176 0.323529
vt 0.970588 0.323529
vt 0.000000 0.823529
vt 0.000000 0.911765
vt 0.705882 0.676471
vt 0.676471 0.705882
vt 0.676471 0.676471
vt 0.882353 0.764706
vt 0.882353 0.794118
vt 0.676471 0.500000
vt 0.764706 0.500000
vt 0.794118 0.500000
vt 0.705882 0.705882
vt 0.735294 0.676471
vt 0.735294 0.500000
vt 0.882353 0.676471
vt 0.588235 0.529412
vt 0.558824 0.382353
vt 0.882353 0.235294
vt 0.823529 0.294118
vt 0.852941 0.294118
vt 0.823529 0.647059
vt 0.823529 0.558824
vt 0.088235 0.647059
vt 0.794118 0.294118
vt 0.823529 0.235294
vt 0.911765 0.705882
vt 0.941176 0.147059
vt 0.970588 0.088235
vt 0.911765 0.264706
vt 0.823529 0.470588
vt 0.941176 0.470588
vt 0.500000 0.176471
vt 0.470588 0.117647
vt 0.500000 0.117647
vt 0.911765 0.088235
vt 0.882353 0.617647
vt 0.911765 0.647059
vt 0.205882 0.029412
vt 0.176471 0.058824
vt 0.176471 0.029412
vt 0.823529 0.176471
vt 0.823529 0.088235
vt 0.705882 0.647059
vt 0.676471 0.647059
vt 0.382353 0.382353
vt 0.382353 0.500000
vt 0.411765 0.529412
vt 0.500000 0.705882
vt 0.500000 0.764706
vt 0.235294 0.941176
vt 0.382353 0.588235
vt 0.441176 0.117647
vt 0.470588 0.882353
vt 0.352941 0.882353
vt 0.970588 0.147059
vt 0.794118 0.970588
vt 0.382353 0.852941
vt 0.352941 0.852941
vt 0.941176 0.735294
vt 0.705882 0.941176
vt 0.205882 0.970588
vt 0.088235 0.088235
vt 0.058824 0.117647
vt 0.852941 0.558824
vt 0.294118 0.676471
vt 0.441176 0.294118
vt 0.382353 0.294118
vt 0.352941 0.029412
vt 0.882353 0.558824
vt 0.470588 0.941176
vt 0.470588 0.911765
vt 0.058824 0.294118
vt 0.176471 0.323529
vt 0.176471 0.294118
vt 0.970588 0.617647
vt 0.970588 0.558824
vt 0.617647 0.852941
vt 0.617647 0.794118
vt 0.558824 0.764706
vt 0.588235 0.676471
vt 0.588235 0.794118
vt 0.882353 0.735294
vt 0.294118 0.970588
vt 0.235294 0.970588
vt 0.029412 0.764706
vt 0.029412 0.735294
vt 0.911765 0.911765
vt 0.941176 0.823529
vt 0.911765 0.823529
vt 0.558824 0.941176
vt 0.588235 0.970588
vt 0.235294 0.735294
vt 0.205882 0.676471
vt 0.235294 0.676471
vt 0.970588 0.000000
vt 0.617647 0.705882
vt 0.176471 0.558824
vt 0.441176 0.264706
vt 0.676471 0.970588
vt 0.676471 0.941176
vt 0.176471 0.735294
vt 0.147059 0.735294
vt 0.941176 0.852941
vt 0.970588 0.882353
vt 0.970588 0.852941
vt 0.764706 0.294118
vt 0.000000 0.117647
vt 0.823529 0.794118
vt 0.823529 0.764706
vt 0.382353 0.764706
vt 0.411765 0.852941
vt 0.411765 0.764706
vt 0.411765 0.705882
vt 0.411765 0.676471
vt 0.088235 0.205882
vt 0.058824 0.235294
vt 0.058824 0.205882
vt 0.941176 0.382353
vt 0.617647 0.676471
vt 0.058824 0.647059
vt 0.029412 0.647059
vt 0.911765 0.441176
vt 0.941176 0.352941
vt 0.705882 0.294118
vt 0.647059 0.323529
vt 0.176471 0.000000
vt 0.117647 0.029412
vt 0.117647 0.000000
vt 0.088235 0.764706
vt 0.058824 0.794118
vt 0.058824 0.764706
vt 0.205882 0.735294
vt 0.323529 0.705882
vt 0.147059 0.676471
vt 0.617647 0.558824
vt 0.941176 0.617647
vt 0.058824 0.941176
vt 0.235294 0.058824
vt 0.205882 0.058824
vt 0.529412 0.117647
vt 0.176471 0.088235
vt 0.441176 0.588235
vt 0.764706 0.441176
vt 0.764706 0.411765
vt 0.117647 0.823529
vt 0.117647 0.176471
vt 0.882353 -0.000000
vt 0.617647 0.411765
vt 0.588235 0.352941
vt 0.617647 0.352941
vt 0.088235 0.794118
vt 0.088235 0.823529
vt 0.882353 0.970588
vt 0.911765 0.941176
vt 0.882353 0.941176
vt 0.882353 0.911765
vt 0.205882 0.470588
vt 0.852941 0.088235
vt 0.735294 0.352941
vt 0.764706 0.352941
vt 0.264706 0.588235
vt 0.617647 0.323529
vt 0.000000 0.676471
vt 0.088235 0.058824
vt 0.088235 0.029412
vt 0.794118 0.676471
vt 0.176471 0.264706
vt 0.470588 0.794118
vt 0.205882 0.294118
vt 0.941176 0.941176
vt 0.970588 0.794118
vt 0.970588 0.823529
vt 0.823529 0.382353
vt 0.794118 0.647059
vt 0.500000 0.941176
vt 0.705882 0.558824
vt 0.588235 0.705882
vt 0.647059 0.441176
vt 0.058824 0.617647
vt 0.235294 0.764706
vt 0.705882 0.970588
vt 0.058824 0.058824
vt 0.529412 0.970588
vt 0.558824 0.970588
vt 0.735294 0.058824
vt 0.558824 0.176471
vt 0.705882 0.205882
vt 0.588235 0.882353
vt 0.323529 0.764706
vt 0.117647 0.058824
vt 0.117647 0.294118
vt 0.117647 0.264706
vt 0.500000 0.970588
vt 0.205882 0.176471
vt 0.617647 0.764706
vt 0.911765 0.970588
vt 0.970588 0.970588
vt 0.647059 0.411765
vt 0.882353 0.647059
vt 0.617647 0.441176
vt 0.764706 0.470588
vt 0.352941 0.000000
vt 0.117647 0.970588
vt 0.941176 0.882353
vt 0.588235 0.764706
vt 0.794118 0.029412
vt 0.529412 0.088235
vt 0.588235 0.852941
vt 0.882353 0.705882
vt 0.352941 0.500000
vt 0.176471 0.794118
vt 0.823529 -0.000000
vt 0.735294 0.852941
vt 0.852941 0.882353
vt 0.852941 0.411765
vt 0.735294 0.441176
vt 0.764706 0.235294
vt 0.705882 0.794118
vt 0.529412 0.294118
vt 0.882353 0.470588
vt 0.264706 0.205882
vt 0.470588 0.705882
vt 0.500000 0.000000
vt 0.823529 0.970588
vt 0.735294 0.558824
vt 0.441176 0.382353
vt 0.411765 0.294118
vt 0.441176 0.411765
vt 0.588235 0.294118
vt 0.558824 0.294118
vt 0.558824 0.411765
vt 0.911765 0.735294
vt 0.911765 0.676471
vt 0.264706 0.382353
vt 0.264706 0.294118
vt 0.235294 0.294118
vt 0.235294 0.529412
vt 0.264706 0.411765
vt 0.382353 0.411765
vt 0.558824 0.705882
vt 0.382353 0.882353
vt 0.088235 0.117647
vt 0.323529 0.000000
vt 0.676471 0.852941
vt 0.529412 0.676471
vt 0.000000 0.176471
vt 0.205882 0.764706
vt 0.882353 0.441176
vt 0.235294 0.823529
vt 0.882353 0.029412
vt 0.588235 0.411765
vt 0.147059 0.823529
vt 0.647059 0.352941
vt 0.000000 0.735294
vt 0.205882 0.264706
vt 0.823529 0.705882
vt 0.823529 0.205882
vt 0.529412 0.941176
vt 0.735294 0.029412
vt 0.705882 0.029412
vt 0.705882 0.000000
vt 0.588235 0.000000
vt 0.588235 0.029412
vt 0.558824 0.029412
vt 0.558824 0.058824
vt 0.764706 0.058824
vt 0.529412 0.058824
vt 0.529412 0.176471
vt 0.735294 0.176471
vt 0.735294 0.205882
vt 0.588235 0.235294
vt 0.705882 0.235294
vt 0.558824 0.205882
vt 0.588235 0.205882
vt 0.117647 0.088235
vt 0.441176 0.764706
vt 0.941176 0.970588
vt 0.941176 0.647059
vt 0.088235 0.676471
s 0
usemtl lantern_1_Material
f 168/1/1 155/2/1 162/3/1
f 47/4/2 60/5/2 48/6/2
f 214/7/3 141/8/3 203/9/3
f 237/10/1 242/11/1 243/12/1
f 233/13/4 182/14/4 172/15/4
f 221/16/5 262/17/5 228/18/5
f 272/19/6 243/20/6 242/21/6
f 36/22/4 38/23/4 37/24/4
f 154/25/4 157/26/4 155/27/4
f 65/28/2 51/29/2 52/5/2
f 225/30/6 264/31/6 256/32/6
f 218/33/1 219/34/1 212/35/1
f 228/18/5 172/36/5 173/37/5
f 9/38/5 13/39/5 12/40/5
f 127/41/3 125/42/3 126/43/3
f 111/44/4 177/45/4 176/46/4
f 189/47/4 245/48/4 195/49/4
f 82/50/1 83/51/1 81/52/1
f 115/53/1 113/54/1 116/55/1
f 267/56/4 235/30/4 232/57/4
f 238/20/4 263/19/4 231/21/4
f 261/58/4 279/59/4 266/60/4
f 108/61/6 138/62/6 136/63/6
f 27/22/6 38/23/6 30/64/6
f 6/40/6 8/65/6 5/66/6
f 234/67/1 221/68/1 220/69/1
f 179/70/5 111/71/5 180/72/5
f 234/73/5 267/74/5 232/75/5
f 55/50/4 39/76/4 32/77/4
f 223/78/6 144/79/6 157/80/6
f 25/81/5 20/82/5 19/83/5
f 134/3/5 105/84/5 135/85/5
f 173/86/1 174/87/1 164/88/1
f 39/83/1 41/89/1 32/90/1
f 186/91/1 184/92/1 185/93/1
f 224/94/1 225/95/1 217/96/1
f 150/97/3 159/98/3 160/99/3
f 166/100/2 150/101/2 160/102/2
f 236/103/6 179/70/6 178/104/6
f 106/105/6 148/106/6 142/107/6
f 31/108/5 41/109/5 42/110/5
f 216/111/5 141/8/5 133/112/5
f 237/113/4 178/114/4 186/115/4
f 150/97/4 148/116/4 147/117/4
f 170/118/2 161/119/2 154/100/2
f 243/120/4 186/115/4 209/121/4
f 110/61/4 174/62/4 172/15/4
f 79/122/1 74/123/1 76/124/1
f 219/125/6 252/126/6 212/127/6
f 213/128/1 210/129/1 211/130/1
f 215/131/5 205/9/5 141/8/5
f 264/132/1 269/133/1 270/134/1
f 115/135/3 122/136/3 114/137/3
f 166/138/4 164/139/4 163/140/4
f 176/141/6 169/142/6 170/143/6
f 128/144/6 130/145/6 127/146/6
f 6/147/3 17/148/3 7/149/3
f 149/150/5 229/151/5 164/152/5
f 48/153/3 2/154/3 7/155/3
f 15/147/6 17/156/6 14/39/6
f 23/157/5 33/110/5 34/158/5
f 76/159/3 50/160/3 62/161/3
f 93/162/1 87/163/1 90/164/1
f 242/21/6 209/165/6 197/166/6
f 50/167/3 18/168/3 16/169/3
f 144/170/1 206/171/1 146/172/1
f 124/97/6 132/116/6 123/173/6
f 270/174/4 281/175/4 264/176/4
f 169/177/1 178/178/1 179/179/1
f 180/180/2 176/181/2 170/182/2
f 156/183/1 157/184/1 144/170/1
f 190/185/1 191/186/1 181/187/1
f 257/188/1 258/189/1 251/190/1
f 30/191/1 39/192/1 40/193/1
f 157/80/6 231/194/6 223/78/6
f 217/57/6 137/15/6 146/14/6
f 201/195/2 188/196/2 200/197/2
f 189/198/5 200/199/5 188/200/5
f 142/201/1 149/202/1 151/203/1
f 29/204/1 16/205/1 22/206/1
f 107/207/4 87/208/4 100/209/4
f 186/91/1 197/210/1 209/211/1
f 250/212/5 214/213/5 210/214/5
f 170/215/4 168/216/4 167/17/4
f 105/105/4 132/106/4 131/217/4
f 107/218/5 157/80/5 158/219/5
f 109/218/3 190/80/3 181/79/3
f 254/220/5 234/73/5 220/7/5
f 256/221/3 247/222/3 225/223/3
f 152/224/2 147/225/2 106/226/2
f 196/151/3 189/47/3 188/227/3
f 256/221/3 275/138/3 258/228/3
f 4/39/3 9/38/3 12/40/3
f 100/229/5 88/230/5 108/61/5
f 71/231/6 58/232/6 48/233/6
f 279/234/4 288/65/4 282/66/4
f 225/30/6 146/14/6 206/235/6
f 214/7/3 255/236/3 215/131/3
f 56/237/6 40/238/6 39/239/6
f 78/90/5 61/240/5 75/241/5
f 136/242/3 129/243/3 128/244/3
f 128/192/2 126/245/2 124/246/2
f 210/214/5 203/247/5 132/116/5
f 219/125/6 139/248/6 204/249/6
f 151/250/5 150/251/5 152/242/5
f 212/127/6 129/252/6 139/248/6
f 53/204/2 62/253/2 50/206/2
f 112/71/4 184/254/4 82/255/4
f 207/256/4 228/257/4 234/258/4
f 258/259/6 219/125/6 247/260/6
f 212/35/1 214/261/1 210/129/1
f 8/90/1 2/196/1 1/241/1
f 229/262/4 173/263/4 164/139/4
f 117/264/4 102/157/4 101/253/4
f 46/265/5 11/266/5 2/231/5
f 78/164/4 52/159/4 63/267/4
f 67/268/4 84/118/4 68/269/4
f 112/44/6 194/45/6 185/114/6
f 224/270/3 146/271/3 144/272/3
f 73/161/3 61/273/3 49/231/3
f 98/274/5 114/275/5 121/157/5
f 138/276/1 139/277/1 129/278/1
f 265/32/4 284/128/4 269/31/4
f 260/279/3 225/223/3 223/280/3
f 273/244/5 253/281/5 249/282/5
f 77/283/5 110/284/5 183/285/5
f 97/199/1 98/286/1 101/287/1
f 48/66/2 57/83/2 46/288/2
f 218/289/3 139/37/3 137/36/3
f 217/75/3 204/290/3 146/271/3
f 28/291/6 22/81/6 21/292/6
f 45/293/3 10/231/3 11/266/3
f 120/224/1 121/294/1 122/29/1
f 112/71/3 197/70/3 198/72/3
f 279/292/5 265/295/5 266/296/5
f 17/109/1 18/193/1 7/297/1
f 94/42/1 95/298/1 92/50/1
f 117/288/6 120/299/6 115/135/6
f 141/300/1 148/301/1 142/201/1
f 24/206/1 19/260/1 10/302/1
f 170/215/3 179/166/3 180/303/3
f 280/304/5 254/220/5 277/305/5
f 106/84/4 141/8/4 97/306/4
f 63/206/2 49/307/2 61/302/2
f 72/52/1 70/308/1 69/309/1
f 220/213/3 259/212/3 221/214/3
f 212/18/3 250/303/3 210/16/3
f 92/310/4 104/311/4 94/312/4
f 279/313/1 277/118/1 274/314/1
f 169/142/6 227/315/6 155/316/6
f 102/317/1 100/318/1 104/319/1
f 165/193/5 160/320/5 159/245/5
f 287/321/5 274/288/5 285/322/5
f 234/67/1 233/323/1 228/324/1
f 81/325/5 67/326/5 55/327/5
f 27/328/4 29/329/4 28/51/4
f 109/207/6 182/271/6 103/209/6
f 230/330/1 223/331/1 227/332/1
f 253/281/3 277/244/3 254/282/3
f 84/266/6 56/233/6 68/333/6
f 213/143/3 123/334/3 129/243/3
f 243/120/4 268/335/4 237/113/4
f 257/74/3 219/73/3 217/75/3
f 251/336/3 273/305/3 249/220/3
f 2/298/1 10/337/1 9/338/1
f 282/66/6 286/321/6 275/234/6
f 238/339/1 243/12/1 248/340/1
f 135/341/2 131/342/2 124/343/2
f 231/194/6 260/199/6 223/78/6
f 52/344/5 10/155/5 49/153/5
f 164/88/1 159/345/1 149/202/1
f 192/141/4 189/47/4 188/227/4
f 196/151/4 194/346/4 193/347/4
f 88/192/1 86/54/1 85/346/1
f 235/348/5 271/349/5 239/350/5
f 197/166/5 196/215/5 198/303/5
f 188/200/6 190/351/6 187/352/6
f 182/353/1 183/354/1 172/355/1
f 51/102/5 32/237/5 35/356/5
f 124/357/4 129/243/4 128/244/4
f 215/358/1 221/68/1 222/359/1
f 269/31/4 235/30/4 265/32/4
f 80/360/4 64/361/4 53/164/4
f 252/362/1 249/363/1 250/153/1
f 36/24/6 44/337/6 39/23/6
f 275/234/3 285/322/3 274/288/3
f 130/364/1 123/365/1 125/366/1
f 52/238/4 35/167/4 24/159/4
f 235/367/1 240/368/1 232/369/1
f 231/370/1 237/10/1 238/339/1
f 225/30/6 257/56/6 217/57/6
f 231/21/4 169/371/4 179/166/4
f 106/84/3 151/3/3 152/85/3
f 217/96/1 247/372/1 219/34/1
f 211/373/5 132/116/5 123/173/5
f 271/199/4 242/194/4 239/78/4
f 31/22/4 33/329/4 32/64/4
f 237/113/6 208/121/6 186/115/6
f 54/356/4 30/239/4 40/238/4
f 281/158/1 275/374/1 278/313/1
f 210/16/3 133/107/3 132/106/3
f 276/89/1 274/195/1 273/375/1
f 145/376/1 146/172/1 137/377/1
f 107/207/3 156/378/3 144/272/3
f 288/374/1 285/307/1 286/118/1
f 137/377/1 204/379/1 139/277/1
f 240/380/4 190/80/4 181/79/4
f 5/59/3 1/381/3 3/382/3
f 62/383/6 79/83/6 76/90/6
f 71/283/3 145/285/3 108/284/3
f 207/384/1 181/187/1 182/353/1
f 108/284/4 139/37/4 137/36/4
f 161/385/3 155/27/3 154/25/3
f 261/386/1 259/387/1 254/388/1
f 94/312/6 100/229/6 87/310/6
f 243/12/1 239/389/1 235/367/1
f 242/11/1 244/390/1 239/389/1
f 77/124/1 75/385/1 73/232/1
f 175/391/2 171/392/2 163/393/2
f 255/236/5 220/7/5 215/131/5
f 167/394/6 162/224/6 161/42/6
f 241/395/6 186/115/6 185/114/6
f 227/396/3 157/26/3 155/27/3
f 263/382/1 256/397/1 260/398/1
f 222/399/5 148/106/5 142/107/5
f 249/363/1 254/388/1 255/400/1
f 228/324/1 226/401/1 221/68/1
f 1/162/5 4/102/5 3/360/5
f 242/194/4 185/104/4 197/70/4
f 123/365/1 133/402/1 134/403/1
f 212/18/3 132/106/3 139/37/3
f 163/404/6 149/150/6 150/251/6
f 185/93/1 195/405/1 197/210/1
f 58/319/3 69/291/3 57/406/3
f 104/311/3 93/407/3 111/44/3
f 268/335/6 238/120/6 237/113/6
f 200/394/4 202/408/4 201/180/4
f 47/169/6 7/265/6 18/293/6
f 49/326/2 46/409/2 59/192/2
f 92/164/1 89/256/1 86/122/1
f 97/306/6 133/112/6 105/84/6
f 125/98/5 124/97/5 126/99/5
f 269/176/6 282/82/6 270/174/6
f 56/341/2 53/410/2 54/326/2
f 262/411/4 234/258/4 228/257/4
f 258/259/6 276/404/6 251/412/6
f 13/413/3 19/148/3 20/308/3
f 242/194/4 190/80/4 239/78/4
f 253/281/3 220/213/3 246/414/3
f 231/370/1 225/95/1 223/331/1
f 124/357/3 134/415/3 135/318/3
f 164/152/5 175/205/5 163/404/5
f 69/394/5 46/327/5 57/55/5
f 220/213/3 148/116/3 205/247/3
f 104/311/5 185/114/5 112/44/5
f 173/86/1 149/202/1 148/301/1
f 228/18/5 148/106/5 221/16/5
f 269/133/1 271/117/1 265/416/1
f 210/129/1 215/358/1 216/417/1
f 232/75/5 181/272/5 182/271/5
f 269/176/6 248/418/6 243/20/6
f 169/177/1 157/184/1 155/2/1
f 35/6/1 33/419/1 24/298/1
f 143/420/1 141/300/1 142/201/1
f 68/308/2 55/81/2 67/66/2
f 221/214/3 149/173/3 148/116/3
f 163/140/3 173/263/3 164/139/3
f 103/229/3 110/61/3 92/310/3
f 238/20/4 179/166/4 208/165/4
f 23/328/4 25/421/4 24/422/4
f 15/423/2 23/424/2 36/425/2
f 42/291/4 44/52/4 43/426/4
f 245/427/6 197/166/6 195/371/6
f 132/428/1 141/300/1 133/402/1
f 195/405/1 199/429/1 189/430/1
f 239/350/5 189/198/5 190/351/5
f 129/278/1 132/428/1 123/365/1
f 270/174/4 238/20/4 248/418/4
f 201/17/6 195/371/6 196/215/6
f 158/225/2 153/393/2 107/226/2
f 15/413/3 22/421/3 16/431/3
f 179/179/1 186/91/1 208/432/1
f 264/31/6 278/130/6 256/32/6
f 169/142/5 154/433/5 155/316/5
f 192/434/2 187/408/2 109/392/2
f 198/408/2 193/435/2 112/181/2
f 235/348/5 190/351/5 207/216/5
f 266/436/1 258/189/1 270/134/1
f 99/374/3 113/437/3 98/274/3
f 266/436/1 267/438/1 261/386/1
f 249/282/5 246/414/5 214/213/5
f 197/210/1 189/430/1 190/185/1
f 215/131/3 142/112/3 141/8/3
f 128/144/5 139/248/5 140/439/5
f 87/208/3 97/306/3 86/440/3
f 251/336/3 214/7/3 219/73/3
f 282/137/1 283/441/1 279/89/1
f 140/180/2 136/342/2 128/442/2
f 154/433/6 156/319/6 153/443/6
f 223/280/3 206/444/3 157/26/3
f 80/255/6 184/254/6 111/71/6
f 109/207/5 191/378/5 192/445/5
f 53/50/6 16/446/6 30/77/6
f 102/157/6 116/447/6 99/253/6
f 103/209/5 86/440/5 97/306/5
f 110/284/6 173/37/6 171/448/6
f 214/261/1 220/69/1 215/358/1
f 168/1/1 169/177/1 155/2/1
f 47/4/2 50/28/2 60/5/2
f 214/7/3 215/131/3 141/8/3
f 237/10/1 241/449/1 242/11/1
f 233/13/4 232/57/4 182/14/4
f 221/16/5 259/303/5 262/17/5
f 272/19/6 269/176/6 243/20/6
f 36/22/4 39/64/4 38/23/4
f 154/25/4 158/450/4 157/26/4
f 65/28/2 55/294/2 51/29/2
f 225/30/6 238/120/6 264/31/6
f 218/33/1 217/96/1 219/34/1
f 228/18/5 233/289/5 172/36/5
f 9/38/5 10/156/5 13/39/5
f 127/41/3 130/394/3 125/42/3
f 111/44/4 178/114/4 177/45/4
f 189/47/4 244/451/4 245/48/4
f 82/50/1 84/298/1 83/51/1
f 116/55/1 118/41/1 117/452/1
f 115/53/1 114/76/1 113/54/1
f 116/55/1 117/452/1 115/53/1
f 267/56/4 265/32/4 235/30/4
f 238/20/4 264/176/4 263/19/4
f 261/58/4 280/453/4 279/59/4
f 108/61/6 137/15/6 138/62/6
f 27/22/6 37/24/6 38/23/6
f 6/40/6 7/38/6 8/65/6
f 234/67/1 228/324/1 221/68/1
f 179/70/5 178/104/5 111/71/5
f 234/73/5 261/336/5 267/74/5
f 55/50/4 56/42/4 39/76/4
f 223/78/6 224/380/6 144/79/6
f 25/81/5 26/292/5 20/82/5
f 134/3/5 133/112/5 105/84/5
f 173/86/1 172/355/1 174/87/1
f 39/83/1 44/288/1 41/89/1
f 186/91/1 178/178/1 184/92/1
f 224/94/1 223/331/1 225/95/1
f 150/97/3 149/173/3 159/98/3
f 166/100/2 163/119/2 150/101/2
f 236/103/6 231/194/6 179/70/6
f 106/105/6 147/217/6 148/106/6
f 31/108/5 32/297/5 41/109/5
f 216/111/5 215/131/5 141/8/5
f 237/113/4 236/395/4 178/114/4
f 150/97/4 149/173/4 148/116/4
f 170/118/2 167/314/2 161/119/2
f 243/120/4 237/113/4 186/115/4
f 110/61/4 175/63/4 174/62/4
f 79/122/1 80/256/1 74/123/1
f 219/125/6 251/412/6 252/126/6
f 213/128/1 212/35/1 210/129/1
f 215/131/5 220/7/5 205/9/5
f 264/132/1 268/454/1 269/133/1
f 115/135/3 120/299/3 122/136/3
f 166/138/4 165/455/4 164/139/4
f 176/141/6 177/456/6 169/142/6
f 128/144/6 129/252/6 130/145/6
f 6/147/3 14/308/3 17/148/3
f 149/150/5 226/227/5 229/151/5
f 48/153/3 46/457/3 2/154/3
f 15/147/6 16/149/6 17/156/6
f 23/157/5 24/108/5 33/110/5
f 76/159/3 74/267/3 50/160/3
f 93/162/1 94/458/1 87/163/1
f 242/21/6 243/20/6 209/165/6
f 50/167/3 47/159/3 18/168/3
f 144/170/1 157/184/1 206/171/1
f 124/97/6 131/117/6 132/116/6
f 270/174/4 282/82/4 281/175/4
f 169/177/1 177/459/1 178/178/1
f 180/180/2 111/408/2 176/181/2
f 156/183/1 155/2/1 157/184/1
f 190/185/1 189/430/1 191/186/1
f 257/188/1 256/397/1 258/189/1
f 30/191/1 38/409/1 39/192/1
f 157/80/6 179/70/6 231/194/6
f 217/57/6 218/13/6 137/15/6
f 201/195/2 196/375/2 188/196/2
f 189/198/5 199/460/5 200/199/5
f 142/201/1 148/301/1 149/202/1
f 29/204/1 30/346/1 16/205/1
f 100/209/4 146/271/4 144/272/4
f 107/207/4 90/461/4 87/208/4
f 100/209/4 144/272/4 107/207/4
f 186/91/1 185/93/1 197/210/1
f 250/212/5 249/282/5 214/213/5
f 170/215/4 169/371/4 168/216/4
f 105/105/4 133/107/4 132/106/4
f 107/218/5 144/79/5 157/80/5
f 109/218/3 187/219/3 190/80/3
f 254/220/5 261/336/5 234/73/5
f 256/221/3 258/228/3 247/222/3
f 152/224/2 150/462/2 147/225/2
f 196/151/3 195/49/3 189/47/3
f 256/221/3 278/140/3 275/138/3
f 4/39/3 2/156/3 9/38/3
f 137/15/5 146/14/5 100/229/5
f 100/229/5 87/310/5 88/230/5
f 108/61/5 137/15/5 100/229/5
f 71/231/6 72/273/6 58/232/6
f 279/234/4 287/321/4 288/65/4
f 225/30/6 217/57/6 146/14/6
f 214/7/3 249/220/3 255/236/3
f 56/237/6 54/356/6 40/238/6
f 78/90/5 63/383/5 61/240/5
f 136/242/3 138/250/3 129/243/3
f 128/192/2 127/193/2 126/245/2
f 210/214/5 214/213/5 203/247/5
f 219/125/6 212/127/6 139/248/6
f 151/250/5 149/150/5 150/251/5
f 212/127/6 213/463/6 129/252/6
f 53/204/2 64/246/2 62/253/2
f 81/464/4 55/304/4 65/465/4
f 65/465/4 183/285/4 181/79/4
f 65/465/4 181/79/4 109/218/4
f 81/464/4 65/465/4 109/218/4
f 81/464/1 109/218/1 95/466/1
f 66/467/4 56/468/4 82/255/4
f 82/255/4 81/464/4 95/466/4
f 82/255/4 95/466/4 96/469/4
f 184/254/4 66/467/4 82/255/4
f 112/71/4 185/104/4 184/254/4
f 82/255/1 96/469/1 112/71/1
f 261/58/4 266/60/4 207/256/4
f 207/256/4 173/263/4 228/257/4
f 234/258/4 261/58/4 207/256/4
f 258/259/6 251/412/6 219/125/6
f 212/35/1 219/34/1 214/261/1
f 8/90/1 7/89/1 2/196/1
f 229/262/4 228/257/4 173/263/4
f 101/253/4 121/320/4 119/470/4
f 117/264/4 118/108/4 102/157/4
f 101/253/4 119/470/4 117/264/4
f 46/265/5 45/293/5 11/266/5
f 78/164/4 77/361/4 52/159/4
f 67/268/4 83/260/4 84/118/4
f 112/44/6 193/46/6 194/45/6
f 224/270/3 217/75/3 146/271/3
f 73/161/3 75/160/3 61/273/3
f 121/157/5 101/374/5 98/274/5
f 98/274/5 113/437/5 114/275/5
f 114/275/5 122/471/5 121/157/5
f 138/276/1 137/377/1 139/277/1
f 265/32/4 283/130/4 284/128/4
f 260/279/3 256/221/3 225/223/3
f 273/244/5 274/242/5 253/281/5
f 73/472/5 49/473/5 59/474/5
f 59/474/5 143/475/5 142/107/5
f 59/474/5 142/107/5 106/105/5
f 73/472/5 59/474/5 106/105/5
f 73/472/7 106/105/7 89/476/7
f 65/465/5 52/305/5 77/283/5
f 77/283/5 73/472/5 89/476/5
f 77/283/5 89/476/5 91/477/5
f 183/285/5 65/465/5 77/283/5
f 110/284/5 172/36/5 183/285/5
f 77/283/8 91/477/8 110/284/8
f 101/287/1 103/406/1 97/199/1
f 97/199/1 99/478/1 98/286/1
f 48/66/2 58/81/2 57/83/2
f 218/289/3 212/18/3 139/37/3
f 217/75/3 219/73/3 204/290/3
f 28/291/6 29/309/6 22/81/6
f 45/293/3 49/265/3 10/231/3
f 120/224/1 119/462/1 121/294/1
f 112/71/3 185/104/3 197/70/3
f 279/292/5 283/479/5 265/295/5
f 17/109/1 16/191/1 18/193/1
f 94/42/1 96/224/1 95/298/1
f 117/288/6 119/322/6 120/299/6
f 141/300/1 205/480/1 148/301/1
f 24/206/1 25/205/1 19/260/1
f 170/215/3 169/371/3 179/166/3
f 280/304/5 261/336/5 254/220/5
f 86/440/4 89/481/4 106/84/4
f 106/84/4 142/112/4 141/8/4
f 97/306/4 86/440/4 106/84/4
f 63/206/2 52/253/2 49/307/2
f 72/52/1 71/51/1 70/308/1
f 220/213/3 254/282/3 259/212/3
f 212/18/3 252/17/3 250/303/3
f 92/310/4 103/229/4 104/311/4
f 279/313/1 280/374/1 277/118/1
f 169/142/6 230/482/6 227/315/6
f 103/406/1 101/287/1 102/317/1
f 99/478/1 97/199/1 100/318/1
f 104/319/1 103/406/1 102/317/1
f 102/317/1 99/478/1 100/318/1
f 165/193/5 166/297/5 160/320/5
f 287/321/5 279/234/5 274/288/5
f 234/67/1 232/369/1 233/323/1
f 81/325/5 83/180/5 67/326/5
f 27/328/4 30/422/4 29/329/4
f 92/208/6 95/461/6 109/207/6
f 109/207/6 181/272/6 182/271/6
f 103/209/6 92/208/6 109/207/6
f 230/330/1 231/370/1 223/331/1
f 253/281/3 274/242/3 277/244/3
f 84/266/6 82/231/6 56/233/6
f 213/143/3 211/433/3 123/334/3
f 243/120/4 269/31/4 268/335/4
f 257/74/3 251/336/3 219/73/3
f 251/336/3 276/304/3 273/305/3
f 2/298/1 11/419/1 10/337/1
f 282/66/6 288/65/6 286/321/6
f 238/339/1 237/10/1 243/12/1
f 135/341/2 105/442/2 131/342/2
f 231/194/6 263/483/6 260/199/6
f 52/344/5 24/455/5 10/155/5
f 164/88/1 165/484/1 159/345/1
f 192/141/4 191/456/4 189/47/4
f 196/151/4 195/49/4 194/346/4
f 88/192/1 87/326/1 86/54/1
f 235/348/5 265/295/5 271/349/5
f 197/166/5 195/371/5 196/215/5
f 188/200/6 189/198/6 190/351/6
f 182/353/1 181/187/1 183/354/1
f 51/102/5 55/101/5 32/237/5
f 124/357/4 123/334/4 129/243/4
f 215/358/1 220/69/1 221/68/1
f 269/31/4 243/120/4 235/30/4
f 80/360/4 79/102/4 64/361/4
f 252/362/1 251/190/1 249/363/1
f 36/24/6 43/338/6 44/337/6
f 275/234/3 286/321/3 285/322/3
f 130/364/1 129/278/1 123/365/1
f 52/238/4 51/239/4 35/167/4
f 235/367/1 239/389/1 240/368/1
f 231/370/1 236/485/1 237/10/1
f 225/30/6 256/32/6 257/56/6
f 231/21/4 230/427/4 169/371/4
f 106/84/3 142/112/3 151/3/3
f 217/96/1 225/95/1 247/372/1
f 211/373/5 210/214/5 132/116/5
f 271/199/4 272/483/4 242/194/4
f 31/22/4 34/51/4 33/329/4
f 237/113/6 238/120/6 208/121/6
f 54/356/4 53/237/4 30/239/4
f 281/158/1 282/157/1 275/374/1
f 210/16/3 216/399/3 133/107/3
f 276/89/1 275/441/1 274/195/1
f 145/376/1 144/170/1 146/172/1
f 107/207/3 153/445/3 156/378/3
f 288/374/1 287/274/1 285/307/1
f 137/377/1 146/172/1 204/379/1
f 240/380/4 239/78/4 190/80/4
f 5/59/3 8/486/3 1/381/3
f 62/383/6 64/487/6 79/83/6
f 105/105/3 133/107/3 143/475/3
f 143/475/3 59/474/3 46/473/3
f 143/475/3 46/473/3 70/472/3
f 85/476/3 105/105/3 143/475/3
f 85/476/3 143/475/3 70/472/3
f 71/283/3 48/305/3 60/465/3
f 85/476/3 70/472/3 71/283/3
f 88/477/3 85/476/3 71/283/3
f 71/283/3 60/465/3 145/285/3
f 145/285/3 137/36/3 108/284/3
f 108/284/3 88/477/3 71/283/3
f 172/355/1 173/86/1 207/384/1
f 207/384/1 190/185/1 181/187/1
f 182/353/1 172/355/1 207/384/1
f 108/284/4 140/448/4 139/37/4
f 161/385/3 162/488/3 155/27/3
f 261/386/1 262/489/1 259/387/1
f 94/312/6 104/311/6 100/229/6
f 243/12/1 242/11/1 239/389/1
f 242/11/1 245/490/1 244/390/1
f 77/124/1 78/123/1 75/385/1
f 175/391/2 110/434/2 171/392/2
f 255/236/5 254/220/5 220/7/5
f 167/394/6 168/393/6 162/224/6
f 241/395/6 237/113/6 186/115/6
f 227/396/3 223/280/3 157/26/3
f 263/382/1 264/132/1 256/397/1
f 222/399/5 221/16/5 148/106/5
f 249/363/1 253/491/1 254/388/1
f 228/324/1 229/492/1 226/401/1
f 1/162/5 2/269/5 4/102/5
f 242/194/4 241/103/4 185/104/4
f 123/365/1 132/428/1 133/402/1
f 212/18/3 210/16/3 132/106/3
f 163/404/6 164/152/6 149/150/6
f 185/93/1 194/493/1 195/405/1
f 58/319/3 72/426/3 69/291/3
f 178/114/3 186/115/3 104/311/3
f 104/311/3 94/312/3 93/407/3
f 111/44/3 178/114/3 104/311/3
f 268/335/6 264/31/6 238/120/6
f 200/394/4 199/393/4 202/408/4
f 47/169/6 48/168/6 7/265/6
f 49/326/2 45/410/2 46/409/2
f 92/164/1 91/163/1 89/256/1
f 105/84/6 85/481/6 86/440/6
f 97/306/6 141/8/6 133/112/6
f 105/84/6 86/440/6 97/306/6
f 125/98/5 123/173/5 124/97/5
f 269/176/6 284/175/6 282/82/6
f 56/341/2 66/343/2 53/410/2
f 262/411/4 261/58/4 234/258/4
f 258/259/6 275/205/6 276/404/6
f 13/413/3 10/431/3 19/148/3
f 242/194/4 197/70/4 190/80/4
f 253/281/3 254/282/3 220/213/3
f 231/370/1 238/339/1 225/95/1
f 124/357/3 123/334/3 134/415/3
f 164/152/5 174/494/5 175/205/5
f 69/394/5 70/325/5 46/327/5
f 220/213/3 221/214/3 148/116/3
f 112/44/5 96/407/5 94/312/5
f 104/311/5 186/115/5 185/114/5
f 112/44/5 94/312/5 104/311/5
f 173/86/1 164/88/1 149/202/1
f 228/18/5 173/37/5 148/106/5
f 269/133/1 272/146/1 271/117/1
f 210/129/1 214/261/1 215/358/1
f 232/75/5 240/270/5 181/272/5
f 269/176/6 270/174/6 248/418/6
f 169/177/1 179/179/1 157/184/1
f 35/6/1 32/4/1 33/419/1
f 143/420/1 133/402/1 141/300/1
f 68/308/2 56/309/2 55/81/2
f 221/214/3 226/373/3 149/173/3
f 163/140/3 171/495/3 173/263/3
f 103/229/3 182/14/3 172/15/3
f 110/61/3 91/230/3 92/310/3
f 103/229/3 172/15/3 110/61/3
f 238/20/4 231/21/4 179/166/4
f 23/328/4 26/496/4 25/421/4
f 15/423/2 14/497/2 6/498/2
f 6/498/2 5/499/2 3/500/2
f 4/501/2 12/502/2 13/503/2
f 6/498/2 3/500/2 4/501/2
f 28/228/2 21/504/2 15/423/2
f 15/423/2 6/498/2 4/501/2
f 13/503/2 20/505/2 26/506/2
f 15/423/2 4/501/2 13/503/2
f 27/507/2 28/228/2 15/423/2
f 36/425/2 37/508/2 27/507/2
f 42/509/2 43/510/2 36/425/2
f 23/424/2 34/511/2 31/512/2
f 31/512/2 42/509/2 36/425/2
f 36/425/2 27/507/2 15/423/2
f 15/423/2 13/503/2 26/506/2
f 23/424/2 31/512/2 36/425/2
f 15/423/2 26/506/2 23/424/2
f 42/291/4 41/309/4 44/52/4
f 245/427/6 242/21/6 197/166/6
f 132/428/1 203/513/1 141/300/1
f 195/405/1 202/312/1 199/429/1
f 239/350/5 244/514/5 189/198/5
f 129/278/1 139/277/1 132/428/1
f 270/174/4 264/176/4 238/20/4
f 201/17/6 202/216/6 195/371/6
f 158/225/2 154/391/2 153/393/2
f 15/413/3 21/496/3 22/421/3
f 179/179/1 178/178/1 186/91/1
f 264/31/6 281/128/6 278/130/6
f 169/142/5 170/143/5 154/433/5
f 192/434/2 188/515/2 187/408/2
f 198/408/2 196/515/2 193/435/2
f 207/216/5 266/296/5 265/295/5
f 235/348/5 239/350/5 190/351/5
f 207/216/5 265/295/5 235/348/5
f 266/436/1 261/386/1 254/388/1
f 253/491/1 249/363/1 251/190/1
f 266/436/1 254/388/1 253/491/1
f 269/133/1 265/416/1 266/436/1
f 256/397/1 264/132/1 270/134/1
f 270/134/1 269/133/1 266/436/1
f 266/436/1 253/491/1 251/190/1
f 258/189/1 256/397/1 270/134/1
f 266/436/1 251/190/1 258/189/1
f 99/374/3 116/516/3 113/437/3
f 266/436/1 265/416/1 267/438/1
f 249/282/5 253/281/5 246/414/5
f 197/210/1 195/405/1 189/430/1
f 215/131/3 222/111/3 142/112/3
f 128/144/5 129/252/5 139/248/5
f 87/208/3 100/209/3 97/306/3
f 251/336/3 249/220/3 214/7/3
f 282/137/1 284/136/1 283/441/1
f 140/180/2 108/182/2 136/342/2
f 154/433/6 155/316/6 156/319/6
f 223/280/3 225/223/3 206/444/3
f 107/218/6 144/79/6 145/285/6
f 145/285/6 60/465/6 50/304/6
f 145/285/6 50/304/6 74/464/6
f 90/466/6 107/218/6 145/285/6
f 90/466/6 145/285/6 74/464/6
f 80/255/6 53/468/6 66/467/6
f 90/466/6 74/464/6 80/255/6
f 93/469/6 90/466/6 80/255/6
f 80/255/6 66/467/6 184/254/6
f 184/254/6 178/104/6 111/71/6
f 111/71/9 93/469/9 80/255/9
f 109/207/5 181/272/5 191/378/5
f 53/50/6 50/52/6 16/446/6
f 102/157/6 118/108/6 116/447/6
f 103/209/5 92/208/5 86/440/5
f 110/284/6 172/36/6 173/37/6
f 214/261/1 246/517/1 220/69/1
