# Blender 5.0.1
# www.blender.org
mtllib Figure_Gitar_4.mtl
o Figure_Gitar_4
v -0.500000 0.100000 0.400000
v -0.500000 -0.000000 0.400000
v 0.500000 -0.000000 0.400000
v 0.500000 0.100000 0.400000
v -0.300000 0.100000 0.000000
v 0.300000 0.100000 0.000000
v -0.300000 0.100000 -0.100000
v 0.300000 0.100000 -0.100000
v -0.100000 0.100000 -0.300000
v 0.100000 0.100000 -0.300000
v -0.500000 0.100000 -0.500000
v -0.500000 -0.000000 -0.500000
v -0.100000 0.100000 -0.500000
v 0.100000 0.100000 -0.500000
v 0.500000 -0.000000 -0.500000
v 0.500000 0.100000 -0.500000
v -0.100000 1.100000 0.000000
v 0.100000 1.000000 0.000000
v -0.100000 1.100000 -0.400000
v 0.100000 1.100000 -0.400000
v -0.100000 1.100000 -0.500000
v 0.100000 1.100000 -0.500000
v -0.100000 1.300000 0.000000
v 0.100000 1.300000 0.000000
v -0.100000 1.300000 -0.300000
v 0.100000 1.300000 -0.300000
v -0.200000 1.400000 0.000000
v -0.100000 1.400000 -0.100000
v -0.100000 1.400000 0.000000
v -0.200000 1.300000 0.000000
v -0.100000 1.300000 -0.100000
v 0.200000 1.300000 0.000000
v 0.200000 1.400000 0.000000
v 0.100000 1.400000 0.000000
v 0.100000 1.400000 -0.100000
v 0.100000 1.300000 -0.100000
v -0.100000 1.400000 -0.300000
v -0.200000 1.400000 -0.300000
v -0.200000 1.300000 -0.300000
v 0.200000 1.300000 -0.300000
v 0.200000 1.400000 -0.300000
v 0.100000 1.400000 -0.300000
v -0.100000 1.400000 -0.400000
v 0.100000 1.400000 -0.400000
v -0.300000 0.200000 -0.100000
v -0.300000 0.200000 0.000000
v -0.200000 0.200000 0.000000
v 0.200000 0.200000 0.000000
v 0.300000 0.200000 -0.100000
v 0.300000 0.200000 0.000000
v -0.400000 0.200000 -0.100000
v -0.400000 0.200000 0.000000
v -0.200000 0.300000 0.000000
v 0.200000 0.300000 0.000000
v 0.400000 0.200000 0.000000
v 0.400000 0.200000 -0.100000
v -0.300000 0.400000 -0.100000
v -0.400000 0.400000 -0.100000
v -0.400000 0.400000 0.000000
v -0.300000 0.400000 0.000000
v -0.100000 0.300000 0.000000
v 0.100000 0.300000 0.000000
v -0.200000 0.500000 -0.100000
v -0.300000 0.500000 -0.100000
v -0.300000 0.500000 0.000000
v -0.200000 0.500000 0.000000
v -0.200000 0.300000 0.100000
v -0.100000 0.300000 0.100000
v -0.200000 0.200000 0.100000
v 0.100000 0.300000 0.100000
v 0.200000 0.200000 0.100000
v 0.200000 0.300000 0.100000
v -0.200000 0.700000 -0.100000
v -0.200000 0.700000 0.000000
v -0.300000 0.700000 -0.100000
v -0.300000 0.700000 0.000000
v -0.300000 0.900000 -0.100000
v -0.300000 0.900000 0.000000
v -0.400000 0.900000 -0.100000
v -0.400000 0.900000 0.000000
v -0.200000 1.100000 -0.100000
v -0.200000 1.100000 0.000000
v -0.100000 1.100000 -0.100000
v -0.300000 1.200000 -0.100000
v -0.300000 1.200000 0.000000
v -0.200000 1.200000 -0.100000
v -0.200000 1.200000 0.000000
v -0.300000 1.300000 -0.100000
v -0.300000 1.300000 0.000000
v -0.400000 1.300000 -0.100000
v -0.400000 1.300000 0.000000
v -0.100000 1.500000 0.000000
v 0.100000 1.600000 -0.100000
v 0.100000 1.700000 -0.100000
v 0.100000 1.700000 0.000000
v 0.100000 1.600000 0.000000
v 0.200000 1.600000 0.000000
v 0.200000 1.600000 -0.100000
v 0.200000 1.700000 -0.100000
v 0.200000 1.700000 0.000000
v -0.100000 1.700000 -0.100000
v -0.100000 1.800000 -0.100000
v -0.200000 1.800000 -0.100000
v -0.200000 1.700000 -0.100000
v -0.200000 1.800000 0.000000
v -0.100000 1.800000 0.000000
v -0.200000 1.700000 0.000000
v -0.100000 1.700000 0.000000
v 0.100000 1.800000 -0.100000
v 0.100000 1.900000 -0.100000
v 0.100000 1.900000 0.000000
v 0.100000 1.800000 0.000000
v 0.200000 1.800000 0.000000
v 0.200000 1.800000 -0.100000
v 0.200000 1.900000 -0.100000
v 0.200000 1.900000 0.000000
v -0.100000 2.000000 -0.100000
v -0.100000 2.000000 0.000000
v 0.300000 0.500000 -0.100000
v 0.300000 0.500000 0.000000
v 0.400000 0.500000 -0.100000
v 0.400000 0.500000 0.000000
v 0.200000 0.600000 -0.100000
v 0.200000 0.600000 0.000000
v 0.300000 0.600000 -0.100000
v 0.300000 0.600000 0.000000
v 0.200000 0.800000 -0.100000
v 0.200000 0.800000 0.000000
v 0.300000 0.800000 0.000000
v 0.300000 0.800000 -0.100000
v 0.300000 0.900000 -0.100000
v 0.300000 0.900000 0.000000
v 0.100000 1.000000 -0.100000
v 0.200000 1.000000 -0.100000
v 0.200000 1.000000 0.000000
v 0.400000 0.900000 0.000000
v 0.400000 0.900000 -0.100000
v 0.300000 1.100000 -0.100000
v 0.200000 1.100000 -0.100000
v 0.200000 1.100000 0.000000
v 0.300000 1.100000 0.000000
v 0.400000 1.200000 -0.100000
v 0.400000 1.200000 0.000000
v 0.300000 1.200000 -0.100000
v 0.300000 1.200000 0.000000
v -0.100000 1.500000 0.100000
v 0.100000 1.500000 0.000000
v 0.100000 1.500000 0.100000
v 0.100000 2.000000 -0.100000
v 0.100000 2.000000 0.000000
vn -0.0000 -0.0000 1.0000
vn -0.0000 1.0000 -0.0000
vn 1.0000 -0.0000 -0.0000
vn -1.0000 -0.0000 -0.0000
vn -0.0000 -1.0000 -0.0000
vn -0.0000 -0.0000 -1.0000
vn 0.9999 -0.0125 -0.0000
vn -0.9999 -0.0125 -0.0000
vt 0.636364 0.303030
vt 0.606061 0.333333
vt 0.484848 0.333333
vt 0.363636 0.878788
vt 0.333333 0.909091
vt 0.333333 0.878788
vt 0.242424 0.545455
vt 0.212121 0.454545
vt 0.242424 0.454545
vt 0.545455 0.909091
vt 0.575758 0.878788
vt 0.545455 0.878788
vt 0.878788 0.030303
vt 0.848485 0.000000
vt 0.939394 0.030303
vt 0.303030 0.575758
vt 0.181818 0.545455
vt 0.181818 0.575758
vt 0.606061 0.878788
vt 0.575758 0.909091
vt 0.787879 0.424242
vt 0.818182 0.363636
vt 0.787879 0.363636
vt 0.303030 0.727273
vt 0.333333 0.696970
vt 0.303030 0.696970
vt 0.818182 0.424242
vt 0.787879 0.454545
vt 0.666667 0.848485
vt 0.696970 0.878788
vt 0.666667 0.878788
vt 0.030303 0.878788
vt 0.000000 0.909091
vt 0.000000 0.878788
vt 0.757576 0.333333
vt 0.696970 0.363636
vt 0.696970 0.333333
vt 0.484848 0.757576
vt 0.484848 0.696970
vt 0.515152 0.666667
vt 0.727273 0.303030
vt 0.636364 0.272727
vt 0.424242 0.727273
vt 0.393939 0.696970
vt 0.393939 0.727273
vt 0.515152 0.909091
vt 0.515152 0.878788
vt 0.696970 0.787879
vt 0.666667 0.818182
vt 0.666667 0.787879
vt 0.545455 0.272727
vt 0.545455 0.000000
vt 0.545455 0.151515
vt 0.515152 0.212121
vt 0.545455 0.121212
vt 0.060606 0.515152
vt 0.030303 0.545455
vt 0.030303 0.515152
vt 0.878788 0.878788
vt 0.848485 0.909091
vt 0.848485 0.878788
vt 0.848485 0.333333
vt 0.818182 0.333333
vt 0.000000 0.575758
vt 0.030303 0.454545
vt 0.000000 0.454545
vt 0.848485 0.424242
vt 0.818182 0.454545
vt 0.848485 0.272727
vt 0.818182 0.303030
vt 0.818182 0.272727
vt 0.484848 0.303030
vt 0.545455 0.212121
vt 0.484848 0.212121
vt 0.727273 0.787879
vt 0.696970 0.818182
vt 0.272727 0.848485
vt 0.000000 0.848485
vt 0.242424 0.696970
vt 0.060606 0.696970
vt 0.181818 0.787879
vt 0.060606 0.727273
vt 0.242424 0.727273
vt 0.393939 0.878788
vt 0.363636 0.909091
vt 0.363636 0.787879
vt 0.363636 0.727273
vt 0.878788 0.848485
vt 0.848485 0.848485
vt 0.363636 0.757576
vt 0.303030 0.787879
vt 0.303030 0.757576
vt 0.333333 0.727273
vt 0.333333 0.333333
vt 0.303030 0.848485
vt 0.272727 0.878788
vt 0.363636 0.030303
vt 0.424242 0.030303
vt 0.454545 0.787879
vt 0.454545 0.757576
vt 0.424242 0.757576
vt 0.454545 0.666667
vt 0.424242 0.666667
vt 0.666667 0.909091
vt 0.606061 0.727273
vt 0.606061 0.757576
vt 0.545455 0.757576
vt 0.909091 0.727273
vt 0.878788 0.393939
vt 0.909091 0.696970
vt 0.787879 0.909091
vt 0.818182 0.878788
vt 0.787879 0.878788
vt 0.909091 0.848485
vt 0.787879 0.333333
vt 0.787879 0.272727
vt 0.848485 0.787879
vt 0.818182 0.848485
vt 0.818182 0.484848
vt 0.303030 0.303030
vt 0.333333 0.242424
vt 0.303030 0.242424
vt 0.818182 0.909091
vt 0.272727 0.424242
vt 0.272727 0.363636
vt 0.242424 0.121212
vt 0.848485 0.303030
vt 0.636364 0.878788
vt 0.606061 0.909091
vt 0.878788 0.818182
vt 0.848485 0.818182
vt 0.454545 0.878788
vt 0.424242 0.909091
vt 0.424242 0.878788
vt 0.696970 0.848485
vt 0.727273 0.818182
vt 0.757576 0.303030
vt 0.666667 0.333333
vt 0.666667 0.303030
vt 0.303030 0.878788
vt 0.575758 0.848485
vt 0.757576 0.272727
vt 0.818182 0.393939
vt 0.848485 0.363636
vt 0.636364 0.909091
vt 0.909091 0.878788
vt 0.878788 0.909091
vt 0.090909 0.363636
vt 0.151515 0.393939
vt 0.151515 0.363636
vt 0.636364 0.787879
vt 0.606061 0.818182
vt 0.303030 0.818182
vt 0.393939 0.787879
vt 0.393939 0.757576
vt 0.393939 0.909091
vt 0.454545 0.909091
vt 0.484848 0.878788
vt 0.666667 0.636364
vt 0.636364 0.666667
vt 0.636364 0.636364
vt 0.303030 0.909091
vt 0.666667 0.424242
vt 0.696970 0.424242
vt 0.727273 0.848485
vt 0.848485 0.393939
vt 0.757576 0.666667
vt 0.727273 0.727273
vt 0.666667 0.757576
vt 0.666667 0.727273
vt 0.636364 0.848485
vt 0.757576 0.848485
vt 0.757576 0.878788
vt 0.878788 0.333333
vt 0.727273 0.909091
vt 0.727273 0.878788
vt 0.696970 0.909091
vt 0.606061 0.848485
vt 0.454545 0.333333
vt 0.454545 0.303030
vt 0.636364 0.333333
vt 0.424242 0.393939
vt 0.424242 0.333333
vt 0.484848 0.424242
vt 0.454545 0.424242
vt 0.454545 0.393939
vt 0.636364 0.424242
vt 0.636364 0.454545
vt 0.606061 0.454545
vt 0.606061 0.515152
vt 0.636364 0.515152
vt 0.636364 0.545455
vt 0.454545 0.545455
vt 0.454545 0.484848
vt 0.484848 0.484848
vt 0.424242 0.545455
vt 0.454545 0.636364
vt 0.484848 0.606061
vt 0.484848 0.636364
vt 0.515152 0.363636
vt 0.515152 0.606061
vt 0.575758 0.575758
vt 0.575758 0.363636
vt 0.606061 0.363636
vt 0.636364 0.606061
vt 0.606061 0.606061
vt 0.606061 0.575758
vt 0.484848 0.363636
vt 0.666667 0.545455
vt 0.212121 0.545455
vt 0.939394 0.393939
vt 0.848485 0.030303
vt 0.969697 0.000000
vt 0.969697 0.030303
vt 0.303030 0.545455
vt 0.030303 0.909091
vt 0.757576 0.363636
vt 0.515152 0.757576
vt 0.484848 0.666667
vt 0.727273 0.272727
vt 0.424242 0.696970
vt 0.515152 0.121212
vt 0.060606 0.545455
vt 0.030303 0.575758
vt 0.848485 0.454545
vt 0.545455 0.303030
vt 0.181818 0.848485
vt 0.121212 0.787879
vt 0.121212 0.848485
vt 0.393939 0.333333
vt 0.242424 0.000000
vt 0.242424 0.030303
vt 0.363636 0.333333
vt 0.545455 0.030303
vt 0.484848 0.787879
vt 0.515152 0.727273
vt 0.545455 0.727273
vt 0.545455 0.666667
vt 0.606061 0.666667
vt 0.545455 0.818182
vt 0.636364 0.757576
vt 0.606061 0.787879
vt 0.606061 0.696970
vt 0.636364 0.696970
vt 0.636364 0.727273
vt 0.939394 0.727273
vt 0.939394 0.787879
vt 0.909091 0.787879
vt 0.909091 0.757576
vt 0.878788 0.757576
vt 0.909091 0.393939
vt 0.909091 0.606061
vt 0.939394 0.606061
vt 0.939394 0.696970
vt 0.878788 0.484848
vt 0.878788 0.787879
vt 0.333333 0.303030
vt 0.242424 0.484848
vt 0.272727 0.484848
vt 0.272727 0.545455
vt 0.303030 0.454545
vt 0.272727 0.454545
vt 0.303030 0.424242
vt 0.303030 0.363636
vt 0.272727 0.121212
vt 0.909091 0.909091
vt 0.030303 0.333333
vt 0.060606 0.333333
vt 0.060606 0.303030
vt 0.000000 0.363636
vt 0.030303 0.363636
vt 0.030303 0.242424
vt 0.000000 0.242424
vt 0.060606 0.181818
vt 0.030303 0.181818
vt 0.030303 0.090909
vt 0.030303 0.121212
vt 0.060606 0.121212
vt 0.090909 0.303030
vt 0.000000 0.030303
vt 0.000000 0.090909
vt 0.212121 0.000000
vt 0.030303 0.000000
vt 0.030303 0.030303
vt 0.212121 0.030303
vt 0.212121 0.121212
vt 0.181818 0.151515
vt 0.212121 0.151515
vt 0.212121 0.242424
vt 0.212121 0.212121
vt 0.181818 0.212121
vt 0.242424 0.333333
vt 0.242424 0.242424
vt 0.212121 0.303030
vt 0.212121 0.333333
vt 0.181818 0.272727
vt 0.181818 0.303030
vt 0.090909 0.484848
vt 0.060606 0.484848
vt 0.090909 0.515152
vt 0.090909 0.575758
vt 0.151515 0.575758
vt 0.151515 0.545455
vt 0.181818 0.515152
vt 0.090909 0.393939
vt 0.151515 0.515152
vt 0.151515 0.484848
vt 0.181818 0.484848
vt 0.181818 0.454545
vt 0.151515 0.454545
vt 0.151515 0.272727
vt 0.484848 0.909091
vt 0.666667 0.666667
vt 0.727273 0.757576
vt 0.757576 0.757576
vt 0.787879 0.666667
vt 0.727273 0.363636
vt 0.878788 0.363636
vt 0.757576 0.909091
s 0
usemtl Figure_Gitar_4_Material
f 6/1/1 48/2/1 47/3/1
f 126/4/2 123/5/2 124/6/2
f 142/7/3 136/8/3 137/9/3
f 140/10/4 134/11/4 135/12/4
f 68/13/1 69/14/1 70/15/1
f 48/16/5 69/17/5 47/18/5
f 89/19/2 90/20/2 91/11/2
f 78/21/4 75/22/4 76/23/4
f 38/24/6 25/25/6 39/26/6
f 81/27/3 87/28/3 82/21/3
f 71/29/3 54/30/3 72/31/3
f 94/32/3 112/33/3 95/34/3
f 20/35/2 21/36/2 19/37/2
f 42/38/2 35/39/2 33/40/2
f 38/41/4 30/42/4 27/1/4
f 41/43/6 26/44/6 42/45/6
f 141/12/2 139/46/2 140/47/2
f 114/48/3 116/49/3 113/50/3
f 12/51/5 3/14/5 2/52/5
f 28/53/2 38/54/2 29/55/2
f 23/56/1 27/57/1 30/58/1
f 98/59/3 100/60/3 97/61/3
f 8/62/3 50/22/3 6/63/3
f 91/64/4 79/65/4 80/66/4
f 60/67/2 58/68/2 59/27/2
f 66/69/2 64/70/2 65/71/2
f 43/72/6 20/73/6 19/74/6
f 110/75/3 150/76/3 111/48/3
f 15/77/3 4/34/3 3/78/3
f 1/64/2 6/79/2 5/80/2
f 10/81/2 7/82/2 8/83/2
f 130/84/3 132/85/3 129/4/3
f 74/86/4 63/45/4 66/87/4
f 79/61/5 78/88/5 80/89/5
f 148/90/2 92/91/2 146/92/2
f 37/93/1 9/94/1 26/44/1
f 17/95/2 81/96/2 82/77/2
f 13/97/6 14/98/6 15/52/6
f 105/99/4 104/38/4 107/100/4
f 26/101/5 32/102/5 24/103/5
f 106/30/2 103/104/2 105/31/2
f 95/105/1 112/106/1 106/107/1
f 34/108/3 70/109/3 24/110/3
f 109/111/5 113/112/5 112/113/5
f 143/114/2 144/59/2 145/88/2
f 118/115/4 102/71/4 106/116/4
f 20/117/3 26/118/3 10/119/3
f 59/120/4 51/121/4 52/122/4
f 122/61/2 119/123/2 120/112/2
f 23/124/4 17/125/4 68/126/4
f 65/63/4 57/127/4 60/70/4
f 100/128/2 94/129/2 95/19/2
f 87/130/2 84/89/2 85/131/2
f 135/132/2 133/133/2 18/134/2
f 46/135/4 7/136/4 5/76/4
f 40/137/3 33/138/3 32/139/3
f 1/140/4 12/141/4 2/95/4
f 121/23/3 55/142/3 56/116/3
f 51/143/5 46/144/5 52/22/5
f 145/29/4 138/76/4 141/49/4
f 93/145/5 97/31/5 96/128/5
f 84/146/3 89/147/3 85/59/3
f 31/148/6 35/149/6 36/150/6
f 127/29/3 124/151/3 123/50/3
f 3/152/1 1/95/1 2/153/1
f 150/100/2 117/154/2 118/155/2
f 127/156/5 129/134/5 128/84/5
f 131/157/5 136/158/5 132/132/5
f 32/159/1 34/160/1 24/161/1
f 119/6/3 126/162/3 120/140/3
f 23/37/5 39/163/5 25/164/5
f 72/165/2 62/30/2 70/135/2
f 49/27/5 55/166/5 50/143/5
f 19/167/4 13/23/4 25/168/4
f 25/168/3 28/169/3 31/170/3
f 69/171/4 53/31/4 47/29/4
f 42/87/2 43/92/2 37/24/2
f 42/112/4 36/172/4 35/173/4
f 75/144/5 74/174/5 76/62/5
f 116/173/2 110/175/2 111/176/2
f 104/177/5 108/176/5 107/30/5
f 68/171/2 53/19/2 67/178/2
f 46/179/1 5/180/1 6/1/1
f 50/181/1 55/138/1 122/163/1
f 59/182/1 52/183/1 46/179/1
f 66/184/1 65/185/1 60/186/1
f 60/186/1 59/182/1 46/179/1
f 50/181/1 122/163/1 120/187/1
f 120/187/1 126/188/1 124/189/1
f 128/190/1 129/191/1 132/192/1
f 50/181/1 120/187/1 124/189/1
f 6/1/1 50/181/1 124/189/1
f 66/184/1 60/186/1 46/179/1
f 78/193/1 76/194/1 74/195/1
f 91/103/1 80/196/1 78/193/1
f 85/197/1 89/102/1 91/103/1
f 82/198/1 87/199/1 85/197/1
f 61/200/1 17/201/1 82/198/1
f 61/200/1 82/198/1 85/197/1
f 85/197/1 91/103/1 78/193/1
f 85/197/1 78/193/1 74/195/1
f 18/202/1 62/203/1 54/204/1
f 141/205/1 140/206/1 135/207/1
f 61/200/1 85/197/1 74/195/1
f 61/200/1 74/195/1 66/184/1
f 53/208/1 61/200/1 66/184/1
f 132/192/1 136/209/1 143/159/1
f 143/159/1 145/161/1 141/205/1
f 132/192/1 143/159/1 141/205/1
f 128/190/1 132/192/1 141/205/1
f 128/190/1 141/205/1 135/207/1
f 128/190/1 135/207/1 18/202/1
f 124/189/1 128/190/1 18/202/1
f 53/208/1 66/184/1 46/179/1
f 47/3/1 53/208/1 46/179/1
f 6/1/1 124/189/1 18/202/1
f 6/1/1 18/202/1 54/204/1
f 47/3/1 46/179/1 6/1/1
f 6/1/1 54/204/1 48/2/1
f 126/4/2 125/85/2 123/5/2
f 142/7/3 143/210/3 136/8/3
f 140/10/4 139/20/4 134/11/4
f 148/211/1 146/109/1 68/13/1
f 68/13/1 67/212/1 69/14/1
f 69/14/1 71/213/1 72/214/1
f 70/15/1 148/211/1 68/13/1
f 69/14/1 72/214/1 70/15/1
f 48/16/5 71/215/5 69/17/5
f 89/19/2 88/129/2 90/20/2
f 78/21/4 77/27/4 75/22/4
f 38/24/6 37/93/6 25/25/6
f 81/27/3 86/68/3 87/28/3
f 71/29/3 48/135/3 54/30/3
f 94/32/3 109/216/3 112/33/3
f 20/35/2 22/217/2 21/36/2
f 33/40/2 41/218/2 42/38/2
f 35/39/2 34/219/2 33/40/2
f 38/41/4 39/220/4 30/42/4
f 41/43/6 40/221/6 26/44/6
f 141/12/2 138/10/2 139/46/2
f 114/48/3 115/76/3 116/49/3
f 12/51/5 15/69/5 3/14/5
f 28/53/2 37/73/2 38/54/2
f 38/54/2 27/222/2 29/55/2
f 23/56/1 29/223/1 27/57/1
f 98/59/3 99/147/3 100/60/3
f 8/62/3 49/144/3 50/22/3
f 91/64/4 90/224/4 79/65/4
f 60/67/2 57/225/2 58/68/2
f 66/69/2 63/127/2 64/70/2
f 43/72/6 44/226/6 20/73/6
f 110/75/3 149/136/3 150/76/3
f 15/77/3 16/96/3 4/34/3
f 1/64/2 4/16/2 6/79/2
f 5/80/2 11/78/2 1/64/2
f 6/79/2 4/16/2 16/95/2
f 16/95/2 14/227/2 10/81/2
f 9/228/2 13/229/2 11/78/2
f 11/78/2 5/80/2 7/82/2
f 8/83/2 6/79/2 16/95/2
f 9/228/2 11/78/2 7/82/2
f 8/83/2 16/95/2 10/81/2
f 10/81/2 9/228/2 7/82/2
f 130/84/3 131/156/3 132/85/3
f 74/86/4 73/154/4 63/45/4
f 79/61/5 77/59/5 78/88/5
f 148/90/2 147/86/2 92/91/2
f 26/44/1 42/45/1 37/93/1
f 37/93/1 25/25/1 9/94/1
f 9/94/1 10/230/1 26/44/1
f 17/95/2 83/140/2 81/96/2
f 15/52/6 12/231/6 11/232/6
f 13/97/6 21/233/6 22/183/6
f 15/52/6 11/232/6 13/97/6
f 14/98/6 16/234/6 15/52/6
f 13/97/6 22/183/6 14/98/6
f 105/99/4 103/235/4 104/38/4
f 24/103/7 36/221/7 26/101/7
f 26/101/5 40/100/5 32/102/5
f 106/30/2 102/177/2 103/104/2
f 106/107/1 105/218/1 107/236/1
f 108/237/1 92/238/1 147/239/1
f 106/107/1 107/236/1 108/237/1
f 150/152/1 118/240/1 106/107/1
f 113/241/1 116/151/1 111/242/1
f 111/242/1 150/152/1 106/107/1
f 106/107/1 108/237/1 147/239/1
f 96/243/1 97/244/1 100/245/1
f 106/107/1 147/239/1 96/243/1
f 112/106/1 113/241/1 111/242/1
f 96/243/1 100/245/1 95/105/1
f 112/106/1 111/242/1 106/107/1
f 106/107/1 96/243/1 95/105/1
f 34/108/3 35/246/3 93/247/3
f 93/247/3 96/248/3 147/249/3
f 147/249/3 148/250/3 70/109/3
f 70/109/3 62/251/3 18/252/3
f 18/252/3 133/253/3 36/254/3
f 18/252/3 36/254/3 24/110/3
f 34/108/3 93/247/3 147/249/3
f 70/109/3 18/252/3 24/110/3
f 34/108/3 147/249/3 70/109/3
f 109/111/5 114/123/5 113/112/5
f 143/114/2 142/146/2 144/59/2
f 118/115/4 117/63/4 102/71/4
f 10/119/3 14/255/3 22/256/3
f 20/117/3 44/61/3 42/112/3
f 10/119/3 22/256/3 20/117/3
f 20/117/3 42/112/3 26/118/3
f 59/120/4 58/257/4 51/121/4
f 122/61/2 121/60/2 119/123/2
f 68/126/4 146/258/4 92/259/4
f 92/259/4 108/260/4 101/215/4
f 101/215/4 28/261/4 29/262/4
f 23/124/4 31/263/4 83/264/4
f 92/259/4 101/215/4 29/262/4
f 23/124/4 83/264/4 17/125/4
f 68/126/4 92/259/4 29/262/4
f 68/126/4 29/262/4 23/124/4
f 17/125/4 61/265/4 68/126/4
f 65/63/4 64/62/4 57/127/4
f 100/128/2 99/145/2 94/129/2
f 87/130/2 86/88/2 84/89/2
f 135/132/2 134/157/2 133/133/2
f 46/135/4 45/165/4 7/136/4
f 40/137/3 41/35/3 33/138/3
f 1/140/4 11/11/4 12/141/4
f 121/23/3 122/217/3 55/142/3
f 51/143/5 45/166/5 46/144/5
f 145/29/4 144/135/4 138/76/4
f 93/145/5 98/104/5 97/31/5
f 84/146/3 88/266/3 89/147/3
f 84/267/6 86/268/6 81/269/6
f 90/270/6 88/271/6 84/267/6
f 77/272/6 79/273/6 90/270/6
f 73/274/6 75/275/6 77/272/6
f 57/276/6 64/277/6 63/278/6
f 73/274/6 77/272/6 90/270/6
f 73/274/6 90/270/6 84/267/6
f 73/274/6 84/267/6 81/269/6
f 73/274/6 81/269/6 83/279/6
f 63/278/6 73/274/6 83/279/6
f 51/280/6 58/281/6 57/276/6
f 51/280/6 57/276/6 63/278/6
f 8/282/6 7/283/6 45/284/6
f 45/284/6 51/280/6 63/278/6
f 8/282/6 45/284/6 63/278/6
f 121/126/6 56/232/6 49/285/6
f 49/285/6 8/282/6 63/278/6
f 49/285/6 63/278/6 83/279/6
f 119/286/6 121/126/6 49/285/6
f 123/287/6 125/288/6 119/286/6
f 131/289/6 130/290/6 127/291/6
f 123/287/6 119/286/6 49/285/6
f 123/287/6 49/285/6 83/279/6
f 123/287/6 83/279/6 31/148/6
f 127/291/6 123/287/6 31/148/6
f 142/292/6 137/293/6 131/289/6
f 138/294/6 144/295/6 142/292/6
f 134/296/6 139/297/6 138/294/6
f 138/294/6 142/292/6 131/289/6
f 101/298/6 104/299/6 103/56/6
f 102/300/6 117/301/6 149/302/6
f 101/298/6 103/56/6 102/300/6
f 101/298/6 102/300/6 149/302/6
f 110/303/6 115/17/6 114/304/6
f 101/298/6 149/302/6 110/303/6
f 28/305/6 101/298/6 110/303/6
f 110/303/6 114/304/6 109/306/6
f 94/307/6 99/308/6 98/309/6
f 28/305/6 110/303/6 109/306/6
f 94/307/6 98/309/6 93/310/6
f 28/305/6 109/306/6 94/307/6
f 138/294/6 131/289/6 127/291/6
f 134/296/6 138/294/6 127/291/6
f 31/148/6 28/305/6 94/307/6
f 31/148/6 94/307/6 93/310/6
f 133/311/6 134/296/6 127/291/6
f 133/311/6 127/291/6 31/148/6
f 31/148/6 93/310/6 35/149/6
f 36/150/6 133/311/6 31/148/6
f 127/29/3 128/171/3 124/151/3
f 3/152/1 4/178/1 1/95/1
f 150/100/2 149/99/2 117/154/2
f 127/156/5 130/133/5 129/134/5
f 131/157/5 137/312/5 136/158/5
f 32/159/1 33/313/1 34/160/1
f 119/6/3 125/5/3 126/162/3
f 25/164/8 31/36/8 23/37/8
f 23/37/5 30/138/5 39/163/5
f 72/165/2 54/176/2 62/30/2
f 49/27/5 56/67/5 55/166/5
f 37/314/4 43/315/4 19/167/4
f 19/167/4 21/316/4 13/23/4
f 13/23/4 9/317/4 25/168/4
f 25/168/4 37/314/4 19/167/4
f 25/168/3 37/314/3 28/169/3
f 69/171/4 67/128/4 53/31/4
f 42/87/2 44/90/2 43/92/2
f 42/112/4 26/118/4 36/172/4
f 75/144/5 73/318/5 74/174/5
f 116/173/2 115/319/2 110/175/2
f 104/177/5 101/175/5 108/176/5
f 68/171/2 61/128/2 53/19/2
