# Blender 5.0.1
# www.blender.org
mtllib door-wall_2.mtl
o door-wall_2
v -2.000000 -0.000001 1.700000
v 2.000000 -0.000001 1.700000
v -2.000000 -0.000001 1.000000
v 2.000000 -0.000001 1.000000
v -1.100000 0.299998 1.600000
v -1.000000 0.399998 1.600000
v 0.900000 0.399998 1.600000
v 1.000000 0.299998 1.600000
v -1.000000 2.500000 1.600000
v 0.900000 2.500000 1.600000
v -1.100000 2.599999 1.600000
v 1.000000 2.599999 1.600000
v -1.100000 2.799999 1.600000
v -1.000000 2.900000 1.600000
v 0.900000 2.900000 1.600000
v 1.000000 2.799999 1.600000
v -1.000000 3.500000 1.600000
v 0.900000 3.500000 1.600000
v -1.100000 3.600000 1.600000
v 1.000000 3.600000 1.600000
v -1.100000 3.800000 1.600000
v -1.000000 3.900000 1.600000
v 0.900000 3.900000 1.600000
v 1.000000 3.800000 1.600000
v -1.000000 6.200000 1.600000
v 0.900000 6.200000 1.600000
v -1.100000 6.300000 1.600000
v 1.000000 6.300000 1.600000
v -1.100000 0.299999 1.700000
v 1.000000 0.299999 1.700000
v -1.000000 0.399999 1.700000
v 0.900000 0.399999 1.700000
v -1.000000 2.500000 1.700000
v 0.900000 2.500000 1.700000
v -1.100000 2.599999 1.700000
v 1.000000 2.599999 1.700000
v -1.100000 2.799999 1.700000
v 1.000000 2.799999 1.700000
v -1.000000 2.900000 1.700000
v 0.900000 2.900000 1.700000
v 1.100000 3.000000 1.700000
v 1.200000 3.000000 1.700000
v 1.100000 3.099999 1.700000
v 1.200000 3.099999 1.700000
v 1.100000 3.300000 1.700000
v 1.200000 3.300000 1.700000
v -1.000000 3.500000 1.700000
v 0.900000 3.500000 1.700000
v 1.100000 3.500000 1.700000
v 1.200000 3.500000 1.700000
v -1.100000 3.599999 1.700000
v 1.000000 3.599999 1.700000
v -1.100000 3.800000 1.700000
v 1.000000 3.800000 1.700000
v -1.000000 3.900000 1.700000
v 0.900000 3.900000 1.700000
v -1.000000 6.200000 1.700000
v 0.900000 6.200000 1.700000
v -1.100000 6.300000 1.700000
v 1.000000 6.300000 1.700000
v -2.000000 10.000001 1.700000
v 2.000000 10.000001 1.700000
v -2.000000 10.000001 1.000000
v 2.000000 10.000001 1.000000
v 1.100000 3.000000 1.600000
v 1.200000 3.000000 1.600000
v 1.100000 3.099999 1.600000
v 1.200000 3.099999 1.600000
v 0.900000 3.400000 1.900000
v 0.900000 3.299999 1.900000
v 0.900000 3.299999 2.000000
v 0.900000 3.400000 2.000000
v 1.100000 3.300000 1.900000
v 1.200000 3.299999 2.000000
v 0.700000 3.500000 1.900000
v 0.700000 3.400000 1.900000
v 0.700000 3.500000 2.000000
v 0.700000 3.400000 2.000000
v 1.100000 3.500000 1.900000
v 1.200000 3.500000 2.000000
vn -0.0000 -1.0000 -0.0000
vn -1.0000 -0.0000 -0.0000
vn -0.0000 -0.0000 1.0000
vn -0.0000 1.0000 -0.0000
vn -0.0000 -0.0000 -1.0000
vn 1.0000 -0.0000 -0.0000
vt 0.887931 0.931035
vt 0.706897 0.939655
vt 0.887931 0.939655
vt 0.750000 0.000000
vt 0.689655 0.862069
vt 0.750000 0.862069
vt 0.818965 0.405172
vt 0.810345 0.413793
vt 0.810345 0.215517
vt 0.689655 0.922414
vt 0.344828 0.862069
vt 0.862069 0.922414
vt 0.870690 0.931035
vt 0.689655 0.931035
vt 0.689655 0.000000
vt 0.344828 0.000000
vt 0.258621 0.241379
vt 0.267241 0.258621
vt 0.267241 0.267241
vt 0.827586 0.862069
vt 0.836207 0.853448
vt 0.827586 0.853448
vt 0.827586 0.844828
vt 0.810345 0.853448
vt 0.844828 0.853448
vt 0.982759 0.629310
vt 0.974138 0.413793
vt 0.982759 0.413793
vt 0.870690 0.853448
vt 0.844828 0.836207
vt 0.870690 0.836207
vt 0.000000 0.922414
vt 0.000000 0.862069
vt 0.965517 0.991379
vt 0.956897 0.793103
vt 0.965517 0.793103
vt 0.818965 0.206897
vt 0.818965 0.008621
vt 0.525862 0.931035
vt 0.896552 0.844828
vt 0.905172 0.793103
vt 0.896552 0.793103
vt 0.163793 0.974138
vt 0.000000 0.974138
vt 0.879310 0.827586
vt 0.870690 0.827586
vt 0.258621 0.025862
vt 0.000000 0.000000
vt 0.879310 0.818965
vt 0.870690 0.818965
vt 0.327586 0.956897
vt 0.163793 0.948276
vt 0.327586 0.948276
vt 0.258621 0.310345
vt 0.258621 0.327586
vt 0.827586 0.827586
vt 0.853448 0.818965
vt 0.853448 0.836207
vt 0.948276 0.793103
vt 0.956897 0.974138
vt 0.991379 0.215517
vt 0.982759 0.405172
vt 0.982759 0.224138
vt 0.974138 0.612069
vt 0.810345 0.793103
vt 0.810345 0.612069
vt 0.344828 0.922414
vt 0.344828 0.931035
vt 0.818965 0.853448
vt 0.810345 0.862069
vt 0.991379 0.612069
vt 0.982759 0.612069
vt 0.818965 0.862069
vt 0.853448 0.793103
vt 0.844828 0.818965
vt 0.844828 0.801724
vt 0.344828 0.939655
vt 0.870690 0.844828
vt 0.879310 0.836207
vt 0.818965 0.939655
vt 0.655172 0.948276
vt 0.818965 0.948276
vt 0.896552 0.870690
vt 0.879310 0.862069
vt 0.879310 0.870690
vt 0.491379 0.939655
vt 0.491379 0.948276
vt 0.974138 0.991379
vt 0.077586 0.241379
vt 0.077586 0.310345
vt 0.163793 0.931035
vt 0.810345 0.000000
vt 0.974138 0.844828
vt 0.974138 0.629310
vt 0.887931 0.793103
vt 0.879310 0.793103
vt 0.905172 0.844828
vt 0.896552 0.896552
vt 0.991379 0.810345
vt 0.982759 0.008621
vt 0.991379 0.000000
vt 0.327586 0.939655
vt 0.163793 0.939655
vt 0.948276 0.974138
vt 0.939655 0.793103
vt 0.836207 0.862069
vt 0.655172 0.939655
vt 0.525862 0.939655
vt 0.698276 0.870690
vt 0.870690 0.801724
vt 0.887931 0.862069
vt 0.706897 0.931035
vt 0.991379 0.413793
vt 0.818965 0.224138
vt 0.862069 0.870690
vt 0.275862 0.258621
vt 0.827586 0.836207
vt 0.810345 0.844828
vt 0.956897 0.991379
vt 0.525862 0.922414
vt 0.163793 0.922414
vt 0.267241 0.284483
vt 0.275862 0.267241
vt 0.275862 0.301724
vt 0.275862 0.284483
vt 0.258621 0.224138
vt 0.077586 0.025862
vt 0.077586 0.224138
vt 0.163793 0.956897
vt 0.267241 0.301724
vt 0.258621 0.543103
vt 0.077586 0.327586
vt 0.810345 0.836207
vt 0.810345 0.827586
vt 0.827586 0.818965
vt 0.974138 0.793103
vt 0.810345 0.801724
vt 0.879310 0.844828
vt 0.896552 0.862069
vt 0.077586 0.543103
vt 0.982759 0.844828
vt 0.905172 0.896552
vt 0.982759 0.810345
vt 0.982759 0.206897
vt 0.939655 0.974138
vt 0.844828 0.862069
vt 0.870690 0.862069
vt 0.698276 0.922414
vt 0.853448 0.801724
s 0
usemtl door-wall_2_Material
f 60/1/1 27/2/1 28/3/1
f 3/4/2 61/5/2 63/6/2
f 9/7/3 11/8/3 5/9/3
f 64/10/4 61/11/4 62/5/4
f 18/12/3 20/13/3 19/14/3
f 63/11/5 4/15/5 3/16/5
f 38/17/3 41/18/3 43/19/3
f 77/20/2 76/21/2 78/22/2
f 69/23/5 75/24/5 79/25/5
f 27/26/6 53/27/6 21/28/6
f 50/29/6 74/30/6 46/31/6
f 3/32/1 2/11/1 1/33/1
f 26/34/6 56/35/6 23/36/6
f 25/37/3 27/9/3 22/38/3
f 32/10/1 6/39/1 7/14/1
f 47/40/2 14/41/2 39/42/2
f 39/32/3 48/43/3 47/44/3
f 42/45/4 65/31/4 41/46/4
f 30/47/3 1/48/3 2/16/3
f 72/46/2 70/49/2 71/50/2
f 26/51/4 57/52/4 58/53/4
f 52/54/3 62/11/3 54/55/3
f 72/56/3 74/57/3 80/58/3
f 31/59/2 9/60/2 6/35/2
f 8/61/3 10/62/3 7/63/3
f 32/64/3 33/65/3 31/66/3
f 12/39/1 35/67/1 11/68/1
f 65/69/6 43/70/6 41/24/6
f 29/28/6 11/71/6 35/72/6
f 45/50/2 79/58/2 49/31/2
f 44/73/2 66/22/2 42/69/2
f 80/74/4 49/75/4 79/76/4
f 19/77/1 52/39/1 51/68/1
f 67/78/1 44/79/1 43/31/1
f 56/27/3 57/66/3 55/8/3
f 56/80/1 22/81/1 23/82/1
f 69/83/1 78/84/1 76/85/1
f 40/86/1 14/53/1 15/87/1
f 25/88/2 55/36/2 57/34/2
f 37/89/3 51/90/3 61/33/3
f 5/91/4 30/67/4 8/68/4
f 4/92/6 62/6/6 2/4/6
f 60/93/2 24/26/2 54/94/2
f 13/95/6 51/84/6 37/96/6
f 15/97/6 48/98/6 40/40/6
f 30/72/2 12/99/2 8/71/2
f 23/100/3 21/92/3 24/101/3
f 34/102/4 9/52/4 33/103/4
f 38/68/4 13/103/4 37/91/4
f 10/104/6 32/105/6 7/59/6
f 66/25/3 67/106/3 65/21/3
f 17/87/4 48/107/4 18/81/4
f 53/39/4 24/2/4 21/108/4
f 13/5/3 14/109/3 19/14/3
f 74/96/1 73/110/1 46/49/1
f 52/111/2 16/42/2 38/95/2
f 60/1/1 59/112/1 27/2/1
f 3/4/2 1/15/2 61/5/2
f 9/7/3 10/62/3 12/113/3
f 5/9/3 8/61/3 7/63/3
f 5/9/3 7/63/3 6/114/3
f 9/7/3 12/113/3 11/8/3
f 5/9/3 6/114/3 9/7/3
f 64/10/4 63/67/4 61/11/4
f 18/12/3 15/115/3 20/13/3
f 63/11/5 64/5/5 4/15/5
f 43/19/3 52/54/3 38/17/3
f 38/17/3 42/116/3 41/18/3
f 77/20/2 75/106/2 76/21/2
f 79/25/5 73/30/5 70/117/5
f 69/23/5 76/118/5 75/24/5
f 79/25/5 70/117/5 69/23/5
f 27/26/6 59/94/6 53/27/6
f 50/29/6 80/25/6 74/30/6
f 3/32/1 4/67/1 2/11/1
f 26/34/6 58/119/6 56/35/6
f 25/37/3 28/61/3 27/9/3
f 32/10/1 31/120/1 6/39/1
f 47/40/2 17/97/2 14/41/2
f 39/32/3 40/121/3 48/43/3
f 42/45/4 66/79/4 65/31/4
f 45/122/3 52/54/3 43/19/3
f 45/122/3 43/19/3 44/123/3
f 62/11/3 50/124/3 46/125/3
f 46/125/3 45/122/3 44/123/3
f 42/116/3 38/17/3 36/126/3
f 62/11/3 46/125/3 44/123/3
f 42/116/3 36/126/3 30/47/3
f 62/11/3 44/123/3 42/116/3
f 29/127/3 35/128/3 1/48/3
f 62/11/3 42/116/3 30/47/3
f 30/47/3 29/127/3 1/48/3
f 2/16/3 62/11/3 30/47/3
f 72/46/2 69/45/2 70/49/2
f 26/51/4 25/129/4 57/52/4
f 52/54/3 45/122/3 49/130/3
f 49/130/3 50/124/3 62/11/3
f 62/11/3 61/33/3 60/131/3
f 54/55/3 53/132/3 51/90/3
f 62/11/3 60/131/3 54/55/3
f 52/54/3 49/130/3 62/11/3
f 54/55/3 51/90/3 52/54/3
f 80/58/3 77/133/3 78/134/3
f 72/56/3 71/135/3 74/57/3
f 80/58/3 78/134/3 72/56/3
f 31/59/2 33/104/2 9/60/2
f 8/61/3 12/113/3 10/62/3
f 32/64/3 34/136/3 33/65/3
f 12/39/1 36/120/1 35/67/1
f 65/69/6 67/73/6 43/70/6
f 29/28/6 5/113/6 11/71/6
f 45/50/2 73/57/2 79/58/2
f 44/73/2 68/20/2 66/22/2
f 75/137/4 77/65/4 80/74/4
f 80/74/4 50/57/4 49/75/4
f 79/76/4 75/137/4 80/74/4
f 19/77/1 20/108/1 52/39/1
f 67/78/1 68/138/1 44/79/1
f 56/27/3 58/64/3 57/66/3
f 56/80/1 55/107/1 22/81/1
f 69/83/1 72/139/1 78/84/1
f 40/86/1 39/102/1 14/53/1
f 25/88/2 22/136/2 55/36/2
f 35/128/3 36/126/3 38/17/3
f 35/128/3 38/17/3 37/89/3
f 61/33/3 1/48/3 35/128/3
f 59/140/3 60/131/3 61/33/3
f 53/132/3 59/140/3 61/33/3
f 61/33/3 35/128/3 37/89/3
f 51/90/3 53/132/3 61/33/3
f 5/91/4 29/121/4 30/67/4
f 4/92/6 64/70/6 62/6/6
f 60/93/2 28/141/2 24/26/2
f 13/95/6 19/111/6 51/84/6
f 15/97/6 18/142/6 48/98/6
f 30/72/2 36/143/2 12/99/2
f 28/61/3 25/37/3 26/144/3
f 28/61/3 26/144/3 23/100/3
f 22/38/3 27/9/3 21/92/3
f 24/101/3 28/61/3 23/100/3
f 23/100/3 22/38/3 21/92/3
f 34/102/4 10/53/4 9/52/4
f 38/68/4 16/77/4 13/103/4
f 10/104/6 34/145/6 32/105/6
f 66/25/3 68/146/3 67/106/3
f 17/87/4 47/86/4 48/107/4
f 53/39/4 54/112/4 24/2/4
f 16/147/3 20/13/3 15/115/3
f 16/147/3 15/115/3 14/109/3
f 17/148/3 18/12/3 19/14/3
f 13/5/3 16/147/3 14/109/3
f 14/109/3 17/148/3 19/14/3
f 74/96/1 71/74/1 70/149/1
f 73/110/1 45/50/1 46/49/1
f 74/96/1 70/149/1 73/110/1
f 52/111/2 20/139/2 16/42/2
